<svg width="25" height="28" viewBox="0 0 25 28" fill="none" xmlns="http://www.w3.org/2000/svg">
<path d="M24.4542 5.75761L13.1301 1.01023C12.7801 0.866869 12.3944 0.866869 12.0444 1.01023L0.719775 5.75761C0.572462 5.81791 0.445521 5.92581 0.355907 6.06689C0.266293 6.20797 0.218274 6.37553 0.218262 6.54717L0.218262 8.49261C0.218262 8.95855 0.5642 9.33594 0.991308 9.33594H24.1827C24.6098 9.33594 24.9557 8.95855 24.9557 8.49261V6.54717C24.9557 6.19561 24.7557 5.88095 24.4542 5.75761ZM3.31045 11.0226V19.4558H2.5374C2.11029 19.4558 1.76435 19.8332 1.76435 20.2991V22.8291H23.4096V20.2991C23.4096 19.8332 23.0637 19.4558 22.6366 19.4558H21.8635V11.0226H18.7714V19.4558H14.1331V11.0226H11.0409V19.4558H6.40263V11.0226H3.31045ZM24.1827 24.5157H0.991308C0.5642 24.5157 0.218262 24.8931 0.218262 25.3591V27.0457C0.218262 27.5117 0.5642 27.889 0.991308 27.889H24.1827C24.6098 27.889 24.9557 27.5117 24.9557 27.0457V25.3591C24.9557 24.8931 24.6098 24.5157 24.1827 24.5157Z" fill="#6D6D6D"/>
</svg>
