<svg width="26" height="26" viewBox="0 0 26 26" fill="none" xmlns="http://www.w3.org/2000/svg">
<path d="M25.6667 9.03398C25.6667 13.8846 21.7345 17.8168 16.8839 17.8168C16.324 17.8168 15.7766 17.7638 15.2458 17.6636L14.0475 19.0117C13.9352 19.1381 13.7973 19.2393 13.643 19.3085C13.4887 19.3778 13.3215 19.4136 13.1524 19.4136H11.2948V21.4097C11.2948 22.0712 10.7586 22.6074 10.0972 22.6074H8.10109V24.6035C8.10109 25.2649 7.56489 25.8011 6.90343 25.8011H1.31436C0.652901 25.8011 0.116699 25.2649 0.116699 24.6035V20.7082C0.116699 20.3905 0.242902 20.0859 0.467463 19.8613L8.54178 11.7869C8.25619 10.9209 8.10109 9.9956 8.10109 9.03393C8.10109 4.18331 12.0333 0.251149 16.8839 0.251099C21.7488 0.251049 25.6667 4.16899 25.6667 9.03398ZM16.8839 6.63861C16.8839 7.96152 17.9563 9.03393 19.2792 9.03393C20.6021 9.03393 21.6746 7.96152 21.6746 6.63861C21.6746 5.3157 20.6021 4.24329 19.2792 4.24329C17.9563 4.24329 16.8839 5.3157 16.8839 6.63861Z" fill="#6D6D6D"/>
</svg>
