<svg width="23" height="31" viewBox="0 0 23 31" fill="none" xmlns="http://www.w3.org/2000/svg">
<path d="M7.60008 4.87714C7.60008 2.60389 9.44688 0.761108 11.7251 0.761108C14.0033 0.761108 15.8501 2.60389 15.8501 4.87714C15.8501 7.15033 14.0033 8.99317 11.7251 8.99317C9.44688 8.99317 7.60008 7.15033 7.60008 4.87714ZM22.1881 4.95563C21.4722 4.24121 20.3113 4.24121 19.5954 4.95563L14.6323 9.90784H8.81776L3.85475 4.95563C3.13884 4.24121 1.97799 4.24121 1.26208 4.95563C0.546104 5.67005 0.546104 6.82831 1.26208 7.54272L6.68342 12.9522V28.2013C6.68342 29.2116 7.50423 30.0307 8.51675 30.0307H9.43342C10.4459 30.0307 11.2667 29.2116 11.2667 28.2013V21.7986H12.1834V28.2013C12.1834 29.2116 13.0042 30.0307 14.0167 30.0307H14.9334C15.9459 30.0307 16.7667 29.2116 16.7667 28.2013V12.9522L22.1881 7.54267C22.9041 6.82825 22.9041 5.67005 22.1881 4.95563Z" fill="#6D6D6D"/>
</svg>
