<svg width="27" height="28" viewBox="0 0 27 28" fill="none" xmlns="http://www.w3.org/2000/svg">
<path d="M26.1742 23.0081L19.3642 16.1981H18.0922L14.8285 19.4618V20.7338L21.6385 27.5439C22.1396 28.045 22.9491 28.045 23.4502 27.5439L26.1742 24.8199C26.6754 24.3316 26.6754 23.5093 26.1742 23.0081Z" fill="#6D6D6D"/>
<path d="M20.6107 12.7545L22.4224 10.9428L25.1464 13.6668C26.6497 12.1634 26.6497 9.7221 25.1464 8.21875L20.5978 3.67017L18.7861 5.4819V1.85845L17.8866 0.946167L13.3381 5.49475L14.2504 6.40703H17.8866L16.0749 8.21875L17.4369 9.58076L13.7235 13.2941L8.41687 7.98747V6.1629L4.53644 2.28247L0.900146 5.91877L4.79342 9.81204H6.60514L11.9118 15.1187L10.8196 16.2109H8.09564L1.28562 23.0209C0.784505 23.522 0.784505 24.3315 1.28562 24.8326L4.00963 27.5566C4.51074 28.0578 5.32023 28.0578 5.82135 27.5566L12.6314 20.7466V18.0226L19.2487 11.4053L20.6107 12.7545Z" fill="#6D6D6D"/>
</svg>
