<svg width="27" height="18" viewBox="0 0 27 18" fill="none" xmlns="http://www.w3.org/2000/svg">
<path d="M25.76 1.61398C24.1845 1.01561 22.6078 0.787964 21.0319 0.787964C16.0292 0.787596 11.0268 3.08064 6.02413 3.08064C4.76949 3.08064 3.51566 2.93648 2.26102 2.57606C2.12008 2.53561 1.97874 2.51648 1.84064 2.51648C1.14163 2.51648 0.530762 3.00635 0.530762 3.68636V15.3542C0.530762 15.8187 0.824418 16.259 1.29597 16.4377C2.87148 17.0364 4.44821 17.2641 6.02413 17.2641C11.0268 17.2641 16.0296 14.971 21.0323 14.971C22.2869 14.971 23.5408 15.1152 24.7954 15.4756C24.9363 15.5161 25.0777 15.5352 25.2158 15.5352C25.9148 15.5352 26.5257 15.0453 26.5257 14.3653V2.69779C26.5252 2.23293 26.2316 1.79308 25.76 1.61398ZM2.48035 4.47376C3.29755 4.65911 4.15049 4.75216 5.02781 4.80218C4.78898 5.88305 3.73946 6.69766 2.48035 6.69766V4.47376ZM2.48035 14.9552V13.198C3.87633 13.198 5.00588 14.2009 5.06802 15.4561C4.15293 15.3895 3.29755 15.224 2.48035 14.9552ZM13.528 12.5566C11.7332 12.5566 10.2787 10.9756 10.2787 9.02602C10.2787 7.0761 11.7336 5.49542 13.528 5.49542C15.3224 5.49542 16.7773 7.0761 16.7773 9.02602C16.7773 10.9763 15.322 12.5566 13.528 12.5566ZM24.5757 13.5783C23.8641 13.4168 23.1252 13.3264 22.3694 13.2679C22.6078 12.3087 23.4863 11.5805 24.5757 11.4555V13.5783ZM24.5757 4.89485C23.321 4.75106 22.3474 3.80258 22.3089 2.63123C23.1025 2.71103 23.8559 2.86035 24.5757 3.09683V4.89485Z" fill="#6D6D6D"/>
</svg>
