<svg width="27" height="25" viewBox="0 0 27 25" fill="none" xmlns="http://www.w3.org/2000/svg">
<path d="M14.3943 21.0535H12.5622C12.3192 21.0535 12.0862 21.1456 11.9144 21.3096C11.7426 21.4736 11.6461 21.696 11.6461 21.9279V23.6767C11.6461 23.9087 11.7426 24.1311 11.9144 24.2951C12.0862 24.459 12.3192 24.5512 12.5622 24.5512H14.3943C14.6372 24.5512 14.8702 24.459 15.042 24.2951C15.2138 24.1311 15.3104 23.9087 15.3104 23.6767V21.9279C15.3104 21.696 15.2138 21.4736 15.042 21.3096C14.8702 21.1456 14.6372 21.0535 14.3943 21.0535ZM8.8979 21.0535H7.06577C6.82282 21.0535 6.58981 21.1456 6.41802 21.3096C6.24622 21.4736 6.14971 21.696 6.14971 21.9279V23.6767C6.14971 23.9087 6.24622 24.1311 6.41802 24.2951C6.58981 24.459 6.82282 24.5512 7.06577 24.5512H8.8979C9.14086 24.5512 9.37386 24.459 9.54566 24.2951C9.71745 24.1311 9.81397 23.9087 9.81397 23.6767V21.9279C9.81397 21.696 9.71745 21.4736 9.54566 21.3096C9.37386 21.1456 9.14086 21.0535 8.8979 21.0535ZM19.8907 21.0535H18.0585C17.8156 21.0535 17.5826 21.1456 17.4108 21.3096C17.239 21.4736 17.1425 21.696 17.1425 21.9279V23.6767C17.1425 23.9087 17.239 24.1311 17.4108 24.2951C17.5826 24.459 17.8156 24.5512 18.0585 24.5512H19.8907C20.1336 24.5512 20.3666 24.459 20.5384 24.2951C20.7102 24.1311 20.8067 23.9087 20.8067 23.6767V21.9279C20.8067 21.696 20.7102 21.4736 20.5384 21.3096C20.3666 21.1456 20.1336 21.0535 19.8907 21.0535ZM25.3871 10.5604H23.5549C23.312 10.5604 23.079 10.6525 22.9072 10.8165C22.7354 10.9805 22.6389 11.2029 22.6389 11.4348V13.1836C22.6389 13.4156 22.7354 13.638 22.9072 13.802C23.079 13.9659 23.312 14.0581 23.5549 14.0581H25.3871C25.63 14.0581 25.863 13.9659 26.0348 13.802C26.2066 13.638 26.3031 13.4156 26.3031 13.1836V11.4348C26.3031 11.2029 26.2066 10.9805 26.0348 10.8165C25.863 10.6525 25.63 10.5604 25.3871 10.5604ZM25.3871 15.8069H23.5549C23.312 15.8069 23.079 15.899 22.9072 16.063C22.7354 16.227 22.6389 16.4494 22.6389 16.6813V18.4302C22.6389 18.6621 22.7354 18.8845 22.9072 19.0485C23.079 19.2125 23.312 19.3046 23.5549 19.3046H25.3871C25.63 19.3046 25.863 19.2125 26.0348 19.0485C26.2066 18.8845 26.3031 18.6621 26.3031 18.4302V16.6813C26.3031 16.4494 26.2066 16.227 26.0348 16.063C25.863 15.899 25.63 15.8069 25.3871 15.8069ZM25.3871 21.0535H23.5549C23.312 21.0535 23.079 21.1456 22.9072 21.3096C22.7354 21.4736 22.6389 21.696 22.6389 21.9279V23.6767C22.6389 23.9087 22.7354 24.1311 22.9072 24.2951C23.079 24.459 23.312 24.5512 23.5549 24.5512H25.3871C25.63 24.5512 25.863 24.459 26.0348 24.2951C26.2066 24.1311 26.3031 23.9087 26.3031 23.6767V21.9279C26.3031 21.696 26.2066 21.4736 26.0348 21.3096C25.863 21.1456 25.63 21.0535 25.3871 21.0535ZM25.3871 5.31381H23.5549C23.312 5.31381 23.079 5.40594 22.9072 5.56993C22.7354 5.73391 22.6389 5.95633 22.6389 6.18824V7.93709C22.6389 8.169 22.7354 8.39141 22.9072 8.5554C23.079 8.71939 23.312 8.81151 23.5549 8.81151H25.3871C25.63 8.81151 25.863 8.71939 26.0348 8.5554C26.2066 8.39141 26.3031 8.169 26.3031 7.93709V6.18824C26.3031 5.95633 26.2066 5.73391 26.0348 5.56993C25.863 5.40594 25.63 5.31381 25.3871 5.31381ZM25.3871 0.0672607H2.48545C1.99954 0.0672607 1.53353 0.251514 1.18994 0.579487C0.846348 0.90746 0.65332 1.35229 0.65332 1.81611L0.65332 23.6767C0.65332 23.9087 0.749834 24.1311 0.921629 24.2951C1.09342 24.459 1.32643 24.5512 1.56938 24.5512H3.40151C3.64447 24.5512 3.87747 24.459 4.04927 24.2951C4.22107 24.1311 4.31758 23.9087 4.31758 23.6767V3.56496H25.3871C25.63 3.56496 25.863 3.47283 26.0348 3.30885C26.2066 3.14486 26.3031 2.92245 26.3031 2.69054V0.941686C26.3031 0.709774 26.2066 0.48736 26.0348 0.323374C25.863 0.159387 25.63 0.0672607 25.3871 0.0672607Z" fill="#6D6D6D"/>
</svg>
