<svg width="27" height="25" viewBox="0 0 27 25" fill="none" xmlns="http://www.w3.org/2000/svg">
<path d="M14.6411 21.1836H12.809C12.566 21.1836 12.333 21.2757 12.1612 21.4397C11.9894 21.6037 11.8929 21.8261 11.8929 22.058V23.8069C11.8929 24.0388 11.9894 24.2612 12.1612 24.4252C12.333 24.5892 12.566 24.6813 12.809 24.6813H14.6411C14.8841 24.6813 15.1171 24.5892 15.2889 24.4252C15.4607 24.2612 15.5572 24.0388 15.5572 23.8069V22.058C15.5572 21.8261 15.4607 21.6037 15.2889 21.4397C15.1171 21.2757 14.8841 21.1836 14.6411 21.1836ZM9.14473 21.1836H7.3126C7.06964 21.1836 6.83664 21.2757 6.66484 21.4397C6.49305 21.6037 6.39653 21.8261 6.39653 22.058V23.8069C6.39653 24.0388 6.49305 24.2612 6.66484 24.4252C6.83664 24.5892 7.06964 24.6813 7.3126 24.6813H9.14473C9.38768 24.6813 9.62069 24.5892 9.79248 24.4252C9.96428 24.2612 10.0608 24.0388 10.0608 23.8069V22.058C10.0608 21.8261 9.96428 21.6037 9.79248 21.4397C9.62069 21.2757 9.38768 21.1836 9.14473 21.1836ZM20.1375 21.1836H18.3054C18.0624 21.1836 17.8294 21.2757 17.6576 21.4397C17.4858 21.6037 17.3893 21.8261 17.3893 22.058V23.8069C17.3893 24.0388 17.4858 24.2612 17.6576 24.4252C17.8294 24.5892 18.0624 24.6813 18.3054 24.6813H20.1375C20.3805 24.6813 20.6135 24.5892 20.7853 24.4252C20.9571 24.2612 21.0536 24.0388 21.0536 23.8069V22.058C21.0536 21.8261 20.9571 21.6037 20.7853 21.4397C20.6135 21.2757 20.3805 21.1836 20.1375 21.1836ZM25.6339 10.6905H23.8018C23.5588 10.6905 23.3258 10.7826 23.154 10.9466C22.9822 11.1106 22.8857 11.333 22.8857 11.5649V13.3138C22.8857 13.5457 22.9822 13.7681 23.154 13.9321C23.3258 14.0961 23.5588 14.1882 23.8018 14.1882H25.6339C25.8768 14.1882 26.1098 14.0961 26.2816 13.9321C26.4534 13.7681 26.55 13.5457 26.55 13.3138V11.5649C26.55 11.333 26.4534 11.1106 26.2816 10.9466C26.1098 10.7826 25.8768 10.6905 25.6339 10.6905ZM25.6339 15.937H23.8018C23.5588 15.937 23.3258 16.0292 23.154 16.1932C22.9822 16.3571 22.8857 16.5796 22.8857 16.8115V18.5603C22.8857 18.7922 22.9822 19.0146 23.154 19.1786C23.3258 19.3426 23.5588 19.4347 23.8018 19.4347H25.6339C25.8768 19.4347 26.1098 19.3426 26.2816 19.1786C26.4534 19.0146 26.55 18.7922 26.55 18.5603V16.8115C26.55 16.5796 26.4534 16.3571 26.2816 16.1932C26.1098 16.0292 25.8768 15.937 25.6339 15.937ZM25.6339 21.1836H23.8018C23.5588 21.1836 23.3258 21.2757 23.154 21.4397C22.9822 21.6037 22.8857 21.8261 22.8857 22.058V23.8069C22.8857 24.0388 22.9822 24.2612 23.154 24.4252C23.3258 24.5892 23.5588 24.6813 23.8018 24.6813H25.6339C25.8768 24.6813 26.1098 24.5892 26.2816 24.4252C26.4534 24.2612 26.55 24.0388 26.55 23.8069V22.058C26.55 21.8261 26.4534 21.6037 26.2816 21.4397C26.1098 21.2757 25.8768 21.1836 25.6339 21.1836ZM25.6339 5.44394H23.8018C23.5588 5.44394 23.3258 5.53607 23.154 5.70005C22.9822 5.86404 22.8857 6.08645 22.8857 6.31836V8.06721C22.8857 8.29913 22.9822 8.52154 23.154 8.68553C23.3258 8.84951 23.5588 8.94164 23.8018 8.94164H25.6339C25.8768 8.94164 26.1098 8.84951 26.2816 8.68553C26.4534 8.52154 26.55 8.29913 26.55 8.06721V6.31836C26.55 6.08645 26.4534 5.86404 26.2816 5.70005C26.1098 5.53607 25.8768 5.44394 25.6339 5.44394ZM25.6339 0.197388H2.73228C2.24636 0.197388 1.78036 0.381641 1.43676 0.709614C1.09317 1.03759 0.900146 1.48241 0.900146 1.94624L0.900146 23.8069C0.900146 24.0388 0.99666 24.2612 1.16846 24.4252C1.34025 24.5892 1.57326 24.6813 1.81621 24.6813H3.64834C3.8913 24.6813 4.1243 24.5892 4.2961 24.4252C4.46789 24.2612 4.5644 24.0388 4.5644 23.8069V3.69509H25.6339C25.8768 3.69509 26.1098 3.60296 26.2816 3.43898C26.4534 3.27499 26.55 3.05258 26.55 2.82066V1.07181C26.55 0.839901 26.4534 0.617487 26.2816 0.453501C26.1098 0.289514 25.8768 0.197388 25.6339 0.197388Z" fill="#6D6D6D"/>
</svg>
