<svg width="23" height="25" viewBox="0 0 23 25" fill="none" xmlns="http://www.w3.org/2000/svg">
<path d="M21.9388 22.526H20.9566V1.151C20.9566 0.529673 20.429 0.026001 19.7781 0.026001H3.27808C2.62716 0.026001 2.0995 0.529673 2.0995 1.151V22.526H1.11736C0.791929 22.526 0.528076 22.7779 0.528076 23.0885V24.026H22.5281V23.0885C22.5281 22.7779 22.2642 22.526 21.9388 22.526ZM6.81379 3.5885C6.81379 3.27786 7.07764 3.026 7.40308 3.026H9.36736C9.69279 3.026 9.95665 3.27786 9.95665 3.5885V5.4635C9.95665 5.77414 9.69279 6.026 9.36736 6.026H7.40308C7.07764 6.026 6.81379 5.77414 6.81379 5.4635V3.5885ZM6.81379 8.0885C6.81379 7.77786 7.07764 7.526 7.40308 7.526H9.36736C9.69279 7.526 9.95665 7.77786 9.95665 8.0885V9.9635C9.95665 10.2741 9.69279 10.526 9.36736 10.526H7.40308C7.07764 10.526 6.81379 10.2741 6.81379 9.9635V8.0885ZM9.36736 15.026H7.40308C7.07764 15.026 6.81379 14.7741 6.81379 14.4635V12.5885C6.81379 12.2779 7.07764 12.026 7.40308 12.026H9.36736C9.69279 12.026 9.95665 12.2779 9.95665 12.5885V14.4635C9.95665 14.7741 9.69279 15.026 9.36736 15.026ZM13.0995 22.526H9.95665V18.5885C9.95665 18.2779 10.2205 18.026 10.5459 18.026H12.5102C12.8357 18.026 13.0995 18.2779 13.0995 18.5885V22.526ZM16.2424 14.4635C16.2424 14.7741 15.9785 15.026 15.6531 15.026H13.6888C13.3634 15.026 13.0995 14.7741 13.0995 14.4635V12.5885C13.0995 12.2779 13.3634 12.026 13.6888 12.026H15.6531C15.9785 12.026 16.2424 12.2779 16.2424 12.5885V14.4635ZM16.2424 9.9635C16.2424 10.2741 15.9785 10.526 15.6531 10.526H13.6888C13.3634 10.526 13.0995 10.2741 13.0995 9.9635V8.0885C13.0995 7.77786 13.3634 7.526 13.6888 7.526H15.6531C15.9785 7.526 16.2424 7.77786 16.2424 8.0885V9.9635ZM16.2424 5.4635C16.2424 5.77414 15.9785 6.026 15.6531 6.026H13.6888C13.3634 6.026 13.0995 5.77414 13.0995 5.4635V3.5885C13.0995 3.27786 13.3634 3.026 13.6888 3.026H15.6531C15.9785 3.026 16.2424 3.27786 16.2424 3.5885V5.4635Z" fill="#6D6D6D"/>
</svg>
