<svg width="24" height="24" viewBox="0 0 24 24" fill="#84858A" xmlns="http://www.w3.org/2000/svg">
<path fill-rule="evenodd" clip-rule="evenodd" d="M12.0025 4.22679C12.3049 4.2282 12.5488 4.47443 12.5474 4.77677L12.5161 11.4839L19.2232 11.4526C19.5256 11.4512 19.7718 11.6951 19.7732 11.9974C19.7746 12.2998 19.5307 12.546 19.2283 12.5474L12.511 12.5788L12.4803 19.1612C12.4789 19.4636 12.2327 19.7075 11.9303 19.7061C11.628 19.7047 11.384 19.4585 11.3854 19.1561L11.4161 12.5839L4.84387 12.6145C4.54153 12.6159 4.29529 12.372 4.29388 12.0696C4.29247 11.7673 4.53642 11.5211 4.83876 11.5197L11.4212 11.489L11.4525 4.77166C11.454 4.46932 11.7002 4.22538 12.0025 4.22679Z" />
</svg>
