<svg width="24" height="24" viewBox="0 0 24 24" fill="#84858A" xmlns="http://www.w3.org/2000/svg">
<path d="M21.4373 6.22152L11.9907 2.03347C11.8903 1.98884 11.7756 1.98884 11.6752 2.03347L2.22873 6.22152C2.06838 6.29262 2 6.43866 2 6.62442V17.5293C2 17.6772 2.08628 17.8116 2.22081 17.873L11.6759 22.1945C11.7261 22.2174 11.7795 22.2288 11.833 22.2288C11.8931 22.2288 11.9354 22.222 11.9897 22.1938C11.9898 22.1941 21.4452 17.8729 21.4452 17.8729C21.5797 17.8114 21.666 17.6771 21.666 17.5293V6.62442C21.666 6.44849 21.5977 6.29257 21.4373 6.22152ZM7.72674 8.81376C7.59604 8.87664 7.51284 9.00901 7.51284 9.15408V12.8406L5.6664 11.9693V8.32125L14.5727 4.02997L16.178 4.74163L7.72674 8.81376ZM11.833 2.81532L13.6661 3.62798L5.47821 7.57318L3.32337 6.58827L11.833 2.81532ZM11.4552 21.2627L2.75573 17.2865V7.15964L4.91067 8.14461V12.2088C4.91067 12.3551 4.99503 12.4882 5.12735 12.5505L7.72952 13.7786C7.7807 13.8027 7.83566 13.8148 7.89058 13.8148C7.96122 13.8148 8.03147 13.795 8.09294 13.7561C8.20231 13.6866 8.26852 13.5663 8.26852 13.4368V9.67931L11.4552 11.1358V21.2627ZM11.833 10.4778L8.8469 9.11283L17.0846 5.14378L20.3426 6.58827L11.833 10.4778ZM20.9103 17.2865L12.2109 21.2628V11.1359L20.9103 7.15959V17.2865Z" />
</svg>
