<svg width="32" height="32" viewBox="0 0 32 32" fill="none" xmlns="http://www.w3.org/2000/svg">
<mask id="mask0" mask-type="alpha" maskUnits="userSpaceOnUse" x="0" y="0" width="32" height="32">
<circle cx="16" cy="16" r="16" fill="#333333"/>
</mask>
<g mask="url(#mask0)">
<circle cx="16" cy="16" r="16" fill="#DDDDDD"/>
<mask id="mask1" mask-type="alpha" maskUnits="userSpaceOnUse" x="-2" y="3" width="36" height="36">
<path d="M-1.59961 3.19922H33.6004V38.3992H-1.59961V3.19922Z" fill="#999999"/>
</mask>
<g mask="url(#mask1)">
<path d="M8.21942 25.8842C7.43719 26.1331 6.69053 26.382 6.12164 26.6308C3.56164 27.8753 3.91719 31.7153 3.91719 31.8931C3.95275 32.2486 4.27275 32.5331 4.6283 32.5331H27.3839C27.7394 32.5331 28.0594 32.2486 28.095 31.8931C28.095 31.7153 28.4861 27.8753 25.9261 26.6308C25.3572 26.3464 24.6105 26.1331 23.8283 25.8842C22.0505 25.3153 19.8461 24.6397 19.455 23.3242C19.4905 23.1108 19.5616 22.4708 20.0594 22.0086C21.0194 21.0486 22.0505 18.382 22.0505 15.7508V15.7153C22.0505 15.5731 21.7661 11.8753 19.6683 10.3109C19.3839 10.0264 18.2105 9.06641 16.0061 9.06641H15.9705C13.8016 9.06641 12.6283 10.0264 12.3439 10.2753C10.2105 11.8397 9.96164 15.5375 9.96164 15.6797V15.7153C9.96164 18.3464 10.9927 21.0131 11.9527 21.9731C12.4505 22.4708 12.5216 23.1108 12.5572 23.2886C12.2016 24.6397 9.99719 25.3153 8.21942 25.8842Z" fill="#999999"/>
</g>
</g>
</svg>
