<svg width="18" height="18" viewBox="0 0 18 18" fill="#404147" xmlns="http://www.w3.org/2000/svg">
<path fill-rule="evenodd" clip-rule="evenodd" d="M14 1H4C2.34315 1 1 2.34315 1 4V14C1 15.6569 2.34315 17 4 17H14C15.6569 17 17 15.6569 17 14V4C17 2.34315 15.6569 1 14 1ZM4 0C1.79086 0 0 1.79086 0 4V14C0 16.2091 1.79086 18 4 18H14C16.2091 18 18 16.2091 18 14V4C18 1.79086 16.2091 0 14 0H4Z" />
<path fill-rule="evenodd" clip-rule="evenodd" d="M14 5.8564L8.31432 13L4 8.98667L4.82122 7.98889L8.18132 11.1146L13.048 5L14 5.8564Z" />
</svg>
