<svg width="24" height="24" viewBox="0 0 24 24" fill="none" xmlns="http://www.w3.org/2000/svg">
<path fill-rule="evenodd" clip-rule="evenodd" d="M19.5328 4.47215C19.8243 4.76641 19.8221 5.24127 19.5278 5.5328L13 12L19.5279 18.4672C19.8221 18.7587 19.8243 19.2336 19.5328 19.5279C19.2413 19.8221 18.7664 19.8243 18.4721 19.5328L11.9344 13.0557L5.52785 19.4028C5.23359 19.6943 4.75873 19.6921 4.4672 19.3978C4.17568 19.1036 4.17789 18.6287 4.47215 18.3372L10.8687 12L4.47218 5.66282C4.17792 5.3713 4.1757 4.89643 4.46723 4.60217C4.75875 4.30792 5.23362 4.3057 5.52788 4.59722L11.9344 10.9442L18.4721 4.4672C18.7664 4.17568 19.2413 4.17789 19.5328 4.47215Z" fill="white"/>
</svg>
