<svg width="40" height="40" viewBox="0 0 40 40" fill="#84858A" xmlns="http://www.w3.org/2000/svg">
<path d="M24.3703 6.87309C24.248 6.7443 24.0804 6.66699 23.9067 6.66699H13.504C11.5845 6.66699 10 8.24516 10 10.1645V29.8359C10 31.7555 11.5845 33.3337 13.504 33.3337H27.6231C29.5426 33.3337 31.1271 31.7555 31.1271 29.8359V14.216C31.1271 14.0486 31.0498 13.8877 30.9404 13.7652L24.3703 6.87309ZM24.5571 8.94076L28.9565 13.5591H26.0966C25.2464 13.5591 24.5571 12.8763 24.5571 12.0261V8.94076ZM27.6231 32.0454H13.504C12.2996 32.0454 11.2882 31.0471 11.2882 29.8359V10.1645C11.2882 8.96008 12.2931 7.95524 13.504 7.95524H23.2688V12.0261C23.2688 13.5912 24.5315 14.8473 26.0966 14.8473H29.8389V29.8359C29.8389 31.0471 28.834 32.0454 27.6231 32.0454Z" />
<path d="M20.0932 28.0857C20.2157 28.2144 20.3832 28.2917 20.5634 28.2917C20.7439 28.2917 20.9113 28.2144 21.0336 28.0857L24.8082 24.0341C25.053 23.7764 25.0336 23.3642 24.7761 23.1259C24.5183 22.8812 24.1061 22.9003 23.8679 23.1581L21.2075 26.0115V17.3111C21.2075 16.9567 20.9176 16.667 20.5634 16.667C20.2092 16.667 19.9193 16.9567 19.9193 17.3111V26.0115L17.2655 23.1581C17.0207 22.9005 16.6148 22.8812 16.3573 23.1259C16.0997 23.3707 16.0804 23.7766 16.3251 24.0341L20.0932 28.0857Z" />
</svg>
