<svg width="240" height="240" viewBox="0 0 240 240" fill="none" xmlns="http://www.w3.org/2000/svg">
<g clip-path="url(#clip0)">
<path d="M240.001 89.3384V225.062H57.4996C54.4429 225.062 51.9702 222.584 51.9702 219.532V70.6409C51.9702 67.5842 54.4429 65.1116 57.4996 65.1116H124.555C126.018 65.1116 127.423 65.6909 128.461 66.7292L143.923 82.1914C144.962 83.2297 146.367 83.8091 147.835 83.8091H234.471C237.523 83.8095 240.001 86.2869 240.001 89.3384Z" fill="#84858A"/>
<path d="M240.001 89.3377V225.061H221.641V89.3377C221.641 86.2857 219.168 83.8083 216.111 83.8083H234.471C237.523 83.8088 240.001 86.2862 240.001 89.3377Z" fill="#84858A"/>
<path d="M183.608 155.727L239.999 225.063H54.596C52.9319 225.063 51.3569 224.314 50.3069 223.023L1.24897 162.704C-1.68915 159.091 0.881472 153.687 5.53803 153.687H179.319C180.983 153.687 182.559 154.437 183.608 155.727Z" fill="#EAEBEE"/>
<path d="M240 225.063H216.222L159.834 155.728C158.781 154.439 157.207 153.686 155.546 153.686H179.319C180.985 153.686 182.559 154.439 183.607 155.728L240 225.063Z" fill="#EAEBEE"/>
<path d="M198.012 208.801H149.231C147.723 208.801 146.301 208.096 145.388 206.896L132.886 190.47C131.676 188.88 132.81 186.593 134.808 186.593H183.589C185.097 186.593 186.518 187.298 187.432 188.498L199.933 204.924C201.143 206.513 200.01 208.801 198.012 208.801Z" fill="#D3D5DB"/>
<path d="M119.998 212.421H97.8393C95.8392 212.421 94.2178 210.799 94.2178 208.799C94.2178 206.799 95.8392 205.178 97.8393 205.178H119.998C121.998 205.178 123.62 206.799 123.62 208.799C123.62 210.799 121.998 212.421 119.998 212.421Z" fill="#D3D5DB"/>
<path d="M111.915 200.408H102.509C100.509 200.408 98.8877 198.787 98.8877 196.787C98.8877 194.786 100.509 193.165 102.509 193.165H111.915C113.915 193.165 115.536 194.786 115.536 196.787C115.537 198.787 113.915 200.408 111.915 200.408Z" fill="#D3D5DB"/>
<path d="M185.091 48.4716C186.59 46.0816 188.039 44.3677 189.439 43.33C190.85 42.2759 192.476 41.6196 194.319 41.361C196.162 41.1025 197.654 40.75 198.797 40.3035C199.967 39.8509 200.87 39.1172 201.506 38.1023C203.056 35.6305 202.771 33.7302 200.652 32.4014C199.674 31.7882 198.657 31.6526 197.603 31.9946C196.548 32.3367 195.619 33.1114 194.817 34.3187L186.552 29.1365C188.637 25.883 191.26 23.9815 194.421 23.4319C197.592 22.8659 201.003 23.7277 204.655 26.0173C208.29 28.2966 210.574 30.9028 211.505 33.8359C212.453 36.7792 211.952 39.8059 210.002 42.9161C209.15 44.2748 208.106 45.3421 206.87 46.1179C205.634 46.8937 204.057 47.4897 202.138 47.9058L197.679 48.7699C196.398 49.0385 195.346 49.4849 194.523 50.1091C193.71 50.717 192.897 51.6328 192.085 52.8565L185.091 48.4716ZM179.408 55.3075C180.168 54.0961 181.221 53.3766 182.567 53.149C183.94 52.9152 185.279 53.2071 186.583 54.0248C187.887 54.8425 188.725 55.9151 189.096 57.2426C189.494 58.5639 189.313 59.8302 188.554 61.0416C187.794 62.2529 186.728 62.9755 185.355 63.2093C184.008 63.4369 182.683 63.1419 181.379 62.3242C180.075 61.5065 179.224 60.437 178.826 59.1157C178.455 57.7882 178.649 56.5188 179.408 55.3075Z" fill="#D3D5DB"/>
<path d="M36.0779 52.982L30.866 58.8785L8.70751 40.9471L15.5613 33.1931L36.0779 52.982ZM36.502 65.8992C35.4441 64.9641 34.9164 63.818 34.919 62.461C34.9201 61.0768 35.4297 59.8088 36.4479 58.6569C37.4661 57.5049 38.6556 56.8506 40.0164 56.694C41.3756 56.5104 42.5842 56.8861 43.6421 57.8212C44.7001 58.7563 45.2285 59.916 45.2275 61.3001C45.2249 62.6572 44.7145 63.9117 43.6963 65.0636C42.6781 66.2156 41.4894 66.8834 40.1301 67.067C38.7693 67.2236 37.56 66.8344 36.502 65.8992Z" fill="#D3D5DB"/>
<path d="M53.1921 35.7463L46.3528 39.6393L31.188 15.5029L40.182 10.3836L53.1921 35.7463ZM49.414 48.1059C48.7155 46.8788 48.5871 45.6237 49.0287 44.3404C49.4775 43.0311 50.37 41.9962 51.7061 41.2356C53.0423 40.4751 54.3795 40.2409 55.7177 40.533C57.0633 40.799 58.0853 41.5456 58.7837 42.7727C59.4822 43.9998 59.607 45.268 59.1582 46.5774C58.7166 47.8606 57.8278 48.8825 56.4916 49.643C55.1555 50.4035 53.8146 50.6508 52.4691 50.3848C51.1309 50.0927 50.1125 49.3331 49.414 48.1059Z" fill="#D3D5DB"/>
</g>
<defs>
<clipPath id="clip0">
<rect width="240" height="240" fill="white"/>
</clipPath>
</defs>
</svg>
