<svg width="24" height="24" viewBox="0 0 24 24" fill="#84858A" xmlns="http://www.w3.org/2000/svg">
<path d="M21.1048 4.60967H9.327C9.0032 3.64795 8.09355 2.95312 7.02404 2.95312C5.95453 2.95312 5.04488 3.64795 4.72108 4.60967H2.88266C2.4556 4.60967 2.10938 4.95589 2.10938 5.38296C2.10938 5.81002 2.4556 6.15624 2.88266 6.15624H4.72113C5.04494 7.11796 5.95458 7.81279 7.02409 7.81279C8.0936 7.81279 9.00325 7.11796 9.32705 6.15624H21.1048C21.5319 6.15624 21.8781 5.81002 21.8781 5.38296C21.8781 4.95589 21.5319 4.60967 21.1048 4.60967ZM7.02404 6.26621C6.53702 6.26621 6.14079 5.86997 6.14079 5.38296C6.14079 4.89594 6.53702 4.4997 7.02404 4.4997C7.51106 4.4997 7.90729 4.89594 7.90729 5.38296C7.90729 5.86997 7.51106 6.26621 7.02404 6.26621Z" />
<path d="M21.1048 11.2356H19.2663C18.9425 10.2739 18.0328 9.5791 16.9633 9.5791C15.8939 9.5791 14.9842 10.2739 14.6604 11.2356H2.88266C2.4556 11.2356 2.10938 11.5819 2.10938 12.0089C2.10938 12.436 2.4556 12.7822 2.88266 12.7822H14.6604C14.9842 13.7439 15.8939 14.4388 16.9634 14.4388C18.0328 14.4388 18.9425 13.7439 19.2663 12.7822H21.1048C21.5319 12.7822 21.8781 12.436 21.8781 12.0089C21.8781 11.5819 21.5319 11.2356 21.1048 11.2356ZM16.9634 12.8922C16.4764 12.8922 16.0801 12.4959 16.0801 12.0089C16.0801 11.5219 16.4764 11.1257 16.9634 11.1257C17.4504 11.1257 17.8466 11.5219 17.8466 12.0089C17.8466 12.4959 17.4504 12.8922 16.9634 12.8922Z" />
<path d="M21.1048 17.8616H12.6401C12.3163 16.8999 11.4067 16.2051 10.3372 16.2051C9.26766 16.2051 8.35802 16.8999 8.03422 17.8616H2.88266C2.4556 17.8616 2.10938 18.2078 2.10938 18.6349C2.10938 19.062 2.4556 19.4082 2.88266 19.4082H8.03422C8.35802 20.3699 9.26766 21.0647 10.3372 21.0647C11.4067 21.0647 12.3163 20.3699 12.6401 19.4082H21.1048C21.5319 19.4082 21.8781 19.062 21.8781 18.6349C21.8781 18.2078 21.5319 17.8616 21.1048 17.8616ZM10.3372 19.5182C9.85016 19.5182 9.45392 19.122 9.45392 18.635C9.45392 18.1479 9.85016 17.7517 10.3372 17.7517C10.8242 17.7517 11.2204 18.1479 11.2204 18.6349C11.2204 19.1219 10.8242 19.5182 10.3372 19.5182Z" />
</svg>
