<svg width="24" height="24" viewBox="0 0 24 24" fill="none" xmlns="http://www.w3.org/2000/svg">
<path fill-rule="evenodd" clip-rule="evenodd" d="M12 19C15.866 19 19 15.866 19 12C19 8.13401 15.866 5 12 5C8.13401 5 5 8.13401 5 12C5 15.866 8.13401 19 12 19ZM12 20C16.4183 20 20 16.4183 20 12C20 7.58172 16.4183 4 12 4C7.58172 4 4 7.58172 4 12C4 16.4183 7.58172 20 12 20Z" fill="#C61C1C"/>
<path d="M12 8.0274C11.6548 8.0274 11.375 8.30722 11.375 8.6524V12.6772C11.375 13.0224 11.6548 13.3022 12 13.3022C12.3452 13.3022 12.625 13.0224 12.625 12.6772V8.6524C12.625 8.30722 12.3452 8.0274 12 8.0274Z" fill="#C61C1C"/>
<path d="M12 15.7549C12.466 15.7549 12.8438 15.3772 12.8438 14.9112C12.8438 14.4452 12.466 14.0674 12 14.0674C11.534 14.0674 11.1562 14.4452 11.1562 14.9112C11.1562 15.3772 11.534 15.7549 12 15.7549Z" fill="#C61C1C"/>
</svg>
