<svg width="24" height="24" viewBox="0 0 24 24" fill="none" xmlns="http://www.w3.org/2000/svg">
<path d="M12.5 3.19565C9.02203 3.19565 6.19403 6.06724 6.19403 9.59881C6.19403 12.1667 7.72552 14.9041 9.2241 17.0344C10.7227 19.1648 12.2222 20.6873 12.2222 20.6873C12.2961 20.7622 12.3963 20.8043 12.5007 20.8043C12.6052 20.8043 12.7054 20.7622 12.7793 20.6873C12.7793 20.6873 14.2788 19.1648 15.7774 17.0344C17.2759 14.9041 18.806 12.1667 18.806 9.59881C18.806 6.06724 15.978 3.19565 12.5 3.19565ZM12.5 3.99623C15.552 3.99623 18.0175 6.49979 18.0175 9.59881C18.0175 11.8332 16.5932 14.4975 15.1359 16.5692C13.8178 18.4429 12.7397 19.5335 12.5 19.7818C12.2599 19.533 11.1834 18.4425 9.8656 16.5692C8.4083 14.4975 6.98246 11.8332 6.98246 9.59881C6.98246 6.49979 9.44802 3.99623 12.5 3.99623Z" fill="#84858A"/>
<path d="M12.5 6.79678C10.981 6.79678 9.74196 8.05641 9.74196 9.59881C9.74196 11.1412 10.981 12.4008 12.5 12.4008C14.019 12.4008 15.2595 11.1412 15.2595 9.59881C15.2595 8.05641 14.019 6.79678 12.5 6.79678ZM12.5 7.59736C13.593 7.59736 14.4711 8.48897 14.4711 9.59881C14.4711 10.7086 13.593 11.6003 12.5 11.6003C11.407 11.6003 10.5304 10.7086 10.5304 9.59881C10.5304 8.48897 11.407 7.59736 12.5 7.59736Z" fill="#84858A"/>
<path fill-rule="evenodd" clip-rule="evenodd" d="M12.0845 20.8251L12.0797 20.8203L12.0664 20.8066C12.0548 20.7946 12.0376 20.7769 12.0153 20.7537C11.9708 20.7073 11.9057 20.6388 11.823 20.5501C11.6577 20.3726 11.4219 20.114 11.1392 19.7887C10.5739 19.1382 9.81995 18.2197 9.06584 17.1476C7.56552 15.0148 6 12.2332 6 9.59881C6 5.96047 8.9136 3 12.5 3C16.0864 3 19 5.96047 19 9.59881C19 12.2332 17.436 15.0147 15.9356 17.1476C15.1815 18.2197 14.4276 19.1382 13.8623 19.7887C13.6092 20.0799 13.3937 20.3177 13.2327 20.4916H13.2458L12.9217 20.8203L12.9173 20.8247C12.8072 20.9365 12.6571 21 12.5007 21C12.3444 21 12.1947 20.9369 12.0845 20.8251ZM12.7793 20.6873C12.7793 20.6873 12.8464 20.6192 12.9663 20.4916C13.4135 20.0161 14.5957 18.7142 15.7774 17.0344C17.2759 14.9041 18.806 12.1667 18.806 9.59881C18.806 6.06724 15.978 3.19565 12.5 3.19565C9.02203 3.19565 6.19403 6.06724 6.19403 9.59881C6.19403 12.1667 7.72552 14.9041 9.2241 17.0344C10.7227 19.1648 12.2222 20.6873 12.2222 20.6873C12.2961 20.7622 12.3963 20.8043 12.5007 20.8043C12.6052 20.8043 12.7054 20.7622 12.7793 20.6873ZM17.8235 9.59881C17.8235 6.60656 15.4435 4.19188 12.5 4.19188C9.55646 4.19188 7.17649 6.60656 7.17649 9.59881C7.17649 10.6772 7.52146 11.8729 8.05442 13.0646C8.58644 14.2541 9.30006 15.427 10.0239 16.456C11.1575 18.0675 12.1106 19.0949 12.5 19.5013C12.8897 19.095 13.8439 18.0676 14.9776 16.456C15.7014 15.4271 16.4146 14.2542 16.9463 13.0646C17.4789 11.873 17.8235 10.6772 17.8235 9.59881ZM12.6354 19.6416C13.0253 19.2353 13.9898 18.1983 15.1359 16.5692C16.5932 14.4975 18.0175 11.8332 18.0175 9.59881C18.0175 6.49979 15.552 3.99623 12.5 3.99623C9.44802 3.99623 6.98246 6.49979 6.98246 9.59881C6.98246 11.8332 8.4083 14.4975 9.8656 16.5692C11.0115 18.1981 11.9749 19.2351 12.3646 19.6416C12.4053 19.684 12.4398 19.7196 12.4675 19.7483L12.5 19.7818L12.5342 19.7465C12.5616 19.7181 12.5955 19.6832 12.6354 19.6416ZM9.54793 9.59881C9.54793 7.94977 10.8724 6.60113 12.5 6.60113C14.1274 6.60113 15.4535 7.94964 15.4535 9.59881C15.4535 11.248 14.1274 12.5965 12.5 12.5965C10.8724 12.5965 9.54793 11.2478 9.54793 9.59881ZM14.277 9.59881C14.277 8.59574 13.4846 7.79301 12.5 7.79301C11.5156 7.79301 10.7244 8.59555 10.7244 9.59881C10.7244 10.6021 11.5156 11.4046 12.5 11.4046C13.4846 11.4046 14.277 10.6019 14.277 9.59881ZM9.74196 9.59881C9.74196 8.05641 10.981 6.79678 12.5 6.79678C14.019 6.79678 15.2595 8.05641 15.2595 9.59881C15.2595 11.1412 14.019 12.4008 12.5 12.4008C10.981 12.4008 9.74196 11.1412 9.74196 9.59881ZM14.4711 9.59881C14.4711 8.48897 13.593 7.59736 12.5 7.59736C11.407 7.59736 10.5304 8.48897 10.5304 9.59881C10.5304 10.7086 11.407 11.6003 12.5 11.6003C13.593 11.6003 14.4711 10.7086 14.4711 9.59881Z" fill="#84858A"/>
</svg>
