<svg width="738" height="746" viewBox="0 0 738 746" fill="none" xmlns="http://www.w3.org/2000/svg">
<path d="M100.634 460.865C98.9143 455.574 101.81 449.89 107.102 448.171L364.197 364.634C369.488 362.914 375.172 365.81 376.891 371.102L425.924 522.005C427.643 527.297 424.748 532.98 419.456 534.7L162.361 618.237C157.069 619.956 151.386 617.061 149.666 611.769L100.634 460.865Z" fill="white"/>
<path fill-rule="evenodd" clip-rule="evenodd" d="M104.767 440.986L361.862 357.448C371.122 354.439 381.069 359.507 384.077 368.767L433.11 519.671C436.119 528.931 431.051 538.877 421.791 541.886L164.696 625.423C155.436 628.432 145.49 623.365 142.481 614.104L93.4481 463.201C90.4392 453.94 95.5069 443.994 104.767 440.986ZM107.102 448.171C101.81 449.891 98.9146 455.574 100.634 460.866L149.667 611.769C151.386 617.061 157.07 619.957 162.361 618.237L419.456 534.7C424.748 532.981 427.644 527.297 425.924 522.006L376.892 371.102C375.172 365.811 369.489 362.915 364.197 364.634L107.102 448.171Z" fill="#2F44FF"/>
<path d="M99.596 457.672C98.4497 454.144 100.38 450.355 103.908 449.209L367.391 363.596C370.918 362.45 374.707 364.38 375.854 367.908L384.934 395.853L108.676 485.617L99.596 457.672Z" fill="#2F44FF"/>
<path d="M311.789 396.228C313.15 400.417 310.858 404.916 306.669 406.277C302.479 407.639 297.98 405.346 296.619 401.157C295.258 396.968 297.55 392.468 301.739 391.107C305.929 389.746 310.428 392.039 311.789 396.228Z" fill="#E1EDFF"/>
<path d="M336.541 388.185C337.902 392.374 335.61 396.874 331.421 398.235C327.231 399.596 322.732 397.304 321.371 393.114C320.01 388.925 322.302 384.426 326.491 383.065C330.68 381.704 335.18 383.996 336.541 388.185Z" fill="#E1EDFF"/>
<path d="M361.294 380.144C362.655 384.333 360.363 388.833 356.174 390.194C351.984 391.555 347.485 389.263 346.124 385.073C344.763 380.884 347.055 376.385 351.244 375.024C355.433 373.663 359.933 375.955 361.294 380.144Z" fill="#E1EDFF"/>
<path d="M235.456 536.557L243.789 529.91C242.926 528.828 242.328 527.96 241.997 527.308C241.666 526.655 241.415 525.668 241.246 524.349C241.15 523.318 241.164 522.248 241.288 521.137C241.431 520.011 241.569 518.62 241.701 516.965C241.902 514.369 241.79 511.834 241.363 509.36C240.936 506.886 239.882 504.596 238.202 502.489C237.153 501.175 235.881 500.055 234.385 499.129C232.874 498.184 231.301 497.557 229.666 497.249C227.144 496.699 224.639 496.863 222.151 497.74C219.648 498.598 217.297 499.905 215.098 501.659C212.301 503.89 210.357 506.675 209.264 510.013C208.545 512.199 208.4 514.529 208.827 517.003C209.254 519.477 210.176 521.84 211.595 524.093L219.927 517.446C218.605 515.907 218.17 514.294 218.622 512.605C218.788 511.903 219.118 511.229 219.612 510.582C220.125 509.919 220.71 509.327 221.366 508.803C222.234 508.111 223.159 507.61 224.143 507.3C225.13 506.955 226.11 506.916 227.082 507.185C227.664 507.321 228.196 507.593 228.678 507.999C229.179 508.39 229.638 508.846 230.054 509.368C230.856 510.373 231.461 511.408 231.869 512.474C232.281 513.505 232.439 514.771 232.342 516.272C232.183 518.169 231.966 519.718 231.692 520.917C231.437 522.101 231.251 523.214 231.135 524.255C231.023 525.262 231.118 526.45 231.423 527.821C231.657 529.341 232.129 530.862 232.838 532.384C233.566 533.891 234.439 535.282 235.456 536.557ZM244.533 547.817L252.808 541.217L246.148 532.867L237.873 539.468L244.533 547.817Z" fill="#404147"/>
<path d="M305.482 510.352L315.603 513.697C316.037 512.382 316.437 511.408 316.803 510.773C317.168 510.139 317.857 509.39 318.87 508.527C319.681 507.884 320.585 507.31 321.583 506.807C322.604 506.311 323.844 505.666 325.301 504.872C327.585 503.622 329.647 502.142 331.485 500.432C333.323 498.722 334.665 496.588 335.511 494.029C336.038 492.433 336.281 490.755 336.238 488.997C336.203 487.215 335.868 485.555 335.233 484.017C334.315 481.605 332.809 479.597 330.714 477.993C328.627 476.366 326.248 475.111 323.578 474.229C320.18 473.106 316.785 473 313.392 473.91C311.169 474.503 309.139 475.655 307.3 477.365C305.462 479.074 303.987 481.139 302.876 483.558L312.997 486.902C313.563 484.954 314.676 483.708 316.338 483.163C317.016 482.918 317.761 482.826 318.573 482.886C319.408 482.954 320.224 483.119 321.021 483.382C322.075 483.731 323.001 484.232 323.798 484.886C324.626 485.524 325.194 486.324 325.5 487.284C325.704 487.846 325.768 488.44 325.691 489.066C325.638 489.699 325.506 490.333 325.297 490.966C324.893 492.187 324.357 493.26 323.688 494.184C323.05 495.093 322.076 495.917 320.766 496.656C319.09 497.56 317.675 498.225 316.521 498.651C315.39 499.084 314.357 499.537 313.421 500.009C312.517 500.465 311.574 501.195 310.593 502.199C309.448 503.227 308.432 504.453 307.545 505.879C306.682 507.312 305.994 508.803 305.482 510.352ZM301.014 524.108L311.065 527.429L314.416 517.288L304.365 513.967L301.014 524.108Z" fill="#404147"/>
<path d="M265.261 493.283L275.884 492.4C275.769 491.02 275.756 489.967 275.844 489.24C275.932 488.513 276.274 487.555 276.868 486.364C277.362 485.455 277.969 484.573 278.691 483.72C279.437 482.864 280.325 481.785 281.356 480.484C282.969 478.44 284.286 476.271 285.309 473.978C286.332 471.685 286.732 469.196 286.508 466.511C286.369 464.835 285.936 463.197 285.209 461.595C284.479 459.969 283.522 458.572 282.335 457.405C280.547 455.545 278.375 454.286 275.819 453.63C273.262 452.95 270.582 452.726 267.779 452.959C264.213 453.255 261.048 454.485 258.281 456.65C256.468 458.066 255.049 459.921 254.027 462.213C253.004 464.506 252.455 466.983 252.379 469.644L263.001 468.761C262.76 466.747 263.297 465.165 264.612 464.013C265.141 463.523 265.79 463.146 266.561 462.884C267.356 462.619 268.172 462.452 269.008 462.383C270.114 462.291 271.162 462.39 272.152 462.68C273.164 462.943 273.999 463.457 274.657 464.221C275.064 464.658 275.355 465.18 275.53 465.785C275.728 466.389 275.855 467.024 275.911 467.689C276.017 468.97 275.943 470.167 275.689 471.28C275.457 472.366 274.883 473.505 273.967 474.697C272.779 476.185 271.737 477.351 270.841 478.195C269.97 479.036 269.197 479.857 268.52 480.657C267.867 481.431 267.285 482.472 266.774 483.779C266.123 485.173 265.668 486.699 265.409 488.358C265.175 490.015 265.126 491.656 265.261 493.283ZM266.533 507.69L277.081 506.813L276.197 496.17L265.648 497.046L266.533 507.69Z" fill="#404147"/>
<ellipse cx="447.966" cy="156" rx="82" ry="91" transform="rotate(-90 447.966 156)" fill="url(#paint0_linear)"/>
<ellipse cx="430.966" cy="193.5" rx="245" ry="68.5" transform="rotate(12.2887 430.966 193.5)" fill="#404147"/>
<ellipse cx="430.819" cy="207.066" rx="88.6095" ry="24.7745" transform="rotate(12.2887 430.819 207.066)" fill="white"/>
<g filter="url(#filter0_d)">
<circle cx="214.466" cy="145.5" r="6.5" fill="#F3FBFF"/>
</g>
<g filter="url(#filter1_d)">
<circle cx="258.966" cy="195" r="4" fill="#F3FBFF"/>
</g>
<g filter="url(#filter2_d)">
<circle cx="308.966" cy="222" r="4" fill="#F3FBFF"/>
</g>
<g filter="url(#filter3_d)">
<circle cx="388.966" cy="249" r="4" fill="#F3FBFF"/>
</g>
<g filter="url(#filter4_d)">
<circle cx="467.966" cy="264" r="4" fill="#F3FBFF"/>
</g>
<g filter="url(#filter5_d)">
<circle cx="556.966" cy="269" r="4" fill="#F3FBFF"/>
</g>
<g filter="url(#filter6_d)">
<circle cx="283.466" cy="132.5" r="6.5" fill="#F3FBFF"/>
</g>
<g filter="url(#filter7_d)">
<circle cx="350.466" cy="132.5" r="6.5" fill="#F3FBFF"/>
</g>
<g filter="url(#filter8_d)">
<circle cx="419.466" cy="139.5" r="6.5" fill="#F3FBFF"/>
</g>
<g filter="url(#filter9_d)">
<circle cx="500.466" cy="162.5" r="6.5" fill="#F3FBFF"/>
</g>
<g filter="url(#filter10_d)">
<circle cx="572.466" cy="192.5" r="6.5" fill="#F3FBFF"/>
</g>
<g filter="url(#filter11_d)">
<circle cx="638.466" cy="237.5" r="6.5" fill="#F3FBFF"/>
</g>
<path fill-rule="evenodd" clip-rule="evenodd" d="M454.789 98.5493C426.497 94.2214 399.59 96.0863 383.735 98.9765C383.366 99.0438 383.003 98.9696 382.703 98.7923L386.466 95.5L386.428 95.4749C402.832 92.8669 428.418 91.4804 455.243 95.5838C483.492 99.905 513.283 110.342 535.118 132.032L535.966 135L536.139 134.942C536.102 134.989 536.061 135.034 536.017 135.078C535.426 135.658 534.476 135.649 533.896 135.058C512.609 113.377 483.092 102.879 454.789 98.5493Z" fill="#1337B6"/>
<path d="M348 187.5L184 524.5L469.5 566L511 225.5C466.6 182.7 383.833 182.333 348 187.5Z" fill="url(#paint1_linear)"/>
<defs>
<filter id="filter0_d" x="191.966" y="123" width="45" height="45" filterUnits="userSpaceOnUse" color-interpolation-filters="sRGB">
<feFlood flood-opacity="0" result="BackgroundImageFix"/>
<feColorMatrix in="SourceAlpha" type="matrix" values="0 0 0 0 0 0 0 0 0 0 0 0 0 0 0 0 0 0 127 0"/>
<feOffset/>
<feGaussianBlur stdDeviation="8"/>
<feColorMatrix type="matrix" values="0 0 0 0 0.580667 0 0 0 0 0.76045 0 0 0 0 0.8375 0 0 0 0.87 0"/>
<feBlend mode="normal" in2="BackgroundImageFix" result="effect1_dropShadow"/>
<feBlend mode="normal" in="SourceGraphic" in2="effect1_dropShadow" result="shape"/>
</filter>
<filter id="filter1_d" x="238.966" y="175" width="40" height="40" filterUnits="userSpaceOnUse" color-interpolation-filters="sRGB">
<feFlood flood-opacity="0" result="BackgroundImageFix"/>
<feColorMatrix in="SourceAlpha" type="matrix" values="0 0 0 0 0 0 0 0 0 0 0 0 0 0 0 0 0 0 127 0"/>
<feOffset/>
<feGaussianBlur stdDeviation="8"/>
<feColorMatrix type="matrix" values="0 0 0 0 0.580667 0 0 0 0 0.76045 0 0 0 0 0.8375 0 0 0 0.87 0"/>
<feBlend mode="normal" in2="BackgroundImageFix" result="effect1_dropShadow"/>
<feBlend mode="normal" in="SourceGraphic" in2="effect1_dropShadow" result="shape"/>
</filter>
<filter id="filter2_d" x="288.966" y="202" width="40" height="40" filterUnits="userSpaceOnUse" color-interpolation-filters="sRGB">
<feFlood flood-opacity="0" result="BackgroundImageFix"/>
<feColorMatrix in="SourceAlpha" type="matrix" values="0 0 0 0 0 0 0 0 0 0 0 0 0 0 0 0 0 0 127 0"/>
<feOffset/>
<feGaussianBlur stdDeviation="8"/>
<feColorMatrix type="matrix" values="0 0 0 0 0.580667 0 0 0 0 0.76045 0 0 0 0 0.8375 0 0 0 0.87 0"/>
<feBlend mode="normal" in2="BackgroundImageFix" result="effect1_dropShadow"/>
<feBlend mode="normal" in="SourceGraphic" in2="effect1_dropShadow" result="shape"/>
</filter>
<filter id="filter3_d" x="368.966" y="229" width="40" height="40" filterUnits="userSpaceOnUse" color-interpolation-filters="sRGB">
<feFlood flood-opacity="0" result="BackgroundImageFix"/>
<feColorMatrix in="SourceAlpha" type="matrix" values="0 0 0 0 0 0 0 0 0 0 0 0 0 0 0 0 0 0 127 0"/>
<feOffset/>
<feGaussianBlur stdDeviation="8"/>
<feColorMatrix type="matrix" values="0 0 0 0 0.580667 0 0 0 0 0.76045 0 0 0 0 0.8375 0 0 0 0.87 0"/>
<feBlend mode="normal" in2="BackgroundImageFix" result="effect1_dropShadow"/>
<feBlend mode="normal" in="SourceGraphic" in2="effect1_dropShadow" result="shape"/>
</filter>
<filter id="filter4_d" x="447.966" y="244" width="40" height="40" filterUnits="userSpaceOnUse" color-interpolation-filters="sRGB">
<feFlood flood-opacity="0" result="BackgroundImageFix"/>
<feColorMatrix in="SourceAlpha" type="matrix" values="0 0 0 0 0 0 0 0 0 0 0 0 0 0 0 0 0 0 127 0"/>
<feOffset/>
<feGaussianBlur stdDeviation="8"/>
<feColorMatrix type="matrix" values="0 0 0 0 0.580667 0 0 0 0 0.76045 0 0 0 0 0.8375 0 0 0 0.87 0"/>
<feBlend mode="normal" in2="BackgroundImageFix" result="effect1_dropShadow"/>
<feBlend mode="normal" in="SourceGraphic" in2="effect1_dropShadow" result="shape"/>
</filter>
<filter id="filter5_d" x="536.966" y="249" width="40" height="40" filterUnits="userSpaceOnUse" color-interpolation-filters="sRGB">
<feFlood flood-opacity="0" result="BackgroundImageFix"/>
<feColorMatrix in="SourceAlpha" type="matrix" values="0 0 0 0 0 0 0 0 0 0 0 0 0 0 0 0 0 0 127 0"/>
<feOffset/>
<feGaussianBlur stdDeviation="8"/>
<feColorMatrix type="matrix" values="0 0 0 0 0.580667 0 0 0 0 0.76045 0 0 0 0 0.8375 0 0 0 0.87 0"/>
<feBlend mode="normal" in2="BackgroundImageFix" result="effect1_dropShadow"/>
<feBlend mode="normal" in="SourceGraphic" in2="effect1_dropShadow" result="shape"/>
</filter>
<filter id="filter6_d" x="260.966" y="110" width="45" height="45" filterUnits="userSpaceOnUse" color-interpolation-filters="sRGB">
<feFlood flood-opacity="0" result="BackgroundImageFix"/>
<feColorMatrix in="SourceAlpha" type="matrix" values="0 0 0 0 0 0 0 0 0 0 0 0 0 0 0 0 0 0 127 0"/>
<feOffset/>
<feGaussianBlur stdDeviation="8"/>
<feColorMatrix type="matrix" values="0 0 0 0 0.580667 0 0 0 0 0.76045 0 0 0 0 0.8375 0 0 0 0.87 0"/>
<feBlend mode="normal" in2="BackgroundImageFix" result="effect1_dropShadow"/>
<feBlend mode="normal" in="SourceGraphic" in2="effect1_dropShadow" result="shape"/>
</filter>
<filter id="filter7_d" x="327.966" y="110" width="45" height="45" filterUnits="userSpaceOnUse" color-interpolation-filters="sRGB">
<feFlood flood-opacity="0" result="BackgroundImageFix"/>
<feColorMatrix in="SourceAlpha" type="matrix" values="0 0 0 0 0 0 0 0 0 0 0 0 0 0 0 0 0 0 127 0"/>
<feOffset/>
<feGaussianBlur stdDeviation="8"/>
<feColorMatrix type="matrix" values="0 0 0 0 0.580667 0 0 0 0 0.76045 0 0 0 0 0.8375 0 0 0 0.87 0"/>
<feBlend mode="normal" in2="BackgroundImageFix" result="effect1_dropShadow"/>
<feBlend mode="normal" in="SourceGraphic" in2="effect1_dropShadow" result="shape"/>
</filter>
<filter id="filter8_d" x="396.966" y="117" width="45" height="45" filterUnits="userSpaceOnUse" color-interpolation-filters="sRGB">
<feFlood flood-opacity="0" result="BackgroundImageFix"/>
<feColorMatrix in="SourceAlpha" type="matrix" values="0 0 0 0 0 0 0 0 0 0 0 0 0 0 0 0 0 0 127 0"/>
<feOffset/>
<feGaussianBlur stdDeviation="8"/>
<feColorMatrix type="matrix" values="0 0 0 0 0.580667 0 0 0 0 0.76045 0 0 0 0 0.8375 0 0 0 0.87 0"/>
<feBlend mode="normal" in2="BackgroundImageFix" result="effect1_dropShadow"/>
<feBlend mode="normal" in="SourceGraphic" in2="effect1_dropShadow" result="shape"/>
</filter>
<filter id="filter9_d" x="477.966" y="140" width="45" height="45" filterUnits="userSpaceOnUse" color-interpolation-filters="sRGB">
<feFlood flood-opacity="0" result="BackgroundImageFix"/>
<feColorMatrix in="SourceAlpha" type="matrix" values="0 0 0 0 0 0 0 0 0 0 0 0 0 0 0 0 0 0 127 0"/>
<feOffset/>
<feGaussianBlur stdDeviation="8"/>
<feColorMatrix type="matrix" values="0 0 0 0 0.580667 0 0 0 0 0.76045 0 0 0 0 0.8375 0 0 0 0.87 0"/>
<feBlend mode="normal" in2="BackgroundImageFix" result="effect1_dropShadow"/>
<feBlend mode="normal" in="SourceGraphic" in2="effect1_dropShadow" result="shape"/>
</filter>
<filter id="filter10_d" x="549.966" y="170" width="45" height="45" filterUnits="userSpaceOnUse" color-interpolation-filters="sRGB">
<feFlood flood-opacity="0" result="BackgroundImageFix"/>
<feColorMatrix in="SourceAlpha" type="matrix" values="0 0 0 0 0 0 0 0 0 0 0 0 0 0 0 0 0 0 127 0"/>
<feOffset/>
<feGaussianBlur stdDeviation="8"/>
<feColorMatrix type="matrix" values="0 0 0 0 0.580667 0 0 0 0 0.76045 0 0 0 0 0.8375 0 0 0 0.87 0"/>
<feBlend mode="normal" in2="BackgroundImageFix" result="effect1_dropShadow"/>
<feBlend mode="normal" in="SourceGraphic" in2="effect1_dropShadow" result="shape"/>
</filter>
<filter id="filter11_d" x="615.966" y="215" width="45" height="45" filterUnits="userSpaceOnUse" color-interpolation-filters="sRGB">
<feFlood flood-opacity="0" result="BackgroundImageFix"/>
<feColorMatrix in="SourceAlpha" type="matrix" values="0 0 0 0 0 0 0 0 0 0 0 0 0 0 0 0 0 0 127 0"/>
<feOffset/>
<feGaussianBlur stdDeviation="8"/>
<feColorMatrix type="matrix" values="0 0 0 0 0.580667 0 0 0 0 0.76045 0 0 0 0 0.8375 0 0 0 0.87 0"/>
<feBlend mode="normal" in2="BackgroundImageFix" result="effect1_dropShadow"/>
<feBlend mode="normal" in="SourceGraphic" in2="effect1_dropShadow" result="shape"/>
</filter>
<linearGradient id="paint0_linear" x1="406.966" y1="148.035" x2="529.966" y2="184.035" gradientUnits="userSpaceOnUse">
<stop offset="0.545104" stop-color="#247CFF"/>
<stop offset="1" stop-color="#69AEFF"/>
</linearGradient>
<linearGradient id="paint1_linear" x1="433" y1="194.5" x2="321" y2="577.5" gradientUnits="userSpaceOnUse">
<stop stop-color="#F9FFD4" stop-opacity="0.44"/>
<stop offset="0.119784" stop-color="#F9FFD4" stop-opacity="0.82"/>
<stop offset="0.39896" stop-color="#F9FFD4"/>
<stop offset="0.863346" stop-color="#F9FFD4" stop-opacity="0"/>
</linearGradient>
</defs>
</svg>
