<svg width="24" height="24" viewBox="0 0 24 24" fill="none" xmlns="http://www.w3.org/2000/svg">
<path d="M19.1781 14.0742C18.7197 13.5969 18.1669 13.3417 17.5809 13.3417C16.9997 13.3417 16.4421 13.5922 15.9648 14.0694L14.4716 15.5579C14.3488 15.4918 14.2259 15.4303 14.1078 15.3689C13.9377 15.2838 13.777 15.2035 13.64 15.1185C12.2413 14.2301 10.9701 13.0724 9.751 11.5744C9.16034 10.8278 8.76341 10.1994 8.47516 9.56145C8.86264 9.20705 9.22177 8.83847 9.57144 8.48407C9.70375 8.35176 9.83606 8.21472 9.96837 8.08241C10.9607 7.09009 10.9607 5.80479 9.96837 4.81247L8.67835 3.52245C8.53186 3.37596 8.38065 3.22475 8.23889 3.07354C7.95537 2.78057 7.65767 2.47815 7.35053 2.19463C6.89217 1.74099 6.34403 1.5 5.76753 1.5C5.19104 1.5 4.63345 1.74099 4.16092 2.19463C4.15619 2.19935 4.15619 2.19935 4.15146 2.20408L2.54485 3.82487C1.94 4.42972 1.59505 5.16687 1.51944 6.02216C1.40604 7.40196 1.81242 8.68726 2.12429 9.52837C2.8898 11.5933 4.03333 13.5071 5.73918 15.5579C7.80889 18.0293 10.2991 19.9808 13.1438 21.3559C14.2306 21.871 15.6813 22.4806 17.3021 22.5845C17.4013 22.5892 17.5053 22.594 17.5998 22.594C18.6914 22.594 19.6081 22.2018 20.3263 21.4221C20.3311 21.4126 20.3405 21.4079 20.3452 21.3984C20.591 21.1008 20.8745 20.8314 21.1722 20.5432C21.3754 20.3494 21.5833 20.1462 21.7865 19.9336C22.2543 19.4469 22.5 18.8798 22.5 18.2986C22.5 17.7127 22.2496 17.1504 21.7723 16.6778L19.1781 14.0742ZM20.8698 19.0499C20.865 19.0499 20.865 19.0547 20.8698 19.0499C20.6855 19.2484 20.4965 19.428 20.2933 19.6264C19.9861 19.9194 19.6742 20.2266 19.3813 20.5715C18.904 21.0819 18.3417 21.3228 17.6045 21.3228C17.5337 21.3228 17.4581 21.3228 17.3872 21.3181C15.9837 21.2283 14.6795 20.6802 13.7014 20.2124C11.0268 18.9176 8.67835 17.0795 6.72678 14.7499C5.11544 12.8078 4.03806 11.0121 3.32453 9.08419C2.88507 7.90757 2.72441 6.99086 2.79529 6.12612C2.84254 5.57325 3.05518 5.11489 3.44739 4.72269L5.05873 3.11134C5.29027 2.89398 5.53599 2.77584 5.77699 2.77584C6.07468 2.77584 6.31567 2.95541 6.46689 3.10662C6.47161 3.11134 6.47634 3.11607 6.48106 3.1208C6.76931 3.39014 7.04338 3.66894 7.33162 3.96663C7.47811 4.11784 7.62932 4.26906 7.78053 4.42499L9.07055 5.71501C9.57144 6.2159 9.57144 6.67898 9.07055 7.17987C8.93352 7.31691 8.80121 7.45394 8.66417 7.58625C8.26724 7.99263 7.88922 8.37066 7.47811 8.73924C7.46866 8.74869 7.45921 8.75341 7.45448 8.76286C7.0481 9.16924 7.12371 9.56617 7.20877 9.83552C7.21349 9.84969 7.21822 9.86387 7.22294 9.87805C7.55844 10.6908 8.03098 11.4563 8.74923 12.3683L8.75396 12.373C10.0582 13.9796 11.4332 15.2319 12.9501 16.1911C13.1438 16.314 13.3423 16.4132 13.5313 16.5077C13.7014 16.5928 13.8621 16.6731 13.9991 16.7582C14.018 16.7676 14.0369 16.7818 14.0558 16.7912C14.2165 16.8716 14.3677 16.9094 14.5236 16.9094C14.9158 16.9094 15.1615 16.6636 15.2419 16.5833L16.8579 14.9672C17.0186 14.8066 17.2738 14.6128 17.5715 14.6128C17.8644 14.6128 18.1054 14.7971 18.2519 14.9578C18.2566 14.9625 18.2566 14.9625 18.2614 14.9672L20.865 17.5709C21.3517 18.0529 21.3517 18.5491 20.8698 19.0499Z" fill="#84858A"/>
</svg>
