<svg width="24" height="24" viewBox="0 0 24 24" fill="none" xmlns="http://www.w3.org/2000/svg">
<path d="M17.423 14.0309C17.075 13.6685 16.6552 13.4747 16.2103 13.4747C15.7689 13.4747 15.3456 13.6649 14.9832 14.0273L13.8494 15.1575C13.7561 15.1072 13.6628 15.0606 13.5731 15.014C13.4439 14.9494 13.322 14.8884 13.2179 14.8238C12.1559 14.1493 11.1907 13.2702 10.265 12.1328C9.81651 11.5659 9.51512 11.0887 9.29625 10.6043C9.59047 10.3353 9.86315 10.0554 10.1287 9.78629C10.2291 9.68583 10.3296 9.58178 10.4301 9.48131C11.1835 8.72784 11.1835 7.75191 10.4301 6.99844L9.45054 6.01893C9.33931 5.9077 9.22449 5.79288 9.11685 5.67807C8.90158 5.45562 8.67553 5.22599 8.44232 5.01071C8.09428 4.66626 7.67808 4.48328 7.24035 4.48328C6.80261 4.48328 6.37923 4.66626 6.02044 5.01071C6.01685 5.0143 6.01685 5.0143 6.01326 5.01788L4.79335 6.24856C4.33409 6.70782 4.07217 7.26754 4.01476 7.91696C3.92865 8.96465 4.23722 9.94057 4.47402 10.5792C5.05527 12.1472 5.92356 13.6003 7.21882 15.1575C8.79035 17.034 10.6812 18.5158 12.8412 19.5599C13.6664 19.951 14.7679 20.4139 15.9986 20.4928C16.0739 20.4964 16.1529 20.5 16.2246 20.5C17.0534 20.5 17.7495 20.2022 18.2949 19.6101C18.2985 19.603 18.3056 19.5994 18.3092 19.5922C18.4958 19.3662 18.7111 19.1617 18.9371 18.9428C19.0914 18.7957 19.2493 18.6414 19.4036 18.4799C19.7588 18.1104 19.9453 17.6798 19.9453 17.2385C19.9453 16.7936 19.7552 16.3666 19.3928 16.0078L17.423 14.0309ZM18.7075 17.809C18.7039 17.809 18.7039 17.8126 18.7075 17.809C18.5676 17.9597 18.424 18.096 18.2698 18.2467C18.0365 18.4692 17.7997 18.7024 17.5773 18.9643C17.2149 19.3518 16.7879 19.5348 16.2282 19.5348C16.1744 19.5348 16.117 19.5348 16.0632 19.5312C14.9975 19.463 14.0073 19.0468 13.2645 18.6916C11.2338 17.7085 9.45054 16.3128 7.9687 14.5439C6.74521 13.0693 5.92715 11.7059 5.38537 10.242C5.05169 9.34856 4.9297 8.65249 4.98352 7.9959C5.01939 7.5761 5.18085 7.22807 5.47865 6.93027L6.70215 5.70677C6.87796 5.54173 7.06454 5.45203 7.24752 5.45203C7.47357 5.45203 7.65655 5.58837 7.77137 5.70319C7.77495 5.70677 7.77854 5.71036 7.78213 5.71395C8.001 5.91846 8.2091 6.13015 8.42796 6.3562C8.53919 6.47101 8.65401 6.58583 8.76882 6.70423L9.74834 7.68374C10.1287 8.06407 10.1287 8.41569 9.74834 8.79601C9.64429 8.90006 9.54382 9.00412 9.43977 9.10458C9.13838 9.41314 8.85135 9.70018 8.53919 9.98004C8.53202 9.98722 8.52484 9.99081 8.52125 9.99798C8.21269 10.3065 8.27009 10.6079 8.33468 10.8125C8.33827 10.8232 8.34185 10.834 8.34544 10.8447C8.60019 11.4619 8.95898 12.0431 9.50435 12.7356L9.50794 12.7392C10.4982 13.9591 11.5423 14.9099 12.6941 15.6383C12.8412 15.7316 12.9919 15.8069 13.1354 15.8787C13.2645 15.9432 13.3865 16.0042 13.4906 16.0688C13.5049 16.076 13.5193 16.0868 13.5336 16.0939C13.6556 16.1549 13.7704 16.1836 13.8889 16.1836C14.1867 16.1836 14.3732 15.9971 14.4342 15.9361L15.6613 14.709C15.7833 14.587 15.977 14.4399 16.2031 14.4399C16.4255 14.4399 16.6085 14.5798 16.7198 14.7018C16.7233 14.7054 16.7233 14.7054 16.7269 14.709L18.7039 16.686C19.0735 17.0519 19.0735 17.4287 18.7075 17.809Z" fill="#84858A"/>
<path d="M13.1748 7.54383C14.1149 7.7017 14.9688 8.14661 15.6505 8.82832C16.3322 9.51004 16.7736 10.364 16.935 11.304C16.9745 11.5408 17.179 11.7059 17.4122 11.7059C17.4409 11.7059 17.466 11.7023 17.4947 11.6987C17.7603 11.6556 17.9361 11.4045 17.893 11.139C17.6993 10.0016 17.1611 8.96467 16.3394 8.14302C15.5178 7.32138 14.4809 6.78318 13.3435 6.58943C13.078 6.54638 12.8304 6.72219 12.7837 6.98411C12.7371 7.24603 12.9093 7.50078 13.1748 7.54383Z" fill="#84858A"/>
<path d="M20.9679 10.9991C20.6485 9.12614 19.7659 7.42186 18.4096 6.06561C17.0534 4.70935 15.3491 3.82671 13.4762 3.50738C13.2143 3.46074 12.9667 3.64014 12.9201 3.90206C12.877 4.16757 13.0528 4.41514 13.3183 4.46178C14.9903 4.74523 16.5152 5.53817 17.7279 6.74732C18.9407 7.96005 19.73 9.48494 20.0135 11.1569C20.0529 11.3937 20.2574 11.5588 20.4907 11.5588C20.5194 11.5588 20.5445 11.5552 20.5732 11.5516C20.8351 11.5121 21.0145 11.261 20.9679 10.9991Z" fill="#84858A"/>
</svg>
