<svg width="24" height="24" viewBox="0 0 24 24" fill="none" xmlns="http://www.w3.org/2000/svg">
<path fill-rule="evenodd" clip-rule="evenodd" d="M12 18.8293C15.7717 18.8293 18.8293 15.7717 18.8293 12C18.8293 8.2283 15.7717 5.17073 12 5.17073C8.2283 5.17073 5.17073 8.2283 5.17073 12C5.17073 15.7717 8.2283 18.8293 12 18.8293ZM12 19.8049C16.3105 19.8049 19.8049 16.3105 19.8049 12C19.8049 7.68948 16.3105 4.19512 12 4.19512C7.68948 4.19512 4.19512 7.68948 4.19512 12C4.19512 16.3105 7.68948 19.8049 12 19.8049Z" fill="#84858A"/>
<path fill-rule="evenodd" clip-rule="evenodd" d="M11.5122 8.09756C11.7816 8.09756 12 8.31596 12 8.58537V12.9756H15.4146C15.684 12.9756 15.9024 13.194 15.9024 13.4634C15.9024 13.7328 15.684 13.9512 15.4146 13.9512H11.5122C11.2428 13.9512 11.0244 13.7328 11.0244 13.4634V8.58537C11.0244 8.31596 11.2428 8.09756 11.5122 8.09756Z" fill="#84858A"/>
<path fill-rule="evenodd" clip-rule="evenodd" d="M12 18.6341C15.6639 18.6341 18.6341 15.6639 18.6341 12C18.6341 8.33606 15.6639 5.36585 12 5.36585C8.33606 5.36585 5.36585 8.33606 5.36585 12C5.36585 15.6639 8.33606 18.6341 12 18.6341ZM20 12C20 16.4183 16.4183 20 12 20C7.58172 20 4 16.4183 4 12C4 7.58172 7.58172 4 12 4C16.4183 4 20 7.58172 20 12ZM11.5122 7.90244C11.8894 7.90244 12.1951 8.20819 12.1951 8.58537V12.7805H15.4146C15.7918 12.7805 16.0976 13.0862 16.0976 13.4634C16.0976 13.8406 15.7918 14.1463 15.4146 14.1463H11.5122C11.135 14.1463 10.8293 13.8406 10.8293 13.4634V8.58537C10.8293 8.20819 11.135 7.90244 11.5122 7.90244ZM18.8293 12C18.8293 15.7717 15.7717 18.8293 12 18.8293C8.2283 18.8293 5.17073 15.7717 5.17073 12C5.17073 8.2283 8.2283 5.17073 12 5.17073C15.7717 5.17073 18.8293 8.2283 18.8293 12ZM19.8049 12C19.8049 16.3105 16.3105 19.8049 12 19.8049C7.68948 19.8049 4.19512 16.3105 4.19512 12C4.19512 7.68948 7.68948 4.19512 12 4.19512C16.3105 4.19512 19.8049 7.68948 19.8049 12ZM12 8.58537C12 8.31596 11.7816 8.09756 11.5122 8.09756C11.2428 8.09756 11.0244 8.31596 11.0244 8.58537V13.4634C11.0244 13.7328 11.2428 13.9512 11.5122 13.9512H15.4146C15.684 13.9512 15.9024 13.7328 15.9024 13.4634C15.9024 13.194 15.684 12.9756 15.4146 12.9756H12V8.58537Z" fill="#84858A"/>
</svg>
