<svg width="24" height="24" viewBox="0 0 24 24" fill="#ffffff" xmlns="http://www.w3.org/2000/svg">
    <path d="M7.70003 15.1703H19.5584C20.9031 15.1703 22 14.0734 22 12.7288V7.73947C22 7.73504 22 7.7262 22 7.72177C22 7.7085 22 7.69966 22 7.68639C22 7.67754 22 7.66869 21.9956 7.65985C21.9956 7.651 21.9912 7.63773 21.9912 7.62889C21.9912 7.62004 21.9867 7.61119 21.9867 7.60235C21.9823 7.5935 21.9823 7.58466 21.9779 7.57139C21.9735 7.56254 21.9735 7.55369 21.969 7.54485C21.9646 7.536 21.9646 7.52716 21.9602 7.51831C21.9558 7.50946 21.9513 7.50062 21.9469 7.48735C21.9425 7.4785 21.9381 7.46965 21.9337 7.46523C21.9292 7.45639 21.9248 7.44754 21.9204 7.43869C21.916 7.42985 21.9115 7.42542 21.9071 7.41658C21.9027 7.40773 21.8938 7.39888 21.8894 7.39004C21.885 7.38119 21.8806 7.37677 21.8717 7.36792C21.8673 7.35908 21.8585 7.35465 21.854 7.34581C21.8496 7.33696 21.8408 7.33254 21.8363 7.32369C21.8319 7.31484 21.8231 7.31042 21.8187 7.306C21.8098 7.29715 21.8054 7.29273 21.7965 7.28388C21.7877 7.27946 21.7833 7.27061 21.7744 7.26619C21.7656 7.26177 21.7567 7.25292 21.7479 7.2485C21.739 7.24407 21.7346 7.23965 21.7258 7.23523C21.7169 7.23081 21.7081 7.22638 21.6992 7.21754C21.6904 7.21311 21.6815 7.20869 21.6727 7.20427C21.6638 7.19984 21.655 7.19542 21.6462 7.191C21.6373 7.18657 21.6285 7.18215 21.6196 7.17773C21.6108 7.17331 21.6019 7.1733 21.5931 7.16888C21.5842 7.16446 21.571 7.16004 21.5621 7.16004C21.5533 7.16004 21.5444 7.15561 21.54 7.15561C21.5267 7.15119 21.5179 7.15119 21.5046 7.15119C21.5002 7.15119 21.4958 7.14677 21.4869 7.14677L6.45713 5.07232V2.97576C6.45713 2.95364 6.45713 2.93152 6.45271 2.91383C6.45271 2.90941 6.45271 2.90499 6.44828 2.89614C6.44828 2.88287 6.44386 2.8696 6.44386 2.85633C6.43944 2.84306 6.43944 2.83422 6.43502 2.82095C6.43502 2.8121 6.43059 2.80768 6.43059 2.79883C6.42617 2.78556 6.42175 2.77229 6.41732 2.75902C6.41732 2.7546 6.4129 2.74575 6.4129 2.74133C6.40848 2.72806 6.40405 2.71921 6.39521 2.70595C6.39078 2.70152 6.39078 2.69268 6.38636 2.68825C6.38194 2.67941 6.37751 2.67056 6.36867 2.66171C6.36424 2.65287 6.35982 2.64844 6.3554 2.6396C6.35098 2.63075 6.34655 2.62633 6.34213 2.61748C6.33771 2.60864 6.32886 2.59979 6.32444 2.59094C6.32001 2.58652 6.31559 2.5821 6.31117 2.57767C6.30232 2.56883 6.29347 2.55998 6.28463 2.55114C6.28021 2.54671 6.27578 2.54229 6.27136 2.53787C6.26251 2.52902 6.25367 2.52017 6.2404 2.51133C6.23597 2.5069 6.22713 2.50248 6.2227 2.49806C6.21386 2.48921 6.20501 2.48479 6.19617 2.47594C6.1829 2.4671 6.16963 2.45825 6.16078 2.45383C6.15636 2.4494 6.15193 2.4494 6.14751 2.44498C6.12982 2.43613 6.1077 2.42729 6.09001 2.41844L2.83017 1.04727C2.52497 0.919001 2.17554 1.06054 2.04727 1.36574C1.919 1.67093 2.06054 2.02036 2.36574 2.14863L5.25846 3.36941V6.07637V6.50541V9.79622V12.7376V16.453C5.25846 17.6915 6.18732 18.7177 7.38599 18.8725C7.16925 19.2352 7.04098 19.6598 7.04098 20.111C7.04098 21.4423 8.12465 22.5216 9.45159 22.5216C10.7785 22.5216 11.8622 21.4379 11.8622 20.111C11.8622 19.6686 11.7428 19.2484 11.5305 18.8946H16.9001C16.6878 19.2529 16.5684 19.6686 16.5684 20.111C16.5684 21.4423 17.6521 22.5216 18.979 22.5216C20.3059 22.5216 21.3896 21.4379 21.3896 20.111C21.3896 18.784 20.3059 17.7003 18.979 17.7003H7.70003C7.01002 17.7003 6.45271 17.1386 6.45271 16.453V14.8342C6.8154 15.0465 7.24445 15.1703 7.70003 15.1703ZM10.6724 20.1065C10.6724 20.7788 10.1239 21.3229 9.45601 21.3229C8.78812 21.3229 8.23965 20.7744 8.23965 20.1065C8.23965 19.4386 8.78812 18.8902 9.45601 18.8902C10.1239 18.8902 10.6724 19.4342 10.6724 20.1065ZM20.1998 20.1065C20.1998 20.7788 19.6513 21.3229 18.9834 21.3229C18.3155 21.3229 17.7671 20.7744 17.7671 20.1065C17.7671 19.4386 18.3155 18.8902 18.9834 18.8902C19.6513 18.8902 20.1998 19.4342 20.1998 20.1065ZM19.5584 13.9761H7.70003C7.01002 13.9761 6.45271 13.4143 6.45271 12.7288V9.78737V6.49657V6.27541L20.8058 8.25255V12.7243C20.8058 13.4188 20.244 13.9761 19.5584 13.9761Z" />
</svg>