<svg width="48" height="48" viewBox="0 0 48 48" fill="none" xmlns="http://www.w3.org/2000/svg">
<path d="M31.9168 23.0613L21.9498 15.816C21.584 15.5508 21.0984 15.5109 20.6975 15.717C20.2934 15.9214 20.041 16.3367 20.041 16.7855V31.2713C20.041 31.7249 20.2934 32.1386 20.6975 32.3431C20.8684 32.4293 21.0553 32.4725 21.2438 32.4725C21.4898 32.4725 21.7389 32.3942 21.9498 32.2393L31.9168 25.0004C32.2315 24.7688 32.4152 24.411 32.4152 24.0308C32.4168 23.6443 32.2283 23.2881 31.9168 23.0613Z" fill="#247CFF"/>
<path d="M24.0008 0.00292969C10.7433 0.00292969 0 10.7463 0 24.0037C0 37.2564 10.7433 47.9965 24.0008 47.9965C37.2551 47.9965 48 37.2548 48 24.0037C48.0016 10.7463 37.2551 0.00292969 24.0008 0.00292969ZM24.0008 43.9921C12.9604 43.9921 4.00918 35.0458 4.00918 24.0037C4.00918 12.9665 12.9604 4.00892 24.0008 4.00892C35.0396 4.00892 43.9892 12.9649 43.9892 24.0037C43.9908 35.0458 35.0396 43.9921 24.0008 43.9921Z" fill="#247CFF"/>
</svg>
