<?xml version="1.0" ?><!DOCTYPE svg  PUBLIC '-//W3C//DTD SVG 1.1//EN'  'http://www.w3.org/Graphics/SVG/1.1/DTD/svg11.dtd'><svg height="32px" id="Layer_1" style="enable-background:new 0 0 32 32;" version="1.1" viewBox="0 0 32 32" width="32px" xml:space="preserve" xmlns="http://www.w3.org/2000/svg" xmlns:xlink="http://www.w3.org/1999/xlink"><g transform="translate(384 48)"><path fill="#FFFFFF" d="M-368.004-31c-0.448,0-0.903-0.152-1.276-0.465c-0.851-0.707-0.963-1.967-0.256-2.816l9.998-12   c0.707-0.848,1.967-0.963,2.818-0.254c0.848,0.707,0.963,1.968,0.256,2.816l-10.002,12C-366.861-31.246-367.428-31-368.004-31z    M-352.002-33v2c0,1.105-0.895,2-2,2l-2,12h-24l-2-12c-1.104,0-2-0.895-2-2v-2c0-1.104,0.896-2,2-2h11.763l-0.065,0.08   c-1.06,1.271-0.888,3.166,0.385,4.225C-369.381-30.246-368.7-30-368-30c0.895,0,1.733-0.393,2.307-1.078l3.268-3.922h8.428   c1.105,0,2,0.896,2,2H-352.002z M-375.002-26c0-0.553-0.446-1-1-1c-0.553,0-1,0.447-1,1v6c0,0.553,0.447,1,1,1c0.554,0,1-0.447,1-1   V-26z M-371.002-26c0-0.553-0.446-1-1-1c-0.553,0-1,0.447-1,1v6c0,0.553,0.447,1,1,1c0.554,0,1-0.447,1-1V-26z M-367.002-26   c0-0.553-0.447-1-1-1c-0.553,0-1,0.447-1,1v6c0,0.553,0.447,1,1,1c0.553,0,1-0.447,1-1V-26z M-363.002-26c0-0.553-0.447-1-1-1   s-1,0.447-1,1v6c0,0.553,0.447,1,1,1s1-0.447,1-1V-26z M-359.002-26c0-0.553-0.447-1-1-1s-1,0.447-1,1v6c0,0.553,0.447,1,1,1   s1-0.447,1-1V-26z"/></g></svg>