<?xml version="1.0" ?><!DOCTYPE svg  PUBLIC '-//W3C//DTD SVG 1.1//EN'  'http://www.w3.org/Graphics/SVG/1.1/DTD/svg11.dtd'><svg enable-background="new 0 0 48 48" height="48px" id="Layer_3" version="1.1" viewBox="0 0 48 48" width="48px" xml:space="preserve" xmlns="http://www.w3.org/2000/svg" xmlns:xlink="http://www.w3.org/1999/xlink"><g><rect fill="#241F20" height="7.022" width="44.5" x="1.75" y="40.975"/><path d="M40.158,34.235v-1.23c0-0.012,0.002-0.023,0.002-0.035s-0.002-0.021-0.002-0.032v-0.094h-0.004   c-0.061-7.955-5.939-14.505-13.586-15.653v-2.72h2.566h1.67v-4.319c-0.035-0.912-0.773-1.644-1.697-1.644h-0.721h-0.992h-6.791   h-0.802h-0.91c-0.946,0-1.712,0.765-1.712,1.712v0.694v0.535v0.479v1.15v1.392h1.685h2.567v2.775   c-7.325,1.277-12.928,7.537-13.191,15.167H8.222v0.358c-0.001,0.067-0.01,0.133-0.01,0.198c0,0.068,0.008,0.134,0.01,0.199v1.066   h-2.22v3.421H42v-3.421H40.158z" fill="#241F20"/><rect fill="#241F20" height="5.135" transform="matrix(0.7069 -0.7073 0.7073 0.7069 -3.4837 8.8735)" width="3.452" x="7.239" y="6.073"/><rect fill="#241F20" height="5.135" transform="matrix(-0.7072 -0.707 0.707 -0.7072 60.7 42.8437)" width="3.449" x="37.496" y="6.287"/><rect fill="#241F20" height="5.135" width="3.424" x="22.288" y="0.003"/></g></svg>