<svg width="160" height="160" viewBox="0 0 160 160" fill="none" xmlns="http://www.w3.org/2000/svg">
<circle cx="80" cy="80" r="80" fill="#F7F7F7"/>
<g clip-path="url(#clip0)">
<path d="M123.26 52.1099C121.636 50.1313 119.172 49.03 116.615 49.03H61.1206C59.534 49.03 58.0221 49.478 56.7154 50.2806L53.8782 40.3689C53.4115 38.745 51.9369 37.625 50.257 37.625H45.9451H37.7133C36.1454 37.625 34.8574 38.8943 34.8574 40.4809V40.7796C34.8574 42.3475 36.1267 43.6355 37.7133 43.6355H48.5023L54.0088 63.1042L61.5873 89.9648C57.2754 91.0474 54.0835 94.9486 54.0835 99.5778C54.0835 104.823 58.1714 109.135 63.3419 109.471C62.9126 110.703 62.7073 112.065 62.8192 113.465C63.1926 118.207 67.0565 122.033 71.7976 122.35C77.4535 122.742 82.176 118.244 82.176 112.681C82.176 111.561 81.9893 110.497 81.6347 109.49H92.9837C92.517 110.815 92.3304 112.289 92.4984 113.801C93.021 118.393 96.8102 122.014 101.439 122.35C107.095 122.742 111.836 118.263 111.836 112.681C111.836 107.287 107.357 102.975 101.981 102.975H64.0699C62.2219 102.975 60.654 101.538 60.5793 99.7085C60.5047 97.7672 62.0539 96.1806 63.9765 96.1806H69.6697H100.525H109.205C113.05 96.1806 116.41 93.5487 117.343 89.8154L124.884 59.4643C125.537 56.8511 124.94 54.1818 123.26 52.1099ZM102.149 109.471C103.903 109.471 105.341 110.908 105.341 112.663C105.341 114.417 103.903 115.855 102.149 115.855C100.394 115.855 98.9568 114.417 98.9568 112.663C98.9568 110.908 100.375 109.471 102.149 109.471ZM72.4883 109.471C74.2429 109.471 75.6802 110.908 75.6802 112.663C75.6802 114.417 74.2429 115.855 72.4883 115.855C70.7337 115.855 69.2964 114.417 69.2964 112.663C69.2964 110.908 70.715 109.471 72.4883 109.471ZM60.766 63.0669L59.31 57.9337C59.086 57.1497 59.4033 56.5711 59.6273 56.2911C59.8327 56.0111 60.318 55.5445 61.1206 55.5445H67.2058L68.8671 63.0856H60.766V63.0669ZM62.5953 69.5627H70.2857L71.8163 76.5438H64.5552L62.5953 69.5627ZM69.6697 89.6474C68.8297 89.6474 68.0831 89.0875 67.8591 88.2661L66.3845 83.0396H73.2349L74.6909 89.6288H69.6697V89.6474ZM85.9279 89.6474H81.336L79.8801 83.0583H85.9092V89.6474H85.9279ZM85.9279 76.5438H78.4614L76.9308 69.5627H85.9279V76.5438ZM85.9279 63.0669H75.5122L73.8509 55.5258H85.9279V63.0669ZM97.5755 89.6474H92.4424V83.0583H98.9568L97.5755 89.6474ZM100.338 76.5438H92.4424V69.5627H101.813L100.338 76.5438ZM92.4424 63.0669V55.5258H104.762L103.175 63.0669H92.4424ZM111.052 88.2288C110.847 89.0688 110.1 89.6661 109.223 89.6661H104.221L105.621 83.077H112.34L111.052 88.2288ZM113.946 76.5438H106.983L108.458 69.5627H115.682L113.946 76.5438ZM118.575 57.8591L117.287 63.0482H109.821L111.407 55.5071H116.746C117.548 55.5071 118.015 55.9551 118.22 56.2351C118.444 56.5151 118.78 57.0937 118.575 57.8591Z" fill="#D0D0D0"/>
</g>
<defs>
<clipPath id="clip0">
<rect width="90.2857" height="90.2857" fill="white" transform="translate(34.8574 34.8569)"/>
</clipPath>
</defs>
</svg>
