<?xml version="1.0" ?><!DOCTYPE svg  PUBLIC '-//W3C//DTD SVG 1.1//EN'  'http://www.w3.org/Graphics/SVG/1.1/DTD/svg11.dtd'><svg enable-background="new 0 0 24 24" height="24px" id="Layer_1" version="1.1" viewBox="0 0 24 24" width="24px" xml:space="preserve" xmlns="http://www.w3.org/2000/svg" xmlns:xlink="http://www.w3.org/1999/xlink"><g id="icon"><circle cx="12" cy="12" fill="#4C75A3" r="11"/><path d="M11.5523,16.4145h0.8371c0,0,0.2528,-0.0279,0.3821,-0.1669c0.1188,-0.1278,0.115,-0.3677,0.115,-0.3677s-0.0164,-1.1232,0.5049,-1.2887c0.514,-0.163,1.1739,1.0856,1.8733,1.5657c0.5289,0.3632,0.9309,0.2837,0.9309,0.2837l1.8703,-0.0262c0,0,0.9783,-0.0604,0.5144,-0.8296c-0.038,-0.0628,-0.2703,-0.569,-1.3907,-1.609c-1.1729,-1.0885,-1.0156,-0.9124,0.3971,-2.7953c0.8603,-1.1466,1.2042,-1.8467,1.0967,-2.1464c-0.1024,-0.2856,-0.7352,-0.2102,-0.7352,-0.2102l-2.1058,0.013c0,0,-0.1562,-0.0213,-0.2719,0.048c-0.1132,0.0677,-0.1858,0.2259,-0.1858,0.2259s-0.3334,0.8873,-0.7778,1.6419c-0.9377,1.5922,-1.3127,1.6765,-1.466,1.5775c-0.3566,-0.2305,-0.2675,-0.9256,-0.2675,-1.4196c0,-1.5431,0.2341,-2.1865,-0.4558,-2.3531c-0.2289,-0.0552,-0.3975,-0.0918,-0.9829,-0.0977c-0.7514,-0.0076,-1.3873,0.0023,-1.7474,0.1787c-0.2396,0.1173,-0.4244,0.3787,-0.3118,0.3938c0.1392,0.0185,0.4543,0.0851,0.6214,0.3124c0.2159,0.2937,0.2083,0.9529,0.2083,0.9529s0.124,1.8165,-0.2896,2.0421c-0.2838,0.1548,-0.6732,-0.1612,-1.5092,-1.6058c-0.4283,-0.74,-0.7517,-1.558,-0.7517,-1.558s-0.0623,-0.1528,-0.1735,-0.2347c-0.1349,-0.0991,-0.3235,-0.1305,-0.3235,-0.1305l-2.0012,0.0131c0,0,-0.3004,0.0084,-0.4107,0.139c-0.0982,0.1163,-0.0078,0.3565,-0.0078,0.3565s1.5666,3.6653,3.3406,5.5124C9.7054,16.5256,11.5523,16.4145,11.5523,16.4145" fill="#FFFFFF"/><path d="M4.2218,19.7782C6.2124,21.7688,8.9624,23,12,23c6.0751,0,11,-4.9249,11,-11c0,-3.0376,-1.2312,-5.7876,-3.2218,-7.7782L4.2218,19.7782z" fill="#231F20" opacity="0.1"/></g></svg>