<svg width="30" height="32" viewBox="0 0 30 32" fill="none" xmlns="http://www.w3.org/2000/svg">
<path d="M26.0236 26.1756C22.9061 29.8771 18.2234 31.9999 13.1755 31.9999C9.5 32.0118 5.92989 30.8484 3.0535 28.7013L2.94727 28.6219L3.66485 27.7685L3.77107 27.8479C6.44323 29.8434 9.76038 30.9248 13.1755 30.9136C17.8668 30.9136 22.2178 28.9413 25.1152 25.5023C30.3095 19.3322 29.1876 10.3466 22.6134 5.47132C19.939 3.5033 16.6381 2.43449 13.2394 2.4361C11.1558 2.43072 9.09338 2.82802 7.18057 3.60325C5.26776 4.37849 3.54557 5.51505 2.1213 6.94213L8.59467 6.31759L8.71282 7.39782L0.230882 8.21663L0.0834641 8.23189L0 0.150541L1.15116 1.90735e-06L1.11864 6.36337C4.20249 3.18067 8.56757 1.35181 13.2427 1.35181C16.9075 1.35181 20.4911 2.51239 23.331 4.61995C30.4049 9.86444 31.6135 19.5346 26.0236 26.1756Z" fill="black"/>
</svg>
