<?xml version="1.0" ?><svg height="24px" version="1.1" viewBox="0 0 24 24" width="24px" xmlns="http://www.w3.org/2000/svg" xmlns:sketch="http://www.bohemiancoding.com/sketch/ns" xmlns:xlink="http://www.w3.org/1999/xlink"><title/><desc/><defs/><g fill="none" fill-rule="evenodd" id="miu" stroke="none" stroke-width="1"><g id="Artboard-1" transform="translate(-323.000000, -443.000000)"><g id="slice" transform="translate(215.000000, 119.000000)"/><path d="M324,444 L324,447 L325,447 L325,445 L327,445 L327,444 L324,444 Z M343,444 L343,445 L345,445 L345,447 L346,447 L346,444 L343,444 Z M324,463 L324,466 L327,466 L327,465 L325,465 L325,463 L324,463 Z M345,463 L345,465 L343,465 L343,466 L346,466 L346,463 L345,463 Z M326,446 L326,464 L344,464 L344,446 L326,446 Z" fill="#000000" id="editor-resize-glyph"/></g></g></svg>