<?xml version="1.0" ?><svg enable-background="new 0 0 32 32" height="32px" id="svg2" version="1.1" viewBox="0 0 32 32" width="32px" xml:space="preserve" xmlns="http://www.w3.org/2000/svg" xmlns:cc="http://creativecommons.org/ns#" xmlns:dc="http://purl.org/dc/elements/1.1/" xmlns:inkscape="http://www.inkscape.org/namespaces/inkscape" xmlns:rdf="http://www.w3.org/1999/02/22-rdf-syntax-ns#" xmlns:sodipodi="http://sodipodi.sourceforge.net/DTD/sodipodi-0.dtd" xmlns:svg="http://www.w3.org/2000/svg"><g id="background"><rect fill="none" height="32" width="32"/></g><g id="text_x5F_align_x5F_center"><polygon points="2,6 2,4 30,4 30,6 2,6  "/><polygon points="2,14 2,12 30,12 30,14 2,14  "/><polygon points="2,22 2,20 30,20 30,22 2,22  "/><polygon points="6,10 6,8 26,8 26,10 6,10  "/><polygon points="6,18 6,16 26,16 26,18 6,18  "/><polygon points="6,26 6,24 26,24 26,26 6,26  "/></g></svg>