<svg width="23" height="32" viewBox="0 0 23 32" fill="none" xmlns="http://www.w3.org/2000/svg">
<path d="M19.9896 12.0056C19.56 11.9049 19.1115 11.9063 18.6826 12.0096C18.5922 11.3781 18.3003 10.7892 17.8473 10.3242C17.5732 10.0579 17.247 9.84656 16.8874 9.70243C16.5279 9.55829 16.1422 9.48422 15.7527 9.48451L15.6426 9.48651H15.6281C15.1709 9.48651 14.7345 9.57448 14.3377 9.73441C14.2137 9.38468 14.0075 9.06721 13.7351 8.80677C13.4287 8.52474 13.0641 8.30795 12.6649 8.17051C12.2657 8.03307 11.8409 7.97806 11.4182 8.00907H11.4286C12.0472 7.22042 12.409 6.27305 12.4683 5.28665C12.5276 4.30025 12.2817 3.31906 11.7617 2.46707C11.2416 1.61507 10.4708 0.93049 9.54653 0.49981C8.62229 0.0691299 7.58611 -0.0883233 6.5689 0.0473428C5.55169 0.183009 4.59909 0.605707 3.83146 1.26203C3.06383 1.91836 2.5156 2.77887 2.25604 3.73484C1.99648 4.69081 2.03724 5.69935 2.37316 6.63305C2.70908 7.56675 3.3251 8.3837 4.14338 8.9807L4.15584 14.3067C3.05039 14.3338 1.99288 14.7467 1.18026 15.4682C1.23854e-07 16.7058 0 18.6251 0 21.0241V22.4636C0.0296987 23.5348 0.306474 24.5863 0.810309 25.542C1.31414 26.4977 2.03244 27.3337 2.91325 27.9895L3.65714 28.7012C6.23377 31.2403 8.6026 32 14.0883 32C20.0727 32 22.8571 28.7812 22.8571 21.8838V16.8657C22.8571 15.3263 22.4 12.6273 19.9896 12.0076V12.0056ZM20.7792 16.7038V21.8818C20.7792 28.6193 18.0987 29.9988 14.0883 29.9988C8.68571 29.9988 7.02338 29.2191 5.15325 27.3398L4.40519 26.6C3.71375 26.1301 3.14413 25.5132 2.74053 24.7973C2.33693 24.0813 2.11019 23.2855 2.07792 22.4716V21.0022C1.81042 19.5815 2.02764 18.1158 2.69714 16.8237C3.08364 16.5598 3.59273 16.3679 4.14753 16.3439L4.15377 17.7434V17.3036L3.44727 20.3024C3.42667 20.3471 3.41541 20.3952 3.41413 20.444C3.41284 20.4928 3.42157 20.5414 3.4398 20.587C3.45804 20.6325 3.48542 20.6742 3.5204 20.7096C3.55537 20.745 3.59725 20.7734 3.64364 20.7932C3.69003 20.8131 3.74002 20.8239 3.79076 20.8251C3.8415 20.8264 3.892 20.818 3.93937 20.8004C3.98674 20.7829 4.03005 20.7565 4.06684 20.7229C4.10363 20.6892 4.13316 20.6489 4.15377 20.6043L6.23169 18.1832C6.24524 18.1233 6.24524 18.0612 6.23169 18.0013V6.78753L6.22961 6.70956C6.22961 6.19775 6.40208 5.72593 6.69299 5.34208C6.79922 5.23499 6.92841 5.15143 7.07158 5.09723C7.21476 5.04303 7.36848 5.01947 7.52208 5.02819H7.52C7.95636 5.02819 8.30961 5.36807 8.30961 5.78791V13.545C8.30961 13.8101 8.41907 14.0643 8.61392 14.2518C8.80876 14.4393 9.07302 14.5446 9.34857 14.5446C9.62412 14.5446 9.88838 14.4393 10.0832 14.2518C10.2781 14.0643 10.3875 13.8101 10.3875 13.545V10.906C10.3928 10.7804 10.4242 10.6571 10.4798 10.5434C10.5354 10.4297 10.6142 10.3279 10.7115 10.244C10.8087 10.1602 10.9225 10.0959 11.046 10.0551C11.1696 10.0142 11.3003 9.99765 11.4307 10.0063C11.5568 9.98307 11.6867 9.9869 11.8111 10.0175C11.9356 10.0482 12.0514 10.1048 12.1505 10.1835C12.2495 10.2622 12.3293 10.3609 12.3841 10.4727C12.4389 10.5844 12.4674 10.7064 12.4675 10.83L12.4655 10.888V13.545C12.4655 13.8101 12.5749 14.0643 12.7698 14.2518C12.9646 14.4393 13.2289 14.5446 13.5044 14.5446C13.78 14.5446 14.0442 14.4393 14.2391 14.2518C14.4339 14.0643 14.5434 13.8101 14.5434 13.545V12.2655C14.5799 12.0331 14.7096 11.8237 14.9045 11.6821C15.0994 11.5405 15.3442 11.4779 15.5865 11.5077C15.7131 11.4942 15.8412 11.5069 15.9623 11.5448C16.0834 11.5827 16.1947 11.6451 16.2888 11.7277C16.4966 11.9856 16.6213 12.3154 16.6213 12.6733V14.3447C16.6246 14.6091 16.7366 14.8615 16.9329 15.0466C17.1292 15.2317 17.3937 15.3344 17.6686 15.3323C17.9064 15.3324 18.1373 15.2556 18.3243 15.1142C18.5112 14.9728 18.6433 14.775 18.6992 14.5526C18.7475 14.3415 18.8639 14.1505 19.0317 14.0068C19.1045 13.975 19.1835 13.9586 19.2634 13.9586C19.3433 13.9586 19.4223 13.975 19.4951 14.0068C19.9458 14.2885 20.3052 14.6864 20.5323 15.1551C20.7594 15.6238 20.8449 16.1445 20.7792 16.6578L20.7813 16.6438L20.7792 16.7038Z" fill="black"/>
</svg>
