<svg width="7" height="15" viewBox="0 0 7 15" fill="none" xmlns="http://www.w3.org/2000/svg">
<path d="M1.10264 15C1.00063 15 0.91138 14.9511 0.834877 14.8534C0.758375 14.7556 0.720123 14.6383 0.720123 14.5015C0.720123 14.3646 0.756553 14.2473 0.829413 14.1496L5.82395 7.44868L0.905916 0.865103C0.8622 0.796676 0.831234 0.718475 0.813019 0.630499C0.794805 0.542522 0.794805 0.456989 0.813019 0.3739C0.831234 0.290811 0.8622 0.215054 0.905916 0.146628C0.978775 0.0488759 1.06803 0 1.17368 0C1.27932 0 1.36857 0.0488759 1.44143 0.146628L6.61083 7.09677C6.64726 7.14565 6.67459 7.20186 6.6928 7.2654C6.71102 7.32893 6.72012 7.39247 6.72012 7.45601C6.72012 7.51955 6.71102 7.58065 6.6928 7.6393C6.67459 7.69795 6.64726 7.75171 6.61083 7.80059L1.36493 14.8534C1.3285 14.9022 1.28661 14.9389 1.23925 14.9633C1.19189 14.9878 1.14635 15 1.10264 15Z" fill="#4B4B4D"/>
</svg>
