<svg xmlns="http://www.w3.org/2000/svg" width="512" height="512" viewBox="0 0 592.988 592.988"><g fill="#515151"><path d="M122.388 285.984H70.373c-32.058 0-58.14 26.083-58.14 58.139v190.225c0 32.059 26.082 58.139 58.14 58.139h52.016c32.059 0 58.14-26.08 58.14-58.139V344.123c-.001-32.057-26.082-58.139-58.141-58.139zm15.3 248.364c0 8.449-6.85 15.299-15.3 15.299H70.373c-8.45 0-15.3-6.85-15.3-15.299V344.123c0-8.449 6.85-15.299 15.3-15.299h52.016c8.45 0 15.3 6.85 15.3 15.299v190.225z"/><path d="M122.388 592.986H70.373c-32.334 0-58.64-26.306-58.64-58.639V344.123c0-32.334 26.306-58.639 58.64-58.639h52.016c32.334 0 58.64 26.305 58.64 58.639v190.225c-.001 32.333-26.306 58.638-58.641 58.638zM70.373 286.484c-31.783 0-57.64 25.857-57.64 57.639v190.225c0 31.782 25.857 57.639 57.64 57.639h52.016c31.783 0 57.64-25.856 57.64-57.639V344.123c0-31.782-25.857-57.639-57.64-57.639H70.373zm52.015 263.662H70.373c-8.712 0-15.8-7.087-15.8-15.799V344.123c0-8.712 7.088-15.799 15.8-15.799h52.016c8.712 0 15.8 7.087 15.8 15.799v190.225c-.001 8.712-7.088 15.798-15.801 15.798zM70.373 329.324c-8.161 0-14.8 6.639-14.8 14.799v190.225c0 8.16 6.639 14.799 14.8 14.799h52.016c8.161 0 14.8-6.639 14.8-14.799V344.123c0-8.16-6.639-14.799-14.8-14.799H70.373zM322.502 592.486c32.059 0 58.141-26.08 58.141-58.139V58.64c0-32.059-26.082-58.14-58.141-58.14h-52.016c-32.059 0-58.14 26.082-58.14 58.14v475.708c0 32.059 26.082 58.139 58.14 58.139h52.016zm-67.316-58.138V58.64c0-8.45 6.85-15.3 15.3-15.3h52.016c8.449 0 15.301 6.85 15.301 15.3v475.708c0 8.449-6.852 15.299-15.301 15.299h-52.016c-8.45-.001-15.3-6.85-15.3-15.299z"/><path d="M322.502 592.986h-52.016c-32.334 0-58.64-26.306-58.64-58.639V58.64c0-32.334 26.306-58.64 58.64-58.64h52.016c32.335 0 58.641 26.306 58.641 58.64v475.708c0 32.333-26.306 58.638-58.641 58.638zM270.486 1c-31.783 0-57.64 25.857-57.64 57.64v475.708c0 31.782 25.857 57.639 57.64 57.639h52.016c31.783 0 57.641-25.856 57.641-57.639V58.64c0-31.783-25.857-57.64-57.641-57.64h-52.016zm52.016 549.146h-52.016c-8.712 0-15.8-7.087-15.8-15.799V58.64c0-8.712 7.088-15.8 15.8-15.8h52.016c8.713 0 15.801 7.088 15.801 15.8v475.708c0 8.712-7.088 15.798-15.801 15.798zM270.486 43.84c-8.161 0-14.8 6.639-14.8 14.8v475.708c0 8.16 6.64 14.799 14.8 14.799h52.016c8.161 0 14.801-6.639 14.801-14.799V58.64c0-8.161-6.64-14.8-14.801-14.8h-52.016z"/><g><path d="M522.615 592.486c32.059 0 58.141-26.08 58.141-58.139V207.961c0-32.059-26.082-58.14-58.141-58.14H470.6c-32.057 0-58.139 26.082-58.139 58.14v326.386c0 32.059 26.082 58.141 58.139 58.141l52.015-.002zm-67.314-58.138V207.961c0-8.45 6.85-15.3 15.299-15.3h52.016c8.451 0 15.301 6.85 15.301 15.3v326.386c0 8.449-6.85 15.301-15.301 15.301H470.6c-8.45-.002-15.299-6.851-15.299-15.3z"/><path d="M470.6 592.988c-32.333 0-58.639-26.306-58.639-58.641V207.961c0-32.334 26.306-58.64 58.639-58.64h52.016c32.335 0 58.641 26.306 58.641 58.64v326.386c0 32.333-26.306 58.639-58.641 58.639l-52.016.002zm0-442.667c-31.782 0-57.639 25.857-57.639 57.64v326.386c0 31.783 25.856 57.641 57.639 57.641l52.016-.002c31.783 0 57.641-25.856 57.641-57.639V207.961c0-31.783-25.857-57.64-57.641-57.64H470.6zm52.015 399.827H470.6c-8.712-.002-15.799-7.09-15.799-15.801V207.961c0-8.712 7.087-15.8 15.799-15.8h52.016c8.713 0 15.801 7.088 15.801 15.8v326.386c-.001 8.714-7.089 15.801-15.802 15.801zM470.6 193.161c-8.16 0-14.799 6.639-14.799 14.8v326.386c0 8.159 6.639 14.799 14.799 14.801h52.016c8.161 0 14.801-6.64 14.801-14.801V207.961c0-8.161-6.64-14.8-14.801-14.8H470.6z"/></g></g></svg>