<?xml version="1.0" encoding="utf-8"?>
<!-- Generator: Adobe Illustrator 19.0.1, SVG Export Plug-In . SVG Version: 6.00 Build 0)  -->
<svg version="1.1" id="Слой_1" xmlns="http://www.w3.org/2000/svg" xmlns:xlink="http://www.w3.org/1999/xlink" x="0px" y="0px"
	 width="60px" height="65px" viewBox="450 247.5 60 65" style="enable-background:new 450 247.5 60 65;" xml:space="preserve">
<style type="text/css">
	.st0{fill:#FFAC00;}
</style>
<path class="st0" d="M507.9,259.7c-0.2-0.2-0.5-0.3-0.8-0.3h-12.4c0-5.3-4.3-9.6-9.6-9.6c-1.9,0-3.6,0.5-5.1,1.5
	c-1.5-0.9-3.2-1.5-5.1-1.5c-2.6,0-5,1-6.8,2.8c-1.8,1.8-2.8,4.2-2.8,6.7h-12.4c-0.3,0-0.6,0.1-0.8,0.3c-0.2,0.2-0.3,0.5-0.3,0.8
	l0.8,48.7c0,0.6,0.5,1.1,1.1,1.1h52.6c0.6,0,1.1-0.5,1.1-1.1l0.9-48.7C508.2,260.2,508.1,259.9,507.9,259.7z M492.5,259.3h-8.1
	c0-2.5-1-4.9-2.7-6.6c1-0.5,2.1-0.8,3.3-0.8C489.2,252,492.5,255.3,492.5,259.3z M480,254c1.4,1.3,2.3,3.2,2.3,5.3h-4.6
	C477.7,257.3,478.6,255.4,480,254z M469.6,254.1c1.4-1.4,3.3-2.2,5.2-2.2c1.2,0,2.3,0.3,3.3,0.8c-1.6,1.7-2.6,4-2.7,6.6h-8.1
	C467.5,257.4,468.3,255.5,469.6,254.1z M454,261.5h8l-0.8,46.5h-6.5L454,261.5z M505.1,308h-8.2h-33.5l0.8-46.5h11.3v7.8
	c0,0.6,0.5,1.1,1.1,1.1c0.6,0,1.1-0.5,1.1-1.1v-7.8h14.8v7.8c0,0.6,0.5,1.1,1.1,1.1c0.6,0,1.1-0.5,1.1-1.1v-7.8H506L505.1,308z"/>
</svg>
