<?xml version="1.0" encoding="utf-8"?>
<!-- Generator: Adobe Illustrator 19.0.1, SVG Export Plug-In . SVG Version: 6.00 Build 0)  -->
<svg version="1.1" id="Capa_1" xmlns="http://www.w3.org/2000/svg" xmlns:xlink="http://www.w3.org/1999/xlink" x="0px" y="0px"
	 width="73px" height="25px" viewBox="-45.1 268.1 73 25" style="enable-background:new -45.1 268.1 73 25;" xml:space="preserve">
<style type="text/css">
	.st0{fill:#FFAC00;}
</style>
<g>
	<path d="M-20.6,273.7c-0.1-0.2-0.4-0.3-0.6-0.3l-15-0.6c-0.4,0-0.8,0.3-0.8,0.7c0,0.4,0.3,0.8,0.7,0.8l14,0.6l-2.7,8.6h-12.2
		l-2.2-12c0-0.3-0.2-0.5-0.5-0.6l-3.6-1.4c-0.4-0.2-0.8,0-1,0.4c-0.2,0.4,0,0.8,0.4,1l3.2,1.3l2.2,12.2c0.1,0.4,0.4,0.6,0.8,0.6h0.4
		l-0.9,2.4c-0.1,0.2,0,0.4,0.1,0.6c0.1,0.2,0.3,0.3,0.5,0.3h0.6c-0.4,0.4-0.6,1-0.6,1.5c0,1.3,1,2.3,2.3,2.3s2.3-1,2.3-2.3
		c0-0.6-0.2-1.1-0.6-1.5h5.1c-0.4,0.4-0.6,1-0.6,1.5c0,1.3,1,2.3,2.3,2.3c1.3,0,2.3-1,2.3-2.3c0-0.6-0.2-1.1-0.6-1.5h0.7
		c0.4,0,0.6-0.3,0.6-0.6c0-0.4-0.3-0.6-0.6-0.6h-12.4l0.7-1.9h11.7c0.3,0,0.6-0.2,0.7-0.5l3.2-10.1
		C-20.4,274.1-20.4,273.9-20.6,273.7z M-35.4,290.8c-0.6,0-1-0.5-1-1c0-0.6,0.5-1,1-1s1,0.5,1,1C-34.4,290.3-34.8,290.8-35.4,290.8z
		 M-26.9,290.8c-0.6,0-1-0.5-1-1c0-0.6,0.5-1,1-1c0.6,0,1,0.5,1,1C-25.8,290.3-26.3,290.8-26.9,290.8z"/>
</g>
<g>
	<path class="st0" d="M27.4,273.7c-0.1-0.2-0.4-0.3-0.6-0.3l-15-0.6c-0.4,0-0.8,0.3-0.8,0.7c0,0.4,0.3,0.8,0.7,0.8l14,0.6l-2.7,8.6
		H10.7l-2.2-12c0-0.3-0.2-0.5-0.5-0.6l-3.6-1.4c-0.4-0.2-0.8,0-1,0.4c-0.2,0.4,0,0.8,0.4,1l3.2,1.3l2.2,12.2
		c0.1,0.4,0.4,0.6,0.8,0.6h0.4l-0.9,2.4c-0.1,0.2,0,0.4,0.1,0.6c0.1,0.2,0.3,0.3,0.5,0.3h0.6c-0.4,0.4-0.6,1-0.6,1.5
		c0,1.3,1,2.3,2.3,2.3s2.3-1,2.3-2.3c0-0.6-0.2-1.1-0.6-1.5h5.1c-0.4,0.4-0.6,1-0.6,1.5c0,1.3,1,2.3,2.3,2.3c1.3,0,2.3-1,2.3-2.3
		c0-0.6-0.2-1.1-0.6-1.5h0.7c0.4,0,0.6-0.3,0.6-0.6c0-0.4-0.3-0.6-0.6-0.6H11.1l0.7-1.9h11.7c0.3,0,0.6-0.2,0.7-0.5l3.2-10.1
		C27.5,274.1,27.5,273.9,27.4,273.7z M12.5,290.8c-0.6,0-1-0.5-1-1c0-0.6,0.5-1,1-1c0.6,0,1,0.5,1,1
		C13.6,290.3,13.1,290.8,12.5,290.8z M21.1,290.8c-0.6,0-1-0.5-1-1c0-0.6,0.5-1,1-1s1,0.5,1,1C22.1,290.3,21.6,290.8,21.1,290.8z"/>
</g>
</svg>
