<?xml version="1.0" encoding="utf-8"?>
<!-- Generator: Adobe Illustrator 19.0.1, SVG Export Plug-In . SVG Version: 6.00 Build 0)  -->
<svg version="1.1" id="Capa_1" xmlns="http://www.w3.org/2000/svg" xmlns:xlink="http://www.w3.org/1999/xlink" x="0px" y="0px"
	 width="53.8px" height="12.3px" viewBox="-449 274.2 53.8 12.3" style="enable-background:new -449 274.2 53.8 12.3;"
	 xml:space="preserve">
<style type="text/css">
	.st0{fill:#CCCCCC;}
	.st1{fill:#FFAC00;}
	.st2{fill:#CCCCCC;stroke:#FFAC00;stroke-miterlimit:10;}
</style>
<g>
	<path class="st0" d="M-448.5,286.5c-0.1,0-0.3-0.1-0.3-0.3V280c0-0.1,0.1-0.3,0.3-0.3s0.3,0.1,0.3,0.3v6.3
		C-448.3,286.4-448.4,286.5-448.5,286.5z"/>
	<path class="st0" d="M-444.5,286.5c-0.1,0-0.3-0.1-0.3-0.3v-8c0-0.1,0.1-0.3,0.3-0.3s0.3,0.1,0.3,0.3v8
		C-444.2,286.4-444.4,286.5-444.5,286.5z"/>
	<path class="st0" d="M-440.5,286.5c-0.1,0-0.3-0.1-0.3-0.3v-10.6c0-0.1,0.1-0.3,0.3-0.3s0.3,0.1,0.3,0.3v10.6
		C-440.2,286.4-440.4,286.5-440.5,286.5z"/>
</g>
<g>
	<path class="st1" d="M-426.8,286.5c-0.1,0-0.3-0.1-0.3-0.3V280c0-0.1,0.1-0.3,0.3-0.3s0.3,0.1,0.3,0.3v6.3
		C-426.5,286.4-426.7,286.5-426.8,286.5z"/>
	<path class="st1" d="M-422.8,286.5c-0.1,0-0.3-0.1-0.3-0.3v-8c0-0.1,0.1-0.3,0.3-0.3s0.3,0.1,0.3,0.3v8
		C-422.5,286.4-422.7,286.5-422.8,286.5z"/>
	<path class="st1" d="M-418.8,286.5c-0.1,0-0.3-0.1-0.3-0.3v-10.6c0-0.1,0.1-0.3,0.3-0.3s0.3,0.1,0.3,0.3v10.6
		C-418.5,286.4-418.7,286.5-418.8,286.5z"/>
</g>
<g>
	<path class="st2" d="M-404.2,285.9c-0.1,0-0.3-0.1-0.3-0.3v-6.3c0-0.1,0.1-0.3,0.3-0.3s0.3,0.1,0.3,0.3v6.3
		C-403.9,285.8-404,285.9-404.2,285.9z"/>
	<path class="st2" d="M-400.2,285.9c-0.1,0-0.3-0.1-0.3-0.3v-8c0-0.1,0.1-0.3,0.3-0.3s0.3,0.1,0.3,0.3v8
		C-399.9,285.8-400,285.9-400.2,285.9z"/>
	<path class="st2" d="M-396.2,285.9c-0.1,0-0.3-0.1-0.3-0.3V275c0-0.1,0.1-0.3,0.3-0.3s0.3,0.1,0.3,0.3v10.6
		C-395.9,285.8-396,285.9-396.2,285.9z"/>
</g>
</svg>
