<?xml version="1.0" encoding="utf-8"?>
<svg version="1.1" xmlns="http://www.w3.org/2000/svg" xmlns:xlink="http://www.w3.org/1999/xlink" x="0px" y="0px"
	 width="75px" height="12px" viewBox="462.2 274.3 75 12" style="enable-background:new 462.2 274.3 75 12;" xml:space="preserve">
<style type="text/css">
	.st0{fill:#CCCCCC;}
	.st1{fill:#FC5039;}
</style>
<path class="st0" d="M475.1,277.1c-0.2-0.5-0.5-1-1-1.4c-0.4-0.4-1-0.6-1.5-0.8c-0.2,0-0.4-0.1-0.7-0.1c-0.6,0-1.3,0.2-1.8,0.5
	c-0.3,0.2-0.6,0.5-0.8,0.8c-0.2-0.3-0.5-0.6-0.8-0.8c-0.5-0.3-1.2-0.5-1.8-0.5l0,0c-0.5,0-1.1,0.1-1.6,0.4c-0.5,0.2-0.9,0.6-1.2,1
	c-0.3,0.4-0.5,0.9-0.6,1.5c-0.1,0.5,0,1,0.1,1.5c0.3,1,0.9,2,1.4,2.6c1,1.3,2.4,2.6,4.3,3.7l0.2,0.1l0.2-0.1
	c2.3-1.4,3.9-2.9,4.9-4.6c0.6-1,0.9-1.8,0.9-2.6C475.3,277.9,475.2,277.5,475.1,277.1L475.1,277.1z M469.2,284.8
	c-1.7-1.1-2.9-2.2-3.8-3.4c-0.4-0.6-1-1.4-1.2-2.3c-0.1-0.4-0.1-0.8-0.1-1.2c0-0.4,0.2-0.8,0.4-1.1c0.2-0.3,0.5-0.6,0.9-0.8
	c0.4-0.2,0.8-0.3,1.2-0.3c0.5,0,1,0.1,1.4,0.4c0.4,0.3,0.7,0.6,0.9,1l0.4,0.8l0.4-0.8c0.2-0.4,0.5-0.8,0.9-1
	c0.4-0.3,0.9-0.4,1.4-0.4c0.2,0,0.3,0,0.5,0c0.4,0.1,0.8,0.3,1.2,0.6c0.3,0.3,0.6,0.7,0.7,1.1c0.1,0.3,0.1,0.6,0.1,1
	c0,0.7-0.3,1.4-0.8,2.2C472.7,282.1,471.3,283.4,469.2,284.8L469.2,284.8z"/>
<path class="st1" d="M502.1,277.1c-0.2-0.5-0.5-1-1-1.4c-0.4-0.4-1-0.6-1.5-0.8c-0.2,0-0.4-0.1-0.7-0.1c-0.6,0-1.3,0.2-1.8,0.5
	c-0.3,0.2-0.6,0.5-0.8,0.8c-0.2-0.3-0.5-0.6-0.8-0.8c-0.5-0.3-1.2-0.5-1.8-0.5h0c-0.5,0-1.1,0.1-1.6,0.4c-0.5,0.2-0.9,0.6-1.2,1
	c-0.3,0.4-0.5,0.9-0.6,1.5c-0.1,0.5,0,1,0.1,1.5c0.3,1,0.9,2,1.4,2.6c1,1.3,2.4,2.6,4.3,3.7l0.2,0.1l0.2-0.1
	c2.3-1.4,3.9-2.9,4.9-4.6c0.6-1,0.9-1.8,0.9-2.6C502.3,277.9,502.3,277.5,502.1,277.1L502.1,277.1z M496.3,284.8
	c-1.7-1.1-2.9-2.2-3.8-3.4c-0.4-0.6-1-1.4-1.2-2.3c-0.1-0.4-0.1-0.8-0.1-1.2c0-0.4,0.2-0.8,0.4-1.1c0.2-0.3,0.5-0.6,0.9-0.8
	c0.4-0.2,0.8-0.3,1.2-0.3c0.5,0,1,0.1,1.4,0.4c0.4,0.3,0.7,0.6,0.9,1l0.4,0.8l0.4-0.8c0.2-0.4,0.5-0.8,0.9-1
	c0.4-0.3,0.9-0.4,1.4-0.4c0.2,0,0.3,0,0.5,0c0.4,0.1,0.8,0.3,1.2,0.6c0.3,0.3,0.6,0.7,0.7,1.1c0.1,0.3,0.1,0.6,0.1,1
	c0,0.7-0.3,1.4-0.8,2.2C499.8,282.1,498.4,283.4,496.3,284.8L496.3,284.8z"/>
<path class="st1" d="M536.1,277.1c-0.2-0.5-0.5-1-1-1.4c-0.4-0.4-1-0.6-1.5-0.8c-0.2,0-0.4-0.1-0.7-0.1c-0.6,0-1.3,0.2-1.8,0.5
	c-0.3,0.2-0.6,0.5-0.8,0.8c-0.2-0.3-0.5-0.6-0.8-0.8c-0.5-0.3-1.2-0.5-1.8-0.5h0c-0.5,0-1.1,0.1-1.6,0.4c-0.5,0.2-0.9,0.6-1.2,1
	c-0.3,0.4-0.5,0.9-0.6,1.5c-0.1,0.5,0,1,0.1,1.5c0.3,1,0.9,2,1.4,2.6c1,1.3,2.4,2.6,4.3,3.7l0.2,0.1l0.2-0.1
	c2.3-1.4,3.9-2.9,4.9-4.6c0.6-1,0.9-1.8,0.9-2.6C536.3,277.9,536.2,277.5,536.1,277.1L536.1,277.1z"/>
<path class="st1" d="M530.2,284.8c-1.7-1.1-2.9-2.2-3.8-3.4c-0.4-0.6-1-1.4-1.2-2.3c-0.1-0.4-0.1-0.8-0.1-1.2c0-0.4,0.2-0.8,0.4-1.1
	c0.2-0.3,0.5-0.6,0.9-0.8c0.4-0.2,0.8-0.3,1.2-0.3c0.5,0,1,0.1,1.4,0.4c0.4,0.3,0.7,0.6,0.9,1l0.4,0.8l0.4-0.8
	c0.2-0.4,0.5-0.8,0.9-1c0.4-0.3,0.9-0.4,1.4-0.4c0.2,0,0.3,0,0.5,0c0.4,0.1,0.8,0.3,1.2,0.6c0.3,0.3,0.6,0.7,0.7,1.1
	c0.1,0.3,0.1,0.6,0.1,1c0,0.7-0.3,1.4-0.8,2.2C533.7,282.1,532.3,283.4,530.2,284.8L530.2,284.8z"/>
</svg>
