<svg xmlns="http://www.w3.org/2000/svg" width="979.494" height="979.494" viewBox="0 0 979.494 979.494"><path d="M964.616 227.519c-15.63-44.595-43.082-84.824-79.389-116.338-36.341-31.543-80.051-53.048-126.404-62.188-17.464-3.444-35.421-5.19-53.371-5.19-52.371 0-103.306 14.809-147.296 42.827a275.546 275.546 0 0 0-68.908 62.484 275.529 275.529 0 0 0-68.859-62.364c-43.969-27.977-94.869-42.765-147.2-42.765h-.001c-43.604 0-87.367 10.77-126.546 31.143-39.15 20.358-73.104 49.978-98.188 85.658C22.752 197.343 7.096 238.278 1.92 282.453-2.612 321.14.888 362.67 12.325 405.889c22.656 85.615 72.803 163.707 110.882 214.142 82.795 109.659 196.636 209.196 348.028 304.301l18.085 11.36 18.086-11.36c186.218-116.982 316.196-240.49 397.358-377.583 46.678-78.844 70.994-149.084 74.343-214.733 1.865-36.587-3.011-71.745-14.491-104.497zM489.322 855.248c-135.253-87.096-237.398-177.586-311.846-276.192-34.407-45.571-79.583-115.623-99.414-190.562-9.245-34.937-12.14-67.951-8.604-98.128 3.846-32.824 15.494-63.262 34.623-90.47 18.844-26.803 44.41-49.085 73.932-64.436 29.533-15.357 62.444-23.474 95.176-23.474 39.377 0 77.654 11.113 110.692 32.136 32.204 20.492 58.094 49.399 74.868 83.596l30.559 62.292 30.505-62.318c16.759-34.238 42.648-63.183 74.872-83.705 33.057-21.054 71.358-32.182 110.767-32.182 13.544 0 27.074 1.314 40.216 3.905 34.739 6.85 67.585 23.042 94.986 46.826 27.39 23.774 48.064 54.023 59.79 87.476 8.547 24.385 12.164 50.811 10.75 78.542-2.772 54.379-24.017 114.42-64.944 183.553-72.912 123.155-189.793 235.552-356.928 343.141z"/></svg>