<?xml version="1.0" encoding="utf-8"?>
<!-- Generator: Adobe Illustrator 19.0.1, SVG Export Plug-In . SVG Version: 6.00 Build 0)  -->
<svg version="1.1" id="Слой_1" xmlns="http://www.w3.org/2000/svg" xmlns:xlink="http://www.w3.org/1999/xlink" x="0px" y="0px"
	 width="107.6px" height="25px" viewBox="20.5 268.5 107.6 25" style="enable-background:new 20.5 268.5 107.6 25;"
	 xml:space="preserve">
<style type="text/css">
	.st0{fill:#515151;}
	.st1{fill:#FFAC00;}
</style>
<g>
	<path class="st0" d="M26.4,280.4h-2.2c-1.3,0-2.4,1.1-2.4,2.4v7.9c0,1.3,1.1,2.4,2.4,2.4h2.2c1.3,0,2.4-1.1,2.4-2.4v-7.9
		C28.8,281.5,27.7,280.4,26.4,280.4L26.4,280.4z M27,290.8c0,0.4-0.3,0.6-0.6,0.6h-2.2c-0.4,0-0.6-0.3-0.6-0.6v-7.9
		c0-0.4,0.3-0.6,0.6-0.6h2.2c0.4,0,0.6,0.3,0.6,0.6L27,290.8L27,290.8z"/>
	<path class="st0" d="M26.4,293.2h-2.2c-1.3,0-2.4-1.1-2.4-2.4v-7.9c0-1.3,1.1-2.4,2.4-2.4h2.2c1.3,0,2.4,1.1,2.4,2.4v7.9
		C28.8,292.1,27.7,293.2,26.4,293.2z M24.2,280.4c-1.3,0-2.4,1.1-2.4,2.4v7.9c0,1.3,1.1,2.4,2.4,2.4h2.2c1.3,0,2.4-1.1,2.4-2.4v-7.9
		c0-1.3-1.1-2.4-2.4-2.4L24.2,280.4L24.2,280.4z M26.4,291.4h-2.2c-0.4,0-0.7-0.3-0.7-0.7v-7.9c0-0.4,0.3-0.7,0.7-0.7h2.2
		c0.4,0,0.7,0.3,0.7,0.7v7.9C27,291.1,26.7,291.4,26.4,291.4z M24.2,282.2c-0.3,0-0.6,0.3-0.6,0.6v7.9c0,0.3,0.3,0.6,0.6,0.6h2.2
		c0.3,0,0.6-0.3,0.6-0.6v-7.9c0-0.3-0.3-0.6-0.6-0.6H24.2L24.2,282.2z M34.7,293.2c1.3,0,2.4-1.1,2.4-2.4v-19.8
		c0-1.3-1.1-2.4-2.4-2.4h-2.2c-1.3,0-2.4,1.1-2.4,2.4v19.8c0,1.3,1.1,2.4,2.4,2.4L34.7,293.2L34.7,293.2z M31.9,290.8v-19.8
		c0-0.4,0.3-0.6,0.6-0.6h2.2c0.4,0,0.6,0.3,0.6,0.6v19.8c0,0.4-0.3,0.6-0.6,0.6h-2.2C32.2,291.4,31.9,291.1,31.9,290.8L31.9,290.8z"
		/>
	<path class="st0" d="M34.7,293.2h-2.2c-1.3,0-2.4-1.1-2.4-2.4v-19.8c0-1.3,1.1-2.4,2.4-2.4h2.2c1.3,0,2.4,1.1,2.4,2.4v19.8
		C37.2,292.1,36.1,293.2,34.7,293.2z M32.5,268.5c-1.3,0-2.4,1.1-2.4,2.4v19.8c0,1.3,1.1,2.4,2.4,2.4h2.2c1.3,0,2.4-1.1,2.4-2.4
		v-19.8c0-1.3-1.1-2.4-2.4-2.4H32.5z M34.7,291.4h-2.2c-0.4,0-0.7-0.3-0.7-0.7v-19.8c0-0.4,0.3-0.7,0.7-0.7h2.2
		c0.4,0,0.7,0.3,0.7,0.7v19.8C35.4,291.1,35.1,291.4,34.7,291.4z M32.5,270.3c-0.3,0-0.6,0.3-0.6,0.6v19.8c0,0.3,0.3,0.6,0.6,0.6
		h2.2c0.3,0,0.6-0.3,0.6-0.6v-19.8c0-0.3-0.3-0.6-0.6-0.6H32.5z"/>
	<g>
		<path class="st0" d="M43.1,293.2c1.3,0,2.4-1.1,2.4-2.4v-13.6c0-1.3-1.1-2.4-2.4-2.4h-2.2c-1.3,0-2.4,1.1-2.4,2.4v13.6
			c0,1.3,1.1,2.4,2.4,2.4L43.1,293.2L43.1,293.2z M40.3,290.8v-13.6c0-0.4,0.3-0.6,0.6-0.6h2.2c0.4,0,0.6,0.3,0.6,0.6v13.6
			c0,0.4-0.3,0.6-0.6,0.6h-2.2C40.5,291.4,40.3,291.1,40.3,290.8z"/>
		<path class="st0" d="M40.9,293.2c-1.3,0-2.4-1.1-2.4-2.4v-13.6c0-1.3,1.1-2.4,2.4-2.4h2.2c1.3,0,2.4,1.1,2.4,2.4v13.6
			c0,1.3-1.1,2.4-2.4,2.4L40.9,293.2L40.9,293.2z M40.9,274.8c-1.3,0-2.4,1.1-2.4,2.4v13.6c0,1.3,1.1,2.4,2.4,2.4l2.2,0
			c1.3,0,2.4-1.1,2.4-2.4v-13.6c0-1.3-1.1-2.4-2.4-2.4H40.9L40.9,274.8z M43.1,291.4h-2.2c-0.4,0-0.7-0.3-0.7-0.7v-13.6
			c0-0.4,0.3-0.7,0.7-0.7h2.2c0.4,0,0.7,0.3,0.7,0.7v13.6C43.7,291.1,43.4,291.4,43.1,291.4L43.1,291.4z M40.9,276.6
			c-0.3,0-0.6,0.3-0.6,0.6v13.6c0,0.3,0.3,0.6,0.6,0.6h2.2c0.3,0,0.6-0.3,0.6-0.6v-13.6c0-0.3-0.3-0.6-0.6-0.6H40.9z"/>
	</g>
</g>
<g>
	<path class="st1" d="M69.4,280.4h-2.2c-1.3,0-2.4,1.1-2.4,2.4v7.9c0,1.3,1.1,2.4,2.4,2.4h2.2c1.3,0,2.4-1.1,2.4-2.4v-7.9
		C71.8,281.5,70.7,280.4,69.4,280.4L69.4,280.4z M70,290.8c0,0.4-0.3,0.6-0.6,0.6h-2.2c-0.4,0-0.6-0.3-0.6-0.6v-7.9
		c0-0.4,0.3-0.6,0.6-0.6h2.2c0.4,0,0.6,0.3,0.6,0.6L70,290.8L70,290.8z"/>
	<path class="st1" d="M69.4,293.2h-2.2c-1.3,0-2.4-1.1-2.4-2.4v-7.9c0-1.3,1.1-2.4,2.4-2.4h2.2c1.3,0,2.4,1.1,2.4,2.4v7.9
		C71.8,292.1,70.7,293.2,69.4,293.2z M67.2,280.4c-1.3,0-2.4,1.1-2.4,2.4v7.9c0,1.3,1.1,2.4,2.4,2.4h2.2c1.3,0,2.4-1.1,2.4-2.4v-7.9
		c0-1.3-1.1-2.4-2.4-2.4L67.2,280.4L67.2,280.4z M69.4,291.4h-2.2c-0.4,0-0.7-0.3-0.7-0.7v-7.9c0-0.4,0.3-0.7,0.7-0.7h2.2
		c0.4,0,0.7,0.3,0.7,0.7v7.9C70,291.1,69.7,291.4,69.4,291.4z M67.2,282.2c-0.3,0-0.6,0.3-0.6,0.6v7.9c0,0.3,0.3,0.6,0.6,0.6h2.2
		c0.3,0,0.6-0.3,0.6-0.6v-7.9c0-0.3-0.3-0.6-0.6-0.6H67.2L67.2,282.2z M77.7,293.2c1.3,0,2.4-1.1,2.4-2.4v-19.8
		c0-1.3-1.1-2.4-2.4-2.4h-2.2c-1.3,0-2.4,1.1-2.4,2.4v19.8c0,1.3,1.1,2.4,2.4,2.4L77.7,293.2L77.7,293.2z M74.9,290.8v-19.8
		c0-0.4,0.3-0.6,0.6-0.6h2.2c0.4,0,0.6,0.3,0.6,0.6v19.8c0,0.4-0.3,0.6-0.6,0.6h-2.2C75.2,291.4,74.9,291.1,74.9,290.8L74.9,290.8z"
		/>
	<path class="st1" d="M77.7,293.2h-2.2c-1.3,0-2.4-1.1-2.4-2.4v-19.8c0-1.3,1.1-2.4,2.4-2.4h2.2c1.3,0,2.4,1.1,2.4,2.4v19.8
		C80.2,292.1,79.1,293.2,77.7,293.2z M75.5,268.5c-1.3,0-2.4,1.1-2.4,2.4v19.8c0,1.3,1.1,2.4,2.4,2.4h2.2c1.3,0,2.4-1.1,2.4-2.4
		v-19.8c0-1.3-1.1-2.4-2.4-2.4H75.5z M77.7,291.4h-2.2c-0.4,0-0.7-0.3-0.7-0.7v-19.8c0-0.4,0.3-0.7,0.7-0.7h2.2
		c0.4,0,0.7,0.3,0.7,0.7v19.8C78.4,291.1,78.1,291.4,77.7,291.4z M75.5,270.3c-0.3,0-0.6,0.3-0.6,0.6v19.8c0,0.3,0.3,0.6,0.6,0.6
		h2.2c0.3,0,0.6-0.3,0.6-0.6v-19.8c0-0.3-0.3-0.6-0.6-0.6H75.5z"/>
	<g>
		<path class="st1" d="M86.1,293.2c1.3,0,2.4-1.1,2.4-2.4v-13.6c0-1.3-1.1-2.4-2.4-2.4h-2.2c-1.3,0-2.4,1.1-2.4,2.4v13.6
			c0,1.3,1.1,2.4,2.4,2.4L86.1,293.2L86.1,293.2z M83.3,290.8v-13.6c0-0.4,0.3-0.6,0.6-0.6h2.2c0.4,0,0.6,0.3,0.6,0.6v13.6
			c0,0.4-0.3,0.6-0.6,0.6h-2.2C83.5,291.4,83.3,291.1,83.3,290.8z"/>
		<path class="st1" d="M83.9,293.2c-1.3,0-2.4-1.1-2.4-2.4v-13.6c0-1.3,1.1-2.4,2.4-2.4h2.2c1.3,0,2.4,1.1,2.4,2.4v13.6
			c0,1.3-1.1,2.4-2.4,2.4L83.9,293.2L83.9,293.2z M83.9,274.8c-1.3,0-2.4,1.1-2.4,2.4v13.6c0,1.3,1.1,2.4,2.4,2.4l2.2,0
			c1.3,0,2.4-1.1,2.4-2.4v-13.6c0-1.3-1.1-2.4-2.4-2.4H83.9L83.9,274.8z M86.1,291.4h-2.2c-0.4,0-0.7-0.3-0.7-0.7v-13.6
			c0-0.4,0.3-0.7,0.7-0.7h2.2c0.4,0,0.7,0.3,0.7,0.7v13.6C86.7,291.1,86.4,291.4,86.1,291.4L86.1,291.4z M83.9,276.6
			c-0.3,0-0.6,0.3-0.6,0.6v13.6c0,0.3,0.3,0.6,0.6,0.6h2.2c0.3,0,0.6-0.3,0.6-0.6v-13.6c0-0.3-0.3-0.6-0.6-0.6H83.9z"/>
	</g>
</g>
<g>
	<path class="st1" d="M109,280.4h-2.2c-1.3,0-2.4,1.1-2.4,2.4v7.9c0,1.3,1.1,2.4,2.4,2.4h2.2c1.3,0,2.4-1.1,2.4-2.4v-7.9
		C111.4,281.5,110.3,280.4,109,280.4L109,280.4z M109.6,290.8c0,0.4-0.3,0.6-0.6,0.6h-2.2c-0.4,0-0.6-0.3-0.6-0.6v-7.9
		c0-0.4,0.3-0.6,0.6-0.6h2.2c0.4,0,0.6,0.3,0.6,0.6L109.6,290.8L109.6,290.8z"/>
	<path class="st1" d="M109,293.2h-2.2c-1.3,0-2.4-1.1-2.4-2.4v-7.9c0-1.3,1.1-2.4,2.4-2.4h2.2c1.3,0,2.4,1.1,2.4,2.4v7.9
		C111.4,292.1,110.3,293.2,109,293.2z M106.8,280.4c-1.3,0-2.4,1.1-2.4,2.4v7.9c0,1.3,1.1,2.4,2.4,2.4h2.2c1.3,0,2.4-1.1,2.4-2.4
		v-7.9c0-1.3-1.1-2.4-2.4-2.4L106.8,280.4L106.8,280.4z M109,291.4h-2.2c-0.4,0-0.7-0.3-0.7-0.7v-7.9c0-0.4,0.3-0.7,0.7-0.7h2.2
		c0.4,0,0.7,0.3,0.7,0.7v7.9C109.7,291.1,109.4,291.4,109,291.4z M117.3,293.2c1.3,0,2.4-1.1,2.4-2.4v-19.8c0-1.3-1.1-2.4-2.4-2.4
		h-2.2c-1.3,0-2.4,1.1-2.4,2.4v19.8c0,1.3,1.1,2.4,2.4,2.4L117.3,293.2L117.3,293.2z M114.5,290.8v-19.8c0-0.4,0.3-0.6,0.6-0.6h2.2
		c0.4,0,0.6,0.3,0.6,0.6v19.8c0,0.4-0.3,0.6-0.6,0.6h-2.2C114.8,291.4,114.5,291.1,114.5,290.8L114.5,290.8z"/>
	<path class="st1" d="M117.3,293.2h-2.2c-1.3,0-2.4-1.1-2.4-2.4v-19.8c0-1.3,1.1-2.4,2.4-2.4h2.2c1.3,0,2.4,1.1,2.4,2.4v19.8
		C119.8,292.1,118.7,293.2,117.3,293.2z M115.2,268.5c-1.3,0-2.4,1.1-2.4,2.4v19.8c0,1.3,1.1,2.4,2.4,2.4h2.2c1.3,0,2.4-1.1,2.4-2.4
		v-19.8c0-1.3-1.1-2.4-2.4-2.4H115.2z M117.3,291.4h-2.2c-0.4,0-0.7-0.3-0.7-0.7v-19.8c0-0.4,0.3-0.7,0.7-0.7h2.2
		c0.4,0,0.7,0.3,0.7,0.7v19.8C118,291.1,117.7,291.4,117.3,291.4z"/>
	<g>
		<path class="st1" d="M125.7,293.2c1.3,0,2.4-1.1,2.4-2.4v-13.6c0-1.3-1.1-2.4-2.4-2.4h-2.2c-1.3,0-2.4,1.1-2.4,2.4v13.6
			c0,1.3,1.1,2.4,2.4,2.4L125.7,293.2L125.7,293.2z M122.9,290.8v-13.6c0-0.4,0.3-0.6,0.6-0.6h2.2c0.4,0,0.6,0.3,0.6,0.6v13.6
			c0,0.4-0.3,0.6-0.6,0.6h-2.2C123.2,291.4,122.9,291.1,122.9,290.8z"/>
		<path class="st1" d="M123.5,293.2c-1.3,0-2.4-1.1-2.4-2.4v-13.6c0-1.3,1.1-2.4,2.4-2.4h2.2c1.3,0,2.4,1.1,2.4,2.4v13.6
			c0,1.3-1.1,2.4-2.4,2.4L123.5,293.2L123.5,293.2z M123.5,274.8c-1.3,0-2.4,1.1-2.4,2.4v13.6c0,1.3,1.1,2.4,2.4,2.4l2.2,0
			c1.3,0,2.4-1.1,2.4-2.4v-13.6c0-1.3-1.1-2.4-2.4-2.4H123.5L123.5,274.8z M125.7,291.4h-2.2c-0.4,0-0.7-0.3-0.7-0.7v-13.6
			c0-0.4,0.3-0.7,0.7-0.7h2.2c0.4,0,0.7,0.3,0.7,0.7v13.6C126.3,291.1,126,291.4,125.7,291.4L125.7,291.4z"/>
	</g>
</g>
</svg>
