<?xml version="1.0" encoding="utf-8"?>
<!-- Generator: Adobe Illustrator 19.0.1, SVG Export Plug-In . SVG Version: 6.00 Build 0)  -->
<svg version="1.1" id="Слой_1" xmlns="http://www.w3.org/2000/svg" xmlns:xlink="http://www.w3.org/1999/xlink" x="0px" y="0px"
	 width="20px" height="20px" viewBox="123 270 20 20" style="enable-background:new 123 270 20 20;" xml:space="preserve">
<style type="text/css">
	.st0{fill:#A8A8A8;}
</style>
<path class="st0" d="M136.1,280.6h-6.1c-0.3,0-0.6,0.3-0.6,0.6c0,0.3,0.3,0.6,0.6,0.6h6.1c0.3,0,0.6-0.3,0.6-0.6
	C136.7,280.9,136.4,280.6,136.1,280.6z M137.3,276.9h-8.6c-0.3,0-0.6,0.3-0.6,0.6c0,0.3,0.3,0.6,0.6,0.6h8.6c0.3,0,0.6-0.3,0.6-0.6
	C137.9,277.2,137.6,276.9,137.3,276.9z M133,270.2c-5.4,0-9.8,3.8-9.8,8.6c0,2.7,1.4,5.1,3.7,6.7v4.3l4.3-2.6
	c0.6,0.1,1.2,0.2,1.8,0.2c5.4,0,9.8-3.8,9.8-8.6S138.4,270.2,133,270.2z M133,286.1c-0.7,0-1.4-0.1-2.1-0.2l-2.9,1.7l0-2.8
	c-2.2-1.3-3.7-3.5-3.7-6c0-4.1,3.8-7.3,8.6-7.3s8.6,3.3,8.6,7.3S137.7,286.1,133,286.1z"/>
</svg>
