<?xml version="1.0" encoding="utf-8"?>
<!-- Generator: Adobe Illustrator 19.0.1, SVG Export Plug-In . SVG Version: 6.00 Build 0)  -->
<svg version="1.1" id="Слой_1" xmlns="http://www.w3.org/2000/svg" xmlns:xlink="http://www.w3.org/1999/xlink" x="0px" y="0px"
	 width="146.8px" height="25px" viewBox="467 267.5 146.8 25" style="enable-background:new 467 267.5 146.8 25;"
	 xml:space="preserve">
<style type="text/css">
	.st0{fill:#515151;}
	.st1{fill:#FC5039;}
</style>
<g>
	<g>
		<path class="st0" d="M492.1,273.2c-0.4-1.1-1.1-2.2-2-3c-0.9-0.8-2-1.4-3.2-1.6c-0.4-0.1-0.9-0.1-1.4-0.1c-1.3,0-2.6,0.4-3.8,1.1
			c-0.7,0.4-1.3,1-1.8,1.6c-0.5-0.6-1.1-1.2-1.8-1.6c-1.1-0.7-2.4-1.1-3.8-1.1c0,0,0,0,0,0c-1.1,0-2.2,0.3-3.2,0.8
			c-1,0.5-1.9,1.3-2.5,2.2c-0.7,0.9-1.1,2-1.2,3.1c-0.1,1,0,2,0.3,3.2c0.6,2.2,1.9,4.2,2.8,5.5c2.1,2.8,5,5.3,8.9,7.8l0.5,0.3
			l0.5-0.3c4.8-3,8.1-6.1,10.1-9.6c1.2-2,1.8-3.8,1.9-5.5C492.5,274.9,492.4,274,492.1,273.2z M480,289.2c-3.5-2.2-6.1-4.5-8-7
			c-0.9-1.2-2-3-2.5-4.9c-0.2-0.9-0.3-1.7-0.2-2.5c0.1-0.8,0.4-1.6,0.9-2.3c0.5-0.7,1.1-1.3,1.9-1.6c0.8-0.4,1.6-0.6,2.4-0.6
			c1,0,2,0.3,2.8,0.8c0.8,0.5,1.5,1.3,1.9,2.1l0.8,1.6l0.8-1.6c0.4-0.9,1.1-1.6,1.9-2.1c0.8-0.5,1.8-0.8,2.8-0.8c0.3,0,0.7,0,1,0.1
			c0.9,0.2,1.7,0.6,2.4,1.2c0.7,0.6,1.2,1.4,1.5,2.2c0.2,0.6,0.3,1.3,0.3,2c-0.1,1.4-0.6,2.9-1.7,4.7
			C487.2,283.6,484.3,286.5,480,289.2z"/>
	</g>
</g>
<g>
	<g>
		<path class="st1" d="M612,273.3c-0.4-1.1-1.1-2.2-2-3c-0.9-0.8-2-1.4-3.2-1.6c-0.4-0.1-0.9-0.1-1.4-0.1c-1.3,0-2.6,0.4-3.8,1.1
			c-0.7,0.4-1.3,1-1.8,1.6c-0.5-0.6-1.1-1.2-1.8-1.6c-1.1-0.7-2.4-1.1-3.8-1.1c0,0,0,0,0,0c-1.1,0-2.2,0.3-3.2,0.8
			c-1,0.5-1.9,1.3-2.5,2.2c-0.7,0.9-1.1,2-1.2,3.1c-0.1,1,0,2,0.3,3.2c0.6,2.2,1.9,4.2,2.8,5.5c2.1,2.8,5,5.3,8.9,7.8l0.5,0.3
			l0.5-0.3c4.8-3,8.1-6.1,10.1-9.6c1.2-2,1.8-3.8,1.9-5.5C612.4,275,612.3,274.1,612,273.3z"/>
	</g>
</g>
<g>
	<g>
		<path class="st1" d="M550.1,273.3c-0.4-1.1-1.1-2.2-2-3c-0.9-0.8-2-1.4-3.2-1.6c-0.4-0.1-0.9-0.1-1.4-0.1c-1.3,0-2.6,0.4-3.8,1.1
			c-0.7,0.4-1.3,1-1.8,1.6c-0.5-0.6-1.1-1.2-1.8-1.6c-1.1-0.7-2.4-1.1-3.8-1.1c0,0,0,0,0,0c-1.1,0-2.2,0.3-3.2,0.8
			c-1,0.5-1.9,1.3-2.5,2.2c-0.7,0.9-1.1,2-1.2,3.1c-0.1,1,0,2,0.3,3.2c0.6,2.2,1.9,4.2,2.8,5.5c2.1,2.8,5,5.3,8.9,7.8l0.5,0.3
			l0.5-0.3c4.8-3,8.1-6.1,10.1-9.6c1.2-2,1.8-3.8,1.9-5.5C550.5,275,550.4,274.1,550.1,273.3z M538,289.3c-3.5-2.2-6.1-4.5-8-7
			c-0.9-1.2-2-3-2.5-4.9c-0.2-0.9-0.3-1.7-0.2-2.5c0.1-0.8,0.4-1.6,0.9-2.3c0.5-0.7,1.1-1.3,1.9-1.6c0.8-0.4,1.6-0.6,2.4-0.6
			c1,0,2,0.3,2.8,0.8c0.8,0.5,1.5,1.3,1.9,2.1l0.8,1.6l0.8-1.6c0.4-0.9,1.1-1.6,1.9-2.1c0.8-0.5,1.8-0.8,2.8-0.8c0.3,0,0.7,0,1,0.1
			c0.9,0.2,1.7,0.6,2.4,1.2c0.7,0.6,1.2,1.4,1.5,2.2c0.2,0.6,0.3,1.3,0.3,2c-0.1,1.4-0.6,2.9-1.7,4.7
			C545.2,283.7,542.3,286.6,538,289.3z"/>
	</g>
</g>
</svg>
