<svg xmlns="http://www.w3.org/2000/svg" viewBox="0 0 412.482 412.482"><path d="M396.821 67.436a7.5 7.5 0 0 0-5.354-2.248h-84.724C306.555 29.213 277.239.001 241.22.001c-12.855 0-24.846 3.735-34.976 10.156C196.113 3.736 184.12 0 171.264 0c-17.506 0-33.962 6.815-46.336 19.189-12.299 12.299-19.101 28.624-19.191 46H21.015a7.5 7.5 0 0 0-7.499 7.622l5.381 332.293a7.5 7.5 0 0 0 7.499 7.379h358.71a7.5 7.5 0 0 0 7.499-7.356l6.36-332.293a7.502 7.502 0 0 0-2.144-5.398zm-105.078-2.247h-54.952c-.091-17.374-6.983-33.159-18.137-44.849a50.203 50.203 0 0 1 22.565-5.338c27.748 0 50.336 22.482 50.524 50.187zm-85.5-36.075c9.499 9.127 15.451 21.914 15.547 36.074h-31.095c.097-14.16 6.049-26.947 15.548-36.074zm-70.708.681C145.076 20.254 157.765 15 171.264 15a50.217 50.217 0 0 1 22.569 5.339c-11.154 11.69-18.047 27.475-18.137 44.849h-54.958c.089-13.369 5.331-25.927 14.797-35.393zM28.638 80.189H83.35l-5.138 317.293H33.776L28.638 80.189zm349.111 317.293H93.213l5.138-317.293h77.336v52.917a7.5 7.5 0 0 0 15 0V80.189h101.064v52.917a7.5 7.5 0 0 0 15 0V80.189h77.07l-6.072 317.293z"/></svg>