<svg xmlns="http://www.w3.org/2000/svg" width="446.853" height="446.853" viewBox="0 0 446.853 446.853"><path d="M444.274 93.36a14.332 14.332 0 0 0-11.145-6.123L155.942 75.289c-7.953-.348-14.599 5.792-14.939 13.708-.338 7.913 5.792 14.599 13.707 14.939l258.421 11.14L362.32 273.61H136.205L95.354 51.179a14.336 14.336 0 0 0-8.861-10.753L19.586 14.141c-7.374-2.887-15.695.735-18.591 8.1-2.891 7.369.73 15.695 8.1 18.591l59.491 23.371 41.572 226.335a14.341 14.341 0 0 0 14.104 11.746h6.896l-15.747 43.74a11.927 11.927 0 0 0 1.468 10.916 11.947 11.947 0 0 0 9.772 5.078h11.045c-6.844 7.617-11.045 17.646-11.045 28.675 0 23.718 19.299 43.012 43.012 43.012s43.012-19.294 43.012-43.012c0-11.028-4.201-21.058-11.044-28.675h93.777c-6.847 7.617-11.047 17.646-11.047 28.675 0 23.718 19.294 43.012 43.012 43.012 23.719 0 43.012-19.294 43.012-43.012 0-11.028-4.2-21.058-11.042-28.675h13.432c6.6 0 11.948-5.349 11.948-11.947 0-6.6-5.349-11.948-11.948-11.948H143.651l12.902-35.843h216.221a14.332 14.332 0 0 0 13.651-9.96l59.739-186.387a14.306 14.306 0 0 0-1.89-12.573zm-274.61 316.454c-10.543 0-19.117-8.573-19.117-19.116s8.574-19.117 19.117-19.117 19.116 8.574 19.116 19.117-8.573 19.116-19.116 19.116zm157.709 0c-10.543 0-19.116-8.573-19.116-19.116s8.573-19.117 19.116-19.117 19.116 8.574 19.116 19.117-8.573 19.116-19.116 19.116z"/></svg>