<?xml version="1.0" encoding="utf-8"?>
<!-- Generator: Adobe Illustrator 19.0.1, SVG Export Plug-In . SVG Version: 6.00 Build 0)  -->
<svg version="1.1" id="Слой_1" xmlns="http://www.w3.org/2000/svg" xmlns:xlink="http://www.w3.org/1999/xlink" x="0px" y="0px"
	 width="69.9px" height="25px" viewBox="-267.3 268.8 69.9 25" style="enable-background:new -267.3 268.8 69.9 25;"
	 xml:space="preserve">
<style type="text/css">
	.st0{fill:#FFAC00;}
</style>
<path d="M-249.6,283.3h-10.6c-3.6,0-6.5,2.9-6.5,6.5v3.7h23.5v-3.7C-243.2,286.2-246.1,283.3-249.6,283.3z M-244.6,292.1h-20.7v-2.3
	c0-2.8,2.3-5.1,5.1-5.1h10.6c2.8,0,5.1,2.3,5.1,5.1L-244.6,292.1L-244.6,292.1z M-254.9,282.6c3.7,0,6.8-3,6.8-6.8
	c0-3.7-3-6.8-6.8-6.8s-6.8,3-6.8,6.8C-261.7,279.6-258.7,282.6-254.9,282.6z M-254.9,270.5c3,0,5.4,2.4,5.4,5.4c0,3-2.4,5.4-5.4,5.4
	s-5.4-2.4-5.4-5.4C-260.3,272.9-257.9,270.5-254.9,270.5z"/>
<path class="st0" d="M-204.8,283.3h-10.6c-3.6,0-6.5,2.9-6.5,6.5v3.7h23.5v-3.7C-198.3,286.2-201.2,283.3-204.8,283.3z
	 M-199.7,292.1h-20.7v-2.3c0-2.8,2.3-5.1,5.1-5.1h10.6c2.8,0,5.1,2.3,5.1,5.1L-199.7,292.1L-199.7,292.1z M-210.1,282.6
	c3.7,0,6.8-3,6.8-6.8c0-3.7-3-6.8-6.8-6.8s-6.8,3-6.8,6.8C-216.9,279.6-213.8,282.6-210.1,282.6z M-210.1,270.5c3,0,5.4,2.4,5.4,5.4
	c0,3-2.4,5.4-5.4,5.4s-5.4-2.4-5.4-5.4C-215.5,272.9-213,270.5-210.1,270.5z"/>
</svg>
