<?xml version="1.0" encoding="utf-8"?>
<!-- Generator: Adobe Illustrator 19.0.1, SVG Export Plug-In . SVG Version: 6.00 Build 0)  -->
<svg version="1.1" id="Слой_1" xmlns="http://www.w3.org/2000/svg" xmlns:xlink="http://www.w3.org/1999/xlink" x="0px" y="0px"
	 width="42.9px" height="14.3px" viewBox="-486.5 273.8 42.9 14.3" style="enable-background:new -486.5 273.8 42.9 14.3;"
	 xml:space="preserve">
<style type="text/css">
	.st0{fill:#FFFFFF;}
</style>
<path d="M-473.1,288h-12.4c-0.4,0-0.8-0.3-0.8-0.8v0c0-0.4,0.3-0.8,0.8-0.8h12.4c0.4,0,0.8,0.3,0.8,0.8v0
	C-472.3,287.7-472.6,288-473.1,288z M-473.1,281.8h-12.4c-0.4,0-0.8-0.3-0.8-0.8v0c0-0.4,0.3-0.8,0.8-0.8h12.4
	c0.4,0,0.8,0.3,0.8,0.8v0C-472.3,281.4-472.6,281.8-473.1,281.8z M-473.1,275.6h-12.4c-0.4,0-0.8-0.3-0.8-0.8v0
	c0-0.4,0.3-0.8,0.8-0.8h12.4c0.4,0,0.8,0.3,0.8,0.8v0C-472.3,275.2-472.6,275.6-473.1,275.6z"/>
<path class="st0" d="M-444.5,288h-12.4c-0.4,0-0.8-0.3-0.8-0.8v0c0-0.4,0.3-0.8,0.8-0.8h12.4c0.4,0,0.8,0.3,0.8,0.8v0
	C-443.7,287.7-444,288-444.5,288z M-444.5,281.8h-12.4c-0.4,0-0.8-0.3-0.8-0.8v0c0-0.4,0.3-0.8,0.8-0.8h12.4c0.4,0,0.8,0.3,0.8,0.8
	v0C-443.7,281.4-444,281.8-444.5,281.8z M-444.5,275.6h-12.4c-0.4,0-0.8-0.3-0.8-0.8v0c0-0.4,0.3-0.8,0.8-0.8h12.4
	c0.4,0,0.8,0.3,0.8,0.8v0C-443.7,275.2-444,275.6-444.5,275.6z"/>
</svg>
