<?xml version="1.0" encoding="utf-8"?>
<!-- Generator: Adobe Illustrator 19.0.1, SVG Export Plug-In . SVG Version: 6.00 Build 0)  -->
<svg version="1.1" id="Слой_1" xmlns="http://www.w3.org/2000/svg" xmlns:xlink="http://www.w3.org/1999/xlink" x="0px" y="0px"
	 width="118.7px" height="50px" viewBox="455 10 118.7 50" style="enable-background:new 455 10 118.7 50;" xml:space="preserve">
<style type="text/css">
	.st0{fill:#FFAC00;}
</style>
<g>
	<path d="M480.5,58.7c-13.2,0-24-10.7-24-24s10.7-24,24-24c4.5,0,8.8,1.2,12.6,3.6c0.7,0.4,0.9,1.3,0.5,1.9
		c-0.4,0.7-1.3,0.9-1.9,0.5c-3.3-2.1-7.2-3.2-11.1-3.2c-11.7,0-21.1,9.5-21.1,21.1s9.5,21.1,21.1,21.1c11.7,0,21.1-9.5,21.1-21.1
		c0-2.3-0.4-4.6-1.1-6.8c-0.3-0.7,0.1-1.5,0.9-1.8c0.7-0.3,1.5,0.1,1.8,0.9c0.9,2.5,1.3,5.1,1.3,7.8
		C504.4,47.9,493.7,58.7,480.5,58.7z"/>
	<path d="M480.5,42.8c-0.4,0-0.7-0.1-1-0.4l-11.3-10.6c-0.6-0.5-0.6-1.4-0.1-2c0.5-0.6,1.4-0.6,2-0.1l10.2,9.6l18.5-22
		c0.5-0.6,1.4-0.7,2-0.2c0.6,0.5,0.7,1.4,0.2,2l-19.5,23.1C481.3,42.6,480.9,42.8,480.5,42.8C480.5,42.8,480.5,42.8,480.5,42.8z"/>
</g>
<g>
	<path class="st0" d="M548.7,58.9c-13.2,0-24-10.7-24-24s10.7-24,24-24c4.5,0,8.8,1.2,12.6,3.6c0.7,0.4,0.9,1.3,0.5,1.9
		c-0.4,0.7-1.3,0.9-1.9,0.5c-3.3-2.1-7.2-3.2-11.1-3.2c-11.7,0-21.1,9.5-21.1,21.1s9.5,21.1,21.1,21.1c11.7,0,21.1-9.5,21.1-21.1
		c0-2.3-0.4-4.6-1.1-6.8c-0.3-0.7,0.1-1.5,0.9-1.8c0.7-0.3,1.5,0.1,1.8,0.9c0.9,2.5,1.3,5.1,1.3,7.8
		C572.7,48.2,561.9,58.9,548.7,58.9z"/>
	<path class="st0" d="M548.7,43.1c-0.4,0-0.7-0.1-1-0.4l-11.3-10.6c-0.6-0.5-0.6-1.4-0.1-2c0.5-0.6,1.4-0.6,2-0.1l10.2,9.6l18.5-22
		c0.5-0.6,1.4-0.7,2-0.2c0.6,0.5,0.7,1.4,0.2,2l-19.5,23.1C549.5,42.9,549.2,43.1,548.7,43.1C548.8,43.1,548.7,43.1,548.7,43.1z"/>
</g>
</svg>
