<?xml version="1.0" encoding="utf-8"?>
<!-- Generator: Adobe Illustrator 19.0.1, SVG Export Plug-In . SVG Version: 6.00 Build 0)  -->
<svg version="1.1" id="Слой_1" xmlns="http://www.w3.org/2000/svg" xmlns:xlink="http://www.w3.org/1999/xlink" x="0px" y="0px"
	 width="95.7px" height="50px" viewBox="455 10 95.7 50" style="enable-background:new 455 10 95.7 50;" xml:space="preserve">
<style type="text/css">
	.st0{fill:#FFAC00;}
</style>
<g>
	<path d="M480.5,29.4h-14.1c-0.5,0-0.8,0.4-0.8,0.8c0,0.5,0.4,0.8,0.8,0.8h14.1c0.5,0,0.8-0.4,0.8-0.8
		C481.4,29.7,481,29.4,480.5,29.4z"/>
	<path d="M480.5,36.4h-14.1c-0.5,0-0.8,0.4-0.8,0.8c0,0.5,0.4,0.8,0.8,0.8h14.1c0.5,0,0.8-0.4,0.8-0.8
		C481.4,36.8,481,36.4,480.5,36.4z"/>
	<path d="M480.5,43.5h-14.1c-0.5,0-0.8,0.4-0.8,0.8c0,0.5,0.4,0.8,0.8,0.8h14.1c0.5,0,0.8-0.4,0.8-0.8
		C481.4,43.8,481,43.5,480.5,43.5z"/>
	<path d="M480.5,50.5h-14.1c-0.5,0-0.8,0.4-0.8,0.8c0,0.5,0.4,0.8,0.8,0.8h14.1c0.5,0,0.8-0.4,0.8-0.8
		C481.4,50.9,481,50.5,480.5,50.5z"/>
	<path d="M461.9,17.3c0.5,0,0.8-0.4,0.8-0.8c0-0.5-0.4-0.8-0.8-0.8h-4.4c-0.5,0-0.8,0.4-0.8,0.8V58c0,0.5,0.4,0.8,0.8,0.8h31.8
		c0.5,0,0.8-0.4,0.8-0.8V16.5c0-0.5-0.4-0.8-0.8-0.8H485c-0.5,0-0.8,0.4-0.8,0.8c0,0.5,0.4,0.8,0.8,0.8h3.6v39.8h-30.2V17.3H461.9z"
		/>
	<path d="M478.1,11.3h-9.3c-0.5,0-0.8,0.4-0.8,0.8v1.7h-2.7c-0.5,0-0.8,0.4-0.8,0.8v7.3c0,0.5,0.4,0.8,0.8,0.8h16.4
		c0.5,0,0.8-0.4,0.8-0.8v-7.3c0-0.5-0.4-0.8-0.8-0.8H479v-1.7C479,11.7,478.6,11.3,478.1,11.3z M480.8,15.5v5.6h-14.7v-5.6h2.7
		c0.5,0,0.8-0.4,0.8-0.8V13h7.7v1.7c0,0.5,0.4,0.8,0.8,0.8L480.8,15.5L480.8,15.5L480.8,15.5z"/>
	<circle cx="473.5" cy="16.3" r="1.6"/>
</g>
<g>
	<path class="st0" d="M539.4,29.3h-14.1c-0.5,0-0.8,0.4-0.8,0.8c0,0.5,0.4,0.8,0.8,0.8h14.1c0.5,0,0.8-0.4,0.8-0.8
		C540.3,29.7,539.9,29.3,539.4,29.3z"/>
	<path class="st0" d="M539.4,36.3h-14.1c-0.5,0-0.8,0.4-0.8,0.8c0,0.5,0.4,0.8,0.8,0.8h14.1c0.5,0,0.8-0.4,0.8-0.8
		C540.3,36.7,539.9,36.3,539.4,36.3z"/>
	<path class="st0" d="M539.4,43.4h-14.1c-0.5,0-0.8,0.4-0.8,0.8c0,0.5,0.4,0.8,0.8,0.8h14.1c0.5,0,0.8-0.4,0.8-0.8
		C540.3,43.8,539.9,43.4,539.4,43.4z"/>
	<path class="st0" d="M539.4,50.4h-14.1c-0.5,0-0.8,0.4-0.8,0.8c0,0.5,0.4,0.8,0.8,0.8h14.1c0.5,0,0.8-0.4,0.8-0.8
		C540.3,50.8,539.9,50.4,539.4,50.4z"/>
	<path class="st0" d="M520.8,17.3c0.5,0,0.8-0.4,0.8-0.8c0-0.5-0.4-0.8-0.8-0.8h-4.4c-0.5,0-0.8,0.4-0.8,0.8v41.5
		c0,0.5,0.4,0.8,0.8,0.8h31.8c0.5,0,0.8-0.4,0.8-0.8V16.4c0-0.5-0.4-0.8-0.8-0.8h-4.4c-0.5,0-0.8,0.4-0.8,0.8c0,0.5,0.4,0.8,0.8,0.8
		h3.6v39.8h-30.2V17.3H520.8z"/>
	<path class="st0" d="M537,11.3h-9.3c-0.5,0-0.8,0.4-0.8,0.8v1.7h-2.7c-0.5,0-0.8,0.4-0.8,0.8v7.3c0,0.5,0.4,0.8,0.8,0.8h16.4
		c0.5,0,0.8-0.4,0.8-0.8v-7.3c0-0.5-0.4-0.8-0.8-0.8h-2.7v-1.7C537.9,11.6,537.5,11.3,537,11.3z M539.7,15.4V21H525v-5.6h2.7
		c0.5,0,0.8-0.4,0.8-0.8v-1.7h7.7v1.7c0,0.5,0.4,0.8,0.8,0.8L539.7,15.4L539.7,15.4L539.7,15.4z"/>
	<circle class="st0" cx="532.4" cy="16.3" r="1.6"/>
</g>
</svg>
