<?xml version="1.0" encoding="utf-8"?>
<!-- Generator: Adobe Illustrator 19.0.1, SVG Export Plug-In . SVG Version: 6.00 Build 0)  -->
<svg version="1.1" id="Слой_1" xmlns="http://www.w3.org/2000/svg" xmlns:xlink="http://www.w3.org/1999/xlink" x="0px" y="0px"
	 width="108.3px" height="50px" viewBox="455 10 108.3 50" style="enable-background:new 455 10 108.3 50;" xml:space="preserve">
<style type="text/css">
	.st0{fill:#FFAC00;}
</style>
<g>
	<g>
		<g>
			<g>
				<polygon points="491.5,45.8 456.8,45.8 456.8,43.9 489.7,43.9 495.1,10.8 503.2,10.8 503.2,12.8 496.8,12.8 				"/>
			</g>
			<g>
				<path d="M482.8,59.2c-2.9,0-5.3-2.4-5.3-5.4s2.4-5.4,5.3-5.4c2.9,0,5.3,2.4,5.3,5.4C488.1,56.8,485.7,59.2,482.8,59.2z
					 M482.8,50.6c-1.9,0-3.3,1.5-3.3,3.3c0,1.9,1.4,3.3,3.3,3.3c1.9,0,3.3-1.5,3.3-3.3C486,52,484.6,50.6,482.8,50.6z"/>
			</g>
			<g>
				<path d="M463.8,59.2c-2.9,0-5.3-2.4-5.3-5.4s2.4-5.4,5.3-5.4c2.9,0,5.3,2.4,5.3,5.4C469.1,56.8,466.7,59.2,463.8,59.2z
					 M463.8,50.6c-1.9,0-3.3,1.5-3.3,3.3c0,1.9,1.4,3.3,3.3,3.3c1.9,0,3.3-1.5,3.3-3.3C467.1,52,465.6,50.6,463.8,50.6z"/>
			</g>
			<g>
				<path d="M485.2,41.1h-21.7V13h21.7V41.1z M465.5,39.1h17.6V15h-17.6V39.1z"/>
			</g>
		</g>
	</g>
</g>
<g>
	<g>
		<g>
			<g>
				<polygon class="st0" points="549.9,45.8 515.3,45.8 515.3,43.9 548.2,43.9 553.5,10.8 561.7,10.8 561.7,12.8 555.3,12.8 				"/>
			</g>
			<g>
				<path class="st0" d="M541.3,59.2c-2.9,0-5.3-2.4-5.3-5.4s2.4-5.4,5.3-5.4c2.9,0,5.3,2.4,5.3,5.4
					C546.5,56.9,544.1,59.2,541.3,59.2z M541.3,50.6c-1.9,0-3.3,1.5-3.3,3.3c0,1.9,1.4,3.3,3.3,3.3s3.3-1.5,3.3-3.3
					C544.4,52,543,50.6,541.3,50.6z"/>
			</g>
			<g>
				<path class="st0" d="M522.2,59.2c-2.9,0-5.3-2.4-5.3-5.4s2.4-5.4,5.3-5.4c2.9,0,5.3,2.4,5.3,5.4
					C527.6,56.9,525.2,59.2,522.2,59.2z M522.2,50.6c-1.9,0-3.3,1.5-3.3,3.3c0,1.9,1.4,3.3,3.3,3.3c1.9,0,3.3-1.5,3.3-3.3
					C525.5,52,524.1,50.6,522.2,50.6z"/>
			</g>
			<g>
				<path class="st0" d="M543.6,41.1h-21.7V13h21.7V41.1z M523.9,39.1h17.6V15h-17.6V39.1z"/>
			</g>
		</g>
	</g>
</g>
</svg>
