<?xml version="1.0" encoding="utf-8"?>
<!-- Generator: Adobe Illustrator 19.0.1, SVG Export Plug-In . SVG Version: 6.00 Build 0)  -->
<svg version="1.1" id="Слой_1" xmlns="http://www.w3.org/2000/svg" xmlns:xlink="http://www.w3.org/1999/xlink" x="0px" y="0px"
	 width="108.3px" height="50px" viewBox="455 10 108.3 50" style="enable-background:new 455 10 108.3 50;" xml:space="preserve">
<style type="text/css">
	.st0{fill:#FFAC00;}
</style>
<g>
	<path d="M475.7,25.8c-9,0-18.7-2.7-18.7-7.7s9.6-7.7,18.7-7.7c9,0,18.7,2.7,18.7,7.7S484.7,25.8,475.7,25.8z M475.7,12.9
		c-10.1,0-16.3,3.1-16.3,5.3s6.2,5.3,16.3,5.3c10.1,0,16.3-3.1,16.3-5.3S485.8,12.9,475.7,12.9z"/>
	<path d="M475.7,31.3c-9,0-18.7-2.7-18.7-7.7v-5.5c0-0.7,0.5-1.2,1.2-1.2s1.2,0.5,1.2,1.2v5.5c0,2.2,6.2,5.3,16.3,5.3
		c10.1,0,16.3-3.1,16.3-5.3v-5.5c0-0.7,0.5-1.2,1.2-1.2c0.7,0,1.2,0.5,1.2,1.2v5.5C494.3,28.6,484.7,31.3,475.7,31.3z"/>
	<path d="M475.7,36.9c-9,0-18.7-2.7-18.7-7.7v-5.5c0-0.7,0.5-1.2,1.2-1.2s1.2,0.5,1.2,1.2v5.5c0,2.2,6.2,5.3,16.3,5.3
		c10.1,0,16.3-3.1,16.3-5.3v-5.5c0-0.7,0.5-1.2,1.2-1.2c0.7,0,1.2,0.5,1.2,1.2v5.5C494.3,34.2,484.7,36.9,475.7,36.9z"/>
	<path d="M475.7,42.8c-9,0-18.7-2.7-18.7-7.7v-5.5c0-0.7,0.5-1.2,1.2-1.2s1.2,0.5,1.2,1.2v5.5c0,2.2,6.2,5.3,16.3,5.3
		c10.1,0,16.3-3.1,16.3-5.3v-5.5c0-0.7,0.5-1.2,1.2-1.2c0.7,0,1.2,0.5,1.2,1.2v5.5C494.3,40.1,484.7,42.8,475.7,42.8z"/>
	<path d="M475.7,48.4c-9,0-18.7-2.7-18.7-7.7v-5.5c0-0.7,0.5-1.2,1.2-1.2s1.2,0.5,1.2,1.2v5.5c0,2.2,6.2,5.3,16.3,5.3
		c10.1,0,16.3-3.1,16.3-5.3v-5.5c0-0.7,0.5-1.2,1.2-1.2c0.7,0,1.2,0.5,1.2,1.2v5.5C494.3,45.7,484.7,48.4,475.7,48.4z"/>
	<path d="M475.7,53.9c-9,0-18.7-2.7-18.7-7.7v-5.5c0-0.7,0.5-1.2,1.2-1.2s1.2,0.5,1.2,1.2v5.5c0,2.2,6.2,5.3,16.3,5.3
		c10.1,0,16.3-3.1,16.3-5.3v-5.5c0-0.7,0.5-1.2,1.2-1.2c0.7,0,1.2,0.5,1.2,1.2v5.5C494.3,51.2,484.7,53.9,475.7,53.9z"/>
	<path d="M475.7,59.5c-9,0-18.7-2.7-18.7-7.7v-5.5c0-0.7,0.5-1.2,1.2-1.2s1.2,0.5,1.2,1.2v5.5c0,2.2,6.2,5.3,16.3,5.3
		c10.1,0,16.3-3.1,16.3-5.3v-5.5c0-0.7,0.5-1.2,1.2-1.2c0.7,0,1.2,0.5,1.2,1.2v5.5C494.3,56.8,484.7,59.5,475.7,59.5z"/>
</g>
<g>
	<path class="st0" d="M543.6,25.8c-9,0-18.7-2.7-18.7-7.7s9.6-7.7,18.7-7.7c9,0,18.7,2.7,18.7,7.7S552.6,25.8,543.6,25.8z
		 M543.6,12.9c-10.1,0-16.3,3.1-16.3,5.3s6.2,5.3,16.3,5.3c10.1,0,16.3-3.1,16.3-5.3S553.7,12.9,543.6,12.9z"/>
	<path class="st0" d="M543.6,31.3c-9,0-18.7-2.7-18.7-7.7v-5.5c0-0.7,0.5-1.2,1.2-1.2c0.7,0,1.2,0.5,1.2,1.2v5.5
		c0,2.2,6.2,5.3,16.3,5.3c10.1,0,16.3-3.1,16.3-5.3v-5.5c0-0.7,0.5-1.2,1.2-1.2c0.7,0,1.2,0.5,1.2,1.2v5.5
		C562.2,28.6,552.6,31.3,543.6,31.3z"/>
	<path class="st0" d="M543.6,36.9c-9,0-18.7-2.7-18.7-7.7v-5.5c0-0.7,0.5-1.2,1.2-1.2c0.7,0,1.2,0.5,1.2,1.2v5.5
		c0,2.2,6.2,5.3,16.3,5.3c10.1,0,16.3-3.1,16.3-5.3v-5.5c0-0.7,0.5-1.2,1.2-1.2c0.7,0,1.2,0.5,1.2,1.2v5.5
		C562.2,34.2,552.6,36.9,543.6,36.9z"/>
	<path class="st0" d="M543.6,42.8c-9,0-18.7-2.7-18.7-7.7v-5.5c0-0.7,0.5-1.2,1.2-1.2c0.7,0,1.2,0.5,1.2,1.2v5.5
		c0,2.2,6.2,5.3,16.3,5.3c10.1,0,16.3-3.1,16.3-5.3v-5.5c0-0.7,0.5-1.2,1.2-1.2c0.7,0,1.2,0.5,1.2,1.2v5.5
		C562.2,40.1,552.6,42.8,543.6,42.8z"/>
	<path class="st0" d="M543.6,48.4c-9,0-18.7-2.7-18.7-7.7v-5.5c0-0.7,0.5-1.2,1.2-1.2c0.7,0,1.2,0.5,1.2,1.2v5.5
		c0,2.2,6.2,5.3,16.3,5.3c10.1,0,16.3-3.1,16.3-5.3v-5.5c0-0.7,0.5-1.2,1.2-1.2c0.7,0,1.2,0.5,1.2,1.2v5.5
		C562.2,45.7,552.6,48.4,543.6,48.4z"/>
	<path class="st0" d="M543.6,53.9c-9,0-18.7-2.7-18.7-7.7v-5.5c0-0.7,0.5-1.2,1.2-1.2c0.7,0,1.2,0.5,1.2,1.2v5.5
		c0,2.2,6.2,5.3,16.3,5.3c10.1,0,16.3-3.1,16.3-5.3v-5.5c0-0.7,0.5-1.2,1.2-1.2c0.7,0,1.2,0.5,1.2,1.2v5.5
		C562.2,51.2,552.6,53.9,543.6,53.9z"/>
	<path class="st0" d="M543.6,59.5c-9,0-18.7-2.7-18.7-7.7v-5.5c0-0.7,0.5-1.2,1.2-1.2c0.7,0,1.2,0.5,1.2,1.2v5.5
		c0,2.2,6.2,5.3,16.3,5.3c10.1,0,16.3-3.1,16.3-5.3v-5.5c0-0.7,0.5-1.2,1.2-1.2c0.7,0,1.2,0.5,1.2,1.2v5.5
		C562.2,56.8,552.6,59.5,543.6,59.5z"/>
</g>
</svg>
