<svg width="20" height="17" viewBox="0 0 20 17" fill="none" xmlns="http://www.w3.org/2000/svg">
<path fill-rule="evenodd" clip-rule="evenodd" d="M10.5061 0.729244L18.7859 4.3108C19.0594 4.42875 19.2832 4.63514 19.4195 4.89532C19.5559 5.15551 19.5965 5.45364 19.5347 5.73967C19.4728 6.02569 19.3122 6.2822 19.0798 6.46613C18.8474 6.65005 18.5574 6.7502 18.2584 6.74974H17.8193V14.8116C17.8193 15.1494 17.6821 15.4734 17.4378 15.7122C17.1936 15.9511 16.8623 16.0852 16.5168 16.0852C16.1714 16.0852 15.8401 15.9511 15.5959 15.7122C15.3516 15.4734 15.2144 15.1494 15.2144 14.8116V6.45045C15.2145 6.1664 15.2727 5.88525 15.3856 5.62352L9.97857 3.28645L4.39109 5.70357C4.48315 5.94322 4.53011 6.19718 4.52971 6.45318V14.8116C4.52971 15.1494 4.39248 15.4734 4.14823 15.7122C3.90397 15.9511 3.57269 16.0852 3.22726 16.0852C2.88183 16.0852 2.55055 15.9511 2.30629 15.7122C2.06204 15.4734 1.92482 15.1494 1.92482 14.8116V6.74974H1.69875C1.39977 6.7502 1.10974 6.65005 0.877345 6.46613C0.644947 6.2822 0.484336 6.02569 0.422474 5.73967C0.360613 5.45364 0.401268 5.15551 0.537615 4.89532C0.673961 4.63514 0.897697 4.42875 1.17126 4.3108L9.45108 0.729244C9.6172 0.657289 9.79688 0.620117 9.97857 0.620117C10.1603 0.620117 10.3399 0.657289 10.5061 0.729244ZM13.3277 7.35221H6.44336C6.27065 7.35221 6.10501 7.28511 5.98288 7.16569C5.86075 7.04627 5.79214 6.8843 5.79214 6.71541C5.79214 6.54652 5.86075 6.38455 5.98288 6.26513C6.10501 6.1457 6.27065 6.07861 6.44336 6.07861H13.3277C13.5004 6.07861 13.6661 6.1457 13.7882 6.26513C13.9103 6.38455 13.9789 6.54652 13.9789 6.71541C13.9789 6.8843 13.9103 7.04627 13.7882 7.16569C13.6661 7.28511 13.5004 7.35221 13.3277 7.35221ZM6.44336 9.376H13.3277C13.5004 9.376 13.6661 9.30892 13.7882 9.18951C13.9103 9.0701 13.9789 8.90814 13.9789 8.73927C13.9789 8.5704 13.9103 8.40844 13.7882 8.28903C13.6661 8.16962 13.5004 8.10254 13.3277 8.10254H6.44336C6.27065 8.10254 6.10501 8.16962 5.98288 8.28903C5.86075 8.40844 5.79214 8.5704 5.79214 8.73927C5.79214 8.90814 5.86075 9.0701 5.98288 9.18951C6.10501 9.30892 6.27065 9.376 6.44336 9.376ZM13.3277 11.4001H6.44336C6.27065 11.4001 6.10501 11.333 5.98288 11.2136C5.86075 11.0942 5.79214 10.9322 5.79214 10.7633C5.79214 10.5944 5.86075 10.4324 5.98288 10.313C6.10501 10.1936 6.27065 10.1265 6.44336 10.1265H13.3277C13.5004 10.1265 13.6661 10.1936 13.7882 10.313C13.9103 10.4324 13.9789 10.5944 13.9789 10.7633C13.9789 10.9322 13.9103 11.0942 13.7882 11.2136C13.6661 11.333 13.5004 11.4001 13.3277 11.4001ZM6.44336 13.4245H13.3277C13.5004 13.4245 13.6661 13.3574 13.7882 13.238C13.9103 13.1186 13.9789 12.9566 13.9789 12.7877C13.9789 12.6188 13.9103 12.4568 13.7882 12.3374C13.6661 12.218 13.5004 12.1509 13.3277 12.1509H6.44336C6.27065 12.1509 6.10501 12.218 5.98288 12.3374C5.86075 12.4568 5.79214 12.6188 5.79214 12.7877C5.79214 12.9566 5.86075 13.1186 5.98288 13.238C6.10501 13.3574 6.27065 13.4245 6.44336 13.4245ZM6.44336 15.4484H13.3277C13.5004 15.4484 13.6661 15.3813 13.7882 15.2619C13.9103 15.1425 13.9789 14.9805 13.9789 14.8116C13.9789 14.6427 13.9103 14.4807 13.7882 14.3613C13.6661 14.2419 13.5004 14.1748 13.3277 14.1748H6.44336C6.27065 14.1748 6.10501 14.2419 5.98288 14.3613C5.86075 14.4807 5.79214 14.6427 5.79214 14.8116C5.79214 14.9805 5.86075 15.1425 5.98288 15.2619C6.10501 15.3813 6.27065 15.4484 6.44336 15.4484Z" fill="#6D6D6D"/>
</svg>
