<svg width="20" height="19" viewBox="0 0 20 19" fill="none" xmlns="http://www.w3.org/2000/svg">
<path fill-rule="evenodd" clip-rule="evenodd" d="M10.9575 1.31522L19.2374 10.5724V10.5761C19.4022 10.7602 19.5092 10.9869 19.5458 11.229C19.5823 11.4711 19.5467 11.7184 19.4432 11.9412C19.3398 12.1641 19.1729 12.353 18.9625 12.4856C18.7521 12.6181 18.5071 12.6885 18.2568 12.6884H17.907C17.6607 12.6896 17.4247 12.7858 17.2505 12.9562C17.0763 13.1265 16.9779 13.3572 16.9767 13.5981V17.1078C16.9767 17.4456 16.8395 17.7695 16.5952 18.0083C16.351 18.2472 16.0197 18.3814 15.6742 18.3814H12.3865C12.0411 18.3814 11.7098 18.2472 11.4655 18.0083C11.2213 17.7695 11.0841 17.4456 11.0841 17.1078V14.295C11.0841 14.0078 10.9674 13.7325 10.7598 13.5295C10.5522 13.3265 10.2706 13.2124 9.97699 13.2124C9.68338 13.2124 9.40179 13.3265 9.19417 13.5295C8.98655 13.7325 8.86991 14.0078 8.86991 14.295V17.1078C8.86991 17.275 8.83623 17.4406 8.77077 17.5952C8.70532 17.7497 8.60938 17.8901 8.48844 18.0083C8.36749 18.1266 8.22391 18.2204 8.06589 18.2844C7.90787 18.3484 7.73851 18.3814 7.56747 18.3814H4.06297C3.89193 18.3814 3.72256 18.3484 3.56454 18.2844C3.40652 18.2204 3.26294 18.1266 3.142 18.0083C3.02106 17.8901 2.92512 17.7497 2.85967 17.5952C2.79421 17.4406 2.76052 17.275 2.76052 17.1078V13.5945C2.76052 13.3532 2.66251 13.1218 2.48804 12.9512C2.31357 12.7806 2.07694 12.6848 1.83021 12.6848H1.69717C1.44691 12.6849 1.20191 12.6144 0.991508 12.4819C0.781103 12.3494 0.614194 12.1604 0.510751 11.9376C0.407308 11.7148 0.371712 11.4675 0.408222 11.2254C0.444731 10.9833 0.5518 10.7566 0.716619 10.5724L8.99644 1.31522C9.11869 1.17848 9.26943 1.0689 9.43855 0.993812C9.60767 0.918728 9.79125 0.879883 9.97699 0.879883C10.1627 0.879883 10.3463 0.918728 10.5154 0.993812C10.6846 1.0689 10.8353 1.17848 10.9575 1.31522ZM11.0001 7.9652C11.0001 8.49274 10.5627 8.9204 10.0232 8.9204C9.48373 8.9204 9.04639 8.49274 9.04639 7.9652C9.04639 7.43766 9.48373 7.01001 10.0232 7.01001C10.5627 7.01001 11.0001 7.43766 11.0001 7.9652Z" fill="#6D6D6D"/>
</svg>
