<svg width="21" height="17" viewBox="0 0 21 17" fill="none" xmlns="http://www.w3.org/2000/svg">
<path d="M15.2234 3.32111C15.097 3.21919 14.9322 3.16271 14.7613 3.16271C14.5904 3.16271 14.4257 3.21919 14.2992 3.32111L10.7673 6.16364L7.23143 3.32111C7.10506 3.21943 6.9405 3.16311 6.76983 3.16311C6.59915 3.16311 6.43459 3.21943 6.30822 3.32111L2.31027 6.53841C2.23948 6.59548 2.18293 6.66502 2.14424 6.74259C2.10555 6.82015 2.08557 6.90403 2.0856 6.98884V15.919C2.0856 16.0805 2.15795 16.2353 2.28675 16.3494C2.41554 16.4636 2.59022 16.5277 2.77236 16.5277H4.61584C4.64715 16.6287 4.71496 16.7179 4.80887 16.7815C4.90278 16.8451 5.01763 16.8796 5.13582 16.8799H8.40875C8.52694 16.8796 8.64178 16.8451 8.73569 16.7815C8.8296 16.7179 8.89741 16.6287 8.92873 16.5277H12.6078C12.6391 16.6287 12.7069 16.7179 12.8009 16.7815C12.8948 16.8451 13.0096 16.8796 13.1278 16.8799H16.3958C16.514 16.8796 16.6289 16.8451 16.7228 16.7815C16.8167 16.7179 16.8845 16.6287 16.9158 16.5277H18.7593C18.9414 16.5277 19.1161 16.4636 19.2449 16.3494C19.3737 16.2353 19.446 16.0805 19.446 15.919V6.98971C19.4461 6.9049 19.4261 6.82102 19.3874 6.74346C19.3487 6.66589 19.2922 6.59635 19.2214 6.53928L15.2234 3.32111ZM4.95824 9.67311V6.96101C4.95824 6.87929 4.9948 6.80091 5.0599 6.74304C5.12501 6.68518 5.21334 6.65255 5.30555 6.65232H6.22974V9.9818H5.30555C5.21334 9.98157 5.12501 9.94895 5.0599 9.89108C4.9948 9.83322 4.95824 9.75483 4.95824 9.67311ZM7.86424 15.9234H5.67542V11.7313H7.86424V15.9234ZM8.59025 9.67311C8.59025 9.75498 8.55355 9.8335 8.48824 9.89139C8.42292 9.94928 8.33433 9.9818 8.24196 9.9818H7.30894V8.79488H8.59025V9.67311ZM8.59025 7.83838H7.30894V6.65232H8.24196C8.33433 6.65232 8.42292 6.68485 8.48824 6.74274C8.55355 6.80063 8.59025 6.87914 8.59025 6.96101V7.83838ZM12.9453 9.67311V6.96101C12.9453 6.87929 12.9819 6.80091 13.047 6.74304C13.1121 6.68518 13.2004 6.65255 13.2926 6.65232H14.2178V9.9818H13.2926C13.2004 9.98157 13.1121 9.94895 13.047 9.89108C12.9819 9.83322 12.9453 9.75483 12.9453 9.67311ZM15.8513 15.9234H13.6625V11.7313H15.8513V15.9234ZM16.5773 9.67311C16.5773 9.75483 16.5408 9.83322 16.4757 9.89108C16.4106 9.94895 16.3222 9.98157 16.23 9.9818H15.297V8.79488H16.5724L16.5773 9.67311ZM16.5773 7.83838H15.3019V6.65232H16.2349C16.3271 6.65255 16.4155 6.68518 16.4806 6.74304C16.5457 6.80091 16.5822 6.87929 16.5822 6.96101L16.5773 7.83838ZM20.8441 5.75148L15.1263 1.01073C15.0273 0.92825 14.8969 0.881896 14.761 0.880929C14.6252 0.879962 14.4939 0.924452 14.3934 1.00551L10.681 4.00283L7.14215 1.01073C7.04195 0.926706 6.90924 0.879883 6.7713 0.879883C6.63336 0.879883 6.50065 0.926706 6.40045 1.01073L0.682633 5.75583C0.58843 5.8445 0.535947 5.96168 0.535889 6.08347C0.535831 6.20527 0.588203 6.32249 0.682322 6.41123C0.77644 6.49997 0.905213 6.55355 1.04237 6.56102C1.17953 6.5685 1.31474 6.52931 1.42042 6.45146L6.76639 2.01679L10.2983 5.0028C10.3972 5.0862 10.528 5.13336 10.6645 5.13481C10.801 5.13626 10.933 5.0919 11.0342 5.01063L14.7496 2.00984L20.1044 6.45407C20.21 6.53192 20.3452 6.57111 20.4824 6.56363C20.6196 6.55616 20.7483 6.50258 20.8425 6.41384C20.9366 6.3251 20.9889 6.20788 20.9889 6.08608C20.9888 5.96429 20.9363 5.84711 20.8421 5.75843L20.8441 5.75148Z" fill="#6D6D6D"/>
</svg>
