<svg xmlns="http://www.w3.org/2000/svg" xmlns:xlink="http://www.w3.org/1999/xlink" preserveAspectRatio="xMidYMid" width="21" height="16" viewBox="0 0 21 16">
  <defs>
    <style>
      .cls-1 {
        fill: #b2b2b2;
        fill-rule: evenodd;
      }
    </style>
  </defs>
  <path d="M18.000,16.000 L3.000,16.000 C1.343,16.000 0.000,14.657 0.000,13.000 L0.000,3.000 C0.000,1.343 1.343,-0.000 3.000,-0.000 L18.000,-0.000 C19.657,-0.000 21.000,1.343 21.000,3.000 L21.000,13.000 C21.000,14.657 19.657,16.000 18.000,16.000 ZM20.000,3.000 C20.000,1.895 19.105,1.000 18.000,1.000 L3.000,1.000 C1.895,1.000 1.000,1.895 1.000,3.000 L1.000,13.000 C1.000,14.105 1.895,15.000 3.000,15.000 L18.000,15.000 C19.105,15.000 20.000,14.105 20.000,13.000 L20.000,3.000 ZM11.450,10.743 L10.743,11.450 L10.500,11.207 L10.257,11.450 L9.550,10.743 L9.793,10.500 L3.550,4.257 L4.257,3.550 L10.500,9.793 L16.743,3.550 L17.450,4.257 L11.207,10.500 L11.450,10.743 Z" class="cls-1"/>
</svg>
