<svg xmlns="http://www.w3.org/2000/svg" xmlns:xlink="http://www.w3.org/1999/xlink" preserveAspectRatio="xMidYMid" width="42" height="29" viewBox="0 0 42 29">
  <defs>
    <style>
      .cls-1 {
        fill: #2462a5;
        fill-rule: evenodd;
      }
    </style>
  </defs>
  <path d="M41.589,7.890 C40.676,9.637 36.643,18.053 36.095,18.832 C36.030,18.924 35.972,19.014 35.915,19.101 C35.380,19.931 34.815,20.566 32.861,20.566 L14.246,20.566 C14.637,21.637 15.448,22.960 17.138,22.960 L33.563,22.960 C34.040,22.960 34.426,23.309 34.426,23.740 C34.426,24.171 34.040,24.520 33.563,24.520 L17.138,24.520 C14.747,24.520 13.001,22.827 12.349,20.233 C11.990,18.802 7.008,3.716 6.697,2.683 C6.361,2.026 5.584,1.554 4.827,1.554 L0.859,1.554 C0.383,1.554 -0.004,1.204 -0.004,0.774 C-0.004,0.343 0.383,-0.007 0.859,-0.007 L4.827,-0.007 C6.307,-0.007 7.704,0.065 8.305,1.333 C8.321,1.366 8.334,1.400 8.345,1.435 C7.925,0.044 8.398,1.517 9.234,4.179 L9.237,4.198 L9.240,4.198 C9.238,4.192 9.236,4.185 9.234,4.179 L9.228,4.152 L9.229,4.152 C22.045,4.152 29.869,4.152 39.632,4.152 C40.769,4.169 41.339,4.593 41.620,4.963 C42.137,5.644 42.126,6.629 41.589,7.890 ZM18.529,25.148 C19.702,25.148 20.653,26.011 20.653,27.074 C20.653,28.138 19.702,29.000 18.529,29.000 C17.357,29.000 16.406,28.138 16.406,27.074 C16.406,26.011 17.357,25.148 18.529,25.148 ZM29.570,25.148 C30.742,25.148 31.693,26.011 31.693,27.074 C31.693,28.138 30.742,29.000 29.570,29.000 C28.397,29.000 27.447,28.138 27.447,27.074 C27.447,26.011 28.397,25.148 29.570,25.148 Z" class="cls-1"/>
</svg>
