<svg xmlns="http://www.w3.org/2000/svg" xmlns:xlink="http://www.w3.org/1999/xlink" preserveAspectRatio="xMidYMid" width="242.594" height="27.906" viewBox="0 0 242.594 27.906">
  <defs>
    <style>
      .cls-1 {
        fill: #2462a5;
        fill-rule: evenodd;
      }
    </style>
  </defs>
  <path d="M234.598,4.208 L234.598,27.531 L230.157,27.531 L230.157,4.208 L222.166,4.208 L222.166,0.404 L242.589,0.404 L242.589,4.208 L234.598,4.208 ZM209.065,17.382 L206.241,17.382 L206.241,27.531 L201.799,27.531 L201.799,0.404 L209.623,0.404 C213.017,0.404 215.560,1.097 217.251,2.482 C218.942,3.868 219.788,5.909 219.788,8.605 C219.788,11.438 218.859,13.609 217.000,15.118 C215.142,16.627 212.497,17.382 209.065,17.382 ZM213.785,5.265 C212.831,4.499 211.345,4.115 209.325,4.115 L206.241,4.115 L206.241,13.652 L208.601,13.652 C210.880,13.652 212.553,13.256 213.618,12.465 C214.684,11.673 215.216,10.436 215.216,8.754 C215.216,7.195 214.739,6.032 213.785,5.265 ZM190.185,0.404 L194.626,0.404 L194.626,27.531 L190.185,27.531 L190.185,0.404 ZM181.191,27.531 L174.687,16.695 L170.301,16.695 L170.301,27.531 L165.860,27.531 L165.860,0.404 L173.535,0.404 C177.040,0.404 179.636,1.060 181.321,2.371 C183.005,3.682 183.848,5.661 183.848,8.308 C183.848,11.685 182.089,14.091 178.571,15.526 L186.245,27.531 L181.191,27.531 ZM179.277,8.457 C179.277,6.923 178.775,5.822 177.771,5.154 C176.768,4.486 175.256,4.152 173.237,4.152 L170.301,4.152 L170.301,13.021 L173.386,13.021 C175.455,13.021 176.954,12.638 177.883,11.871 C178.812,11.104 179.277,9.966 179.277,8.457 ZM156.522,4.310 C155.500,3.982 154.425,3.818 153.298,3.818 C150.745,3.818 148.738,4.721 147.277,6.527 C145.815,8.333 145.084,10.826 145.084,14.005 C145.084,17.332 145.787,19.849 147.193,21.556 C148.599,23.263 150.634,24.117 153.298,24.117 C154.450,24.117 155.565,24.003 156.643,23.774 C157.720,23.545 158.841,23.251 160.006,22.892 L160.006,26.696 C157.875,27.500 155.459,27.902 152.759,27.902 C148.782,27.902 145.728,26.699 143.597,24.293 C141.466,21.887 140.401,18.446 140.401,13.968 C140.401,11.147 140.918,8.679 141.953,6.564 C142.987,4.449 144.483,2.829 146.440,1.703 C148.398,0.577 150.696,0.014 153.335,0.014 C156.110,0.014 158.674,0.596 161.028,1.759 L159.430,5.451 C158.513,5.018 157.544,4.638 156.522,4.310 ZM125.720,10.461 C126.401,10.906 127.628,11.494 129.400,12.223 C131.394,13.052 132.856,13.825 133.785,14.543 C134.715,15.260 135.396,16.071 135.829,16.973 C136.263,17.876 136.480,18.940 136.480,20.165 C136.480,22.577 135.606,24.469 133.860,25.843 C132.113,27.216 129.703,27.902 126.631,27.902 C123.558,27.902 121.043,27.426 119.086,26.473 L119.086,22.280 C120.325,22.862 121.641,23.319 123.035,23.653 C124.429,23.987 125.726,24.154 126.928,24.154 C128.687,24.154 129.985,23.820 130.821,23.152 C131.658,22.484 132.076,21.587 132.076,20.462 C132.076,19.448 131.692,18.588 130.924,17.883 C130.155,17.177 128.570,16.343 126.166,15.378 C123.688,14.376 121.942,13.232 120.926,11.945 C119.910,10.659 119.402,9.113 119.402,7.306 C119.402,5.043 120.207,3.261 121.818,1.963 C123.428,0.664 125.590,0.014 128.303,0.014 C130.905,0.014 133.494,0.584 136.071,1.721 L134.659,5.340 C132.243,4.325 130.087,3.818 128.192,3.818 C126.755,3.818 125.665,4.131 124.921,4.755 C124.178,5.380 123.806,6.206 123.806,7.232 C123.806,7.937 123.955,8.540 124.252,9.041 C124.550,9.542 125.039,10.015 125.720,10.461 ZM108.178,27.531 L103.718,27.531 L103.718,17.159 L94.705,0.404 L99.537,0.404 L105.967,12.780 L112.396,0.404 L117.228,0.404 L108.178,17.010 L108.178,27.531 ZM78.333,27.531 L70.733,27.531 L70.733,0.404 L79.133,0.404 C83.456,0.404 86.820,1.567 89.223,3.892 C91.626,6.218 92.828,9.490 92.828,13.708 C92.828,18.186 91.583,21.609 89.093,23.978 C86.603,26.347 83.016,27.531 78.333,27.531 ZM79.021,4.115 L75.174,4.115 L75.174,23.802 L78.333,23.802 C84.875,23.802 88.145,20.487 88.145,13.856 C88.145,7.362 85.104,4.115 79.021,4.115 ZM59.713,19.998 L49.325,19.998 L46.668,27.531 L41.985,27.531 L52.150,0.293 L56.982,0.293 L67.146,27.531 L62.426,27.531 L59.713,19.998 ZM55.997,8.791 C55.811,8.296 55.554,7.517 55.225,6.453 C54.897,5.389 54.671,4.610 54.547,4.115 C54.213,5.636 53.723,7.300 53.079,9.106 L50.626,16.176 L58.543,16.176 L55.997,8.791 ZM24.331,0.404 L39.699,0.404 L39.699,4.152 L28.772,4.152 L28.772,11.537 L39.012,11.537 L39.012,15.248 L28.772,15.248 L28.772,23.764 L39.699,23.764 L39.699,27.531 L24.331,27.531 L24.331,0.404 ZM15.337,27.531 L8.833,16.695 L4.447,16.695 L4.447,27.531 L0.006,27.531 L0.006,0.404 L7.681,0.404 C11.186,0.404 13.782,1.060 15.467,2.371 C17.152,3.682 17.994,5.661 17.994,8.308 C17.994,11.685 16.235,14.091 12.717,15.526 L20.391,27.531 L15.337,27.531 ZM13.423,8.457 C13.423,6.923 12.921,5.822 11.918,5.154 C10.914,4.486 9.403,4.152 7.383,4.152 L4.447,4.152 L4.447,13.021 L7.532,13.021 C9.601,13.021 11.100,12.638 12.029,11.871 C12.958,11.104 13.423,9.966 13.423,8.457 Z" class="cls-1"/>
</svg>
