<?xml version="1.0" encoding="utf-8"?>
<!-- Generator: Adobe Illustrator 22.1.0, SVG Export Plug-In . SVG Version: 6.00 Build 0)  -->
<svg version="1.1" id="Слой_1" xmlns="http://www.w3.org/2000/svg" xmlns:xlink="http://www.w3.org/1999/xlink" x="0px" y="0px"
	 viewBox="0 0 323.1 59.4" style="enable-background:new 0 0 323.1 59.4;" xml:space="preserve">
<style type="text/css">
	.st0{fill:#FFFFFF;}
	.st1{clip-path:url(#SVGID_2_);fill:#FFFFFF;}
	.st2{clip-path:url(#SVGID_4_);fill:#FFFFFF;}
	.st3{fill:url(#SVGID_5_);}
	.st4{clip-path:url(#SVGID_8_);fill:url(#SVGID_9_);}
	.st5{clip-path:url(#SVGID_12_);fill:url(#SVGID_13_);}
	.st6{fill:url(#SVGID_14_);}
</style>
<linearGradient id="SVGID_2_" gradientUnits="userSpaceOnUse" x1="68.7708" y1="126.8729" x2="251.0706" y2="-55.4269">
	<stop  offset="0" style="stop-color:#112FC1"/>
	<stop  offset="1" style="stop-color:#01D3D3"/>
</linearGradient>
<path style="fill:url(#SVGID_2_);" d="M58.1,10.1v21.2L31.8,21.2V0L58.1,10.1z M31.8,48l26.3,10.1V36.9L31.8,26.8V48z M0,58.1
	L26.3,48l0,0L0,36.9V58.1z M0,31.3l26.3-10.1V0L0,10.1V31.3z M95.6,44.3l-6.1-10.4c3.2-1.5,5.3-4.6,5.3-8.1c0-2.5-0.9-4.7-2.7-6.5
	c-1.8-1.8-4-2.7-6.5-2.7H74.5v27.7H80v-9.6h4.2l5.6,9.6H95.6z M85.6,21.7c2.1,0,3.8,1.8,3.8,4.1c0,2.3-1.7,4.1-3.8,4.1H80v-8.2H85.6
	z M104.3,32.8h10.5v-5.1h-10.5v-5.9h11.5v-5.2H98.8v27.7H116V39h-11.7V32.8z M144,44.3l-9.7-27.7h-6.8l-9.7,27.7h5.9l1.7-5h11l1.7,5
	H144z M130.9,22.9l3.8,11.3h-7.6L130.9,22.9z M146.6,16.6v27.7h11c3.8,0,7-1.3,9.5-4c2.6-2.7,3.8-5.9,3.8-9.8c0-3.9-1.3-7.2-3.8-9.9
	c-2.5-2.6-5.7-4-9.5-4H146.6z M152.1,39V21.8h5.5c2.4,0,4.4,0.8,5.9,2.4c1.5,1.6,2.3,3.6,2.3,6.2c0,2.6-0.8,4.6-2.3,6.2
	c-1.5,1.6-3.4,2.4-5.9,2.4H152.1z M188.6,16.6l-6,11.6l-6-11.6h-6.2l9.5,16.9v10.8h5.4V33.5l9.5-16.9H188.6z M205.3,44.8
	c3,0,5.4-0.8,7.2-2.3c1.9-1.5,2.8-3.5,2.8-6.1c0-1.6-0.4-3-1-3.9c-0.5-0.9-1.8-1.9-2.6-2.5c-0.4-0.3-1-0.6-1.7-0.8
	c-0.8-0.3-1.3-0.6-1.8-0.7l-1.9-0.6c-2.1-0.6-3.4-1.2-4.2-1.7c-0.7-0.6-1.1-1.3-1.1-2.1c0-1.6,1.4-2.8,3.6-2.8
	c2.4,0,4.2,1.2,5.3,3.6l4.6-2.6c-1.9-3.9-5.4-6.2-9.9-6.2c-2.5,0-4.7,0.8-6.4,2.3c-1.8,1.5-2.6,3.5-2.6,6c0,2.5,0.9,4.4,2.6,5.7
	c1.7,1.2,3.2,1.8,5.7,2.6c2.3,0.6,3.8,1.2,4.7,1.8c0.9,0.5,1.3,1.3,1.3,2.3c0,1.7-1.4,2.9-4.4,2.9c-3.2,0-5.3-1.4-6.4-4.2l-4.7,2.7
	C195.9,42.2,199.8,44.8,205.3,44.8z M231.8,44.8c5.1,0,9.5-2.5,11.9-6.5l-4.7-2.7c-1.3,2.4-4,3.9-7.2,3.9c-2.7,0-4.9-0.8-6.5-2.5
	c-1.6-1.7-2.5-3.9-2.5-6.5c0-2.7,0.8-4.9,2.5-6.6c1.7-1.7,3.8-2.5,6.5-2.5c3.2,0,5.8,1.5,7.2,4l4.7-2.7c-2.4-4-6.9-6.5-11.9-6.5
	c-4.2,0-7.6,1.4-10.3,4.2c-2.7,2.7-4.1,6.2-4.1,10.2c0,4.1,1.3,7.5,4.1,10.2C224.2,43.4,227.6,44.8,231.8,44.8z M268.1,44.3
	L262,33.8c3.2-1.5,5.3-4.6,5.3-8.1c0-2.5-0.9-4.7-2.7-6.5s-4-2.7-6.5-2.7h-11.1v27.7h5.5v-9.6h4.2l5.6,9.6H268.1z M258.1,21.7
	c2.1,0,3.8,1.8,3.8,4.1c0,2.3-1.7,4.1-3.8,4.1h-5.6v-8.2H258.1z M271.3,44.3h5.5V16.6h-5.5V44.3z M281.9,16.6v27.7h5.5v-9.1h4.9
	c2.7,0,4.9-0.9,6.7-2.7c1.8-1.8,2.7-4,2.7-6.6s-0.9-4.8-2.7-6.6c-1.8-1.8-4.1-2.7-6.7-2.7H281.9z M287.4,30.1v-8.4h4.9
	c2.3,0,4,1.8,4,4.2c0,2.4-1.7,4.2-4,4.2H287.4z M302.7,16.6v5.2h7.4v22.5h5.5V21.8h7.5v-5.2H302.7z M74.5,52.5v5.6h0.8v-4.9h3.3v4.9
	h0.8v-5.6H74.5z M84.1,52.5L84,54.9c0,0.6-0.1,1.1-0.1,1.5c-0.1,0.4-0.2,0.6-0.3,0.8c-0.1,0.2-0.3,0.3-0.6,0.3c-0.1,0-0.2,0-0.3,0
	l-0.1,0.7c0.2,0,0.3,0.1,0.5,0.1c0.4,0,0.7-0.1,0.9-0.4c0.2-0.2,0.4-0.6,0.5-1.1c0.1-0.5,0.2-1.1,0.2-1.9l0.1-1.6h2.5v4.9H88v-5.6
	H84.1z M96.5,58.2h0.8l-2.6-5.6H94l-2.5,5.6h0.8l0.6-1.4h3L96.5,58.2z M93.1,56.1l1.2-2.8l1.2,2.8H93.1z M104.3,52.5h-4.6v0.7h1.9
	v4.9h0.8v-4.9h1.9V52.5z M113.8,55.3c0-0.7-0.3-1.3-0.8-1.7c-0.5-0.4-1.3-0.7-2.2-0.7v-0.6h-0.7v0.6c-0.9,0-1.7,0.3-2.2,0.7
	c-0.5,0.4-0.8,1-0.8,1.8c0,0.7,0.3,1.3,0.8,1.7c0.5,0.4,1.3,0.7,2.2,0.7v0.6h0.7v-0.6c0.9,0,1.7-0.3,2.2-0.7
	C113.5,56.7,113.8,56.1,113.8,55.3z M107.9,55.3c0-0.6,0.2-1,0.6-1.3c0.4-0.3,0.9-0.5,1.6-0.5v3.6c-0.7,0-1.3-0.2-1.6-0.5
	C108.1,56.3,107.9,55.9,107.9,55.3z M110.8,57.1v-3.6c0.7,0,1.3,0.2,1.6,0.5c0.4,0.3,0.6,0.7,0.6,1.3c0,0.6-0.2,1-0.6,1.3
	C112.1,56.9,111.5,57.1,110.8,57.1z M120,58.2c0.6,0,1.1-0.1,1.5-0.4c0.5-0.2,0.8-0.6,1.1-1c0.3-0.4,0.4-0.9,0.4-1.5
	c0-0.5-0.1-1-0.4-1.5s-0.6-0.8-1.1-1c-0.5-0.2-1-0.4-1.5-0.4c-0.6,0-1.1,0.1-1.5,0.4c-0.5,0.2-0.8,0.6-1.1,1
	c-0.3,0.4-0.4,0.9-0.4,1.5c0,0.5,0.1,1,0.4,1.5c0.3,0.4,0.6,0.8,1.1,1C118.9,58.1,119.4,58.2,120,58.2z M120,57.5
	c-0.4,0-0.8-0.1-1.1-0.3c-0.3-0.2-0.6-0.4-0.8-0.8c-0.2-0.3-0.3-0.7-0.3-1.1c0-0.4,0.1-0.8,0.3-1.1c0.2-0.3,0.5-0.6,0.8-0.8
	c0.3-0.2,0.7-0.3,1.1-0.3c0.4,0,0.8,0.1,1.1,0.3c0.3,0.2,0.6,0.4,0.8,0.8c0.2,0.3,0.3,0.7,0.3,1.1c0,0.4-0.1,0.8-0.3,1.1
	c-0.2,0.3-0.5,0.6-0.8,0.8C120.8,57.4,120.4,57.5,120,57.5z M128.9,52.5h-2.2v5.6h0.8v-1.7h1.4c0.7,0,1.3-0.2,1.7-0.5
	c0.4-0.3,0.6-0.8,0.6-1.4c0-0.6-0.2-1.1-0.6-1.4C130.2,52.7,129.6,52.5,128.9,52.5z M128.9,55.8h-1.4v-2.5h1.4
	c0.5,0,0.9,0.1,1.2,0.3c0.3,0.2,0.4,0.5,0.4,0.9c0,0.4-0.1,0.7-0.4,0.9C129.8,55.6,129.4,55.8,128.9,55.8z M140.7,58.2l0-5.6h-0.7
	l-2.3,4l-2.3-4h-0.7v5.6h0.8v-4.1l2,3.4h0.4l2-3.4l0,4.1H140.7z M149.2,58.2h0.8l-2.6-5.6h-0.8l-2.5,5.6h0.8l0.6-1.4h3L149.2,58.2z
	 M145.9,56.1l1.2-2.8l1.2,2.8H145.9z M162.5,57.5v-4.9h-4l-0.1,1.8c0,1-0.1,1.7-0.3,2.3c-0.1,0.5-0.4,0.8-0.7,0.8h-0.3l0,1.9h0.7
	l0-1.2h4.6v1.2h0.7v-1.9H162.5z M159.2,54.4l0-1.2h2.5v4.2h-3.2c0.2-0.2,0.4-0.6,0.5-1.1C159.1,55.9,159.2,55.2,159.2,54.4z
	 M167.5,52.5l-0.1,2.4c0,0.6-0.1,1.1-0.1,1.5c-0.1,0.4-0.2,0.6-0.3,0.8c-0.1,0.2-0.3,0.3-0.6,0.3c-0.1,0-0.2,0-0.3,0l-0.1,0.7
	c0.2,0,0.3,0.1,0.5,0.1c0.4,0,0.7-0.1,0.9-0.4c0.2-0.2,0.4-0.6,0.5-1.1c0.1-0.5,0.2-1.1,0.2-1.9l0.1-1.6h2.5v4.9h0.8v-5.6H167.5z
	 M177.5,52.5c-0.7,0-1.3,0.2-1.7,0.5c-0.4,0.4-0.6,0.9-0.6,1.5c0,0.5,0.1,0.8,0.3,1.1c0.2,0.3,0.5,0.5,0.9,0.7l-1.2,1.8h0.9l1.1-1.6
	c0,0,0.1,0,0.2,0h1.6v1.6h0.8v-5.6H177.5z M176,54.5c0-0.4,0.1-0.8,0.4-1c0.3-0.2,0.6-0.3,1.1-0.3h1.4v2.6h-1.5
	c-0.5,0-0.8-0.1-1.1-0.3C176.1,55.3,176,55,176,54.5z M188.5,58.2h0.7l3.3-4.3v4.3h0.8v-5.6h-0.7l-3.3,4.3v-4.3h-0.8V58.2z
	 M201.6,52.5V55h-3.2v-2.4h-0.8v5.6h0.8v-2.5h3.2v2.5h0.8v-5.6H201.6z M210.4,52.5h-4.6v0.7h1.9v4.9h0.8v-4.9h1.9V52.5z M214.6,57.5
	v-1.8h2.8V55h-2.8v-1.7h3.2v-0.7h-4v5.6h4.1v-0.7H214.6z M223.7,52.5h-2.2v5.6h0.8v-1.7h1.4c0.7,0,1.3-0.2,1.7-0.5
	c0.4-0.3,0.6-0.8,0.6-1.4c0-0.6-0.2-1.1-0.6-1.4C225,52.7,224.5,52.5,223.7,52.5z M223.7,55.8h-1.4v-2.5h1.4c0.5,0,0.9,0.1,1.2,0.3
	c0.3,0.2,0.4,0.5,0.4,0.9c0,0.4-0.1,0.7-0.4,0.9C224.6,55.6,224.2,55.8,223.7,55.8z M233.6,52.5V55h-3.2v-2.4h-0.8v5.6h0.8v-2.5h3.2
	v2.5h0.8v-5.6H233.6z M239.4,57.5v-1.8h2.8V55h-2.8v-1.7h3.2v-0.7h-4v5.6h4.1v-0.7H239.4z M250.2,52.5h-4.6v0.7h1.9v4.9h0.8v-4.9
	h1.9V52.5z M253.2,55.7h2.2V55h-2.2V55.7z M265.1,58.2l0-5.6h-0.7l-2.3,4l-2.3-4h-0.7v5.6h0.8v-4.1l2,3.4h0.4l2-3.4l0,4.1H265.1z
	 M273.6,58.2h0.8l-2.6-5.6h-0.8l-2.5,5.6h0.8l0.6-1.4h3L273.6,58.2z M270.2,56.1l1.2-2.8l1.2,2.8H270.2z M281.5,52.5h-3.7v5.6h0.8
	l0-4.9h2.9L281.5,52.5z M288.1,58.2h0.8l-2.6-5.6h-0.8l-2.5,5.6h0.8l0.6-1.4h3L288.1,58.2z M284.7,56.1l1.2-2.8l1.2,2.8H284.7z
	 M295,55.2c0.3-0.1,0.5-0.3,0.7-0.5c0.2-0.2,0.2-0.5,0.2-0.7c0-0.3-0.1-0.6-0.3-0.8c-0.2-0.2-0.5-0.4-0.8-0.5
	c-0.3-0.1-0.7-0.2-1.1-0.2c-0.3,0-0.6,0-0.9,0.1c-0.3,0.1-0.6,0.2-0.9,0.4l0.3,0.7c0.2-0.1,0.5-0.3,0.8-0.3c0.3-0.1,0.5-0.1,0.8-0.1
	c0.4,0,0.7,0.1,1,0.3c0.3,0.2,0.4,0.4,0.4,0.7c0,0.3-0.1,0.5-0.3,0.6c-0.2,0.1-0.5,0.2-0.8,0.2h-1.2v0.7h1.3c0.4,0,0.7,0.1,1,0.2
	c0.2,0.2,0.3,0.4,0.3,0.7c0,0.3-0.2,0.6-0.5,0.8c-0.3,0.2-0.7,0.3-1.1,0.3c-0.3,0-0.6,0-0.9-0.1c-0.3-0.1-0.6-0.2-0.8-0.4l-0.3,0.6
	c0.3,0.2,0.6,0.4,1,0.5c0.4,0.1,0.7,0.2,1.1,0.2c0.4,0,0.8-0.1,1.1-0.2s0.6-0.3,0.8-0.6c0.2-0.2,0.3-0.5,0.3-0.9
	c0-0.3-0.1-0.6-0.3-0.9C295.6,55.5,295.3,55.3,295,55.2z M299.9,58.2h0.7l3.3-4.3v4.3h0.8v-5.6H304l-3.3,4.3v-4.3h-0.8V58.2z
	 M312.9,52.5V55h-3.2v-2.4h-0.8v5.6h0.8v-2.5h3.2v2.5h0.8v-5.6H312.9z M322.2,58.2h0.8l-2.6-5.6h-0.8l-2.5,5.6h0.8l0.6-1.4h3
	L322.2,58.2z M318.9,56.1l1.2-2.8l1.2,2.8H318.9z"/>
</svg>
