<svg width="240" height="240" viewBox="0 0 240 240" fill="none" xmlns="http://www.w3.org/2000/svg">
<path d="M196.771 116.11V195.39C196.771 197.8 195.451 200.016 193.331 201.165L123.132 239.2C121.178 240.258 118.822 240.258 116.874 239.2L46.6694 201.165C44.5548 200.016 43.2344 197.8 43.2344 195.39V116.11H196.771Z" fill="#D3D5DB"/>
<path d="M120.003 116.11V239.999C118.924 239.999 117.851 239.736 116.868 239.205L46.6694 201.164C44.5548 200.01 43.2344 197.799 43.2344 195.389V116.11H120.003Z" fill="#EAEBEE"/>
<path d="M120.001 74.5149L43.2314 116.11L120.001 157.705L196.771 116.11L120.001 74.5149Z" fill="#404147"/>
<path d="M180.977 124.671L120.003 157.704L59.0298 124.671L98.9701 103.029C112.091 95.9194 127.915 95.9194 141.036 103.029L180.977 124.671Z" fill="#404147"/>
<path d="M221.191 88.0928L196.77 116.111L120 74.5155L145.388 45.3897C146.398 44.2309 148.077 43.9276 149.429 44.6598L220.28 83.0467C222.129 84.0489 222.573 86.507 221.191 88.0928Z" fill="#EAEBEE"/>
<path d="M18.8098 88.0928L43.2307 116.111L120.001 74.5155L94.6128 45.3897C93.6026 44.2309 91.924 43.9276 90.5721 44.6598L19.7215 83.0472C17.8718 84.0489 17.4279 86.507 18.8098 88.0928Z" fill="#F9F9F9"/>
<path d="M16.6738 125.104L43.2308 116.111L120 157.706L89.031 168.192C87.2994 168.779 85.4024 168.617 83.7951 167.746L16.1624 131.103C13.6419 129.737 13.9583 126.023 16.6738 125.104Z" fill="#F9F9F9"/>
<path d="M223.327 125.104L196.77 116.111L120 157.706L150.969 168.192C152.701 168.779 154.598 168.617 156.205 167.746L223.837 131.103C226.358 129.737 226.042 126.023 223.327 125.104Z" fill="#EAEBEE"/>
<path d="M120 120C113.296 120 106.893 122.284 102.866 126.11C102.815 126.159 102.765 126.209 102.718 126.259C101.409 127.66 101.94 129.553 103.903 130.487C105.804 131.393 108.354 131.066 109.702 129.769C112.121 127.47 115.971 126.098 120 126.098C124.033 126.098 127.886 127.473 130.306 129.776C130.342 129.811 130.38 129.844 130.418 129.878C130.425 129.885 130.438 129.895 130.447 129.902C131.957 131.196 134.651 131.37 136.463 130.293C138.234 129.239 138.508 127.38 137.111 126.088C133.084 122.276 126.692 120 120 120Z" fill="white"/>
<path fill-rule="evenodd" clip-rule="evenodd" d="M103.969 105.469C103.969 107.799 102.185 109.688 99.9844 109.688C97.7836 109.688 96 107.799 96 105.469C96 103.139 97.7836 101.25 99.9844 101.25C102.185 101.25 103.969 103.139 103.969 105.469Z" fill="white"/>
<path fill-rule="evenodd" clip-rule="evenodd" d="M144.438 105.469C144.438 107.799 142.549 109.688 140.219 109.688C137.889 109.688 136 107.799 136 105.469C136 103.139 137.889 101.25 140.219 101.25C142.549 101.25 144.438 103.139 144.438 105.469Z" fill="white"/>
</svg>
