<svg width="24" height="24" viewBox="0 0 24 24" xmlns="http://www.w3.org/2000/svg" fill="#84858A">
    <path d="M22.0459 18.034L22.0452 18.0345C21.5726 18.3905 21.0371 18.657 20.4396 18.8345C19.8489 19.0115 19.2384 19.1 18.6082 19.1C17.6923 19.1 16.862 18.9232 16.1192 18.5675L16.1183 18.5671C15.3813 18.2052 14.7732 17.6903 14.2953 17.0236L14.2947 17.0228C13.8217 16.3485 13.5233 15.5489 13.3973 14.6269L13.3841 14.5303L13.4803 14.5146L15.8839 14.1226L15.9774 14.1074L15.9977 14.1999C16.1628 14.9529 16.5021 15.5252 17.0112 15.9254C17.5239 16.3284 18.1058 16.5293 18.7606 16.5293C19.1268 16.5293 19.4819 16.4661 19.8263 16.3395C20.168 16.2139 20.4441 16.0298 20.6576 15.7884L20.6584 15.7875C20.8716 15.5524 20.9795 15.2628 20.9795 14.912C20.9795 14.6588 20.9069 14.4265 20.7601 14.2126L20.7594 14.2116C20.6202 14.0032 20.3305 13.8163 19.8635 13.663L16.6993 12.6367C16.6992 12.6367 16.6991 12.6366 16.6989 12.6366C16.4578 12.5606 16.1781 12.4535 15.8602 12.3158L15.8596 12.3155C15.5389 12.174 15.2287 11.9722 14.9288 11.7115C14.6232 11.4458 14.37 11.0979 14.1677 10.6708L14.167 10.6693L14.167 10.6693C13.9675 10.2293 13.8704 9.68206 13.8704 9.032C13.8704 8.11447 14.0799 7.3436 14.5058 6.7259C14.9288 6.11245 15.4942 5.65558 16.1994 5.35596C16.9017 5.05757 17.6772 4.91236 18.5243 4.91867L18.5251 4.91867V4.91868C19.8071 4.93761 20.8846 5.28838 21.751 5.97635C22.6184 6.66506 23.1984 7.65415 23.4958 8.93471L23.5195 9.03638L23.4169 9.05562L20.9287 9.52229L20.8322 9.54037L20.8123 9.44429C20.6811 8.81096 20.3934 8.33636 19.9537 8.01106C19.5066 7.68037 19.0182 7.50723 18.4864 7.48928L18.4863 7.48927C18.138 7.47727 17.8102 7.53125 17.5018 7.65059L17.5007 7.651C17.1988 7.76395 16.9537 7.92915 16.7625 8.14562C16.5817 8.35672 16.4909 8.60692 16.4909 8.90133C16.4909 9.17372 16.5664 9.38825 16.7109 9.55343C16.8642 9.72229 17.0583 9.86062 17.2952 9.96751C17.5392 10.0776 17.7885 10.1692 18.0434 10.2426L18.0445 10.2429L20.1599 10.8774C20.16 10.8775 20.1601 10.8775 20.1602 10.8775C20.4797 10.9719 20.8324 11.0974 21.218 11.2537C21.6109 11.4068 21.9857 11.6231 22.3422 11.902C22.7106 12.1795 23.0103 12.5462 23.2419 12.9995L22.0459 18.034ZM22.0459 18.034C22.5208 17.67 22.8971 17.2133 23.1745 16.6653M22.0459 18.034L23.1745 16.6653M23.1745 16.6653C23.1744 16.6654 23.1744 16.6654 23.1744 16.6655L23.0853 16.62L23.1745 16.6652C23.1745 16.6652 23.1745 16.6652 23.1745 16.6653ZM3.19546 5.79388L3.19522 5.79405C2.29805 6.39022 1.60651 7.22361 1.11993 8.2905L1.11975 8.29091C0.638899 9.35778 0.4 10.5949 0.4 12C0.4 13.405 0.638899 14.6422 1.11975 15.7091L1.11993 15.7095C1.60651 16.7764 2.29805 17.6098 3.19522 18.206L3.19546 18.2061C4.09996 18.8033 5.17204 19.1 6.40736 19.1C7.64264 19.1 8.71201 18.8034 9.61098 18.206C10.5138 17.6098 11.2055 16.7763 11.6865 15.7092C12.173 14.6423 12.4147 13.4051 12.4147 12C12.4147 10.5949 12.173 9.35764 11.6864 8.29071C11.2054 7.2236 10.5138 6.39013 9.61092 5.79396C8.71197 5.19663 7.64261 4.9 6.40736 4.9C5.17204 4.9 4.09996 5.19667 3.19546 5.79388ZM6.40575 7.48932H6.40576C7.54153 7.50756 8.37782 7.91894 8.93195 8.71576C9.49207 9.52119 9.77731 10.6127 9.77731 12C9.77731 13.3871 9.49213 14.4885 8.93136 15.3131C8.37763 16.1273 7.54295 16.5289 6.40898 16.5107C5.27911 16.4924 4.44252 16.0812 3.88261 15.284C3.32261 14.4786 3.03742 13.3872 3.03742 12C3.03742 10.613 3.32255 9.51164 3.88322 8.68711C4.44273 7.8725 5.27771 7.47112 6.40575 7.48932ZM20.8425 14.156C21.0005 14.3862 21.0795 14.6382 21.0795 14.912C21.0795 15.2853 20.9638 15.5996 20.7325 15.8547L20.8425 14.156Z"  />
</svg>