<svg width="168" height="26" viewBox="0 0 168 26" fill="none" xmlns="http://www.w3.org/2000/svg">
<mask id="path-1-outside-1" maskUnits="userSpaceOnUse" x="0" y="0" width="168" height="26" fill="black">
<rect fill="white" width="168" height="26"/>
<path d="M12.2792 25C14.6061 25 16.6099 24.4987 18.2905 23.496C19.9818 22.4933 21.2799 21.0907 22.1849 19.288C23.1005 17.4853 23.5584 15.3893 23.5584 13C23.5584 10.6107 23.1005 8.51467 22.1849 6.712C21.2799 4.90933 19.9818 3.50667 18.2905 2.504C16.6099 1.50133 14.6061 1 12.2792 1C9.95226 1 7.94312 1.50133 6.25177 2.504C4.57121 3.50667 3.27308 4.90933 2.35738 6.712C1.45246 8.51467 1 10.6107 1 13C1 15.3893 1.45246 17.4853 2.35738 19.288C3.27308 21.0907 4.57121 22.4933 6.25177 23.496C7.94312 24.4987 9.95226 25 12.2792 25ZM12.2792 20.904C10.0708 20.872 8.41174 20.1467 7.30213 18.728C6.2033 17.3093 5.65388 15.4 5.65388 13C5.65388 10.6 6.2033 8.67467 7.30213 7.224C8.41174 5.77333 10.0708 5.064 12.2792 5.096C14.4984 5.128 16.1574 5.85333 17.2563 7.272C18.3551 8.69067 18.9045 10.6 18.9045 13C18.9045 15.4 18.3551 17.3253 17.2563 18.776C16.1574 20.2267 14.4984 20.936 12.2792 20.904Z"/>
<path d="M23.3584 24.52H27.8184V15.752C27.8184 14.6747 27.9369 13.8107 28.1739 13.16C28.4217 12.5093 28.7341 12.0187 29.1111 11.688C29.4882 11.3467 29.8922 11.1173 30.3231 11C30.754 10.8827 31.158 10.824 31.535 10.824C32.4723 10.824 33.194 11.032 33.7004 11.448C34.2175 11.864 34.5891 12.3813 34.8154 13C35.0416 13.6187 35.1763 14.2373 35.2193 14.856C35.2624 15.464 35.284 15.9653 35.284 16.36V24.52H39.744V14.824C39.744 14.536 39.7224 14.0773 39.6793 13.448C39.6362 12.8187 39.5123 12.1253 39.3077 11.368C39.103 10.6 38.7582 9.864 38.2735 9.16C37.7995 8.456 37.1315 7.87467 36.2697 7.416C35.4079 6.95733 34.2929 6.728 32.9247 6.728C31.6643 6.728 30.5655 6.936 29.6282 7.352C28.691 7.768 27.9046 8.32267 27.269 9.016V7.24H23.3584V24.52Z"/>
<path d="M40.8668 24.52H45.2621V1H40.8668V24.52Z"/>
<path d="M47.0363 4.84H51.4317V1H47.0363V4.84ZM47.0363 24.52H51.4317V7.24H47.0363V24.52Z"/>
<path d="M52.8504 24.52H57.3104V15.752C57.3104 14.6747 57.4289 13.8107 57.6659 13.16C57.9137 12.5093 58.2261 12.0187 58.6031 11.688C58.9802 11.3467 59.3842 11.1173 59.8151 11C60.246 10.8827 60.65 10.824 61.027 10.824C61.9643 10.824 62.6861 11.032 63.1924 11.448C63.7095 11.864 64.0811 12.3813 64.3074 13C64.5336 13.6187 64.6683 14.2373 64.7113 14.856C64.7544 15.464 64.776 15.9653 64.776 16.36V24.52H69.236V14.824C69.236 14.536 69.2144 14.0773 69.1713 13.448C69.1282 12.8187 69.0043 12.1253 68.7996 11.368C68.595 10.6 68.2502 9.864 67.7655 9.16C67.2915 8.456 66.6235 7.87467 65.7617 7.416C64.8999 6.95733 63.7849 6.728 62.4167 6.728C61.1563 6.728 60.0575 6.936 59.1202 7.352C58.183 7.768 57.3966 8.32267 56.761 9.016V7.24H52.8504V24.52Z"/>
<path d="M77.8319 25C79.5125 25 81.0584 24.5627 82.4697 23.688C83.8917 22.8133 84.9313 21.5867 85.5884 20.008L81.1931 18.76C80.5252 20.2107 79.3186 20.936 77.5734 20.936C76.3776 20.936 75.435 20.6053 74.7455 19.944C74.0668 19.2827 73.6467 18.3333 73.4851 17.096H85.7338C85.917 15.0053 85.7015 13.1867 85.0875 11.64C84.4734 10.0933 83.5254 8.89333 82.2434 8.04C80.9615 7.18667 79.4048 6.76 77.5734 6.76C75.8497 6.76 74.3254 7.14933 73.0003 7.928C71.6752 8.696 70.6357 9.77867 69.8816 11.176C69.1275 12.5733 68.7504 14.216 68.7504 16.104C68.7504 17.832 69.1329 19.368 69.8977 20.712C70.6734 22.0453 71.7399 23.096 73.0973 23.864C74.4654 24.6213 76.0436 25 77.8319 25ZM77.7673 10.536C78.823 10.536 79.631 10.7973 80.1912 11.32C80.7622 11.8427 81.1284 12.6907 81.29 13.864H73.5982C74.0614 11.6453 75.4511 10.536 77.7673 10.536Z"/>
<path d="M85.7338 17.096H94.0072V13.384H85.7338V17.096Z"/>
<path d="M104.958 25C106.143 25 107.29 24.8507 108.4 24.552C109.52 24.2533 110.522 23.8053 111.405 23.208C112.289 22.6 112.989 21.8373 113.506 20.92C114.034 19.992 114.298 18.9093 114.298 17.672C114.298 16.5093 114.077 15.5493 113.635 14.792C113.204 14.0347 112.649 13.4267 111.971 12.968C111.303 12.4987 110.603 12.136 109.87 11.88C109.137 11.6133 108.47 11.4 107.866 11.24L103.826 10.152C103.331 10.024 102.846 9.864 102.372 9.672C101.898 9.48 101.505 9.22933 101.192 8.92C100.88 8.6 100.724 8.18933 100.724 7.688C100.724 7.144 100.912 6.67467 101.289 6.28C101.677 5.88533 102.173 5.58667 102.776 5.384C103.39 5.17067 104.042 5.07467 104.731 5.096C105.787 5.128 106.757 5.43733 107.64 6.024C108.523 6.61067 109.094 7.464 109.353 8.584L114.104 7.784C113.544 5.61867 112.456 3.96 110.84 2.808C109.224 1.656 107.209 1.064 104.796 1.032C103.202 1.02133 101.747 1.26667 100.433 1.768C99.1187 2.26933 98.0684 3.032 97.2819 4.056C96.4955 5.08 96.1023 6.36533 96.1023 7.912C96.1023 9.01067 96.2855 9.92267 96.6517 10.648C97.0288 11.3627 97.4974 11.9387 98.0576 12.376C98.6178 12.8133 99.1941 13.1493 99.7866 13.384C100.39 13.6187 100.918 13.8 101.37 13.928L107.414 15.688C108.319 15.9547 108.922 16.2907 109.224 16.696C109.525 17.0907 109.676 17.5227 109.676 17.992C109.676 18.632 109.455 19.1707 109.014 19.608C108.583 20.0453 108.028 20.376 107.349 20.6C106.67 20.824 105.97 20.936 105.248 20.936C103.956 20.936 102.803 20.5787 101.79 19.864C100.778 19.1493 100.11 18.1307 99.7866 16.808L95.1974 17.48C95.4344 19.0373 95.9946 20.3813 96.878 21.512C97.7721 22.632 98.9086 23.496 100.288 24.104C101.677 24.7013 103.234 25 104.958 25Z"/>
<path d="M124.927 24.52V20.904C123.893 21.0427 122.95 21.0853 122.099 21.032C121.248 20.9787 120.629 20.648 120.241 20.04C120.036 19.72 119.923 19.2933 119.902 18.76C119.891 18.216 119.886 17.608 119.886 16.936V10.6H124.927V7.24H119.886V2.44H115.49V7.24H112.517V10.6H115.49V17.192C115.49 18.2267 115.501 19.1547 115.523 19.976C115.544 20.7867 115.77 21.5867 116.201 22.376C116.675 23.2187 117.365 23.832 118.27 24.216C119.185 24.5893 120.219 24.7867 121.372 24.808C122.536 24.84 123.721 24.744 124.927 24.52Z"/>
<path d="M132.298 25C134.043 25 135.578 24.616 136.903 23.848C138.239 23.0693 139.279 21.9973 140.022 20.632C140.776 19.256 141.153 17.672 141.153 15.88C141.153 14.0987 140.782 12.5253 140.038 11.16C139.295 9.784 138.255 8.70667 136.919 7.928C135.594 7.14933 134.054 6.76 132.298 6.76C130.574 6.76 129.05 7.144 127.725 7.912C126.4 8.68 125.36 9.752 124.606 11.128C123.852 12.4933 123.475 14.0773 123.475 15.88C123.475 17.6613 123.841 19.24 124.574 20.616C125.317 21.9813 126.351 23.0533 127.676 23.832C129.001 24.6107 130.542 25 132.298 25ZM132.298 20.936C130.93 20.936 129.89 20.4827 129.179 19.576C128.479 18.6587 128.129 17.4267 128.129 15.88C128.129 14.376 128.463 13.16 129.131 12.232C129.809 11.2933 130.865 10.824 132.298 10.824C133.688 10.824 134.733 11.2827 135.433 12.2C136.144 13.1173 136.499 14.344 136.499 15.88C136.499 17.3627 136.149 18.5787 135.449 19.528C134.759 20.4667 133.709 20.936 132.298 20.936Z"/>
<path d="M141.313 24.52H145.741V15.688C145.741 13.6827 146.538 12.3173 148.132 11.592C148.65 11.3467 149.226 11.2027 149.862 11.16C150.508 11.1067 151.073 11.1547 151.558 11.304V7.24C150.772 7.144 149.985 7.16533 149.199 7.304C148.413 7.432 147.702 7.688 147.066 8.072C146.657 8.30667 146.296 8.58933 145.983 8.92C145.682 9.25067 145.418 9.61867 145.191 10.024V7.24H141.313V24.52Z"/>
<path d="M159.035 25C160.716 25 162.261 24.5627 163.673 23.688C165.095 22.8133 166.134 21.5867 166.791 20.008L162.396 18.76C161.728 20.2107 160.522 20.936 158.776 20.936C157.581 20.936 156.638 20.6053 155.949 19.944C155.27 19.2827 154.85 18.3333 154.688 17.096H166.937C167.12 15.0053 166.905 13.1867 166.291 11.64C165.676 10.0933 164.728 8.89333 163.446 8.04C162.165 7.18667 160.608 6.76 158.776 6.76C157.053 6.76 155.528 7.14933 154.203 7.928C152.878 8.696 151.839 9.77867 151.085 11.176C150.331 12.5733 149.953 14.216 149.953 16.104C149.953 17.832 150.336 19.368 151.101 20.712C151.876 22.0453 152.943 23.096 154.3 23.864C155.668 24.6213 157.247 25 159.035 25ZM158.97 10.536C160.026 10.536 160.834 10.7973 161.394 11.32C161.965 11.8427 162.331 12.6907 162.493 13.864H154.801C155.264 11.6453 156.654 10.536 158.97 10.536Z"/>
</mask>
<path d="M12.2792 25C14.6061 25 16.6099 24.4987 18.2905 23.496C19.9818 22.4933 21.2799 21.0907 22.1849 19.288C23.1005 17.4853 23.5584 15.3893 23.5584 13C23.5584 10.6107 23.1005 8.51467 22.1849 6.712C21.2799 4.90933 19.9818 3.50667 18.2905 2.504C16.6099 1.50133 14.6061 1 12.2792 1C9.95226 1 7.94312 1.50133 6.25177 2.504C4.57121 3.50667 3.27308 4.90933 2.35738 6.712C1.45246 8.51467 1 10.6107 1 13C1 15.3893 1.45246 17.4853 2.35738 19.288C3.27308 21.0907 4.57121 22.4933 6.25177 23.496C7.94312 24.4987 9.95226 25 12.2792 25ZM12.2792 20.904C10.0708 20.872 8.41174 20.1467 7.30213 18.728C6.2033 17.3093 5.65388 15.4 5.65388 13C5.65388 10.6 6.2033 8.67467 7.30213 7.224C8.41174 5.77333 10.0708 5.064 12.2792 5.096C14.4984 5.128 16.1574 5.85333 17.2563 7.272C18.3551 8.69067 18.9045 10.6 18.9045 13C18.9045 15.4 18.3551 17.3253 17.2563 18.776C16.1574 20.2267 14.4984 20.936 12.2792 20.904Z" fill="url(#paint0_linear)"/>
<path d="M23.3584 24.52H27.8184V15.752C27.8184 14.6747 27.9369 13.8107 28.1739 13.16C28.4217 12.5093 28.7341 12.0187 29.1111 11.688C29.4882 11.3467 29.8922 11.1173 30.3231 11C30.754 10.8827 31.158 10.824 31.535 10.824C32.4723 10.824 33.194 11.032 33.7004 11.448C34.2175 11.864 34.5891 12.3813 34.8154 13C35.0416 13.6187 35.1763 14.2373 35.2193 14.856C35.2624 15.464 35.284 15.9653 35.284 16.36V24.52H39.744V14.824C39.744 14.536 39.7224 14.0773 39.6793 13.448C39.6362 12.8187 39.5123 12.1253 39.3077 11.368C39.103 10.6 38.7582 9.864 38.2735 9.16C37.7995 8.456 37.1315 7.87467 36.2697 7.416C35.4079 6.95733 34.2929 6.728 32.9247 6.728C31.6643 6.728 30.5655 6.936 29.6282 7.352C28.691 7.768 27.9046 8.32267 27.269 9.016V7.24H23.3584V24.52Z" fill="url(#paint1_linear)"/>
<path d="M40.8668 24.52H45.2621V1H40.8668V24.52Z" fill="url(#paint2_linear)"/>
<path d="M47.0363 4.84H51.4317V1H47.0363V4.84ZM47.0363 24.52H51.4317V7.24H47.0363V24.52Z" fill="url(#paint3_linear)"/>
<path d="M52.8504 24.52H57.3104V15.752C57.3104 14.6747 57.4289 13.8107 57.6659 13.16C57.9137 12.5093 58.2261 12.0187 58.6031 11.688C58.9802 11.3467 59.3842 11.1173 59.8151 11C60.246 10.8827 60.65 10.824 61.027 10.824C61.9643 10.824 62.6861 11.032 63.1924 11.448C63.7095 11.864 64.0811 12.3813 64.3074 13C64.5336 13.6187 64.6683 14.2373 64.7113 14.856C64.7544 15.464 64.776 15.9653 64.776 16.36V24.52H69.236V14.824C69.236 14.536 69.2144 14.0773 69.1713 13.448C69.1282 12.8187 69.0043 12.1253 68.7996 11.368C68.595 10.6 68.2502 9.864 67.7655 9.16C67.2915 8.456 66.6235 7.87467 65.7617 7.416C64.8999 6.95733 63.7849 6.728 62.4167 6.728C61.1563 6.728 60.0575 6.936 59.1202 7.352C58.183 7.768 57.3966 8.32267 56.761 9.016V7.24H52.8504V24.52Z" fill="url(#paint4_linear)"/>
<path d="M77.8319 25C79.5125 25 81.0584 24.5627 82.4697 23.688C83.8917 22.8133 84.9313 21.5867 85.5884 20.008L81.1931 18.76C80.5252 20.2107 79.3186 20.936 77.5734 20.936C76.3776 20.936 75.435 20.6053 74.7455 19.944C74.0668 19.2827 73.6467 18.3333 73.4851 17.096H85.7338C85.917 15.0053 85.7015 13.1867 85.0875 11.64C84.4734 10.0933 83.5254 8.89333 82.2434 8.04C80.9615 7.18667 79.4048 6.76 77.5734 6.76C75.8497 6.76 74.3254 7.14933 73.0003 7.928C71.6752 8.696 70.6357 9.77867 69.8816 11.176C69.1275 12.5733 68.7504 14.216 68.7504 16.104C68.7504 17.832 69.1329 19.368 69.8977 20.712C70.6734 22.0453 71.7399 23.096 73.0973 23.864C74.4654 24.6213 76.0436 25 77.8319 25ZM77.7673 10.536C78.823 10.536 79.631 10.7973 80.1912 11.32C80.7622 11.8427 81.1284 12.6907 81.29 13.864H73.5982C74.0614 11.6453 75.4511 10.536 77.7673 10.536Z" fill="url(#paint5_linear)"/>
<path d="M85.7338 17.096H94.0072V13.384H85.7338V17.096Z" fill="url(#paint6_linear)"/>
<path d="M104.958 25C106.143 25 107.29 24.8507 108.4 24.552C109.52 24.2533 110.522 23.8053 111.405 23.208C112.289 22.6 112.989 21.8373 113.506 20.92C114.034 19.992 114.298 18.9093 114.298 17.672C114.298 16.5093 114.077 15.5493 113.635 14.792C113.204 14.0347 112.649 13.4267 111.971 12.968C111.303 12.4987 110.603 12.136 109.87 11.88C109.137 11.6133 108.47 11.4 107.866 11.24L103.826 10.152C103.331 10.024 102.846 9.864 102.372 9.672C101.898 9.48 101.505 9.22933 101.192 8.92C100.88 8.6 100.724 8.18933 100.724 7.688C100.724 7.144 100.912 6.67467 101.289 6.28C101.677 5.88533 102.173 5.58667 102.776 5.384C103.39 5.17067 104.042 5.07467 104.731 5.096C105.787 5.128 106.757 5.43733 107.64 6.024C108.523 6.61067 109.094 7.464 109.353 8.584L114.104 7.784C113.544 5.61867 112.456 3.96 110.84 2.808C109.224 1.656 107.209 1.064 104.796 1.032C103.202 1.02133 101.747 1.26667 100.433 1.768C99.1187 2.26933 98.0684 3.032 97.2819 4.056C96.4955 5.08 96.1023 6.36533 96.1023 7.912C96.1023 9.01067 96.2855 9.92267 96.6517 10.648C97.0288 11.3627 97.4974 11.9387 98.0576 12.376C98.6178 12.8133 99.1941 13.1493 99.7866 13.384C100.39 13.6187 100.918 13.8 101.37 13.928L107.414 15.688C108.319 15.9547 108.922 16.2907 109.224 16.696C109.525 17.0907 109.676 17.5227 109.676 17.992C109.676 18.632 109.455 19.1707 109.014 19.608C108.583 20.0453 108.028 20.376 107.349 20.6C106.67 20.824 105.97 20.936 105.248 20.936C103.956 20.936 102.803 20.5787 101.79 19.864C100.778 19.1493 100.11 18.1307 99.7866 16.808L95.1974 17.48C95.4344 19.0373 95.9946 20.3813 96.878 21.512C97.7721 22.632 98.9086 23.496 100.288 24.104C101.677 24.7013 103.234 25 104.958 25Z" fill="url(#paint7_linear)"/>
<path d="M124.927 24.52V20.904C123.893 21.0427 122.95 21.0853 122.099 21.032C121.248 20.9787 120.629 20.648 120.241 20.04C120.036 19.72 119.923 19.2933 119.902 18.76C119.891 18.216 119.886 17.608 119.886 16.936V10.6H124.927V7.24H119.886V2.44H115.49V7.24H112.517V10.6H115.49V17.192C115.49 18.2267 115.501 19.1547 115.523 19.976C115.544 20.7867 115.77 21.5867 116.201 22.376C116.675 23.2187 117.365 23.832 118.27 24.216C119.185 24.5893 120.219 24.7867 121.372 24.808C122.536 24.84 123.721 24.744 124.927 24.52Z" fill="url(#paint8_linear)"/>
<path d="M132.298 25C134.043 25 135.578 24.616 136.903 23.848C138.239 23.0693 139.279 21.9973 140.022 20.632C140.776 19.256 141.153 17.672 141.153 15.88C141.153 14.0987 140.782 12.5253 140.038 11.16C139.295 9.784 138.255 8.70667 136.919 7.928C135.594 7.14933 134.054 6.76 132.298 6.76C130.574 6.76 129.05 7.144 127.725 7.912C126.4 8.68 125.36 9.752 124.606 11.128C123.852 12.4933 123.475 14.0773 123.475 15.88C123.475 17.6613 123.841 19.24 124.574 20.616C125.317 21.9813 126.351 23.0533 127.676 23.832C129.001 24.6107 130.542 25 132.298 25ZM132.298 20.936C130.93 20.936 129.89 20.4827 129.179 19.576C128.479 18.6587 128.129 17.4267 128.129 15.88C128.129 14.376 128.463 13.16 129.131 12.232C129.809 11.2933 130.865 10.824 132.298 10.824C133.688 10.824 134.733 11.2827 135.433 12.2C136.144 13.1173 136.499 14.344 136.499 15.88C136.499 17.3627 136.149 18.5787 135.449 19.528C134.759 20.4667 133.709 20.936 132.298 20.936Z" fill="url(#paint9_linear)"/>
<path d="M141.313 24.52H145.741V15.688C145.741 13.6827 146.538 12.3173 148.132 11.592C148.65 11.3467 149.226 11.2027 149.862 11.16C150.508 11.1067 151.073 11.1547 151.558 11.304V7.24C150.772 7.144 149.985 7.16533 149.199 7.304C148.413 7.432 147.702 7.688 147.066 8.072C146.657 8.30667 146.296 8.58933 145.983 8.92C145.682 9.25067 145.418 9.61867 145.191 10.024V7.24H141.313V24.52Z" fill="url(#paint10_linear)"/>
<path d="M159.035 25C160.716 25 162.261 24.5627 163.673 23.688C165.095 22.8133 166.134 21.5867 166.791 20.008L162.396 18.76C161.728 20.2107 160.522 20.936 158.776 20.936C157.581 20.936 156.638 20.6053 155.949 19.944C155.27 19.2827 154.85 18.3333 154.688 17.096H166.937C167.12 15.0053 166.905 13.1867 166.291 11.64C165.676 10.0933 164.728 8.89333 163.446 8.04C162.165 7.18667 160.608 6.76 158.776 6.76C157.053 6.76 155.528 7.14933 154.203 7.928C152.878 8.696 151.839 9.77867 151.085 11.176C150.331 12.5733 149.953 14.216 149.953 16.104C149.953 17.832 150.336 19.368 151.101 20.712C151.876 22.0453 152.943 23.096 154.3 23.864C155.668 24.6213 157.247 25 159.035 25ZM158.97 10.536C160.026 10.536 160.834 10.7973 161.394 11.32C161.965 11.8427 162.331 12.6907 162.493 13.864H154.801C155.264 11.6453 156.654 10.536 158.97 10.536Z" fill="url(#paint11_linear)"/>
<path d="M18.2905 23.496L18.1885 23.324L18.188 23.3242L18.2905 23.496ZM22.1849 19.288L22.0065 19.1974L22.0061 19.1983L22.1849 19.288ZM22.1849 6.712L22.0061 6.80173L22.0065 6.80258L22.1849 6.712ZM18.2905 2.504L18.188 2.67575L18.1885 2.67604L18.2905 2.504ZM6.25177 2.504L6.14978 2.33196L6.1493 2.33225L6.25177 2.504ZM2.35738 6.712L2.17907 6.62142L2.17864 6.62227L2.35738 6.712ZM2.35738 19.288L2.17864 19.3777L2.17907 19.3786L2.35738 19.288ZM6.25177 23.496L6.1493 23.6678L6.14978 23.668L6.25177 23.496ZM12.2792 20.904L12.2763 21.104H12.2763L12.2792 20.904ZM7.30213 18.728L7.14401 18.8505L7.14459 18.8512L7.30213 18.728ZM7.30213 7.224L7.14327 7.10249L7.1427 7.10324L7.30213 7.224ZM12.2792 5.096L12.2763 5.29598L12.2763 5.29598L12.2792 5.096ZM17.2563 7.272L17.4144 7.14953L17.2563 7.272ZM17.2563 18.776L17.4157 18.8968L17.2563 18.776ZM23.3584 24.52H23.1584V24.72H23.3584V24.52ZM27.8184 24.52V24.72H28.0184V24.52H27.8184ZM28.1739 13.16L27.987 13.0888L27.986 13.0915L28.1739 13.16ZM29.1111 11.688L29.243 11.8384L29.2454 11.8363L29.1111 11.688ZM30.3231 11L30.3756 11.193L30.3231 11ZM33.7004 11.448L33.5734 11.6025L33.575 11.6038L33.7004 11.448ZM34.8154 13L35.0032 12.9313L34.8154 13ZM35.2193 14.856L35.0198 14.8699L35.0199 14.8701L35.2193 14.856ZM35.284 24.52H35.084V24.72H35.284V24.52ZM39.744 24.52V24.72H39.944V24.52H39.744ZM39.6793 13.448L39.4798 13.4617L39.6793 13.448ZM39.3077 11.368L39.1144 11.4195L39.1146 11.4202L39.3077 11.368ZM38.2735 9.16L38.1076 9.27171L38.1087 9.27343L38.2735 9.16ZM36.2697 7.416L36.1757 7.59255V7.59255L36.2697 7.416ZM27.269 9.016H27.069V9.53013L27.4164 9.15115L27.269 9.016ZM27.269 7.24H27.469V7.04H27.269V7.24ZM23.3584 7.24V7.04H23.1584V7.24H23.3584ZM40.8668 24.52H40.6668V24.72H40.8668V24.52ZM45.2621 24.52V24.72H45.4621V24.52H45.2621ZM45.2621 1H45.4621V0.8H45.2621V1ZM40.8668 1V0.8H40.6668V1H40.8668ZM47.0363 4.84H46.8363V5.04H47.0363V4.84ZM51.4317 4.84V5.04H51.6317V4.84H51.4317ZM51.4317 1H51.6317V0.8H51.4317V1ZM47.0363 1V0.8H46.8363V1H47.0363ZM47.0363 24.52H46.8363V24.72H47.0363V24.52ZM51.4317 24.52V24.72H51.6317V24.52H51.4317ZM51.4317 7.24H51.6317V7.04H51.4317V7.24ZM47.0363 7.24V7.04H46.8363V7.24H47.0363ZM52.8504 24.52H52.6504V24.72H52.8504V24.52ZM57.3104 24.52V24.72H57.5104V24.52H57.3104ZM57.6659 13.16L57.479 13.0888L57.478 13.0915L57.6659 13.16ZM58.6031 11.688L58.735 11.8384L58.7374 11.8363L58.6031 11.688ZM59.8151 11L59.8676 11.193L59.8151 11ZM63.1924 11.448L63.0654 11.6025L63.067 11.6038L63.1924 11.448ZM64.3074 13L64.4952 12.9313L64.3074 13ZM64.7113 14.856L64.5118 14.8699L64.5118 14.8701L64.7113 14.856ZM64.776 24.52H64.576V24.72H64.776V24.52ZM69.236 24.52V24.72H69.436V24.52H69.236ZM69.1713 13.448L68.9718 13.4617L69.1713 13.448ZM68.7996 11.368L68.6064 11.4195L68.6066 11.4202L68.7996 11.368ZM67.7655 9.16L67.5995 9.27171L67.6007 9.27343L67.7655 9.16ZM65.7617 7.416L65.6677 7.59255V7.59255L65.7617 7.416ZM56.761 9.016H56.561V9.53013L56.9084 9.15115L56.761 9.016ZM56.761 7.24H56.961V7.04H56.761V7.24ZM52.8504 7.24V7.04H52.6504V7.24H52.8504ZM82.4697 23.688L82.3649 23.5176L82.3643 23.518L82.4697 23.688ZM85.5884 20.008L85.7731 20.0849L85.8595 19.8771L85.643 19.8156L85.5884 20.008ZM81.1931 18.76L81.2477 18.5676L81.083 18.5208L81.0114 18.6764L81.1931 18.76ZM74.7455 19.944L74.6059 20.0872L74.6071 20.0883L74.7455 19.944ZM73.4851 17.096V16.896H73.2573L73.2868 17.1219L73.4851 17.096ZM85.0875 11.64L85.2734 11.5662L85.0875 11.64ZM82.2434 8.04L82.3543 7.87351L82.2434 8.04ZM73.0003 7.928L73.1006 8.10104L73.1016 8.10043L73.0003 7.928ZM69.8816 11.176L69.7056 11.081L69.8816 11.176ZM69.8977 20.712L69.7239 20.8109L69.7248 20.8126L69.8977 20.712ZM73.0973 23.864L72.9988 24.0381L73.0004 24.039L73.0973 23.864ZM80.1912 11.32L80.0548 11.4662L80.0562 11.4675L80.1912 11.32ZM81.29 13.864V14.064H81.5195L81.4882 13.8367L81.29 13.864ZM73.5982 13.864L73.4024 13.8231L73.3521 14.064H73.5982V13.864ZM94.0072 17.096V17.296H94.2072V17.096H94.0072ZM94.0072 13.384H94.2072V13.184H94.0072V13.384ZM85.7338 13.384V13.184H85.5338V13.384H85.7338ZM108.4 24.552L108.348 24.3587L108.348 24.3589L108.4 24.552ZM111.405 23.208L111.517 23.3737L111.519 23.3727L111.405 23.208ZM113.506 20.92L113.332 20.8211L113.332 20.8218L113.506 20.92ZM113.635 14.792L113.461 14.8909L113.462 14.8928L113.635 14.792ZM111.971 12.968L111.856 13.1317L111.859 13.1337L111.971 12.968ZM109.87 11.88L109.802 12.068L109.804 12.0688L109.87 11.88ZM107.866 11.24L107.814 11.4331L107.815 11.4333L107.866 11.24ZM103.826 10.152L103.878 9.95887L103.876 9.95835L103.826 10.152ZM102.372 9.672L102.447 9.48663L102.372 9.672ZM101.192 8.92L101.049 9.05974L101.052 9.06212L101.192 8.92ZM101.289 6.28L101.147 6.13981L101.145 6.14184L101.289 6.28ZM102.776 5.384L102.84 5.5736L102.842 5.57292L102.776 5.384ZM104.731 5.096L104.725 5.2959L104.725 5.29591L104.731 5.096ZM107.64 6.024L107.529 6.19061V6.19061L107.64 6.024ZM109.353 8.584L109.158 8.62899L109.2 8.8125L109.386 8.78122L109.353 8.584ZM114.104 7.784L114.137 7.98122L114.352 7.94501L114.297 7.73391L114.104 7.784ZM110.84 2.808L110.956 2.64515L110.84 2.808ZM104.796 1.032L104.799 0.832013L104.797 0.832004L104.796 1.032ZM100.433 1.768L100.504 1.95487V1.95487L100.433 1.768ZM97.2819 4.056L97.4406 4.17782L97.2819 4.056ZM96.6517 10.648L96.4732 10.7382L96.4748 10.7413L96.6517 10.648ZM98.0576 12.376L98.1807 12.2184L98.0576 12.376ZM99.7866 13.384L99.713 13.57L99.7141 13.5704L99.7866 13.384ZM101.37 13.928L101.426 13.736L101.425 13.7356L101.37 13.928ZM107.414 15.688L107.47 15.4962L107.47 15.496L107.414 15.688ZM109.224 16.696L109.063 16.8154L109.065 16.8174L109.224 16.696ZM109.014 19.608L108.873 19.4659L108.871 19.4676L109.014 19.608ZM107.349 20.6L107.287 20.4101L107.349 20.6ZM101.79 19.864L101.906 19.7006L101.79 19.864ZM99.7866 16.808L99.9809 16.7605L99.9377 16.5837L99.7577 16.6101L99.7866 16.808ZM95.1974 17.48L95.1684 17.2821L94.9694 17.3113L94.9997 17.5101L95.1974 17.48ZM96.878 21.512L96.7204 21.6351L96.7217 21.6368L96.878 21.512ZM100.288 24.104L100.207 24.287L100.209 24.2877L100.288 24.104ZM124.927 24.52L124.964 24.7166L125.127 24.6863V24.52H124.927ZM124.927 20.904H125.127V20.6754L124.901 20.7058L124.927 20.904ZM120.241 20.04L120.41 19.9324L120.41 19.9322L120.241 20.04ZM119.902 18.76L119.702 18.764L119.702 18.7681L119.902 18.76ZM119.886 10.6V10.4H119.686V10.6H119.886ZM124.927 10.6V10.8H125.127V10.6H124.927ZM124.927 7.24H125.127V7.04H124.927V7.24ZM119.886 7.24H119.686V7.44H119.886V7.24ZM119.886 2.44H120.086V2.24H119.886V2.44ZM115.49 2.44V2.24H115.29V2.44H115.49ZM115.49 7.24V7.44H115.69V7.24H115.49ZM112.517 7.24V7.04H112.317V7.24H112.517ZM112.517 10.6H112.317V10.8H112.517V10.6ZM115.49 10.6H115.69V10.4H115.49V10.6ZM115.523 19.976L115.323 19.9812V19.9813L115.523 19.976ZM116.201 22.376L116.026 22.4718L116.027 22.4741L116.201 22.376ZM118.27 24.216L118.191 24.4001L118.194 24.4012L118.27 24.216ZM121.372 24.808L121.378 24.6081L121.376 24.608L121.372 24.808ZM136.903 23.848L137.004 24.021L137.004 24.0208L136.903 23.848ZM140.022 20.632L139.847 20.5359L139.846 20.5364L140.022 20.632ZM140.038 11.16L139.862 11.2551L139.863 11.2556L140.038 11.16ZM136.919 7.928L136.818 8.10043L136.819 8.10079L136.919 7.928ZM127.725 7.912L127.625 7.73896L127.725 7.912ZM124.606 11.128L124.781 11.2247L124.781 11.2241L124.606 11.128ZM124.574 20.616L124.397 20.71L124.398 20.7116L124.574 20.616ZM127.676 23.832L127.575 24.0044H127.575L127.676 23.832ZM129.179 19.576L129.02 19.6974L129.022 19.6994L129.179 19.576ZM129.131 12.232L128.969 12.1148L128.968 12.1152L129.131 12.232ZM135.433 12.2L135.274 12.3214L135.275 12.3225L135.433 12.2ZM135.449 19.528L135.288 19.4093L135.288 19.4096L135.449 19.528ZM141.313 24.52H141.113V24.72H141.313V24.52ZM145.741 24.52V24.72H145.941V24.52H145.741ZM148.132 11.592L148.215 11.7741L148.218 11.7727L148.132 11.592ZM149.862 11.16L149.875 11.3596L149.878 11.3593L149.862 11.16ZM151.558 11.304L151.499 11.4951L151.758 11.5749V11.304H151.558ZM151.558 7.24H151.758V7.06293L151.582 7.04147L151.558 7.24ZM149.199 7.304L149.231 7.50142L149.234 7.50096L149.199 7.304ZM147.066 8.072L147.165 8.24556L147.169 8.24318L147.066 8.072ZM145.983 8.92L145.838 8.78263L145.836 8.78521L145.983 8.92ZM145.191 10.024H144.991V10.7927L145.366 10.1215L145.191 10.024ZM145.191 7.24H145.391V7.04H145.191V7.24ZM141.313 7.24V7.04H141.113V7.24H141.313ZM163.673 23.688L163.568 23.5176L163.567 23.518L163.673 23.688ZM166.791 20.008L166.976 20.0849L167.063 19.8771L166.846 19.8156L166.791 20.008ZM162.396 18.76L162.451 18.5676L162.286 18.5208L162.214 18.6764L162.396 18.76ZM155.949 19.944L155.809 20.0872L155.81 20.0883L155.949 19.944ZM154.688 17.096V16.896H154.46L154.49 17.1219L154.688 17.096ZM166.937 17.096V17.296H167.12L167.136 17.1135L166.937 17.096ZM166.291 11.64L166.476 11.5662L166.291 11.64ZM163.446 8.04L163.557 7.87351L163.446 8.04ZM154.203 7.928L154.304 8.10104L154.305 8.10043L154.203 7.928ZM151.085 11.176L150.909 11.081L151.085 11.176ZM151.101 20.712L150.927 20.8109L150.928 20.8126L151.101 20.712ZM154.3 23.864L154.202 24.0381L154.203 24.039L154.3 23.864ZM161.394 11.32L161.258 11.4662L161.259 11.4675L161.394 11.32ZM162.493 13.864V14.064H162.723L162.691 13.8367L162.493 13.864ZM154.801 13.864L154.605 13.8231L154.555 14.064H154.801V13.864ZM12.2792 25.2C14.6353 25.2 16.676 24.6921 18.3929 23.6678L18.188 23.3242C16.5438 24.3052 14.5769 24.8 12.2792 24.8V25.2ZM18.3924 23.668C20.1176 22.6453 21.442 21.2137 22.3636 19.3777L22.0061 19.1983C21.1179 20.9677 19.846 22.3413 18.1885 23.324L18.3924 23.668ZM22.3632 19.3786C23.2955 17.5432 23.7584 15.4151 23.7584 13H23.3584C23.3584 15.3636 22.9056 17.4275 22.0065 19.1974L22.3632 19.3786ZM23.7584 13C23.7584 10.5849 23.2955 8.45683 22.3632 6.62142L22.0065 6.80258C22.9056 8.57251 23.3584 10.6364 23.3584 13H23.7584ZM22.3636 6.62227C21.442 4.78632 20.1176 3.35468 18.3924 2.33196L18.1885 2.67604C19.846 3.65865 21.1179 5.03234 22.0061 6.80173L22.3636 6.62227ZM18.3929 2.33225C16.676 1.30787 14.6353 0.8 12.2792 0.8V1.2C14.5769 1.2 16.5438 1.6948 18.188 2.67575L18.3929 2.33225ZM12.2792 0.8C9.923 0.8 7.87724 1.30788 6.14978 2.33196L6.35376 2.67604C8.00899 1.69479 9.98151 1.2 12.2792 1.2V0.8ZM6.1493 2.33225C4.43518 3.35493 3.11127 4.78626 2.17907 6.62142L2.5357 6.80258C3.43488 5.03241 4.70723 3.6584 6.35425 2.67575L6.1493 2.33225ZM2.17864 6.62227C1.25738 8.45748 0.8 10.5852 0.8 13H1.2C1.2 10.6361 1.64754 8.57185 2.53612 6.80173L2.17864 6.62227ZM0.8 13C0.8 15.4148 1.25738 17.5425 2.17864 19.3777L2.53612 19.1983C1.64754 17.4281 1.2 15.3639 1.2 13H0.8ZM2.17907 19.3786C3.11127 21.2137 4.43518 22.6451 6.1493 23.6678L6.35425 23.3242C4.70723 22.3416 3.43488 20.9676 2.5357 19.1974L2.17907 19.3786ZM6.14978 23.668C7.87724 24.6921 9.923 25.2 12.2792 25.2V24.8C9.98151 24.8 8.00899 24.3052 6.35376 23.324L6.14978 23.668ZM12.2821 20.704C10.1191 20.6727 8.52359 19.965 7.45967 18.6048L7.14459 18.8512C8.29988 20.3283 10.0224 21.0713 12.2763 21.104L12.2821 20.704ZM7.46025 18.6055C6.39646 17.2321 5.85388 15.3706 5.85388 13H5.45388C5.45388 15.4294 6.01013 17.3866 7.14401 18.8505L7.46025 18.6055ZM5.85388 13C5.85388 10.6297 6.39635 8.75104 7.46156 7.34476L7.1427 7.10324C6.01025 8.5983 5.45388 10.5703 5.45388 13H5.85388ZM7.46099 7.34551C8.5239 5.95588 10.1163 5.26468 12.2763 5.29598L12.2821 4.89602C10.0252 4.86332 8.29957 5.59079 7.14327 7.10249L7.46099 7.34551ZM12.2763 5.29598C14.4505 5.32733 16.0453 6.03519 17.0981 7.39447L17.4144 7.14953C16.2695 5.67148 14.5463 4.92867 12.2821 4.89602L12.2763 5.29598ZM17.0981 7.39447C18.1619 8.76789 18.7045 10.6294 18.7045 13H19.1045C19.1045 10.5706 18.5483 8.61344 17.4144 7.14953L17.0981 7.39447ZM18.7045 13C18.7045 15.3703 18.162 17.249 17.0968 18.6552L17.4157 18.8968C18.5481 17.4017 19.1045 15.4297 19.1045 13H18.7045ZM17.0968 18.6552C16.045 20.0439 14.4533 20.7353 12.2821 20.704L12.2763 21.104C14.5435 21.1367 16.2699 20.4095 17.4157 18.8968L17.0968 18.6552ZM23.3584 24.72H27.8184V24.32H23.3584V24.72ZM28.0184 24.52V15.752H27.6184V24.52H28.0184ZM28.0184 15.752C28.0184 14.6865 28.136 13.8485 28.3618 13.2284L27.986 13.0915C27.7378 13.7728 27.6184 14.6628 27.6184 15.752H28.0184ZM28.3608 13.2312C28.6012 12.5998 28.8981 12.1408 29.243 11.8384L28.9793 11.5376C28.57 11.8965 28.2421 12.4189 27.987 13.0888L28.3608 13.2312ZM29.2454 11.8363C29.6023 11.5131 29.9791 11.301 30.3756 11.193L30.2705 10.807C29.8053 10.9337 29.374 11.1802 28.9769 11.5397L29.2454 11.8363ZM30.3756 11.193C30.7925 11.0795 31.1786 11.024 31.535 11.024V10.624C31.1373 10.624 30.7155 10.6859 30.2705 10.807L30.3756 11.193ZM31.535 11.024C32.4455 11.024 33.1155 11.2263 33.5734 11.6025L33.8273 11.2935C33.2726 10.8377 32.4991 10.624 31.535 10.624V11.024ZM33.575 11.6038C34.064 11.9972 34.4139 12.4845 34.6275 13.0687L35.0032 12.9313C34.7644 12.2782 34.371 11.7308 33.8257 11.2922L33.575 11.6038ZM34.6275 13.0687C34.8477 13.6708 34.9781 14.2711 35.0198 14.8699L35.4189 14.8421C35.3744 14.2036 35.2355 13.5665 35.0032 12.9313L34.6275 13.0687ZM35.0199 14.8701C35.0628 15.4757 35.084 15.9719 35.084 16.36H35.484C35.484 15.9588 35.4621 15.4523 35.4188 14.8419L35.0199 14.8701ZM35.084 16.36V24.52H35.484V16.36H35.084ZM35.284 24.72H39.744V24.32H35.284V24.72ZM39.944 24.52V14.824H39.544V24.52H39.944ZM39.944 14.824C39.944 14.5287 39.922 14.0642 39.8788 13.4343L39.4798 13.4617C39.5228 14.0905 39.544 14.5433 39.544 14.824H39.944ZM39.8789 13.4343C39.8347 12.7893 39.708 12.0828 39.5007 11.3158L39.1146 11.4202C39.3166 12.1678 39.4378 12.848 39.4798 13.4617L39.8789 13.4343ZM39.5009 11.3165C39.2899 10.5248 38.935 9.768 38.4382 9.04657L38.1087 9.27343C38.5815 9.96 38.916 10.6752 39.1144 11.4195L39.5009 11.3165ZM38.4394 9.0483C37.9445 8.31328 37.25 7.71118 36.3637 7.23945L36.1757 7.59255C37.013 8.03815 37.6544 8.59872 38.1076 9.2717L38.4394 9.0483ZM36.3637 7.23945C35.4636 6.76045 34.3132 6.528 32.9247 6.528V6.928C34.2725 6.928 35.3521 7.15421 36.1757 7.59255L36.3637 7.23945ZM32.9247 6.528C31.6426 6.528 30.515 6.73957 29.5471 7.1692L29.7094 7.5348C30.6159 7.13243 31.686 6.928 32.9247 6.928V6.528ZM29.5471 7.1692C28.587 7.59534 27.7773 8.16548 27.1215 8.88085L27.4164 9.15115C28.0318 8.47986 28.795 7.94066 29.7094 7.5348L29.5471 7.1692ZM27.469 9.016V7.24H27.069V9.016H27.469ZM27.269 7.04H23.3584V7.44H27.269V7.04ZM23.1584 7.24V24.52H23.5584V7.24H23.1584ZM40.8668 24.72H45.2621V24.32H40.8668V24.72ZM45.4621 24.52V1H45.0621V24.52H45.4621ZM45.2621 0.8H40.8668V1.2H45.2621V0.8ZM40.6668 1V24.52H41.0668V1H40.6668ZM47.0363 5.04H51.4317V4.64H47.0363V5.04ZM51.6317 4.84V1H51.2317V4.84H51.6317ZM51.4317 0.8H47.0363V1.2H51.4317V0.8ZM46.8363 1V4.84H47.2363V1H46.8363ZM47.0363 24.72H51.4317V24.32H47.0363V24.72ZM51.6317 24.52V7.24H51.2317V24.52H51.6317ZM51.4317 7.04H47.0363V7.44H51.4317V7.04ZM46.8363 7.24V24.52H47.2363V7.24H46.8363ZM52.8504 24.72H57.3104V24.32H52.8504V24.72ZM57.5104 24.52V15.752H57.1104V24.52H57.5104ZM57.5104 15.752C57.5104 14.6865 57.628 13.8485 57.8538 13.2284L57.478 13.0915C57.2298 13.7728 57.1104 14.6628 57.1104 15.752H57.5104ZM57.8528 13.2312C58.0932 12.5998 58.3901 12.1408 58.735 11.8384L58.4713 11.5376C58.062 11.8965 57.7341 12.4189 57.479 13.0888L57.8528 13.2312ZM58.7374 11.8363C59.0943 11.5131 59.4711 11.301 59.8676 11.193L59.7625 10.807C59.2973 10.9337 58.866 11.1802 58.4689 11.5397L58.7374 11.8363ZM59.8676 11.193C60.2845 11.0795 60.6706 11.024 61.027 11.024V10.624C60.6293 10.624 60.2075 10.6859 59.7625 10.807L59.8676 11.193ZM61.027 11.024C61.9375 11.024 62.6075 11.2263 63.0654 11.6025L63.3193 11.2935C62.7646 10.8377 61.9911 10.624 61.027 10.624V11.024ZM63.067 11.6038C63.556 11.9972 63.9059 12.4845 64.1195 13.0687L64.4952 12.9313C64.2564 12.2782 63.863 11.7308 63.3177 11.2922L63.067 11.6038ZM64.1195 13.0687C64.3397 13.6708 64.4701 14.2711 64.5118 14.8699L64.9109 14.8421C64.8664 14.2036 64.7275 13.5665 64.4952 12.9313L64.1195 13.0687ZM64.5118 14.8701C64.5548 15.4757 64.576 15.9719 64.576 16.36H64.976C64.976 15.9588 64.9541 15.4523 64.9108 14.8419L64.5118 14.8701ZM64.576 16.36V24.52H64.976V16.36H64.576ZM64.776 24.72H69.236V24.32H64.776V24.72ZM69.436 24.52V14.824H69.036V24.52H69.436ZM69.436 14.824C69.436 14.5287 69.414 14.0642 69.3708 13.4343L68.9718 13.4617C69.0148 14.0905 69.036 14.5433 69.036 14.824H69.436ZM69.3708 13.4343C69.3267 12.7893 69.2 12.0828 68.9927 11.3158L68.6066 11.4202C68.8086 12.1678 68.9298 12.848 68.9718 13.4617L69.3708 13.4343ZM68.9929 11.3165C68.7819 10.5248 68.427 9.768 67.9302 9.04657L67.6007 9.27343C68.0735 9.96 68.408 10.6752 68.6064 11.4195L68.9929 11.3165ZM67.9314 9.0483C67.4365 8.31328 66.742 7.71118 65.8557 7.23945L65.6677 7.59255C66.505 8.03815 67.1464 8.59872 67.5996 9.2717L67.9314 9.0483ZM65.8557 7.23945C64.9556 6.76045 63.8052 6.528 62.4167 6.528V6.928C63.7645 6.928 64.8441 7.15421 65.6677 7.59255L65.8557 7.23945ZM62.4167 6.528C61.1346 6.528 60.007 6.73957 59.0391 7.1692L59.2014 7.5348C60.1079 7.13243 61.178 6.928 62.4167 6.928V6.528ZM59.0391 7.1692C58.079 7.59534 57.2693 8.16548 56.6135 8.88085L56.9084 9.15115C57.5238 8.47986 58.287 7.94066 59.2014 7.5348L59.0391 7.1692ZM56.961 9.016V7.24H56.561V9.016H56.961ZM56.761 7.04H52.8504V7.44H56.761V7.04ZM52.6504 7.24V24.52H53.0504V7.24H52.6504ZM77.8319 25.2C79.5493 25.2 81.1317 24.7525 82.575 23.858L82.3643 23.518C80.9851 24.3728 79.4758 24.8 77.8319 24.8V25.2ZM82.5744 23.8584C84.0332 22.9611 85.1002 21.7013 85.7731 20.0849L85.4038 19.9311C84.7623 21.472 83.7502 22.6656 82.3649 23.5176L82.5744 23.8584ZM85.643 19.8156L81.2477 18.5676L81.1385 18.9524L85.5338 20.2004L85.643 19.8156ZM81.0114 18.6764C80.6919 19.3703 80.2485 19.8813 79.6842 20.2206C79.1187 20.5605 78.4183 20.736 77.5734 20.736V21.136C78.4736 21.136 79.2492 20.9488 79.8903 20.5634C80.5325 20.1773 81.0263 19.6004 81.3747 18.8436L81.0114 18.6764ZM77.5734 20.736C76.4156 20.736 75.5274 20.4168 74.884 19.7997L74.6071 20.0883C75.3426 20.7938 76.3396 21.136 77.5734 21.136V20.736ZM74.8851 19.8008C74.2476 19.1795 73.841 18.277 73.6834 17.0701L73.2868 17.1219C73.4523 18.3897 73.8861 19.3858 74.6059 20.0872L74.8851 19.8008ZM73.4851 17.296H85.7338V16.896H73.4851V17.296ZM85.9331 17.1135C86.1182 14.9996 85.9015 13.1484 85.2734 11.5662L84.9016 11.7138C85.5015 13.2249 85.7157 15.011 85.5346 17.0785L85.9331 17.1135ZM85.2734 11.5662C84.6456 9.98492 83.6729 8.75122 82.3543 7.87351L82.1326 8.20649C83.378 9.03544 84.3013 10.2017 84.9016 11.7138L85.2734 11.5662ZM82.3543 7.87351C81.0337 6.99447 79.4366 6.56 77.5734 6.56V6.96C79.3729 6.96 80.8893 7.37887 82.1326 8.20649L82.3543 7.87351ZM77.5734 6.56C75.8185 6.56 74.2584 6.95673 72.899 7.75557L73.1016 8.10043C74.3924 7.34193 75.8809 6.96 77.5734 6.96V6.56ZM72.9 7.75496C71.5418 8.54219 70.4765 9.65243 69.7056 11.081L70.0576 11.271C70.7948 9.90491 71.8087 8.84981 73.1006 8.10104L72.9 7.75496ZM69.7056 11.081C68.933 12.5126 68.5504 14.1891 68.5504 16.104H68.9504C68.9504 14.2429 69.3219 12.6341 70.0576 11.271L69.7056 11.081ZM68.5504 16.104C68.5504 17.8625 68.9399 19.4334 69.7239 20.8109L70.0715 20.6131C69.3258 19.3026 68.9504 17.8015 68.9504 16.104H68.5504ZM69.7248 20.8126C70.5185 22.1769 71.6109 23.2528 72.9988 24.0381L73.1958 23.6899C71.8689 22.9392 70.8282 21.9137 70.0706 20.6114L69.7248 20.8126ZM73.0004 24.039C74.4022 24.815 76.0147 25.2 77.8319 25.2V24.8C76.0726 24.8 74.5286 24.4277 73.1941 23.689L73.0004 24.039ZM77.7673 10.736C78.7917 10.736 79.5437 10.9894 80.0548 11.4662L80.3276 11.1738C79.7184 10.6053 78.8544 10.336 77.7673 10.336V10.736ZM80.0562 11.4675C80.5786 11.9458 80.9334 12.7408 81.0919 13.8913L81.4882 13.8367C81.3234 12.6406 80.9457 11.7396 80.3262 11.1725L80.0562 11.4675ZM81.29 13.664H73.5982V14.064H81.29V13.664ZM73.794 13.9049C74.0188 12.8283 74.4632 12.0427 75.1127 11.5243C75.7626 11.0055 76.6407 10.736 77.7673 10.736V10.336C76.5777 10.336 75.6029 10.6212 74.8631 11.2117C74.1229 11.8026 73.6409 12.681 73.4024 13.8231L73.794 13.9049ZM85.7338 17.296H94.0072V16.896H85.7338V17.296ZM94.2072 17.096V13.384H93.8072V17.096H94.2072ZM94.0072 13.184H85.7338V13.584H94.0072V13.184ZM85.5338 13.384V17.096H85.9338V13.384H85.5338ZM104.958 25.2C106.16 25.2 107.324 25.0485 108.452 24.7451L108.348 24.3589C107.255 24.6528 106.126 24.8 104.958 24.8V25.2ZM108.451 24.7453C109.591 24.4413 110.614 23.9846 111.517 23.3737L111.293 23.0423C110.43 23.6261 109.449 24.0653 108.348 24.3587L108.451 24.7453ZM111.519 23.3727C112.427 22.7478 113.148 21.9626 113.68 21.0182L113.332 20.8218C112.83 21.7121 112.151 22.4522 111.292 23.0433L111.519 23.3727ZM113.68 21.0189C114.227 20.0563 114.498 18.9384 114.498 17.672H114.098C114.098 18.8802 113.84 19.9277 113.332 20.8211L113.68 21.0189ZM114.498 17.672C114.498 16.4851 114.272 15.4876 113.808 14.6912L113.462 14.8928C113.881 15.6111 114.098 16.5335 114.098 17.672H114.498ZM113.809 14.6931C113.364 13.9108 112.789 13.2793 112.083 12.8023L111.859 13.1337C112.51 13.5741 113.045 14.1586 113.461 14.8909L113.809 14.6931ZM112.086 12.8044C111.404 12.325 110.687 11.9536 109.936 11.6912L109.804 12.0688C110.518 12.3184 111.202 12.6724 111.856 13.1316L112.086 12.8044ZM109.938 11.6921C109.202 11.4238 108.528 11.2085 107.918 11.0467L107.815 11.4333C108.411 11.5915 109.073 11.8028 109.802 12.0679L109.938 11.6921ZM107.918 11.0469L103.878 9.95888L103.774 10.3451L107.814 11.4331L107.918 11.0469ZM103.876 9.95835C103.389 9.83256 102.913 9.67532 102.447 9.48663L102.297 9.85737C102.779 10.0527 103.272 10.2154 103.776 10.3456L103.876 9.95835ZM102.447 9.48663C101.994 9.30296 101.624 9.06581 101.333 8.77788L101.052 9.06212C101.386 9.39285 101.802 9.65704 102.297 9.85737L102.447 9.48663ZM101.336 8.78029C101.064 8.50229 100.924 8.144 100.924 7.688H100.524C100.524 8.23467 100.696 8.69771 101.049 9.05972L101.336 8.78029ZM100.924 7.688C100.924 7.19566 101.092 6.77575 101.434 6.41816L101.145 6.14184C100.732 6.57358 100.524 7.09234 100.524 7.688H100.924ZM101.432 6.42018C101.795 6.05112 102.262 5.76774 102.84 5.57359L102.712 5.19441C102.084 5.40559 101.56 5.71954 101.147 6.13982L101.432 6.42018ZM102.842 5.57292C103.431 5.36808 104.059 5.27528 104.725 5.2959L104.738 4.89609C104.025 4.87405 103.349 4.97325 102.71 5.19508L102.842 5.57292ZM104.725 5.29591C105.744 5.32677 106.677 5.62449 107.529 6.19061L107.751 5.85739C106.836 5.25018 105.831 4.92923 104.737 4.89609L104.725 5.29591ZM107.529 6.19061C108.366 6.74649 108.91 7.55423 109.158 8.62899L109.548 8.53901C109.279 7.37377 108.68 6.47484 107.751 5.85739L107.529 6.19061ZM109.386 8.78122L114.137 7.98122L114.071 7.58678L109.32 8.38678L109.386 8.78122ZM114.297 7.73391C113.727 5.52919 112.615 3.82792 110.956 2.64515L110.724 2.97085C112.296 4.09208 113.36 5.70814 113.91 7.83409L114.297 7.73391ZM110.956 2.64515C109.3 1.46481 107.244 0.864439 104.799 0.832017L104.793 1.23198C107.175 1.26356 109.147 1.84719 110.724 2.97085L110.956 2.64515ZM104.797 0.832004C103.181 0.821193 101.702 1.06986 100.362 1.58113L100.504 1.95487C101.793 1.46348 103.222 1.22147 104.795 1.232L104.797 0.832004ZM100.362 1.58113C99.0161 2.09443 97.9343 2.87823 97.1233 3.93418L97.4406 4.17782C98.2024 3.18577 99.2214 2.44423 100.504 1.95487L100.362 1.58113ZM97.1233 3.93418C96.3051 4.99964 95.9023 6.33028 95.9023 7.912H96.3023C96.3023 6.40039 96.686 5.16036 97.4406 4.17782L97.1233 3.93418ZM95.9023 7.912C95.9023 9.03149 96.0887 9.9768 96.4732 10.7382L96.8303 10.5578C96.4822 9.86854 96.3023 8.98985 96.3023 7.912H95.9023ZM96.4748 10.7413C96.8633 11.4776 97.3492 12.0767 97.9345 12.5336L98.1807 12.2184C97.6456 11.8006 97.1943 11.2478 96.8286 10.5547L96.4748 10.7413ZM97.9345 12.5336C98.508 12.9814 99.1008 13.3275 99.713 13.5699L99.8603 13.1981C99.2874 12.9712 98.7275 12.6453 98.1807 12.2184L97.9345 12.5336ZM99.7141 13.5704C100.321 13.8066 100.855 13.9902 101.316 14.1204L101.425 13.7356C100.98 13.6098 100.459 13.4308 99.8591 13.1976L99.7141 13.5704ZM101.314 14.12L107.358 15.88L107.47 15.496L101.426 13.736L101.314 14.12ZM107.357 15.8798C108.252 16.1434 108.802 16.4641 109.063 16.8154L109.384 16.5766C109.042 16.1173 108.386 15.7659 107.47 15.4962L107.357 15.8798ZM109.065 16.8174C109.341 17.1794 109.476 17.5692 109.476 17.992H109.876C109.876 17.4761 109.709 17.0019 109.383 16.5746L109.065 16.8174ZM109.476 17.992C109.476 18.5804 109.275 19.0673 108.873 19.4659L109.154 19.7501C109.635 19.274 109.876 18.6836 109.876 17.992H109.476ZM108.871 19.4676C108.466 19.8789 107.94 20.1944 107.287 20.4101L107.412 20.7899C108.116 20.5576 108.699 20.2118 109.156 19.7484L108.871 19.4676ZM107.287 20.4101C106.628 20.6273 105.949 20.736 105.248 20.736V21.136C105.991 21.136 106.713 21.0207 107.412 20.7899L107.287 20.4101ZM105.248 20.736C103.995 20.736 102.883 20.3904 101.906 19.7006L101.675 20.0274C102.723 20.767 103.916 21.136 105.248 21.136V20.736ZM101.906 19.7006C100.937 19.0166 100.294 18.0413 99.9809 16.7605L99.5923 16.8555C99.9258 18.2201 100.619 19.2821 101.675 20.0274L101.906 19.7006ZM99.7577 16.6101L95.1684 17.2821L95.2264 17.6779L99.8156 17.0059L99.7577 16.6101ZM94.9997 17.5101C95.2413 19.098 95.8138 20.4748 96.7204 21.6351L97.0356 21.3889C96.1754 20.2878 95.6275 18.9767 95.3951 17.4499L94.9997 17.5101ZM96.7217 21.6368C97.637 22.7833 98.8 23.6667 100.207 24.287L100.368 23.921C99.0173 23.3253 97.9072 22.4807 97.0343 21.3872L96.7217 21.6368ZM100.209 24.2877C101.626 24.8972 103.211 25.2 104.958 25.2V24.8C103.257 24.8 101.728 24.5055 100.367 23.9203L100.209 24.2877ZM125.127 24.52V20.904H124.727V24.52H125.127ZM124.901 20.7058C123.877 20.8431 122.947 20.8848 122.112 20.8324L122.087 21.2316C122.953 21.2859 123.909 21.2423 124.954 21.1022L124.901 20.7058ZM122.112 20.8324C121.311 20.7822 120.757 20.4763 120.41 19.9324L120.072 20.1476C120.501 20.8197 121.185 21.1751 122.087 21.2316L122.112 20.8324ZM120.41 19.9322C120.23 19.6518 120.122 19.2635 120.102 18.7519L119.702 18.7681C119.724 19.3232 119.843 19.7882 120.073 20.1478L120.41 19.9322ZM120.102 18.756C120.091 18.2136 120.086 17.607 120.086 16.936H119.686C119.686 17.609 119.691 18.2184 119.702 18.764L120.102 18.756ZM120.086 16.936V10.6H119.686V16.936H120.086ZM119.886 10.8H124.927V10.4H119.886V10.8ZM125.127 10.6V7.24H124.727V10.6H125.127ZM124.927 7.04H119.886V7.44H124.927V7.04ZM120.086 7.24V2.44H119.686V7.24H120.086ZM119.886 2.24H115.49V2.64H119.886V2.24ZM115.29 2.44V7.24H115.69V2.44H115.29ZM115.49 7.04H112.517V7.44H115.49V7.04ZM112.317 7.24V10.6H112.717V7.24H112.317ZM112.517 10.8H115.49V10.4H112.517V10.8ZM115.29 10.6V17.192H115.69V10.6H115.29ZM115.29 17.192C115.29 18.228 115.301 19.1578 115.323 19.9812L115.722 19.9708C115.701 19.1515 115.69 18.2253 115.69 17.192H115.29ZM115.323 19.9813C115.345 20.827 115.581 21.6578 116.026 22.4718L116.377 22.2802C115.959 21.5156 115.743 20.7463 115.722 19.9707L115.323 19.9813ZM116.027 22.4741C116.523 23.3559 117.247 23.9992 118.191 24.4001L118.348 24.0319C117.483 23.6648 116.827 23.0814 116.376 22.2779L116.027 22.4741ZM118.194 24.4012C119.136 24.7852 120.195 24.9863 121.368 25.008L121.376 24.608C120.244 24.5871 119.235 24.3934 118.345 24.0308L118.194 24.4012ZM121.367 25.0079C122.545 25.0403 123.744 24.9431 124.964 24.7166L124.891 24.3234C123.697 24.5449 122.526 24.6397 121.378 24.6081L121.367 25.0079ZM132.298 25.2C134.073 25.2 135.644 24.809 137.004 24.021L136.803 23.675C135.512 24.423 134.013 24.8 132.298 24.8V25.2ZM137.004 24.0208C138.372 23.2236 139.437 22.1249 140.198 20.7276L139.846 20.5364C139.12 21.8698 138.107 22.915 136.803 23.6752L137.004 24.0208ZM140.197 20.7281C140.97 19.3187 141.353 17.7008 141.353 15.88H140.953C140.953 17.6432 140.582 19.1933 139.847 20.5359L140.197 20.7281ZM141.353 15.88C141.353 14.0702 140.975 12.4631 140.214 11.0644L139.863 11.2556C140.588 12.5876 140.953 14.1272 140.953 15.88H141.353ZM140.214 11.0649C139.454 9.657 138.388 8.55261 137.02 7.75521L136.819 8.10079C138.122 8.86073 139.136 9.911 139.862 11.2551L140.214 11.0649ZM137.021 7.75557C135.661 6.9564 134.084 6.56 132.298 6.56V6.96C134.023 6.96 135.528 7.34227 136.818 8.10043L137.021 7.75557ZM132.298 6.56C130.544 6.56 128.984 6.95117 127.625 7.73896L127.825 8.08504C129.116 7.33683 130.605 6.96 132.298 6.96V6.56ZM127.625 7.73896C126.267 8.52573 125.202 9.62469 124.431 11.0319L124.781 11.2241C125.518 9.87931 126.532 8.83426 127.825 8.08504L127.625 7.73896ZM124.431 11.0313C123.658 12.4306 123.275 14.0488 123.275 15.88H123.675C123.675 14.1058 124.046 12.5561 124.781 11.2247L124.431 11.0313ZM123.275 15.88C123.275 17.6894 123.647 19.3012 124.397 20.71L124.75 20.522C124.035 19.1788 123.675 17.6333 123.675 15.88H123.275ZM124.398 20.7116C125.159 22.1084 126.218 23.2072 127.575 24.0044L127.778 23.6596C126.484 22.8995 125.476 21.8542 124.749 20.5204L124.398 20.7116ZM127.575 24.0044C128.935 24.8036 130.511 25.2 132.298 25.2V24.8C130.572 24.8 129.068 24.4177 127.778 23.6596L127.575 24.0044ZM132.298 20.736C130.978 20.736 130.002 20.3016 129.337 19.4526L129.022 19.6994C129.778 20.6637 130.881 21.136 132.298 21.136V20.736ZM129.338 19.4546C128.672 18.5824 128.329 17.3976 128.329 15.88H127.929C127.929 17.4557 128.286 18.735 129.02 19.6974L129.338 19.4546ZM128.329 15.88C128.329 14.4048 128.656 13.2335 129.293 12.3488L128.968 12.1152C128.269 13.0865 127.929 14.3472 127.929 15.88H128.329ZM129.293 12.3492C129.925 11.475 130.912 11.024 132.298 11.024V10.624C130.818 10.624 129.694 11.1117 128.969 12.1148L129.293 12.3492ZM132.298 11.024C133.639 11.024 134.619 11.4639 135.274 12.3214L135.592 12.0786C134.846 11.1014 133.736 10.624 132.298 10.624V11.024ZM135.275 12.3225C135.951 13.1949 136.299 14.374 136.299 15.88H136.699C136.699 14.314 136.337 13.0397 135.591 12.0775L135.275 12.3225ZM136.299 15.88C136.299 17.331 135.957 18.5023 135.288 19.4093L135.61 19.6467C136.341 18.655 136.699 17.3943 136.699 15.88H136.299ZM135.288 19.4096C134.644 20.2859 133.661 20.736 132.298 20.736V21.136C133.758 21.136 134.875 20.6475 135.61 19.6464L135.288 19.4096ZM141.313 24.72H145.741V24.32H141.313V24.72ZM145.941 24.52V15.688H145.541V24.52H145.941ZM145.941 15.688C145.941 14.7114 146.135 13.9057 146.512 13.2608C146.887 12.6177 147.452 12.1215 148.215 11.774L148.05 11.41C147.219 11.7878 146.588 12.3369 146.166 13.0592C145.745 13.7796 145.541 14.6593 145.541 15.688H145.941ZM148.218 11.7727C148.71 11.5393 149.262 11.4007 149.875 11.3596L149.848 10.9604C149.19 11.0046 148.589 11.154 148.047 11.4113L148.218 11.7727ZM149.878 11.3593C150.506 11.3075 151.045 11.3551 151.499 11.4951L151.617 11.1129C151.102 10.9543 150.51 10.9058 149.845 10.9607L149.878 11.3593ZM151.758 11.304V7.24H151.358V11.304H151.758ZM151.582 7.04147C150.776 6.94306 149.97 6.96497 149.164 7.10704L149.234 7.50096C150.001 7.3657 150.767 7.34494 151.534 7.43853L151.582 7.04147ZM149.167 7.1066C148.357 7.2384 147.622 7.50266 146.963 7.90082L147.169 8.24318C147.782 7.87334 148.468 7.6256 149.231 7.5014L149.167 7.1066ZM146.967 7.89849C146.541 8.14253 146.164 8.43722 145.838 8.78265L146.129 9.05735C146.427 8.74145 146.772 8.4708 147.165 8.24551L146.967 7.89849ZM145.836 8.78521C145.523 9.12765 145.25 9.50826 145.017 9.92653L145.366 10.1215C145.585 9.72907 145.84 9.37368 146.131 9.05479L145.836 8.78521ZM145.391 10.024V7.24H144.991V10.024H145.391ZM145.191 7.04H141.313V7.44H145.191V7.04ZM141.113 7.24V24.52H141.513V7.24H141.113ZM159.035 25.2C160.752 25.2 162.335 24.7525 163.778 23.858L163.567 23.518C162.188 24.3728 160.679 24.8 159.035 24.8V25.2ZM163.777 23.8584C165.236 22.9611 166.303 21.7013 166.976 20.0849L166.607 19.9311C165.965 21.472 164.953 22.6656 163.568 23.5176L163.777 23.8584ZM166.846 19.8156L162.451 18.5676L162.341 18.9524L166.737 20.2004L166.846 19.8156ZM162.214 18.6764C161.895 19.3703 161.452 19.8813 160.887 20.2206C160.322 20.5605 159.621 20.736 158.776 20.736V21.136C159.677 21.136 160.452 20.9488 161.093 20.5634C161.736 20.1773 162.229 19.6004 162.578 18.8436L162.214 18.6764ZM158.776 20.736C157.619 20.736 156.73 20.4168 156.087 19.7997L155.81 20.0883C156.546 20.7938 157.543 21.136 158.776 21.136V20.736ZM156.088 19.8008C155.451 19.1795 155.044 18.277 154.886 17.0701L154.49 17.1219C154.655 18.3897 155.089 19.3858 155.809 20.0872L156.088 19.8008ZM154.688 17.296H166.937V16.896H154.688V17.296ZM167.136 17.1135C167.321 14.9996 167.105 13.1484 166.476 11.5662L166.105 11.7138C166.705 13.2249 166.919 15.011 166.738 17.0785L167.136 17.1135ZM166.476 11.5662C165.849 9.98492 164.876 8.75122 163.557 7.87351L163.336 8.20649C164.581 9.03544 165.504 10.2017 166.105 11.7138L166.476 11.5662ZM163.557 7.87351C162.237 6.99447 160.64 6.56 158.776 6.56V6.96C160.576 6.96 162.092 7.37887 163.336 8.20649L163.557 7.87351ZM158.776 6.56C157.022 6.56 155.461 6.95673 154.102 7.75557L154.305 8.10043C155.595 7.34193 157.084 6.96 158.776 6.96V6.56ZM154.103 7.75496C152.745 8.54219 151.68 9.65243 150.909 11.081L151.261 11.271C151.998 9.90491 153.012 8.84981 154.304 8.10104L154.103 7.75496ZM150.909 11.081C150.136 12.5126 149.753 14.1891 149.753 16.104H150.153C150.153 14.2429 150.525 12.6341 151.261 11.271L150.909 11.081ZM149.753 16.104C149.753 17.8625 150.143 19.4334 150.927 20.8109L151.275 20.6131C150.529 19.3026 150.153 17.8015 150.153 16.104H149.753ZM150.928 20.8126C151.722 22.1769 152.814 23.2528 154.202 24.0381L154.399 23.6899C153.072 22.9392 152.031 21.9137 151.274 20.6114L150.928 20.8126ZM154.203 24.039C155.605 24.815 157.218 25.2 159.035 25.2V24.8C157.276 24.8 155.732 24.4277 154.397 23.689L154.203 24.039ZM158.97 10.736C159.995 10.736 160.747 10.9894 161.258 11.4662L161.531 11.1738C160.921 10.6053 160.057 10.336 158.97 10.336V10.736ZM161.259 11.4675C161.782 11.9458 162.137 12.7408 162.295 13.8913L162.691 13.8367C162.526 12.6406 162.149 11.7396 161.529 11.1725L161.259 11.4675ZM162.493 13.664H154.801V14.064H162.493V13.664ZM154.997 13.9049C155.222 12.8283 155.666 12.0427 156.316 11.5243C156.966 11.0055 157.844 10.736 158.97 10.736V10.336C157.781 10.336 156.806 10.6212 156.066 11.2117C155.326 11.8026 154.844 12.681 154.605 13.8231L154.997 13.9049Z" fill="url(#paint12_linear)" mask="url(#path-1-outside-1)"/>
<defs>
<linearGradient id="paint0_linear" x1="1.35901" y1="15.5195" x2="166.992" y2="14.4995" gradientUnits="userSpaceOnUse">
<stop stop-color="#E48900"/>
<stop offset="1" stop-color="#AD00FF"/>
</linearGradient>
<linearGradient id="paint1_linear" x1="1.35901" y1="15.5195" x2="166.992" y2="14.4995" gradientUnits="userSpaceOnUse">
<stop stop-color="#E48900"/>
<stop offset="1" stop-color="#AD00FF"/>
</linearGradient>
<linearGradient id="paint2_linear" x1="1.35901" y1="15.5195" x2="166.992" y2="14.4995" gradientUnits="userSpaceOnUse">
<stop stop-color="#E48900"/>
<stop offset="1" stop-color="#AD00FF"/>
</linearGradient>
<linearGradient id="paint3_linear" x1="1.35901" y1="15.5195" x2="166.992" y2="14.4995" gradientUnits="userSpaceOnUse">
<stop stop-color="#E48900"/>
<stop offset="1" stop-color="#AD00FF"/>
</linearGradient>
<linearGradient id="paint4_linear" x1="1.35901" y1="15.5195" x2="166.992" y2="14.4995" gradientUnits="userSpaceOnUse">
<stop stop-color="#E48900"/>
<stop offset="1" stop-color="#AD00FF"/>
</linearGradient>
<linearGradient id="paint5_linear" x1="1.35901" y1="15.5195" x2="166.992" y2="14.4995" gradientUnits="userSpaceOnUse">
<stop stop-color="#E48900"/>
<stop offset="1" stop-color="#AD00FF"/>
</linearGradient>
<linearGradient id="paint6_linear" x1="1.35901" y1="15.5195" x2="166.992" y2="14.4995" gradientUnits="userSpaceOnUse">
<stop stop-color="#E48900"/>
<stop offset="1" stop-color="#AD00FF"/>
</linearGradient>
<linearGradient id="paint7_linear" x1="1.35901" y1="15.5195" x2="166.992" y2="14.4995" gradientUnits="userSpaceOnUse">
<stop stop-color="#E48900"/>
<stop offset="1" stop-color="#AD00FF"/>
</linearGradient>
<linearGradient id="paint8_linear" x1="1.35901" y1="15.5195" x2="166.992" y2="14.4995" gradientUnits="userSpaceOnUse">
<stop stop-color="#E48900"/>
<stop offset="1" stop-color="#AD00FF"/>
</linearGradient>
<linearGradient id="paint9_linear" x1="1.35901" y1="15.5195" x2="166.992" y2="14.4995" gradientUnits="userSpaceOnUse">
<stop stop-color="#E48900"/>
<stop offset="1" stop-color="#AD00FF"/>
</linearGradient>
<linearGradient id="paint10_linear" x1="1.35901" y1="15.5195" x2="166.992" y2="14.4995" gradientUnits="userSpaceOnUse">
<stop stop-color="#E48900"/>
<stop offset="1" stop-color="#AD00FF"/>
</linearGradient>
<linearGradient id="paint11_linear" x1="1.35901" y1="15.5195" x2="166.992" y2="14.4995" gradientUnits="userSpaceOnUse">
<stop stop-color="#E48900"/>
<stop offset="1" stop-color="#AD00FF"/>
</linearGradient>
<linearGradient id="paint12_linear" x1="166.992" y1="15.5195" x2="1.36012" y2="12.4595" gradientUnits="userSpaceOnUse">
<stop stop-color="#AE01FC"/>
<stop offset="1" stop-color="#E38702"/>
</linearGradient>
</defs>
</svg>
