<svg width="55" height="34" viewBox="0 0 55 34" fill="none" xmlns="http://www.w3.org/2000/svg">
<path d="M7.28322 2.92184L7.28347 2.92168C9.34334 1.57259 11.7878 0.9 14.6126 0.9C17.4374 0.9 19.8755 1.57258 21.9225 2.92184C23.9807 4.26991 25.5592 6.15529 26.6585 8.57443C27.7707 10.9934 28.3252 13.8028 28.3252 17C28.3252 20.1973 27.7707 23.0067 26.6584 25.4257C26.6584 25.4257 26.6584 25.4258 26.6584 25.4258L26.5675 25.384C25.4754 27.7876 23.9087 29.6578 21.8675 30.9947L7.28322 2.92184ZM7.28322 2.92184C5.23799 4.26992 3.65956 6.15526 2.54734 8.57422L2.54715 8.57463C1.44803 10.9936 0.9 13.8028 0.9 17C0.9 20.1972 1.44803 23.0064 2.54715 25.4254L2.54734 25.4258C3.65956 27.8447 5.23799 29.7301 7.28322 31.0782L7.28347 31.0783C9.34334 32.4274 11.7878 33.1 14.6126 33.1C17.4374 33.1 19.8755 32.4274 21.9225 31.0782L7.28322 2.92184ZM50.5696 30.6903L50.5689 30.6908C49.4928 31.4947 48.2729 32.0972 46.9101 32.4985C45.5615 32.8996 44.1672 33.1 42.7277 33.1C40.6344 33.1 38.7407 32.6992 37.0486 31.8957L37.0477 31.8952C35.3688 31.0774 33.9843 29.9147 32.8954 28.4079L32.8948 28.4071C31.8183 26.8848 31.1371 25.0771 30.8492 22.987L30.8359 22.8902L30.9323 22.8746L36.4709 21.9786L36.5642 21.9635L36.5846 22.0557C36.9704 23.8005 37.7658 25.1369 38.9667 26.0731C40.1711 27.0122 41.5406 27.4813 43.0787 27.4813C43.9381 27.4813 44.7716 27.3341 45.5797 27.0394C46.3852 26.7457 47.0403 26.3135 47.5481 25.7441L47.5489 25.7432C48.0637 25.1801 48.3223 24.4865 48.3223 23.656C48.3223 23.051 48.1468 22.4948 47.794 21.9849L47.7933 21.9839C47.4482 21.4715 46.7465 21.0325 45.6614 20.6792C45.6613 20.6792 45.6612 20.6791 45.6611 20.6791L38.3683 18.3328C38.3682 18.3327 38.3681 18.3327 38.368 18.3327C37.8178 18.1607 37.1774 17.9176 36.4474 17.6039L36.4468 17.6036C35.7214 17.2862 35.0174 16.8324 34.3349 16.2437C33.6466 15.6501 33.0732 14.8702 32.6132 13.9071L32.6125 13.9056C32.1627 12.9215 31.9404 11.6901 31.9404 10.216C31.9404 8.13832 32.4186 6.40332 33.3819 5.01759C34.3423 3.63613 35.6252 2.60738 37.2282 1.93185C38.8283 1.25754 40.5972 0.928357 42.5334 0.942669L42.5341 0.942674V0.942677C45.4644 0.985607 47.918 1.78027 49.8884 3.33211C51.8597 4.88472 53.1831 7.1178 53.8633 10.0225L53.8872 10.1245L53.7843 10.1436L48.0506 11.2103L47.9544 11.2282L47.9344 11.1325C47.6266 9.65931 46.9491 8.54469 45.9059 7.77929C44.8553 7.00851 43.7045 6.60324 42.4513 6.56128L42.4512 6.56127C41.6318 6.53326 40.8586 6.65928 40.1307 6.93869L40.1296 6.93909C39.4156 7.2041 38.8319 7.59337 38.3759 8.10585C37.9375 8.61298 37.718 9.21511 37.718 9.91733C37.718 10.5655 37.9002 11.0879 38.258 11.4931C38.6246 11.894 39.0873 12.2204 39.6481 12.4714C40.2159 12.7255 40.7965 12.9372 41.3899 13.1065L41.391 13.1068L46.2662 14.5574C46.2663 14.5574 46.2663 14.5574 46.2664 14.5574C46.998 14.7718 47.8069 15.0573 48.693 15.4136C49.5864 15.7586 50.4395 16.2469 51.2523 16.8778M50.5696 30.6903L51.1917 16.9573M50.5696 30.6903C51.6479 29.8703 52.5026 28.8417 53.1333 27.6057M50.5696 30.6903L53.1333 27.6057M51.2523 16.8778C51.2525 16.878 51.2527 16.8782 51.253 16.8783L51.1917 16.9573M51.2523 16.8778C51.252 16.8776 51.2517 16.8774 51.2515 16.8772L51.1917 16.9573M51.2523 16.8778C52.0844 17.4992 52.763 18.3219 53.2891 19.3431M51.1917 16.9573C52.0108 17.5689 52.6803 18.3796 53.2004 19.3893M53.2891 19.3431C53.289 19.3429 53.2889 19.3428 53.2888 19.3426L53.2004 19.3893M53.2891 19.3431C53.8318 20.3714 54.1 21.6686 54.1 23.2293C54.1 24.8921 53.7789 26.3518 53.1333 27.6057M53.2891 19.3431C53.2891 19.3432 53.2892 19.3434 53.2893 19.3435L53.2004 19.3893M53.2004 19.3893L53.1333 27.6057M53.1333 27.6057C53.1333 27.6057 53.1333 27.6057 53.1333 27.6058L53.0444 27.56L53.1335 27.6054C53.1334 27.6055 53.1334 27.6056 53.1333 27.6057ZM14.611 6.56132L14.611 6.56132C17.2632 6.60357 19.2328 7.5592 20.5375 9.42007C21.8481 11.2895 22.5086 13.8128 22.5086 17C22.5086 20.187 21.8481 22.7323 20.5369 24.6448C19.2326 26.547 17.2646 27.4809 14.6142 27.4387C11.9754 27.3964 10.0054 26.441 8.68765 24.5797C7.37713 22.7104 6.71667 20.187 6.71667 17C6.71667 13.8132 7.37706 11.2679 8.68821 9.35547C10.0056 7.45278 11.9739 6.51911 14.611 6.56132Z" fill="url(#paint0_linear)" stroke="url(#paint1_linear)" stroke-width="0.2"/>
<defs>
<linearGradient id="paint0_linear" x1="1.11462" y1="20.3594" x2="53.9993" y2="20.2814" gradientUnits="userSpaceOnUse">
<stop stop-color="#E48900"/>
<stop offset="1" stop-color="#AD00FF"/>
</linearGradient>
<linearGradient id="paint1_linear" x1="53.9974" y1="20.3594" x2="1.09796" y2="20.1254" gradientUnits="userSpaceOnUse">
<stop stop-color="#AE01FC"/>
<stop offset="1" stop-color="#E38702"/>
</linearGradient>
</defs>
</svg>
