<svg xmlns="http://www.w3.org/2000/svg" xmlns:xlink="http://www.w3.org/1999/xlink" preserveAspectRatio="xMidYMid" width="30" height="28" viewBox="0 0 30 28">
  <defs>
    <style>
      .cls-1 {
        fill: #fff;
        fill-rule: evenodd;
      }
    </style>
  </defs>
  <path d="M26.014,12.032 C23.820,12.032 22.034,10.204 22.034,7.958 C22.034,5.711 23.820,3.883 26.014,3.883 C28.208,3.883 29.994,5.711 29.994,7.958 C29.994,10.204 28.208,12.032 26.014,12.032 ZM26.014,5.492 C24.686,5.492 23.606,6.598 23.606,7.958 C23.606,9.318 24.686,10.424 26.014,10.424 C27.342,10.424 28.422,9.318 28.422,7.958 C28.422,6.598 27.342,5.492 26.014,5.492 ZM25.178,3.208 L25.178,0.806 C25.178,0.361 25.530,0.002 25.964,0.002 C26.398,0.002 26.750,0.361 26.750,0.806 L26.750,3.200 C26.506,3.160 26.260,3.123 26.006,3.123 C25.722,3.123 25.448,3.160 25.178,3.208 ZM14.966,24.119 C12.771,24.119 10.986,22.291 10.986,20.045 C10.986,17.797 12.771,15.970 14.966,15.970 C17.160,15.970 18.945,17.797 18.945,20.045 C18.945,22.291 17.160,24.119 14.966,24.119 ZM14.966,17.578 C13.638,17.578 12.557,18.685 12.557,20.045 C12.557,21.404 13.638,22.510 14.966,22.510 C16.294,22.510 17.374,21.404 17.374,20.045 C17.374,18.685 16.294,17.578 14.966,17.578 ZM14.180,15.263 L14.180,0.806 C14.180,0.361 14.532,0.002 14.966,0.002 C15.399,0.002 15.751,0.361 15.751,0.806 L15.751,15.254 C15.507,15.215 15.262,15.177 15.007,15.177 C14.724,15.177 14.450,15.214 14.180,15.263 ZM3.968,16.047 C1.773,16.047 -0.012,14.219 -0.012,11.973 C-0.012,9.726 1.773,7.898 3.968,7.898 C6.162,7.898 7.947,9.726 7.947,11.973 C7.947,14.219 6.162,16.047 3.968,16.047 ZM3.968,9.506 C2.640,9.506 1.559,10.613 1.559,11.973 C1.559,13.332 2.640,14.438 3.968,14.438 C5.296,14.438 6.376,13.332 6.376,11.973 C6.376,10.613 5.296,9.506 3.968,9.506 ZM3.182,7.297 L3.182,0.806 C3.182,0.361 3.533,0.002 3.967,0.002 C4.401,0.002 4.753,0.361 4.753,0.806 L4.753,7.288 C4.509,7.249 4.264,7.211 4.009,7.211 C3.726,7.211 3.452,7.248 3.182,7.297 ZM4.753,16.923 L4.753,27.194 C4.753,27.639 4.401,27.999 3.967,27.999 C3.533,27.999 3.182,27.639 3.182,27.194 L3.182,16.914 C3.452,16.962 3.726,17.000 4.009,17.000 C4.264,17.000 4.509,16.962 4.753,16.923 ZM15.751,24.888 L15.751,27.194 C15.751,27.639 15.399,27.999 14.966,27.999 C14.532,27.999 14.180,27.639 14.180,27.194 L14.180,24.880 C14.450,24.928 14.724,24.965 15.007,24.965 C15.262,24.965 15.507,24.928 15.751,24.888 ZM26.750,12.834 L26.750,27.194 C26.750,27.639 26.398,27.999 25.964,27.999 C25.530,27.999 25.178,27.639 25.178,27.194 L25.178,12.825 C25.448,12.874 25.722,12.911 26.006,12.911 C26.260,12.911 26.506,12.873 26.750,12.834 Z" class="cls-1"/>
</svg>
