<?xml version="1.0" encoding="utf-8"?>
<!-- Generator: Adobe Illustrator 19.0.1, SVG Export Plug-In . SVG Version: 6.00 Build 0)  -->
<svg version="1.1" id="Capa_1" xmlns="http://www.w3.org/2000/svg" xmlns:xlink="http://www.w3.org/1999/xlink" x="0px" y="0px"
	 viewBox="18 266 30 30" style="enable-background:new 18 266 30 30;" xml:space="preserve">
<style type="text/css">
	.st0{fill:#FFFFFF;}
</style>
<path class="st0" d="M45.5,289.4l-4.8-2.6c-0.5-0.2-0.7-0.7-0.7-1.3v-1.8c0.1-0.2,0.2-0.3,0.4-0.5c0.6-1,1.1-2,1.5-3.2
	c0.7-0.4,1.2-1.1,1.2-2v-2.2c0-0.5-0.2-1-0.5-1.4v-2.9c0-0.3,0.1-2.1-1-3.6c-1-1.3-2.7-1.9-5-1.9c-2.3,0-3.9,0.6-5,1.9
	c-0.7,0.9-1,1.9-1,2.6c-0.9-0.5-1.9-0.7-3-0.7c-5.2,0-5.5,4.8-5.5,4.9v2.5c-0.3,0.4-0.5,0.8-0.5,1.3v1.9c0,0.6,0.2,1.1,0.7,1.5
	c0.4,1.7,1.4,3,1.8,3.4v1.5c0,0.4-0.2,0.8-0.6,1l-3.3,2.3c-1.3,0.8-2.1,2.2-2.1,3.8v2.1h7h1h22v-2.2C48,291.9,47,290.2,45.5,289.4z
	 M25,293.7v1.2h-6v-1c0-1.2,0.6-2.3,1.6-2.9l3.3-2.3c0.7-0.4,1.1-1.2,1.1-2v-2l-0.2-0.2c0,0-1.3-1.4-1.7-3.2l0-0.2l-0.2-0.1
	c-0.2-0.2-0.4-0.4-0.4-0.7v-1.9c0-0.2,0.1-0.4,0.3-0.6l0.2-0.2l0-2.9c0-0.2,0.3-3.8,4.5-3.8c1.2,0,2.2,0.3,3,0.9v2.6
	c-0.3,0.4-0.5,0.9-0.5,1.4v2.2c0,0.2,0,0.3,0.1,0.5c0,0.1,0,0.1,0.1,0.2c0,0.1,0,0.2,0.1,0.3c0,0,0,0,0,0c0.1,0.3,0.3,0.5,0.5,0.8
	c0,0,0,0,0,0c0,0.1,0.1,0.2,0.1,0.4l0,0.1c0,0,0,0.1,0,0.1c0,0.1,0,0.1,0.1,0.2c0,0.1,0.1,0.2,0.1,0.3c0,0,0,0.1,0,0.1
	c0,0.1,0.1,0.2,0.1,0.3c0,0,0,0.1,0,0.1l0,0.1c0,0,0,0.1,0,0.1c0,0.1,0.1,0.2,0.1,0.3c0,0,0,0,0,0.1c0,0.1,0.1,0.1,0.1,0.2
	c0.1,0.1,0.1,0.2,0.2,0.3c0,0.1,0.1,0.1,0.1,0.1c0.1,0.1,0.1,0.3,0.2,0.4c0,0,0,0.1,0,0.1c0.1,0.2,0.2,0.4,0.3,0.5
	c0,0,0,0.1,0.1,0.1c0,0,0,0,0,0.1v1.8c0,0.5-0.3,1-0.7,1.3l-1.3,0.8l-0.2,0l-0.1,0.2l-2.8,1.7C25.9,290.2,25,291.9,25,293.7z
	 M47,294.9H26v-1.2c0-1.4,0.7-2.7,1.8-3.4l4.5-2.7c0.7-0.4,1.2-1.3,1.2-2.2v-2.2v0l-0.1-0.1l0,0c0,0,0,0-0.1-0.1c0,0,0,0,0,0
	c0,0-0.1-0.1-0.1-0.1c0,0,0,0,0,0c-0.1-0.1-0.2-0.3-0.3-0.4c0,0,0,0,0,0c0-0.1-0.1-0.2-0.2-0.3c0,0,0,0,0,0
	c-0.1-0.2-0.2-0.4-0.4-0.7c0,0,0,0,0,0c-0.1-0.1-0.1-0.3-0.2-0.4l0,0c0,0,0,0,0-0.1l0,0c0-0.1-0.1-0.1-0.1-0.2c0,0,0-0.1,0-0.1
	c0-0.1-0.1-0.1-0.1-0.2c-0.1-0.1-0.1-0.3-0.1-0.5l0-0.1c0,0,0,0,0,0c0-0.2-0.1-0.3-0.1-0.5l0-0.2l-0.2-0.1c-0.3-0.2-0.5-0.5-0.5-0.9
	v-2.2c0-0.3,0.1-0.6,0.3-0.8l0.2-0.2v-3.4v-0.2l0,0c0-0.4,0-1.6,0.8-2.6c0.8-1,2.2-1.6,4.2-1.6c2,0,3.4,0.5,4.2,1.5
	c1,1.2,0.8,2.7,0.8,2.7l0,3.5l0.2,0.2c0.2,0.2,0.3,0.5,0.3,0.8v2.2c0,0.5-0.3,0.9-0.7,1l-0.2,0.1l-0.1,0.3c-0.3,1.1-0.8,2.2-1.4,3.1
	c-0.1,0.2-0.3,0.4-0.4,0.6l-0.1,0.2v2.3c0,1,0.5,1.8,1.3,2.3l4.8,2.6c1.2,0.7,1.9,2,1.9,3.4V294.9z"/>
</svg>
