<svg xmlns="http://www.w3.org/2000/svg" xmlns:xlink="http://www.w3.org/1999/xlink" preserveAspectRatio="xMidYMid" width="25.219" height="17.594" viewBox="0 0 25.219 17.594">
  <defs>
    <style>
      .cls-1 {
        fill: #fff;
        fill-rule: evenodd;
      }
    </style>
  </defs>
  <path d="M19.980,2.395 C19.074,2.395 18.387,2.592 17.918,2.986 C17.449,3.381 17.215,3.902 17.215,4.551 C17.215,4.996 17.309,5.377 17.496,5.693 C17.684,6.010 17.992,6.309 18.422,6.590 C18.851,6.871 19.625,7.242 20.742,7.703 C22.000,8.227 22.922,8.715 23.508,9.168 C24.094,9.621 24.523,10.133 24.797,10.703 C25.070,11.273 25.207,11.945 25.207,12.719 C25.207,14.242 24.656,15.438 23.555,16.305 C22.453,17.172 20.933,17.605 18.996,17.605 C17.058,17.605 15.473,17.305 14.238,16.703 L14.238,14.055 C15.019,14.422 15.850,14.711 16.728,14.922 C17.607,15.133 18.426,15.238 19.184,15.238 C20.293,15.238 21.111,15.027 21.639,14.605 C22.166,14.184 22.430,13.617 22.430,12.906 C22.430,12.266 22.187,11.723 21.703,11.277 C21.219,10.832 20.219,10.305 18.703,9.695 C17.140,9.062 16.039,8.340 15.398,7.527 C14.758,6.715 14.437,5.738 14.437,4.598 C14.437,3.168 14.945,2.043 15.961,1.223 C16.976,0.402 18.340,-0.008 20.051,-0.008 C21.691,-0.008 23.324,0.352 24.949,1.070 L24.059,3.355 C22.535,2.715 21.176,2.395 19.980,2.395 ZM9.656,17.371 L5.555,10.527 L2.789,10.527 L2.789,17.371 L-0.012,17.371 L-0.012,0.238 L4.828,0.238 C7.039,0.238 8.676,0.652 9.738,1.480 C10.801,2.309 11.332,3.559 11.332,5.230 C11.332,7.363 10.223,8.883 8.004,9.789 L12.844,17.371 L9.656,17.371 ZM8.449,5.324 C8.449,4.356 8.133,3.660 7.500,3.238 C6.867,2.816 5.914,2.605 4.641,2.605 L2.789,2.605 L2.789,8.207 L4.734,8.207 C6.039,8.207 6.984,7.965 7.570,7.480 C8.156,6.996 8.449,6.277 8.449,5.324 Z" class="cls-1"/>
</svg>
