<?xml version="1.0" encoding="utf-8"?>
<!-- Generator: Adobe Illustrator 19.0.1, SVG Export Plug-In . SVG Version: 6.00 Build 0)  -->
<svg version="1.1" id="Слой_1" xmlns="http://www.w3.org/2000/svg" xmlns:xlink="http://www.w3.org/1999/xlink" x="0px" y="0px"
	 viewBox="-450 251.9 58.1 58.1" style="enable-background:new -450 251.9 58.1 58.1;" xml:space="preserve">
<style type="text/css">
	.st0{clip-path:url(#SVGID_3_);}
</style>
<g>
	<g>
		<path id="SVGID_1_" d="M-391.9,262v21.2l-26.3-10.1v-21.2L-391.9,262z M-418.2,299.9l26.3,10.1v-21.2l-26.3-10.1V299.9z M-450,310
			l26.3-10.1l0,0l-26.3-11.1V310z M-450,283.2l26.3-10.1v-21.2L-450,262V283.2z"/>
	</g>
	<g>
		<defs>
			<path id="SVGID_2_" d="M-391.9,262v21.2l-26.3-10.1v-21.2L-391.9,262z M-418.2,299.9l26.3,10.1v-21.2l-26.3-10.1V299.9z
				 M-450,310l26.3-10.1l0,0l-26.3-11.1V310z M-450,283.2l26.3-10.1v-21.2L-450,262V283.2z"/>
		</defs>
		<use xlink:href="#SVGID_2_"  style="overflow:visible;"/>
		<clipPath id="SVGID_3_">
			<use xlink:href="#SVGID_2_"  style="overflow:visible;"/>
		</clipPath>
		<rect x="-450.9" y="176.8" class="st0" width="136" height="136"/>
	</g>
</g>
</svg>
