<svg xmlns="http://www.w3.org/2000/svg" xmlns:xlink="http://www.w3.org/1999/xlink" preserveAspectRatio="xMidYMid" width="152.969" height="17.594" viewBox="0 0 152.969 17.594">
  <defs>
    <style>
      .cls-1 {
        fill: #fff;
        fill-rule: evenodd;
      }
    </style>
  </defs>
  <path d="M147.926,2.641 L147.926,17.371 L145.125,17.371 L145.125,2.641 L140.086,2.641 L140.086,0.238 L152.965,0.238 L152.965,2.641 L147.926,2.641 ZM131.824,10.961 L130.043,10.961 L130.043,17.371 L127.242,17.371 L127.242,0.238 L132.176,0.238 C134.316,0.238 135.920,0.676 136.986,1.551 C138.053,2.426 138.586,3.715 138.586,5.418 C138.586,7.207 138.000,8.578 136.828,9.531 C135.656,10.484 133.988,10.961 131.824,10.961 ZM134.801,3.309 C134.199,2.824 133.262,2.582 131.988,2.582 L130.043,2.582 L130.043,8.605 L131.531,8.605 C132.969,8.605 134.023,8.356 134.695,7.855 C135.367,7.356 135.703,6.574 135.703,5.512 C135.703,4.527 135.402,3.793 134.801,3.309 ZM119.918,0.238 L122.719,0.238 L122.719,17.371 L119.918,17.371 L119.918,0.238 ZM114.246,17.371 L110.145,10.527 L107.379,10.527 L107.379,17.371 L104.578,17.371 L104.578,0.238 L109.418,0.238 C111.629,0.238 113.266,0.652 114.328,1.480 C115.391,2.309 115.922,3.559 115.922,5.230 C115.922,7.363 114.812,8.883 112.594,9.789 L117.434,17.371 L114.246,17.371 ZM113.039,5.324 C113.039,4.356 112.723,3.660 112.090,3.238 C111.457,2.816 110.504,2.605 109.230,2.605 L107.379,2.605 L107.379,8.207 L109.324,8.207 C110.629,8.207 111.574,7.965 112.160,7.480 C112.746,6.996 113.039,6.277 113.039,5.324 ZM98.689,2.705 C98.045,2.498 97.367,2.395 96.656,2.395 C95.047,2.395 93.781,2.965 92.859,4.105 C91.937,5.246 91.477,6.820 91.477,8.828 C91.477,10.930 91.920,12.520 92.807,13.598 C93.693,14.676 94.976,15.215 96.656,15.215 C97.383,15.215 98.086,15.143 98.766,14.998 C99.445,14.854 100.152,14.668 100.887,14.441 L100.887,16.844 C99.543,17.352 98.019,17.605 96.316,17.605 C93.809,17.605 91.883,16.846 90.539,15.326 C89.195,13.807 88.523,11.633 88.523,8.805 C88.523,7.023 88.850,5.465 89.502,4.129 C90.154,2.793 91.098,1.770 92.332,1.059 C93.566,0.348 95.016,-0.008 96.680,-0.008 C98.430,-0.008 100.047,0.359 101.531,1.094 L100.523,3.426 C99.945,3.152 99.334,2.912 98.689,2.705 ZM79.266,6.590 C79.695,6.871 80.469,7.242 81.586,7.703 C82.844,8.227 83.766,8.715 84.352,9.168 C84.938,9.621 85.367,10.133 85.641,10.703 C85.914,11.273 86.051,11.945 86.051,12.719 C86.051,14.242 85.500,15.438 84.398,16.305 C83.297,17.172 81.777,17.605 79.840,17.605 C77.902,17.605 76.316,17.305 75.082,16.703 L75.082,14.055 C75.863,14.422 76.693,14.711 77.572,14.922 C78.451,15.133 79.269,15.238 80.027,15.238 C81.137,15.238 81.955,15.027 82.482,14.605 C83.010,14.184 83.273,13.617 83.273,12.906 C83.273,12.266 83.031,11.723 82.547,11.277 C82.062,10.832 81.062,10.305 79.547,9.695 C77.984,9.062 76.883,8.340 76.242,7.527 C75.602,6.715 75.281,5.738 75.281,4.598 C75.281,3.168 75.789,2.043 76.805,1.223 C77.820,0.402 79.184,-0.008 80.895,-0.008 C82.535,-0.008 84.168,0.352 85.793,1.070 L84.902,3.355 C83.379,2.715 82.020,2.395 80.824,2.395 C79.918,2.395 79.230,2.592 78.762,2.986 C78.293,3.381 78.059,3.902 78.059,4.551 C78.059,4.996 78.152,5.377 78.340,5.693 C78.527,6.010 78.836,6.309 79.266,6.590 ZM68.203,17.371 L65.391,17.371 L65.391,10.820 L59.707,0.238 L62.754,0.238 L66.809,8.055 L70.863,0.238 L73.910,0.238 L68.203,10.727 L68.203,17.371 ZM49.383,17.371 L44.590,17.371 L44.590,0.238 L49.887,0.238 C52.613,0.238 54.734,0.973 56.250,2.441 C57.766,3.910 58.523,5.977 58.523,8.641 C58.523,11.469 57.738,13.631 56.168,15.127 C54.598,16.623 52.336,17.371 49.383,17.371 ZM49.816,2.582 L47.391,2.582 L47.391,15.016 L49.383,15.016 C53.508,15.016 55.570,12.922 55.570,8.734 C55.570,4.633 53.652,2.582 49.816,2.582 ZM37.641,12.613 L31.090,12.613 L29.414,17.371 L26.461,17.371 L32.871,0.168 L35.918,0.168 L42.328,17.371 L39.352,17.371 L37.641,12.613 ZM35.297,5.535 C35.180,5.223 35.017,4.731 34.811,4.059 C34.603,3.387 34.461,2.895 34.383,2.582 C34.172,3.543 33.863,4.594 33.457,5.734 L31.910,10.199 L36.902,10.199 L35.297,5.535 ZM15.328,0.238 L25.020,0.238 L25.020,2.605 L18.129,2.605 L18.129,7.270 L24.586,7.270 L24.586,9.613 L18.129,9.613 L18.129,14.992 L25.020,14.992 L25.020,17.371 L15.328,17.371 L15.328,0.238 ZM9.656,17.371 L5.555,10.527 L2.789,10.527 L2.789,17.371 L-0.012,17.371 L-0.012,0.238 L4.828,0.238 C7.039,0.238 8.676,0.652 9.738,1.480 C10.801,2.309 11.332,3.559 11.332,5.230 C11.332,7.363 10.223,8.883 8.004,9.789 L12.844,17.371 L9.656,17.371 ZM8.449,5.324 C8.449,4.356 8.133,3.660 7.500,3.238 C6.867,2.816 5.914,2.605 4.641,2.605 L2.789,2.605 L2.789,8.207 L4.734,8.207 C6.039,8.207 6.984,7.965 7.570,7.480 C8.156,6.996 8.449,6.277 8.449,5.324 Z" class="cls-1"/>
</svg>
