<?xml version="1.0" encoding="utf-8"?>
<!-- Generator: Adobe Illustrator 19.0.1, SVG Export Plug-In . SVG Version: 6.00 Build 0)  -->
<svg version="1.1" id="Слой_1" xmlns="http://www.w3.org/2000/svg" xmlns:xlink="http://www.w3.org/1999/xlink" x="0px" y="0px"
	 viewBox="-317 251.6 252.5 29.7" style="enable-background:new -317 251.6 252.5 29.7;" xml:space="preserve">
<style type="text/css">
	.st0{fill:#FFFFFF;}
</style>
<path class="st0" d="M-294.6,279.8l-6.1-10.4c3.2-1.5,5.3-4.6,5.3-8.1c0-2.5-0.9-4.7-2.7-6.5c-1.8-1.8-4-2.7-6.5-2.7h-11.1v27.7h5.5
	v-9.6h4.2l5.6,9.6C-300.4,279.8-294.6,279.8-294.6,279.8z M-304.6,257.2c2.1,0,3.8,1.8,3.8,4.1c0,2.3-1.7,4.1-3.8,4.1h-5.6v-8.2
	H-304.6z M-285.9,268.3h10.5v-5.1h-10.5v-5.9h11.5v-5.2h-17v27.7h17.2v-5.3h-11.7V268.3z M-246.2,279.8l-9.7-27.7h-6.8l-9.7,27.7
	h5.9l1.7-5h11l1.7,5H-246.2z M-259.3,258.4l3.8,11.3h-7.6L-259.3,258.4z M-243.6,252.1v27.7h11c3.8,0,7-1.3,9.5-4
	c2.6-2.7,3.8-5.9,3.8-9.8c0-3.9-1.3-7.2-3.8-9.9c-2.5-2.6-5.7-4-9.5-4C-232.6,252.1-243.6,252.1-243.6,252.1z M-238.1,274.5v-17.2
	h5.5c2.4,0,4.4,0.8,5.9,2.4s2.3,3.6,2.3,6.2c0,2.6-0.8,4.6-2.3,6.2s-3.4,2.4-5.9,2.4H-238.1z M-201.6,252.1l-6,11.6l-6-11.6h-6.2
	l9.5,16.9v10.8h5.4V269l9.5-16.9H-201.6z M-184.9,280.3c3,0,5.4-0.8,7.2-2.3c1.9-1.5,2.8-3.5,2.8-6.1c0-1.6-0.4-3-1-3.9
	c-0.5-0.9-1.8-1.9-2.6-2.5c-0.4-0.3-1-0.6-1.7-0.8c-0.8-0.3-1.3-0.6-1.8-0.7l-1.9-0.6c-2.1-0.6-3.4-1.2-4.2-1.7
	c-0.7-0.6-1.1-1.3-1.1-2.1c0-1.6,1.4-2.8,3.6-2.8c2.4,0,4.2,1.2,5.3,3.6l4.6-2.6c-1.9-3.9-5.4-6.2-9.9-6.2c-2.5,0-4.7,0.8-6.4,2.3
	c-1.8,1.5-2.6,3.5-2.6,6s0.9,4.4,2.6,5.7c1.7,1.2,3.2,1.8,5.7,2.6c2.3,0.6,3.8,1.2,4.7,1.8c0.9,0.5,1.3,1.3,1.3,2.3
	c0,1.7-1.4,2.9-4.4,2.9c-3.2,0-5.3-1.4-6.4-4.2l-4.7,2.7C-194.3,277.7-190.4,280.3-184.9,280.3z M-158.4,280.3
	c5.1,0,9.5-2.5,11.9-6.5l-4.7-2.7c-1.3,2.4-4,3.9-7.2,3.9c-2.7,0-4.9-0.8-6.5-2.5c-1.6-1.7-2.5-3.9-2.5-6.5c0-2.7,0.8-4.9,2.5-6.6
	c1.7-1.7,3.8-2.5,6.5-2.5c3.2,0,5.8,1.5,7.2,4l4.7-2.7c-2.4-4-6.9-6.5-11.9-6.5c-4.2,0-7.6,1.4-10.3,4.2c-2.7,2.7-4.1,6.2-4.1,10.2
	c0,4.1,1.3,7.5,4.1,10.2C-166,278.9-162.6,280.3-158.4,280.3z M-122.1,279.8l-6.1-10.5c3.2-1.5,5.3-4.6,5.3-8.1
	c0-2.5-0.9-4.7-2.7-6.5c-1.8-1.8-4-2.7-6.5-2.7h-11.1v27.7h5.5v-9.6h4.2l5.6,9.6h5.8V279.8z M-132.1,257.2c2.1,0,3.8,1.8,3.8,4.1
	c0,2.3-1.7,4.1-3.8,4.1h-5.6v-8.2H-132.1z M-118.9,279.8h5.5v-27.7h-5.5V279.8z M-108.3,252.1v27.7h5.5v-9.1h4.9
	c2.7,0,4.9-0.9,6.7-2.7c1.8-1.8,2.7-4,2.7-6.6c0-2.6-0.9-4.8-2.7-6.6c-1.8-1.8-4.1-2.7-6.7-2.7C-97.9,252.1-108.3,252.1-108.3,252.1
	z M-102.8,265.6v-8.4h4.9c2.3,0,4,1.8,4,4.2c0,2.4-1.7,4.2-4,4.2C-97.9,265.6-102.8,265.6-102.8,265.6z M-87.5,252.1v5.2h7.4v22.5
	h5.5v-22.5h7.5v-5.2C-67.1,252.1-87.5,252.1-87.5,252.1z"/>
</svg>
