<svg xmlns="http://www.w3.org/2000/svg" xmlns:xlink="http://www.w3.org/1999/xlink" preserveAspectRatio="xMidYMid" width="26" height="19" viewBox="0 0 26 19">
  <defs>
    <style>
      .cls-1 {
        fill: #666;
        fill-rule: evenodd;
      }
    </style>
  </defs>
  <path d="M22.000,19.000 L4.000,19.000 C1.791,19.000 0.000,17.209 0.000,15.000 L0.000,4.000 C0.000,1.791 1.791,-0.000 4.000,-0.000 L22.000,-0.000 C24.209,-0.000 26.000,1.791 26.000,4.000 L26.000,15.000 C26.000,17.209 24.209,19.000 22.000,19.000 ZM2.000,4.000 L2.000,15.000 C2.000,16.105 2.895,17.000 4.000,17.000 L22.000,17.000 C23.105,17.000 24.000,16.105 24.000,15.000 L24.000,4.000 C24.000,3.794 23.960,3.599 23.902,3.412 L14.414,12.900 L14.414,12.900 L13.000,14.314 L11.586,12.900 L11.586,12.899 L2.098,3.412 C2.040,3.599 2.000,3.794 2.000,4.000 ZM4.000,2.000 C3.850,2.000 3.706,2.019 3.565,2.050 L13.000,11.485 L22.435,2.050 C22.294,2.019 22.150,2.000 22.000,2.000 L4.000,2.000 Z" class="cls-1"/>
</svg>
