<svg xmlns="http://www.w3.org/2000/svg" xmlns:xlink="http://www.w3.org/1999/xlink" preserveAspectRatio="xMidYMid" width="30" height="30" viewBox="0 0 30 30">
  <defs>
    <style>
      .cls-1 {
        fill: #fff;
        fill-rule: evenodd;
      }
    </style>
  </defs>
  <path d="M15.000,30.000 C6.716,30.000 -0.000,23.284 -0.000,15.000 C-0.000,6.716 6.716,0.000 15.000,0.000 C23.284,0.000 30.000,6.716 30.000,15.000 C30.000,23.284 23.284,30.000 15.000,30.000 ZM15.000,2.000 C7.820,2.000 2.000,7.820 2.000,15.000 C2.000,22.180 7.820,28.000 15.000,28.000 C22.180,28.000 28.000,22.180 28.000,15.000 C28.000,7.820 22.180,2.000 15.000,2.000 ZM16.000,23.000 L14.000,23.000 L14.000,22.414 L8.343,16.757 L9.757,15.343 L14.000,19.586 L14.000,7.000 L16.000,7.000 L16.000,19.586 L20.243,15.343 L21.657,16.757 L16.000,22.414 L16.000,23.000 Z" class="cls-1"/>
</svg>
