<svg xmlns="http://www.w3.org/2000/svg" xmlns:xlink="http://www.w3.org/1999/xlink" preserveAspectRatio="xMidYMid" width="30" height="30" viewBox="0 0 30 30">
  <defs>
    <style>
      .cls-1 {
        fill: #fff;
        fill-rule: evenodd;
      }
    </style>
  </defs>
  <path d="M28.376,30.000 L17.836,30.000 C16.942,30.000 16.214,29.272 16.214,28.379 L16.214,17.838 C16.214,16.944 16.942,16.216 17.836,16.216 L28.376,16.216 C29.270,16.216 29.998,16.944 29.998,17.838 L29.998,28.379 C29.998,29.272 29.270,30.000 28.376,30.000 ZM17.836,17.838 L17.836,28.379 L28.378,28.379 L28.376,17.838 L17.836,17.838 ZM12.160,30.000 L1.620,30.000 C0.725,30.000 -0.002,29.272 -0.002,28.379 L-0.002,17.838 C-0.002,16.944 0.725,16.216 1.620,16.216 L12.160,16.216 C13.055,16.216 13.782,16.944 13.782,17.838 L13.782,28.379 C13.782,29.272 13.055,30.000 12.160,30.000 ZM1.620,17.838 L1.620,28.379 L12.161,28.379 L12.160,17.838 L1.620,17.838 ZM28.376,13.784 L17.836,13.784 C16.942,13.784 16.214,13.057 16.214,12.162 L16.214,1.622 C16.214,0.727 16.942,0.000 17.836,0.000 L28.376,0.000 C29.270,0.000 29.998,0.727 29.998,1.622 L29.998,12.162 C29.998,13.057 29.270,13.784 28.376,13.784 ZM17.836,1.622 L17.836,12.162 L28.378,12.162 L28.376,1.622 L17.836,1.622 ZM12.160,13.784 L1.620,13.784 C0.725,13.784 -0.002,13.057 -0.002,12.162 L-0.002,1.622 C-0.002,0.727 0.725,0.000 1.620,0.000 L12.160,0.000 C13.055,0.000 13.782,0.727 13.782,1.622 L13.782,12.162 C13.782,13.057 13.055,13.784 12.160,13.784 ZM1.620,1.622 L1.620,12.162 L12.161,12.162 L12.160,1.622 L1.620,1.622 Z" class="cls-1"/>
</svg>
