<svg width="32" height="32" viewBox="0 0 32 32" fill="none" xmlns="http://www.w3.org/2000/svg">
<path d="M14.7081 4.39903L12.5 6.67154L10.9249 5.14184L15.9211 0L21.0641 4.99493L19.5341 6.56962L17.261 4.36204L17.3401 10.1319L14.7963 10.1688L14.7081 4.39903Z" fill="white"/>
<path d="M14.7081 27.601L12.5 25.3285L10.9249 26.8582L15.9211 32L21.0641 27.0051L19.5341 25.4304L17.261 27.638L17.3401 21.8681L14.7963 21.8312L14.7081 27.601Z" fill="white"/>
<path d="M27.5713 14.6687L25.2443 12.518L26.735 10.906L32 15.7723L27.1326 21.036L25.5201 19.5457L27.6714 17.2193L21.9038 17.441L21.8041 14.8995L27.5713 14.6687Z" fill="white"/>
<path d="M4.42872 14.6687L6.75567 12.518L5.26501 10.906L0 15.7723L4.86744 21.036L6.47985 19.5457L4.32862 17.2193L10.0962 17.441L10.1959 14.8995L4.42872 14.6687Z" fill="white"/>
</svg>
