<svg xmlns="http://www.w3.org/2000/svg" xmlns:xlink="http://www.w3.org/1999/xlink" preserveAspectRatio="xMidYMid" width="20" height="23" viewBox="0 0 20 23">
  <defs>
    <style>
      .cls-1 {
        fill: #666;
        fill-rule: evenodd;
      }
    </style>
  </defs>
  <path d="M20.000,18.000 C20.000,18.000 19.877,20.000 17.000,20.000 L13.859,20.000 C13.412,21.722 11.862,23.000 10.000,23.000 C8.138,23.000 6.588,21.722 6.142,20.000 L3.000,20.000 C0.123,20.000 0.000,18.000 0.000,18.000 C0.000,15.437 0.866,14.346 2.000,13.000 C3.134,11.654 3.000,10.000 3.000,10.000 L3.000,7.000 C3.000,0.606 10.000,0.000 10.000,0.000 C10.000,0.000 17.000,0.606 17.000,7.000 L17.000,10.000 C17.000,10.000 16.866,11.654 18.000,13.000 C19.134,14.346 20.000,15.437 20.000,18.000 ZM10.000,21.000 C10.738,21.000 11.376,20.595 11.723,20.000 L10.000,20.000 L8.277,20.000 C8.624,20.595 9.262,21.000 10.000,21.000 ZM17.500,15.833 C17.021,15.005 15.074,13.061 15.000,10.833 C14.926,8.605 15.000,6.667 15.000,6.667 C15.000,6.667 15.198,1.667 10.000,1.667 C4.802,1.667 5.000,6.667 5.000,6.667 C5.000,6.667 5.074,8.605 5.000,10.833 C4.926,13.061 2.979,15.005 2.500,15.833 C1.438,17.671 2.500,18.333 2.500,18.333 L17.500,18.333 C17.500,18.333 18.562,17.671 17.500,15.833 Z" class="cls-1"/>
</svg>
