<?xml version="1.0" encoding="utf-8"?>
<!-- Generator: Adobe Illustrator 19.0.1, SVG Export Plug-In . SVG Version: 6.00 Build 0)  -->
<svg version="1.1" id="Layer_1_1_" xmlns="http://www.w3.org/2000/svg" xmlns:xlink="http://www.w3.org/1999/xlink" x="0px" y="0px"
	 viewBox="-471 273 16 16" style="enable-background:new -471 273 16 16;" xml:space="preserve">
<style type="text/css">
	.st0{fill:#636463;}
</style>
<path class="st0" d="M-470,282c0,3.9,3.1,7,7,7s7-3.1,7-7s-3.1-7-7-7S-470,278.1-470,282z M-463,276c3.3,0,6,2.7,6,6s-2.7,6-6,6
	s-6-2.7-6-6S-466.3,276-463,276z"/>
<rect x="-465" y="273" class="st0" width="4" height="1"/>
<rect x="-457.5" y="274.5" transform="matrix(-0.7071 0.7071 -0.7071 -0.7071 -585.3395 793.4563)" class="st0" width="1" height="2"/>
<path class="st0" d="M-463,277v5h5C-458,279.2-460.2,277-463,277z"/>
</svg>
