<svg xmlns="http://www.w3.org/2000/svg" xmlns:xlink="http://www.w3.org/1999/xlink" preserveAspectRatio="xMidYMid" width="30.063" height="22" viewBox="0 0 30.063 22">
  <defs>
    <style>
      .cls-1 {
        fill: #fff;
        fill-rule: evenodd;
      }
    </style>
  </defs>
  <path d="M28.955,17.965 C29.835,18.577 30.229,19.544 29.961,20.427 C29.729,21.190 28.914,22.006 27.322,22.006 L2.740,22.006 C1.149,22.006 0.334,21.190 0.102,20.427 C-0.167,19.544 0.227,18.577 1.107,17.965 C2.476,17.012 12.877,10.576 14.461,9.596 L14.461,7.088 C14.461,6.768 14.716,6.508 15.031,6.508 C16.483,6.508 17.664,5.307 17.664,3.831 C17.664,2.355 16.483,1.154 15.031,1.154 C13.581,1.154 12.400,2.355 12.400,3.831 C12.400,4.059 12.428,4.288 12.485,4.510 C12.564,4.820 12.380,5.136 12.075,5.216 C11.770,5.296 11.460,5.110 11.381,4.799 C11.300,4.483 11.260,4.157 11.260,3.831 C11.260,1.715 12.952,-0.006 15.031,-0.006 C17.111,-0.006 18.804,1.715 18.804,3.831 C18.804,5.749 17.412,7.344 15.601,7.624 L15.601,9.596 C17.483,10.760 27.612,17.030 28.955,17.965 ZM1.191,20.084 C1.334,20.554 1.928,20.846 2.740,20.846 L27.322,20.846 C28.135,20.846 28.728,20.554 28.871,20.084 C28.991,19.691 28.777,19.246 28.312,18.922 C26.998,18.008 16.984,11.809 15.034,10.603 C13.329,11.654 3.066,18.007 1.751,18.922 C1.286,19.246 1.071,19.691 1.191,20.084 Z" class="cls-1"/>
</svg>
