<?xml version="1.0" encoding="utf-8"?>
<svg version="1.1"  xmlns="http://www.w3.org/2000/svg" xmlns:xlink="http://www.w3.org/1999/xlink" x="0px" y="0px"
	 width="30px" height="30px" viewBox="0 0 30 30" xml:space="preserve">
<style type="text/css">
	.st0{clip-path:url(#SVGID_2_);fill:#000;}
	.st1{clip-path:url(#SVGID_4_);fill:#000;}
</style>
<g>
	<defs>
		<path id="SVGID_1_" d="M9.5,23.4c0.1,0,0.2,0,0.3,0.1c0.9,0.5,1.8,0.9,2.8,1.2c0.3,0.1,0.5,0.3,0.5,0.6v2.8c0,0.3,0.3,0.6,0.6,0.6
			h2.5c0.3,0,0.6-0.3,0.6-0.6v-2.8c0-0.3,0.2-0.5,0.5-0.6c1-0.2,2-0.6,2.8-1.2c0.2-0.2,0.6-0.1,0.8,0.1l2,2c0.2,0.2,0.6,0.2,0.9,0
			l1.8-1.8c0.2-0.2,0.2-0.6,0-0.9l-2-2c-0.2-0.2-0.2-0.5-0.1-0.8c0.5-0.9,0.9-1.8,1.2-2.8c0.1-0.3,0.3-0.5,0.6-0.5h2.8
			c0.2,0,0.3-0.1,0.4-0.2c0.1-0.1,0.2-0.3,0.2-0.4v-2.5c0-0.3-0.3-0.6-0.6-0.6h-2.8c-0.3,0-0.5-0.2-0.6-0.5c-0.2-1-0.6-2-1.2-2.8
			c-0.2-0.2-0.1-0.6,0.1-0.8l2-2c0.1-0.1,0.2-0.3,0.2-0.4s-0.1-0.3-0.2-0.4l-1.8-1.8c-0.2-0.2-0.6-0.2-0.9,0l-2,2
			c-0.2,0.2-0.5,0.2-0.8,0.1c-0.9-0.5-1.8-0.9-2.8-1.2c-0.3-0.1-0.5-0.3-0.5-0.6V1.9c0-0.3-0.3-0.6-0.6-0.6h-2.5
			c-0.3,0-0.6,0.3-0.6,0.6v2.8c0,0.3-0.2,0.5-0.5,0.6c-1,0.2-2,0.6-2.8,1.2C9.6,6.6,9.2,6.6,9,6.4l-2-2c-0.2-0.2-0.6-0.2-0.9,0
			L4.4,6.2C4.2,6.4,4.2,6.8,4.4,7l2,2c0.2,0.2,0.2,0.5,0.1,0.8c-0.5,0.9-0.9,1.8-1.2,2.8c-0.1,0.3-0.3,0.5-0.6,0.5H1.9
			c-0.2,0-0.3,0.1-0.4,0.2c-0.1,0.1-0.2,0.3-0.2,0.4v2.5c0,0.3,0.3,0.6,0.6,0.6h2.8c0.3,0,0.5,0.2,0.6,0.5c0.2,1,0.6,2,1.2,2.8
			c0.2,0.2,0.1,0.6-0.1,0.8l-2,2c-0.1,0.1-0.2,0.3-0.2,0.4c0,0.2,0.1,0.3,0.2,0.4l1.8,1.8c0.2,0.2,0.6,0.2,0.9,0l2-2
			C9.2,23.5,9.3,23.4,9.5,23.4z M16.3,30h-2.5c-1,0-1.9-0.8-1.9-1.9v-2.3c-0.8-0.2-1.6-0.6-2.3-1l-1.6,1.6c-0.7,0.7-1.9,0.7-2.7,0
			l-1.8-1.8C3.2,24.4,3,23.9,3,23.4c0-0.5,0.2-1,0.5-1.3l1.6-1.6c-0.4-0.7-0.7-1.5-1-2.3H1.9c-1,0-1.9-0.8-1.9-1.9v-2.5
			c0-0.5,0.2-1,0.5-1.3c0.4-0.4,0.8-0.5,1.3-0.5h2.3c0.2-0.8,0.6-1.6,1-2.3L3.5,7.9C2.8,7.2,2.8,6,3.5,5.3l1.8-1.8
			c0.7-0.7,1.9-0.7,2.7,0l1.6,1.6c0.7-0.4,1.5-0.7,2.3-1V1.9c0-1,0.8-1.9,1.9-1.9h2.5c1,0,1.9,0.8,1.9,1.9v2.3
			c0.8,0.2,1.6,0.6,2.3,1l1.6-1.6c0.7-0.7,1.9-0.7,2.7,0l1.8,1.8C26.8,5.6,27,6.1,27,6.6s-0.2,1-0.5,1.3l-1.6,1.6
			c0.4,0.7,0.7,1.5,1,2.3h2.3c1,0,1.9,0.8,1.9,1.9v2.5c0,0.5-0.2,1-0.5,1.3c-0.4,0.4-0.8,0.5-1.3,0.5h-2.3c-0.2,0.8-0.6,1.6-1,2.3
			l1.6,1.6c0.7,0.7,0.7,1.9,0,2.7l-1.8,1.8c-0.7,0.7-1.9,0.7-2.7,0l-1.6-1.6c-0.7,0.4-1.5,0.7-2.3,1v2.3C18.1,29.2,17.3,30,16.3,30z
			"/>
	</defs>
	<clipPath id="SVGID_2_">
		<use xlink:href="#SVGID_1_"  style="overflow:visible;"/>
	</clipPath>
	<rect x="-3.1" y="-3.1" class="st0" width="36.3" height="36.3"/>
</g>
<g>
	<defs>
		<path id="SVGID_3_" d="M15,10c-2.8,0-5,2.2-5,5s2.2,5,5,5s5-2.2,5-5S17.8,10,15,10z M15,21.3c-3.4,0-6.3-2.8-6.3-6.3
			s2.8-6.3,6.3-6.3s6.3,2.8,6.3,6.3S18.4,21.3,15,21.3z"/>
	</defs>
	<clipPath id="SVGID_4_">
		<use xlink:href="#SVGID_3_"  style="overflow:visible;"/>
	</clipPath>
	<rect x="5.6" y="5.6" class="st1" width="18.8" height="18.8"/>
</g>
</svg>
