<svg xmlns="http://www.w3.org/2000/svg" xmlns:xlink="http://www.w3.org/1999/xlink" preserveAspectRatio="xMidYMid" width="30" height="30" viewBox="0 0 30 30">
  <defs>
    <style>
      .cls-1 {
        fill: #fff;
        fill-rule: evenodd;
      }
    </style>
  </defs>
  <path d="M29.993,8.508 C29.934,9.595 29.378,10.543 28.559,11.161 L28.559,28.565 L29.279,28.566 C29.672,28.566 29.991,28.885 29.991,29.279 C29.991,29.672 29.672,29.992 29.279,29.992 L18.913,29.981 L2.181,29.981 C2.152,29.981 2.127,29.968 2.099,29.965 L0.715,29.963 C0.322,29.963 0.002,29.644 0.002,29.250 C0.002,28.857 0.322,28.538 0.715,28.538 L1.469,28.539 L1.469,11.146 C0.635,10.508 0.078,9.524 0.050,8.403 C0.047,8.376 0.045,8.349 0.045,8.321 L0.045,6.548 L0.065,6.489 C0.067,5.762 0.307,5.091 0.710,4.549 L0.725,4.504 L3.974,0.280 C4.111,0.102 4.323,-0.002 4.547,-0.002 L26.172,-0.002 C26.423,-0.002 26.656,0.127 26.787,0.341 L29.304,4.410 C29.725,4.961 29.978,5.647 29.978,6.393 C29.978,6.418 29.969,6.441 29.968,6.466 C29.969,6.689 29.974,7.617 29.993,8.508 ZM10.739,28.540 L10.739,14.959 L5.745,14.959 L5.745,28.540 L10.739,28.540 ZM2.894,28.540 L4.319,28.541 L4.319,14.246 C4.319,13.852 4.638,13.533 5.032,13.533 L11.452,13.533 C11.846,13.533 12.165,13.852 12.165,14.246 L12.165,28.549 L18.913,28.556 L27.133,28.556 L27.133,11.817 C26.903,11.865 26.664,11.891 26.420,11.891 C25.278,11.891 24.247,11.350 23.588,10.499 C22.929,11.350 21.898,11.891 20.757,11.891 C19.593,11.891 18.556,11.331 17.902,10.466 C17.247,11.331 16.210,11.891 15.047,11.891 C13.883,11.891 12.846,11.331 12.192,10.466 C11.537,11.331 10.500,11.891 9.337,11.891 C8.173,11.891 7.136,11.331 6.482,10.466 C5.827,11.331 4.790,11.891 3.627,11.891 C3.376,11.891 3.131,11.863 2.894,11.813 L2.894,28.540 ZM28.540,5.926 L25.769,1.445 L4.904,1.445 L1.492,5.880 L1.492,8.250 C1.494,8.272 1.496,8.296 1.496,8.319 C1.499,9.491 2.455,10.444 3.627,10.444 C4.798,10.444 5.754,9.491 5.758,8.319 C5.759,7.920 6.083,7.598 6.481,7.598 C6.880,7.598 7.204,7.920 7.205,8.319 C7.205,8.321 7.205,8.322 7.205,8.324 L7.206,8.324 C7.206,8.335 7.206,8.345 7.205,8.356 C7.229,9.511 8.178,10.444 9.337,10.444 C10.508,10.444 11.464,9.491 11.468,8.319 C11.469,7.920 11.792,7.598 12.191,7.598 C12.590,7.598 12.914,7.920 12.915,8.319 C12.915,8.321 12.915,8.322 12.915,8.324 L12.916,8.324 C12.916,8.335 12.916,8.345 12.915,8.356 C12.939,9.511 13.887,10.444 15.047,10.444 C16.218,10.444 17.174,9.491 17.178,8.319 C17.179,7.920 17.502,7.598 17.901,7.598 C18.300,7.598 18.624,7.920 18.625,8.319 C18.625,8.321 18.625,8.322 18.625,8.324 L18.626,8.324 C18.626,8.335 18.626,8.345 18.625,8.356 C18.649,9.511 19.597,10.444 20.757,10.444 C21.828,10.444 22.798,9.407 22.932,8.345 C22.977,7.983 23.284,7.711 23.649,7.711 C24.014,7.711 24.322,7.983 24.367,8.345 C24.500,9.407 25.348,10.444 26.420,10.444 C27.591,10.444 28.547,9.491 28.551,8.319 C28.551,8.294 28.552,8.269 28.555,8.244 L28.540,5.926 ZM26.127,6.429 L4.230,6.400 C3.837,6.400 3.518,6.081 3.518,5.688 C3.518,5.294 3.837,4.975 4.230,4.975 L26.127,5.003 C26.520,5.003 26.840,5.322 26.840,5.716 C26.840,6.110 26.520,6.429 26.127,6.429 ZM14.306,13.533 L24.995,13.533 C25.389,13.533 25.708,13.852 25.708,14.246 L25.708,26.402 C25.708,26.796 25.389,27.115 24.995,27.115 L14.306,27.115 C13.912,27.115 13.593,26.796 13.593,26.402 L13.593,14.246 C13.593,13.852 13.912,13.533 14.306,13.533 ZM15.019,25.689 L24.283,25.689 L24.283,14.959 L15.019,14.959 L15.019,25.689 ZM9.192,19.288 C9.746,19.288 10.196,19.738 10.196,20.292 C10.196,20.847 9.746,21.296 9.192,21.296 C8.638,21.296 8.188,20.847 8.188,20.292 C8.188,19.738 8.638,19.288 9.192,19.288 Z" class="cls-1"/>
</svg>
