<svg xmlns="http://www.w3.org/2000/svg" xmlns:xlink="http://www.w3.org/1999/xlink" preserveAspectRatio="xMidYMid" width="24" height="24" viewBox="0 0 24 24">
  <defs>
    <style>
      .cls-1 {
        fill: #666;
        fill-rule: evenodd;
      }
    </style>
  </defs>
  <path d="M18.971,21.755 C18.975,21.838 19.000,21.916 19.000,22.000 L18.628,22.000 C16.728,23.262 14.451,24.000 12.000,24.000 C9.549,24.000 7.272,23.262 5.372,22.000 L5.000,22.000 C5.000,21.916 5.025,21.838 5.029,21.755 C1.988,19.578 -0.000,16.025 -0.000,12.000 C-0.000,5.373 5.373,0.000 12.000,0.000 C18.627,0.000 24.000,5.373 24.000,12.000 C24.000,16.025 22.012,19.578 18.971,21.755 ZM12.000,22.000 C13.776,22.000 15.441,21.532 16.887,20.720 C16.244,18.919 14.312,17.600 12.000,17.600 C9.688,17.600 7.756,18.919 7.113,20.720 C8.559,21.532 10.224,22.000 12.000,22.000 ZM12.000,2.000 C6.477,2.000 2.000,6.477 2.000,12.000 C2.000,15.069 3.385,17.812 5.562,19.646 C6.630,17.503 9.109,16.000 12.000,16.000 C14.891,16.000 17.370,17.503 18.438,19.646 C20.614,17.812 22.000,15.069 22.000,12.000 C22.000,6.477 17.523,2.000 12.000,2.000 ZM12.000,15.000 C9.239,15.000 7.000,12.761 7.000,10.000 C7.000,7.239 9.239,5.000 12.000,5.000 C14.761,5.000 17.000,7.239 17.000,10.000 C17.000,12.761 14.761,15.000 12.000,15.000 ZM12.000,7.000 C10.343,7.000 9.000,8.343 9.000,10.000 C9.000,11.657 10.343,13.000 12.000,13.000 C13.657,13.000 15.000,11.657 15.000,10.000 C15.000,8.343 13.657,7.000 12.000,7.000 Z" class="cls-1"/>
</svg>
