<svg xmlns="http://www.w3.org/2000/svg" xmlns:xlink="http://www.w3.org/1999/xlink" preserveAspectRatio="xMidYMid" width="34.281" height="22.281" viewBox="0 0 34.281 22.281">
  <defs>
    <style>
      .cls-1 {
        fill: #000;
        fill-rule: evenodd;
      }
    </style>
  </defs>
  <path d="M34.066,11.620 C25.860,22.001 19.516,22.200 17.126,22.275 C17.026,22.278 16.919,22.280 16.807,22.280 C13.831,22.280 7.717,20.902 0.204,11.668 C-0.107,11.285 -0.088,10.911 0.220,10.599 C7.717,1.386 13.830,0.008 16.805,0.008 C16.918,0.008 17.025,0.009 17.126,0.013 C19.518,0.087 25.865,0.283 34.083,10.686 C34.145,10.752 34.193,10.828 34.224,10.908 C34.263,11.005 34.279,11.112 34.266,11.222 C34.248,11.378 34.175,11.517 34.066,11.620 ZM17.082,1.340 C16.994,1.338 16.902,1.336 16.805,1.336 C14.108,1.336 8.560,2.619 1.522,11.143 C8.561,19.669 14.109,20.951 16.807,20.951 C16.904,20.951 16.995,20.950 17.082,20.947 C19.271,20.879 25.037,20.697 32.718,11.143 C25.035,1.588 19.271,1.408 17.082,1.340 ZM17.298,17.519 C13.684,17.519 10.743,14.659 10.743,11.143 C10.743,7.629 13.684,4.769 17.298,4.769 C20.913,4.769 23.853,7.629 23.853,11.143 C23.853,14.659 20.913,17.519 17.298,17.519 ZM17.298,6.098 C14.437,6.098 12.109,8.361 12.109,11.143 C12.109,13.926 14.437,16.190 17.298,16.190 C20.159,16.190 22.487,13.926 22.487,11.143 C22.487,8.361 20.159,6.098 17.298,6.098 ZM15.401,9.956 C14.709,9.956 14.148,9.410 14.148,8.737 C14.148,8.064 14.709,7.518 15.401,7.518 C16.094,7.518 16.654,8.064 16.654,8.737 C16.654,9.410 16.094,9.956 15.401,9.956 Z" class="cls-1"/>
</svg>
