<svg xmlns="http://www.w3.org/2000/svg" xmlns:xlink="http://www.w3.org/1999/xlink" preserveAspectRatio="xMidYMid" width="24" height="29.969" viewBox="0 0 24 29.969">
  <defs>
    <style>
      .cls-1 {
        fill: #fff;
        fill-rule: evenodd;
      }
    </style>
  </defs>
  <path d="M23.112,16.649 C22.057,19.085 20.180,20.996 17.798,22.109 L18.479,23.835 C18.544,23.999 18.541,24.182 18.471,24.344 C18.401,24.505 18.269,24.633 18.106,24.698 C16.606,25.292 15.041,25.593 13.476,25.622 L13.476,28.647 L18.075,28.647 C18.442,28.647 18.740,28.945 18.740,29.313 C18.740,29.680 18.442,29.978 18.075,29.978 L7.549,29.978 C7.182,29.978 6.884,29.680 6.884,29.313 C6.884,28.945 7.182,28.647 7.549,28.647 L12.147,28.647 L12.147,25.577 C10.726,25.458 9.317,25.116 7.970,24.531 C4.724,23.122 2.221,20.531 0.921,17.236 C-1.762,10.434 1.581,2.715 8.373,0.028 C8.714,-0.107 9.100,0.060 9.235,0.402 L9.915,2.125 C10.992,1.773 12.105,1.585 13.236,1.585 C17.683,1.585 21.612,4.261 23.247,8.403 C24.303,11.080 24.255,14.008 23.112,16.649 ZM18.555,17.642 C18.603,16.892 18.569,16.083 18.459,15.238 C17.351,15.905 16.128,16.528 14.836,17.039 C13.843,17.432 12.876,17.741 11.947,17.988 C13.479,20.072 15.129,21.173 16.301,21.173 C16.495,21.173 16.679,21.138 16.853,21.079 C16.934,21.046 17.013,21.006 17.093,20.971 C17.915,20.531 18.447,19.340 18.555,17.642 ZM7.375,4.968 C5.242,6.666 3.959,9.215 3.824,11.906 C4.792,12.026 6.089,11.919 7.570,11.613 C6.925,9.049 6.872,6.699 7.375,4.968 ZM4.638,13.292 C4.363,13.292 4.104,13.279 3.856,13.257 C3.938,14.121 4.133,14.987 4.467,15.833 C4.665,16.335 4.908,16.805 5.179,17.255 C5.234,17.253 5.289,17.246 5.345,17.258 C6.291,17.472 7.884,17.450 9.800,17.104 C9.297,16.232 8.830,15.287 8.428,14.266 C8.246,13.806 8.084,13.350 7.939,12.896 C6.723,13.152 5.598,13.292 4.638,13.292 ZM6.268,18.701 C8.018,20.640 10.509,21.811 13.240,21.811 C13.492,21.811 13.741,21.795 13.990,21.775 C12.806,21.069 11.624,19.865 10.564,18.319 C9.187,18.602 7.938,18.729 6.899,18.729 C6.672,18.729 6.475,18.713 6.268,18.701 ZM9.663,13.778 C10.113,14.917 10.623,15.928 11.161,16.814 C12.174,16.565 13.243,16.239 14.349,15.802 C15.716,15.261 17.035,14.565 18.206,13.825 C17.987,12.825 17.677,11.795 17.272,10.767 C17.100,10.331 16.917,9.920 16.730,9.521 C15.545,10.199 14.179,10.855 12.677,11.449 C11.502,11.914 10.343,12.294 9.238,12.589 C9.366,12.980 9.504,13.375 9.663,13.778 ZM8.250,1.527 C2.553,4.153 -0.175,10.836 2.157,16.748 C3.326,19.712 5.579,22.043 8.499,23.311 C11.215,24.491 14.206,24.619 16.993,23.688 L16.563,22.600 C15.486,22.952 14.373,23.141 13.240,23.141 C8.794,23.141 4.865,20.464 3.231,16.322 C1.134,11.004 3.577,5.008 8.681,2.616 L8.250,1.527 ZM10.216,3.427 C10.124,3.458 10.031,3.487 9.940,3.522 C8.447,4.192 7.832,7.281 8.863,11.306 C9.931,11.023 11.053,10.662 12.189,10.212 C13.730,9.602 15.033,8.960 16.125,8.329 C14.327,5.093 12.104,3.371 10.635,3.371 C10.489,3.371 10.351,3.394 10.216,3.427 ZM13.236,2.915 C13.220,2.915 13.205,2.918 13.189,2.918 C14.632,3.859 16.061,5.517 17.249,7.634 C18.461,6.825 19.272,6.070 19.681,5.457 C17.973,3.854 15.697,2.915 13.236,2.915 ZM22.011,8.892 C21.659,7.998 21.181,7.184 20.608,6.461 C20.018,7.227 19.076,8.033 17.868,8.825 C18.093,9.294 18.309,9.776 18.508,10.279 C18.870,11.197 19.162,12.121 19.386,13.029 C20.863,11.964 21.961,10.890 22.389,10.105 C22.288,9.697 22.169,9.290 22.011,8.892 ZM19.679,14.452 C19.872,15.605 19.946,16.714 19.881,17.727 C19.845,18.292 19.765,18.811 19.650,19.287 C20.596,18.409 21.364,17.341 21.892,16.120 C22.472,14.781 22.720,13.357 22.656,11.941 C21.932,12.733 20.909,13.608 19.679,14.452 Z" class="cls-1"/>
</svg>
