<?xml version="1.0" ?><svg id="Layer_1" style="enable-background:new 0 0 512 512;" version="1.1" viewBox="0 0 512 512" xml:space="preserve" xmlns="http://www.w3.org/2000/svg" xmlns:xlink="http://www.w3.org/1999/xlink"><g><path d="M56.1,356.1V122.5h399.8v233.6h26.9V117.9c0-12.3-10-22.3-22.3-22.3h-409c-12.3,0-22.3,10-22.3,22.3v238.2   H56.1z" id="XMLID_5_"/><path d="M6,369.5v22c0,13.8,11.2,24.9,24.9,24.9h450.2c13.8,0,24.9-11.2,24.9-24.9v-22H6z M72.6,402.8c-5.4,0-9.9-4.4-9.9-9.9   c0-5.4,4.4-9.9,9.9-9.9c5.4,0,9.9,4.4,9.9,9.9C82.4,398.4,78,402.8,72.6,402.8z M99.1,402.8c-5.4,0-9.9-4.4-9.9-9.9   c0-5.4,4.4-9.9,9.9-9.9c5.4,0,9.9,4.4,9.9,9.9C109,398.4,104.6,402.8,99.1,402.8z M125.7,402.8c-5.4,0-9.9-4.4-9.9-9.9   c0-5.4,4.4-9.9,9.9-9.9c5.4,0,9.9,4.4,9.9,9.9C135.5,398.4,131.1,402.8,125.7,402.8z"/></g></svg>