<svg width="56" height="56" viewBox="0 0 56 56" fill="none" xmlns="http://www.w3.org/2000/svg">
<path d="M0 6.4C0 2.86538 2.86538 0 6.4 0H19.2C22.7346 0 25.6 2.86538 25.6 6.4V19.2C25.6 22.7346 22.7346 25.6 19.2 25.6H6.4C2.86538 25.6 0 22.7346 0 19.2V6.4Z" fill="#D3D5DB"/>
<path d="M0 36.8C0 33.2654 2.86538 30.4 6.4 30.4H19.2C22.7346 30.4 25.6 33.2654 25.6 36.8V49.6C25.6 53.1346 22.7346 56 19.2 56H6.4C2.86538 56 0 53.1346 0 49.6V36.8Z" fill="#D3D5DB"/>
<path d="M30.4 6.4C30.4 2.86538 33.2654 0 36.8 0H49.6C53.1346 0 56 2.86538 56 6.4V19.2C56 22.7346 53.1346 25.6 49.6 25.6H36.8C33.2654 25.6 30.4 22.7346 30.4 19.2V6.4Z" fill="#D3D5DB"/>
<path d="M30.4 36.8C30.4 33.2654 33.2654 30.4 36.8 30.4H49.6C53.1346 30.4 56 33.2654 56 36.8V49.6C56 53.1346 53.1346 56 49.6 56H36.8C33.2654 56 30.4 53.1346 30.4 49.6V36.8Z" fill="#D3D5DB"/>
</svg>
