<svg width="160" height="160" viewBox="0 0 160 160" fill="none" xmlns="http://www.w3.org/2000/svg">
<g clip-path="url(#clip0)">
<path d="M135.113 156.404C139.263 156.404 142.628 153.039 142.628 148.889C142.628 144.738 139.263 141.373 135.113 141.373C130.962 141.373 127.597 144.738 127.597 148.889C127.597 153.039 130.962 156.404 135.113 156.404Z" fill="#247CFF"/>
<path d="M49.9411 156.404C54.0918 156.404 57.4567 153.039 57.4567 148.889C57.4567 144.738 54.0918 141.373 49.9411 141.373C45.7903 141.373 42.4254 144.738 42.4254 148.889C42.4254 153.039 45.7903 156.404 49.9411 156.404Z" fill="#247CFF"/>
<path d="M17.5889 25.9263L3.81142 12.1485C1.85485 10.1919 1.85485 7.01969 3.81142 5.06313C5.76799 3.10656 8.94018 3.10656 10.8967 5.06313L24.6746 18.841C26.6312 20.7975 26.6312 23.9697 24.6746 25.9263C22.718 27.8829 19.5455 27.8829 17.5889 25.9263Z" fill="#247CFF"/>
<path d="M37.1078 32.7672C35.8699 32.6547 34.9112 33.8307 35.2706 35.0207L52.3084 91.4392C52.625 92.4877 53.609 93.2202 54.7012 93.2202C54.7637 93.2202 54.8265 93.218 54.8897 93.2133L142.056 86.8352C142.886 86.7745 143.559 86.1386 143.667 85.313L148.958 44.7488C149.086 43.762 148.369 42.8657 147.377 42.7757L37.1078 32.7672Z" fill="#AFE2FF"/>
<path d="M159.486 34.6964C159.088 34.1989 158.503 33.8848 157.868 33.8273L28.4676 22.0826C28.3951 20.3014 27.6885 18.541 26.3316 17.1842L12.5538 3.40602C11.165 2.01727 9.31814 1.25195 7.35376 1.25195C5.38939 1.25195 3.54282 2.01727 2.15407 3.40602C0.765002 4.79509 0 6.64196 0 8.60634C0 10.5707 0.765002 12.4173 2.15407 13.8064L15.9319 27.5839C17.3207 28.9729 19.1675 29.7379 21.1319 29.7379C21.871 29.7379 22.5935 29.6295 23.2813 29.4205L42.871 94.2884C44.4663 99.5709 49.2435 103.079 54.6804 103.079C54.9879 103.079 55.2982 103.068 55.6095 103.045L144.201 96.5625C148.847 96.2228 152.655 92.6237 153.258 88.0049L159.98 36.4648C160.063 35.8326 159.884 35.1942 159.486 34.6964ZM153.32 51.2849L136.607 50.6761L137.732 36.7064L155.017 38.2755L153.32 51.2849ZM150.692 71.4365L134.909 71.7874L136.232 55.3533L152.712 55.9536L150.692 71.4365ZM110.649 94.3175L111.11 77.0049L129.82 76.589L128.498 93.0112L110.649 94.3175ZM89.373 95.874L88.2414 77.5127L106.417 77.109L105.95 94.6612L89.373 95.874ZM69.0767 97.3593L65.4733 78.019L83.5511 77.6171L84.6974 96.2162L69.0767 97.3593ZM34.8944 51.6617L55.9376 52.4283L59.8551 73.4552L41.5985 73.8608L34.8944 51.6617ZM60.7382 52.6033L82.0577 53.3799L83.263 72.9349L64.6036 73.3496L60.7382 52.6033ZM80.7111 31.5311L81.768 48.6786L59.8582 47.8805L56.4011 29.3248L80.7111 31.5311ZM107.15 49.603L86.4749 48.8499L85.4339 31.9598L107.566 33.9686L107.15 49.603ZM112.244 34.3933L133.063 36.283L131.919 50.5055L111.834 49.7739L112.244 34.3933ZM107.025 54.2892L106.542 72.4177L87.953 72.8308L86.7649 53.5514L107.025 54.2892ZM111.234 72.3133L111.71 54.4599L131.542 55.1824L130.198 71.8921L111.234 72.3133ZM19.2463 24.2692L5.46845 10.4913C4.9647 9.98791 4.68751 9.31822 4.68751 8.60634C4.68751 7.89447 4.9647 7.22446 5.46845 6.72071C5.9722 6.21728 6.64158 5.93977 7.35376 5.93977C8.06595 5.93977 8.73533 6.21728 9.23908 6.72071L23.0169 20.4986C24.0566 21.5382 24.0566 23.2298 23.0169 24.2692C22.5132 24.7726 21.8438 25.0501 21.1316 25.0501C20.4194 25.0501 19.75 24.7729 19.2463 24.2692ZM51.551 28.8845L55.0576 47.7058L33.4619 46.9189L27.3526 26.6879L51.551 28.8845ZM55.267 98.3696C51.6545 98.6331 48.4048 96.3981 47.3582 92.9331L43.0051 78.5184L60.7251 78.1246L64.3729 97.7037L55.267 98.3696ZM143.859 91.8875L133.229 92.6653L134.531 76.4843L150.078 76.1387L148.61 87.3987C148.294 89.8212 146.296 91.709 143.859 91.8875Z" fill="#1B1B1F"/>
<path d="M142.626 133.697C143.92 133.697 144.97 132.648 144.97 131.354C144.97 130.059 143.92 129.01 142.626 129.01H45.0125C44.1003 129.01 43.2887 128.573 42.7865 127.811C42.2844 127.05 42.2022 126.132 42.5615 125.293L49.1819 109.846C49.6919 108.656 49.1406 107.278 47.9509 106.768C46.7612 106.258 45.3834 106.809 44.8734 107.999L38.2531 123.446C37.2765 125.726 37.5084 128.322 38.8731 130.392C40.2378 132.461 42.5328 133.697 45.0125 133.697H47.5959V139.314C43.2878 140.369 40.0809 144.261 40.0809 148.889C40.0809 154.325 44.5034 158.748 49.9397 158.748C55.3759 158.748 59.7985 154.325 59.7985 148.889C59.7985 144.261 56.5916 140.369 52.2834 139.314V133.697H132.767V139.314C128.459 140.369 125.252 144.261 125.252 148.889C125.252 154.325 129.675 158.748 135.111 158.748C140.547 158.748 144.97 154.325 144.97 148.889C144.97 144.261 141.763 140.369 137.455 139.314V133.697H142.626ZM55.1109 148.889C55.1109 151.74 52.7913 154.06 49.9397 154.06C47.0881 154.06 44.7684 151.74 44.7684 148.889C44.7684 146.037 47.0881 143.717 49.9397 143.717C52.7913 143.717 55.1109 146.037 55.1109 148.889ZM140.282 148.889C140.282 151.74 137.963 154.06 135.111 154.06C132.26 154.06 129.94 151.74 129.94 148.889C129.94 146.037 132.26 143.717 135.111 143.717C137.963 143.717 140.282 146.037 140.282 148.889Z" fill="black"/>
</g>
<defs>
<clipPath id="clip0">
<rect width="160" height="160" fill="white"/>
</clipPath>
</defs>
</svg>
