<svg width="64" height="64" viewBox="0 0 64 64" fill="none" xmlns="http://www.w3.org/2000/svg">
<g clip-path="url(#clip0)">
<path d="M62.7436 46.8423L41.7547 6.90486C39.8443 3.26981 36.1064 1.01172 31.9999 1.01172C27.8934 1.01172 24.1558 3.26981 22.2452 6.90486L1.25646 46.8423C-0.527833 50.2375 -0.404093 54.3853 1.57895 57.6662C3.56157 60.9488 7.17588 62.9883 11.0112 62.9883H52.9891C56.8238 62.9883 60.4381 60.949 62.4209 57.667C64.404 54.3853 64.5277 50.2375 62.7436 46.8423ZM56.9332 54.3515C56.1038 55.7244 54.5924 56.5771 52.9889 56.5771H11.011C9.40704 56.5771 7.89588 55.7244 7.06646 54.3509C6.23725 52.979 6.18575 51.2448 6.93182 49.8251L27.9208 9.88722C28.7194 8.36729 30.2827 7.4229 31.9999 7.4229C33.7171 7.4229 35.2804 8.36708 36.0791 9.88722L57.068 49.8251C57.8141 51.2448 57.7626 52.979 56.9332 54.3515Z" fill="#C61C1C"/>
<path d="M30.7821 43.0467H33.2167L35.5924 18.6543H28.4062L30.7821 43.0467Z" fill="#C61C1C"/>
<path d="M32.0004 45.3125C30.0813 45.3125 28.5273 46.8666 28.5273 48.7858C28.5273 50.703 30.0813 52.2588 32.0004 52.2588C33.9193 52.2588 35.4734 50.703 35.4734 48.7858C35.4734 46.8668 33.9195 45.3125 32.0004 45.3125Z" fill="#C61C1C"/>
</g>
<defs>
<clipPath id="clip0">
<rect width="64" height="64" fill="white"/>
</clipPath>
</defs>
</svg>
