<svg width="357" height="201" viewBox="0 0 357 201" fill="none" xmlns="http://www.w3.org/2000/svg">
<rect width="357" height="201" fill="#EAEBEE"/>
<g clip-path="url(#clip0)">
<path d="M239.693 41.2683C238.279 40.6727 236.716 40.9709 235.675 42.0869L230.59 46.8494L225.753 42.0869C224.339 40.5988 221.958 40.5988 220.544 42.0869L215.707 46.8494L210.87 42.0869C209.456 40.5988 207.075 40.5988 205.661 42.0869L200.824 46.8494L195.987 42.0869C194.573 40.5988 192.192 40.5988 190.778 42.0869L185.941 46.8494L181.104 42.0869C179.69 40.5988 177.31 40.5988 175.896 42.0869L171.059 46.8494L166.221 42.0869C164.808 40.5988 162.427 40.5988 161.013 42.0869L156.176 46.8494L151.339 42.0869C149.925 40.5988 147.544 40.5988 146.13 42.0869L141.293 46.8494L136.456 42.0869C135.042 40.5988 132.661 40.5988 131.247 42.0869L126.41 46.8494L121.325 42.0869C120.283 40.9709 118.721 40.673 117.307 41.2683C115.893 41.8636 115 43.2033 115 44.6916V156.313C115 158.396 116.637 160.033 118.721 160.033H215.707L223.148 141.43L242 133.988V44.6916C242 43.2033 241.107 41.8639 239.693 41.2683Z" fill="white"/>
<path d="M242 44.6915V133.988L223.148 141.43L215.707 160.033H178.5V40.9708C179.467 40.9708 180.435 41.3429 181.104 42.0867L185.941 46.8492L190.779 42.0867C192.192 40.5987 194.573 40.5987 195.987 42.0867L200.824 46.8492L205.661 42.0867C207.075 40.5987 209.456 40.5987 210.87 42.0867L215.707 46.8492L220.544 42.0867C221.958 40.5987 224.339 40.5987 225.753 42.0867L230.59 46.8492L235.675 42.0867C236.717 40.9708 238.279 40.6729 239.693 41.2682C241.107 41.8635 242 43.2032 242 44.6915Z" fill="#D3D5DB"/>
<path d="M242 133.988C242 134.956 241.628 135.923 240.884 136.593L218.311 158.917C217.642 159.661 216.674 160.033 215.707 160.033V137.709C215.707 135.654 217.373 133.988 219.428 133.988H242Z" fill="#84858A"/>
<path d="M178.5 145.15H133.852C131.795 145.15 130.131 143.486 130.131 141.43V96.7813C130.131 94.7247 131.795 93.0605 133.852 93.0605H178.5C180.557 93.0605 182.221 94.7247 182.221 96.7813V141.43C182.221 143.486 180.557 145.15 178.5 145.15Z" fill="#84858A"/>
<path d="M182.221 141.43V96.7813C182.221 94.7247 180.557 93.0605 178.5 93.0605V145.15C180.557 145.15 182.221 143.486 182.221 141.43Z" fill="#404147"/>
<path d="M223.148 100.502H193.383C191.326 100.502 189.662 98.8378 189.662 96.7813C189.662 94.7247 191.326 93.0605 193.383 93.0605H223.148C225.205 93.0605 226.869 94.7247 226.869 96.7813C226.869 98.8378 225.205 100.502 223.148 100.502Z" fill="#84858A"/>
<path d="M223.148 115.385H193.383C191.326 115.385 189.662 113.721 189.662 111.664C189.662 109.608 191.326 107.943 193.383 107.943H223.148C225.205 107.943 226.869 109.608 226.869 111.664C226.869 113.721 225.205 115.385 223.148 115.385Z" fill="#84858A"/>
<path d="M208.266 130.268H193.383C191.326 130.268 189.662 128.603 189.662 126.547C189.662 124.49 191.326 122.826 193.383 122.826H208.266C210.322 122.826 211.986 124.49 211.986 126.547C211.986 128.603 210.322 130.268 208.266 130.268Z" fill="#84858A"/>
<path d="M200.824 145.15H193.383C191.326 145.15 189.662 143.486 189.662 141.43C189.662 139.373 191.326 137.709 193.383 137.709H200.824C202.881 137.709 204.545 139.373 204.545 141.43C204.545 143.486 202.881 145.15 200.824 145.15Z" fill="#84858A"/>
<path d="M223.148 85.6191H133.852C131.795 85.6191 130.131 83.955 130.131 81.8984V67.0156C130.131 64.9591 131.795 63.2949 133.852 63.2949H223.148C225.205 63.2949 226.869 64.9591 226.869 67.0156V81.8984C226.869 83.955 225.205 85.6191 223.148 85.6191Z" fill="#84858A"/>
<path d="M223.148 63.2949H178.5V85.6191H223.148C225.205 85.6191 226.869 83.955 226.869 81.8984V67.0156C226.869 64.9591 225.205 63.2949 223.148 63.2949Z" fill="#404147"/>
<path d="M158.247 107C161.02 107 163.172 107.896 164.703 109.689C166.234 111.459 167 113.992 167 117.286V131H160.41V117.487C160.41 115.829 160.033 114.585 159.278 113.756C158.546 112.927 157.514 112.513 156.183 112.513C154.807 112.513 153.698 112.961 152.855 113.857C152.012 114.731 151.59 116.053 151.59 117.824V131H145V107.471H151.39V110.16C152.966 108.053 155.251 107 158.247 107Z" fill="white"/>
</g>
<defs>
<clipPath id="clip0">
<rect width="127" height="127" fill="white" transform="translate(115 37)"/>
</clipPath>
</defs>
</svg>
