<svg width="160" height="160" viewBox="0 0 160 160" fill="none" xmlns="http://www.w3.org/2000/svg">
<g clip-path="url(#clip0)">
<path d="M113.44 106.81L101.157 94.5276C109.669 84.5117 114.813 71.5503 114.813 57.406C114.812 25.752 89.0601 0 57.406 0C25.752 0 0 25.752 0 57.406C0 89.0601 25.752 114.812 57.406 114.812C71.5491 114.812 84.5117 109.668 94.5276 101.157L106.81 113.44C107.726 114.354 108.926 114.812 110.125 114.812C111.324 114.812 112.524 114.354 113.44 113.44C115.27 111.609 115.27 108.641 113.44 106.81Z" fill="#1B1B1F"/>
<path d="M101.157 94.5276C109.669 84.5117 114.813 71.5503 114.813 57.406C114.812 25.752 89.0598 0 57.4058 0C41.5793 0 27.2275 6.43799 16.832 16.8323L113.44 113.44C115.27 111.609 115.27 108.641 113.44 106.81L101.157 94.5276Z" fill="#1B1B1F"/>
<path d="M57.406 9.375C30.9216 9.375 9.375 30.9216 9.375 57.406C9.375 83.8904 30.9216 105.437 57.406 105.437C83.8904 105.437 105.437 83.8904 105.437 57.406C105.437 30.9216 83.8904 9.375 57.406 9.375Z" fill="white"/>
<path d="M57.4067 9.375C44.1646 9.375 32.1565 14.762 23.459 23.4583L91.3545 91.3538C100.052 82.6562 105.438 70.6482 105.438 57.406C105.438 30.9216 83.8911 9.375 57.4067 9.375Z" fill="#F3FBFF"/>
<path d="M140.868 160C135.979 160 131.384 158.097 127.93 154.642L102.094 128.806C99.7864 126.499 98.5156 123.43 98.5156 120.167C98.5156 116.903 99.7864 113.834 102.094 111.527L111.527 102.095C113.834 99.7864 116.903 98.5156 120.166 98.5156C123.43 98.5156 126.499 99.7864 128.806 102.095L154.641 127.93C158.097 131.384 160 135.979 160 140.865C160 151.417 151.417 160 140.868 160Z" fill="#247CFF"/>
<path d="M57.4069 58.6759C50.0509 58.6759 43.0246 62.1879 38.6068 68.0692C38.5507 68.1449 38.4957 68.2218 38.4445 68.2987C37.0077 70.4521 37.59 73.3622 39.7445 74.799C41.8307 76.1906 44.6286 75.6877 46.1068 73.6942C48.7619 70.1603 52.9855 68.0509 57.4069 68.0509C61.8319 68.0509 66.0592 70.1652 68.7155 73.7052C68.7545 73.7589 68.796 73.8102 68.8375 73.8615C68.8461 73.8725 68.8595 73.8883 68.8693 73.8993C70.527 75.8879 73.4823 76.1564 75.4708 74.4999C77.4142 72.88 77.7145 70.0212 76.1813 68.0351C71.7636 62.1745 64.7494 58.6759 57.4069 58.6759Z" fill="#1B1B1F"/>
<path fill-rule="evenodd" clip-rule="evenodd" d="M52.0527 47.3643C52.0527 49.9534 49.9543 52.0518 47.3652 52.0518C44.7761 52.0518 42.6777 49.9534 42.6777 47.3643C42.6777 44.7751 44.7761 42.6768 47.3652 42.6768C49.9543 42.6768 52.0527 44.7751 52.0527 47.3643Z" fill="#1B1B1F"/>
<path fill-rule="evenodd" clip-rule="evenodd" d="M72.1348 47.3643C72.1348 49.9534 70.0364 52.0518 67.4473 52.0518C64.8582 52.0518 62.7598 49.9534 62.7598 47.3643C62.7598 44.7751 64.8582 42.6768 67.4473 42.6768C70.0364 42.6768 72.1348 44.7751 72.1348 47.3643Z" fill="#1B1B1F"/>
<path d="M128.807 102.094C126.5 99.7864 123.431 98.5156 120.168 98.5156C116.904 98.5156 113.835 99.7864 111.528 102.094L106.812 106.81L154.392 154.39C157.855 150.925 160.001 146.141 160.001 140.865C160.001 135.979 158.098 131.384 154.643 127.93L128.807 102.094Z" fill="#247CFF"/>
</g>
<defs>
<clipPath id="clip0">
<rect width="160" height="160" fill="white"/>
</clipPath>
</defs>
</svg>
