<svg height="100" viewBox="0 0 100 100" width="100" xmlns="http://www.w3.org/2000/svg"><path d="M50 3.84C24.506 3.84 3.84 24.506 3.84 50S24.506 96.16 50 96.16 96.16 75.494 96.16 50 75.494 3.84 50 3.84zm15.137 48.732c-1.854-.031-3.549.023-5.704-.07-.35-.016-5.963.068-5.946.17.408 2.496-.178 5.148-.143 7.672.021 1.471.453 14.779.254 19.688l-11.123.102c-.046-4.18.158-8.479-.023-13.992-.037-1.133-.074-13.061-.206-13.689 0 0-4.916.035-7.214.049 0 0-.031-4.402-.031-5.891v-4.387s5.738-.318 7.385-.461c0 0 .168-5.584.396-7.393.263-2.066.289-4.154 1.502-5.982 2.223-3.346 4.417-6.295 8.504-7.184 1.546-.338 11.741-2.342 12.119-.693l-.232 9.928c-2.772 0-6.094-.281-8.923 1.82-1.575 1.172-2.01 2.148-2.169 4.076-.095 1.121-.117 5.658-.117 5.658 1.494.213 3.705.119 5.311 0 1.814-.135 6.471.346 6.471.346-.002 3.003-.122 9.936-.111 10.233z" fill="#3A5897"/></svg>