<svg height="100" viewBox="0 0 100 100" width="100" xmlns="http://www.w3.org/2000/svg"><path d="M50 3.84C24.506 3.84 3.84 24.506 3.84 50S24.506 96.16 50 96.16 96.16 75.494 96.16 50 75.494 3.84 50 3.84zm6.736 51.153c-.354 2.204-1.637 4.269-2.623 6.239-.965 1.933-2.35 3.639-4.268 4.695-1.566.86-3.129 1.829-4.861 2.315-1.803.507-3.734.412-5.59.471-1.975.062-3.912-.153-5.785-.802-3.344-1.156-7.39-3.308-9.575-6.158C22.048 59.162 20 55.003 20 51.7v-1.363c1-3.191 1.386-6.974 3.05-9.955.971-1.733 1.823-3.375 3.534-4.58.822-.579 1.754-1.2 2.564-1.724.764-.493 1.316-.815 2.217-1.189 6.361-2.648 14.611-2.218 19.861 2.671.152.144.344.382.516.563l-1.068.974c-1.102 1.422-2.775 2.879-3.697 4.187l-.923-.828c-1.023-1.266-3.657-1.935-4.575-2.131-2.289-.487-5.143.024-7.289 1.088-3.832 1.896-6.488 6.056-6.68 10.24-.143 3.125 1.387 6.703 3.498 9.077 1.418 1.595 4.559 3.229 6.711 3.336 1.469.073 3.033-.104 4.488-.306 3.598-.5 7.26-4.253 7.932-7.82l-1.748-.049c-1.217-.098-3.174.002-4.715-.049-1.176-.038-3.605.147-4.291-.098 0 0 .115-4.936.039-6.396 0 0 4.992.094 7.271.166 1.645.052 3.281.284 4.93.225 1.832-.064 3.695.067 5.492-.257-.113 2.497.016 5.029-.381 7.511zm17.537-2.514c-.082 1.559-.084 4.136-.146 5.632-1.359-.26-2.99.128-4.27-.082l-.875.098c0-1.848.025-3.728-.113-5.534-1.383-.068-5.34.082-5.34.082-.082-1.461.014-3.583-.082-5.145 1.512.186 3.865.022 5.402-.024l.133-.478c0-1.409.062-3.271.111-4.855 1.578-.034 3.576.132 5.131-.174.092 1.88-.031 3.805.012 5.564 0 0 3.643-.003 5.211.041.072 1.796.021 3.089.055 4.924-1.438-.112-5.229-.049-5.229-.049z" fill="#D36259"/></svg>