<?xml version="1.0" encoding="utf-8"?>
<!-- Generator: Adobe Illustrator 19.0.1, SVG Export Plug-In . SVG Version: 6.00 Build 0)  -->
<svg version="1.1" id="Слой_1" xmlns="http://www.w3.org/2000/svg" xmlns:xlink="http://www.w3.org/1999/xlink" x="0px" y="0px"
	 width="100px" height="100px" viewBox="-429 231 100 100" style="enable-background:new -429 231 100 100;" xml:space="preserve">
<style type="text/css">
	.st0{fill:#D36259;}
	.st1{fill:#FFFFFF;}
</style>
<circle class="st0" cx="-379" cy="281" r="46.2"/>
<g>
	<g>
		<path class="st1" d="M-367.8,308h-22.4c-8.2,0-14.8-6.6-14.8-14.8v-22.4c0-8.2,6.6-14.8,14.8-14.8h22.4c8.2,0,14.8,6.6,14.8,14.8
			v22.4C-353,301.4-359.6,308-367.8,308z M-390.2,260.4c-5.7,0-10.4,4.6-10.4,10.4v22.4c0,5.7,4.6,10.4,10.4,10.4h22.4
			c5.7,0,10.4-4.6,10.4-10.4v-22.4c0-5.7-4.6-10.4-10.4-10.4H-390.2z"/>
	</g>
	<g>
		<path class="st1" d="M-379,295.3c-7.3,0-13.3-6-13.3-13.3c0-7.3,6-13.3,13.3-13.3s13.3,6,13.3,13.3
			C-365.7,289.3-371.7,295.3-379,295.3z M-379,273.1c-4.9,0-8.9,4-8.9,8.9c0,4.9,4,8.9,8.9,8.9c4.9,0,8.9-4,8.9-8.9
			C-370.1,277.1-374.1,273.1-379,273.1z"/>
	</g>
	<g>
		<circle class="st1" cx="-365.1" cy="267.9" r="3.2"/>
	</g>
</g>
</svg>
