<svg height="100" viewBox="0 0 100 100" width="100" xmlns="http://www.w3.org/2000/svg"><path d="M50 3.84C24.506 3.84 3.84 24.506 3.84 50S24.506 96.16 50 96.16 96.16 75.494 96.16 50 75.494 3.84 50 3.84zm23.887 34.149c-.881.831-1.98 2.324-3.107 2.792.217 1.023-.001 2.209-.206 3.233-.234 1.167-.046 2.441-.404 3.569-.38 1.198-.492 2.439-.893 3.634-.463 1.38-1.282 2.821-2.08 4.022-.69 1.039-1.165 2.147-1.829 3.177-.765 1.185-1.819 1.93-2.713 2.928-1.339 1.494-3.207 2.733-4.933 3.896-1.428.961-3.094 1.379-4.659 2.091-.613.279-1.356.51-2.026.683-.604.155-1.623.535-2.272.535l-1.168.201c-.473.043-1.658-.047-2.272-.006-.613.039-1.203-.132-1.831-.13-1.539.003-3.081-.047-4.596-.246-2.639-.347-5.681-1.528-7.854-3.08-.392-.28-.69-.675-1.079-.961 2.276.534 5.147.449 7.315-.52 1.202-.538 2.566-.776 3.645-1.536a32.32 32.32 0 0 1 2.643-1.691c-1.948-.182-3.746-.75-5.515-1.685-.872-.46-3.177-3.003-3.167-4.94 1.353-.025 2.572.157 3.944-.025-.968-.257-1.773-.679-2.659-1.269-.998-.663-1.834-1.155-2.867-2.283-1.214-1.324-1.606-3.868-1.469-5.706.626.062 1.149.461 1.757.643.629.187 1.374.161 1.973.457-1.992-.648-3.017-3.828-3.531-5.601-.599-2.063.672-6.736.714-6.857 1.553 1.18 2.691 2.959 4.253 4.035.904.622 1.932 1.31 2.807 1.928.444.313.78.459 1.231.795.393.291.993.499 1.43.696 1.125.506 2.528 1.059 3.764 1.285 1.451.266 2.986.324 4.349.794l1.623.194c-.45-1.777-.204-4.143.34-5.969.629-2.11 2.779-3.912 4.707-4.822 1.798-.849 4.762-1.229 6.636-.506.959.37 1.951.807 2.842 1.303.831.463 1.238 1.53 2.155 1.412 1.614-.209 4.088-1.208 5.066-2.625-.04 2.497-1.512 3.967-3.374 5.482 1.523-.445 3.335-.573 4.79-1.215-.39.783-.84 1.286-1.48 1.888z" fill="#1DA1F2"/></svg>