<svg xmlns="http://www.w3.org/2000/svg" xmlns:xlink="http://www.w3.org/1999/xlink" enable-background="new 0 0 32 32" height="45" version="1.0" width="45" xml:space="preserve" style=""><rect id="backgroundrect" width="100%" height="100%" x="0" y="0" fill="none" stroke="none" class="" style=""/><g class="currentLayer" style=""><title>Layer 1</title><path fill="#e02f2f" fill-opacity="1" stroke="#e02f2f" stroke-opacity="1" stroke-width="1" stroke-dasharray="none" stroke-linejoin="miter" stroke-linecap="butt" stroke-dashoffset="" fill-rule="nonzero" opacity="1" marker-start="" marker-mid="" marker-end="" d="M0.7152786831765999,22.499998285932886 C0.7152786831765999,10.426417046914834 10.464241730493402,0.646816243310206 22.499998579032667,0.646816243310206 C34.53575542757195,0.646816243310206 44.28471847488875,10.426417046914834 44.28471847488875,22.499998285932886 C44.28471847488875,34.57357952495093 34.53575542757195,44.35318032855557 22.499998579032667,44.35318032855557 C10.464241730493402,44.35318032855557 0.7152786831765999,34.57357952495093 0.7152786831765999,22.499998285932886 z" class="" id="svg_26"/><g class=""><path d="M35.75978711897308,16.729983163530136 c0,0 -0.2639268521119481,-1.9904483430109408 -1.0751635545970712,-2.8668208391262553 c-1.0294839071161583,-1.148758542205211 -2.182472046310339,-1.1555258973875688 -2.711171669932029,-1.2206616910177608 C28.186270750517078,12.34896660235136 22.50592199432564,12.34896660235136 22.50592199432564,12.34896660235136 h-0.012688790966920677 c0,0 -5.680348756191444,0 -9.466683980720545,0.29353403103476444 C12.497849599016485,12.707636427016316 11.345707379220096,12.714403782198687 10.315377552706147,13.863162324403879 C9.504986769618817,14.739534820519193 9.240213998109075,16.729983163530136 9.240213998109075,16.729983163530136 S8.969519790814774,19.065566620841327 8.969519790814774,21.401150078152497 v2.1892394014926975 c0,2.3372752961067693 0.2706942072943057,4.6720128340201565 0.2706942072943057,4.6720128340201565 s0.2639268521119481,1.989602423613146 1.0751635545970712,2.864283080932871 c1.0303298265139504,1.148758542205211 2.3812631047920942,1.1140758468956287 2.9835577160219247,1.2341964013824747 C15.463643007684723,32.5825126782029 22.50000055854108,32.65103214942427 22.50000055854108,32.65103214942427 s5.686270191976007,-0.010151032773536616 9.473451335902901,-0.30030138621712266 c0.5286996236216955,-0.06767355182357694 1.6816877628158737,-0.07444090700593516 2.711171669932029,-1.2231994492111447 c0.8103907830873305,-0.8746806573197299 1.0751635545970712,-2.864283080932871 1.0751635545970712,-2.864283080932871 s0.2706942072943057,-2.335583457311181 0.2706942072943057,-4.6720128340201565 v-2.1892394014926975 C36.03048132626737,19.065566620841327 35.75978711897308,16.729983163530136 35.75978711897308,16.729983163530136 z" fill="#ffffff" stroke="#ffffff" class="" fill-opacity="1" id="svg_22"/><path d="M35.75978711897308,16.729983163530136 c0,0 -0.2639268521119481,-1.9904483430109408 -1.0751635545970712,-2.8668208391262553 c-1.0294839071161583,-1.148758542205211 -2.182472046310339,-1.1555258973875688 -2.711171669932029,-1.2206616910177608 C28.186270750517078,12.34896660235136 22.50592199432564,12.34896660235136 22.50592199432564,12.34896660235136 h-0.012688790966920684 c0,0 -5.680348756191444,0 -9.466683980720545,0.2935340310347645 C12.497849599016485,12.707636427016316 11.345707379220096,12.714403782198687 10.315377552706147,13.863162324403879 C9.504986769618817,14.739534820519193 9.240213998109075,16.729983163530136 9.240213998109075,16.729983163530136 S8.969519790814774,19.065566620841327 8.969519790814774,21.401150078152497 v2.1892394014926975 c0,2.3372752961067693 0.2706942072943057,4.6720128340201565 0.2706942072943057,4.6720128340201565 s0.2639268521119481,1.989602423613146 1.0751635545970712,2.864283080932871 c1.0303298265139504,1.148758542205211 2.3812631047920942,1.1140758468956289 2.9835577160219247,1.2341964013824747 C15.463643007684723,32.5825126782029 22.50000055854108,32.65103214942427 22.50000055854108,32.65103214942427 s5.686270191976007,-0.010151032773536621 9.473451335902901,-0.30030138621712266 c0.5286996236216955,-0.06767355182357696 1.6816877628158737,-0.07444090700593521 2.711171669932029,-1.2231994492111447 c0.8103907830873305,-0.87468065731973 1.0751635545970712,-2.864283080932871 1.0751635545970712,-2.864283080932871 s0.2706942072943057,-2.335583457311181 0.2706942072943057,-4.6720128340201565 v-2.1892394014926975 C36.03048132626737,19.065566620841327 35.75978711897308,16.729983163530136 35.75978711897308,16.729983163530136 z" fill="#ffffff" stroke="#ffffff" class="" fill-opacity="1" id="svg_23"/><polygon fill="#e02f2f" points="19.12055492401123,17.424484252929688 19.12055492401123,27.57552719116211 27.57975482940674,22.500003814697266 " stroke="#e02f2f" class="" fill-opacity="1" stroke-opacity="1" id="svg_24"/><polygon fill="#e02f2f" points="19.12055492401123,17.424484252929688 19.12055492401123,27.57552719116211 27.57975482940674,22.500003814697266 " stroke="#e02f2f" class="" fill-opacity="1" stroke-opacity="1" id="svg_25"/><path d="M35.75978711897308,16.729983163530136 c0,0 -0.2639268521119481,-1.9904483430109408 -1.0751635545970712,-2.8668208391262553 c-1.0294839071161583,-1.148758542205211 -2.182472046310339,-1.1555258973875688 -2.711171669932029,-1.2206616910177608 C28.186270750517078,12.34896660235136 22.50592199432564,12.34896660235136 22.50592199432564,12.34896660235136 h-0.012688790966920677 c0,0 -5.680348756191444,0 -9.466683980720545,0.29353403103476444 C12.497849599016485,12.707636427016316 11.345707379220096,12.714403782198687 10.315377552706147,13.863162324403879 C9.504986769618817,14.739534820519193 9.240213998109075,16.729983163530136 9.240213998109075,16.729983163530136 S8.969519790814774,19.065566620841327 8.969519790814774,21.401150078152497 v2.1892394014926975 c0,2.3372752961067693 0.2706942072943057,4.6720128340201565 0.2706942072943057,4.6720128340201565 s0.2639268521119481,1.989602423613146 1.0751635545970712,2.864283080932871 c1.0303298265139504,1.148758542205211 2.3812631047920942,1.1140758468956287 2.9835577160219247,1.2341964013824747 C15.463643007684723,32.5825126782029 22.50000055854108,32.65103214942427 22.50000055854108,32.65103214942427 s5.686270191976007,-0.010151032773536616 9.473451335902901,-0.30030138621712266 c0.5286996236216953,-0.06767355182357693 1.6816877628158737,-0.07444090700593513 2.711171669932029,-1.2231994492111447 c0.8103907830873305,-0.8746806573197298 1.0751635545970712,-2.864283080932871 1.0751635545970712,-2.864283080932871 s0.2706942072943057,-2.335583457311181 0.2706942072943057,-4.6720128340201565 v-2.1892394014926975 C36.03048132626737,19.065566620841327 35.75978711897308,16.729983163530136 35.75978711897308,16.729983163530136 z" fill="#ffffff" id="svg_2" stroke="#ffffff" class="" fill-opacity="1"/><path d="M35.75978711897308,16.729983163530136 c0,0 -0.2639268521119481,-1.9904483430109408 -1.0751635545970712,-2.8668208391262553 c-1.0294839071161583,-1.148758542205211 -2.182472046310339,-1.1555258973875688 -2.711171669932029,-1.2206616910177608 C28.186270750517078,12.34896660235136 22.50592199432564,12.34896660235136 22.50592199432564,12.34896660235136 h-0.012688790966920677 c0,0 -5.680348756191444,0 -9.466683980720545,0.29353403103476444 C12.497849599016485,12.707636427016316 11.345707379220096,12.714403782198687 10.315377552706147,13.863162324403879 C9.504986769618817,14.739534820519193 9.240213998109075,16.729983163530136 9.240213998109075,16.729983163530136 S8.969519790814774,19.065566620841327 8.969519790814774,21.401150078152497 v2.1892394014926975 c0,2.3372752961067693 0.2706942072943057,4.6720128340201565 0.2706942072943057,4.6720128340201565 s0.2639268521119481,1.989602423613146 1.0751635545970712,2.864283080932871 c1.0303298265139504,1.148758542205211 2.3812631047920942,1.1140758468956287 2.9835577160219247,1.2341964013824747 C15.463643007684723,32.5825126782029 22.50000055854108,32.65103214942427 22.50000055854108,32.65103214942427 s5.686270191976007,-0.010151032773536616 9.473451335902901,-0.30030138621712266 c0.5286996236216955,-0.06767355182357694 1.6816877628158737,-0.07444090700593516 2.711171669932029,-1.2231994492111447 c0.8103907830873305,-0.8746806573197299 1.0751635545970712,-2.864283080932871 1.0751635545970712,-2.864283080932871 s0.2706942072943057,-2.335583457311181 0.2706942072943057,-4.6720128340201565 v-2.1892394014926975 C36.03048132626737,19.065566620841327 35.75978711897308,16.729983163530136 35.75978711897308,16.729983163530136 z" fill="#ffffff" stroke="#ffffff" class="" fill-opacity="1" id="svg_18"/><path d="M35.75978711897308,16.729983163530136 c0,0 -0.2639268521119481,-1.9904483430109408 -1.0751635545970712,-2.8668208391262553 c-1.0294839071161583,-1.148758542205211 -2.182472046310339,-1.1555258973875688 -2.711171669932029,-1.2206616910177608 C28.186270750517078,12.34896660235136 22.50592199432564,12.34896660235136 22.50592199432564,12.34896660235136 h-0.012688790966920684 c0,0 -5.680348756191444,0 -9.466683980720545,0.2935340310347645 C12.497849599016485,12.707636427016316 11.345707379220096,12.714403782198687 10.315377552706147,13.863162324403879 C9.504986769618817,14.739534820519193 9.240213998109075,16.729983163530136 9.240213998109075,16.729983163530136 S8.969519790814774,19.065566620841327 8.969519790814774,21.401150078152497 v2.1892394014926975 c0,2.3372752961067693 0.2706942072943057,4.6720128340201565 0.2706942072943057,4.6720128340201565 s0.2639268521119481,1.989602423613146 1.0751635545970712,2.864283080932871 c1.0303298265139504,1.148758542205211 2.3812631047920942,1.1140758468956289 2.9835577160219247,1.2341964013824747 C15.463643007684723,32.5825126782029 22.50000055854108,32.65103214942427 22.50000055854108,32.65103214942427 s5.686270191976007,-0.010151032773536621 9.473451335902901,-0.30030138621712266 c0.5286996236216955,-0.06767355182357696 1.6816877628158737,-0.07444090700593521 2.711171669932029,-1.2231994492111447 c0.8103907830873305,-0.87468065731973 1.0751635545970712,-2.864283080932871 1.0751635545970712,-2.864283080932871 s0.2706942072943057,-2.335583457311181 0.2706942072943057,-4.6720128340201565 v-2.1892394014926975 C36.03048132626737,19.065566620841327 35.75978711897308,16.729983163530136 35.75978711897308,16.729983163530136 z" fill="#ffffff" stroke="#ffffff" class="" fill-opacity="1" id="svg_27"/><polygon fill="#e02f2f" points="19.12055492401123,17.424484252929688 19.12055492401123,27.57552719116211 27.57975482940674,22.500003814697266 " id="svg_3" stroke="#e02f2f" class="" fill-opacity="1" stroke-opacity="1"/><polygon fill="#e02f2f" points="19.12055492401123,17.424484252929688 19.12055492401123,27.57552719116211 27.57975482940674,22.500003814697266 " stroke="#e02f2f" class="" fill-opacity="1" stroke-opacity="1" id="svg_19"/></g></g></svg>