<svg width="168" height="125" viewBox="0 0 168 125" fill="none" xmlns="http://www.w3.org/2000/svg">
<rect width="168" height="15" rx="7.5" fill="#247CFF"/>
<rect y="23" width="168" height="102" fill="#EBEBEB"/>
<rect y="23" width="55" height="102" fill="#D8D8D8"/>
<rect x="14" y="35" width="29" height="9" rx="4.5" fill="#ABABAB"/>
<rect x="14" y="80" width="29" height="9" rx="4.5" fill="#ABABAB"/>
<rect x="14" y="65" width="29" height="9" rx="4.5" fill="#ABABAB"/>
<rect x="14" y="50" width="29" height="9" rx="4.5" fill="#ABABAB"/>
<rect x="70" y="35" width="29" height="6" rx="3" fill="#C4C4C4"/>
<rect x="77" y="46" width="22" height="3" rx="1.5" fill="#247CFF"/>
<rect x="77" y="46" width="22" height="3" rx="1.5" fill="#838383"/>
<rect x="77" y="67" width="22" height="3" rx="1.5" fill="#247CFF"/>
<rect x="77" y="67" width="22" height="3" rx="1.5" fill="#838383"/>
<rect x="77" y="60" width="22" height="3" rx="1.5" fill="#247CFF"/>
<rect x="77" y="60" width="22" height="3" rx="1.5" fill="#838383"/>
<rect x="77" y="53" width="22" height="3" rx="1.5" fill="#247CFF"/>
<rect x="77" y="53" width="22" height="3" rx="1.5" fill="#838383"/>
<rect x="119" y="81" width="29" height="6" rx="3" fill="#C4C4C4"/>
<rect x="126" y="92" width="22" height="3" rx="1.5" fill="#247CFF"/>
<rect x="126" y="92" width="22" height="3" rx="1.5" fill="#838383"/>
<rect x="126" y="113" width="22" height="3" rx="1.5" fill="#247CFF"/>
<rect x="126" y="113" width="22" height="3" rx="1.5" fill="#838383"/>
<rect x="126" y="106" width="22" height="3" rx="1.5" fill="#247CFF"/>
<rect x="126" y="106" width="22" height="3" rx="1.5" fill="#838383"/>
<rect x="126" y="99" width="22" height="3" rx="1.5" fill="#247CFF"/>
<rect x="126" y="99" width="22" height="3" rx="1.5" fill="#838383"/>
<rect x="119" y="35" width="29" height="6" rx="3" fill="#C4C4C4"/>
<rect x="126" y="46" width="22" height="3" rx="1.5" fill="#247CFF"/>
<rect x="126" y="46" width="22" height="3" rx="1.5" fill="#838383"/>
<rect x="126" y="67" width="22" height="3" rx="1.5" fill="#247CFF"/>
<rect x="126" y="67" width="22" height="3" rx="1.5" fill="#838383"/>
<rect x="126" y="60" width="22" height="3" rx="1.5" fill="#247CFF"/>
<rect x="126" y="60" width="22" height="3" rx="1.5" fill="#838383"/>
<rect x="126" y="53" width="22" height="3" rx="1.5" fill="#247CFF"/>
<rect x="126" y="53" width="22" height="3" rx="1.5" fill="#838383"/>
<rect x="70" y="81" width="29" height="6" rx="3" fill="#C4C4C4"/>
<rect x="77" y="92" width="22" height="3" rx="1.5" fill="#247CFF"/>
<rect x="77" y="92" width="22" height="3" rx="1.5" fill="#838383"/>
<rect x="77" y="113" width="22" height="3" rx="1.5" fill="#247CFF"/>
<rect x="77" y="113" width="22" height="3" rx="1.5" fill="#838383"/>
<rect x="77" y="106" width="22" height="3" rx="1.5" fill="#247CFF"/>
<rect x="77" y="106" width="22" height="3" rx="1.5" fill="#838383"/>
<rect x="77" y="99" width="22" height="3" rx="1.5" fill="#247CFF"/>
<rect x="77" y="99" width="22" height="3" rx="1.5" fill="#838383"/>
</svg>
