<svg width="13" height="16" viewBox="0 0 13 16" fill="none" xmlns="http://www.w3.org/2000/svg">
<path d="M10.8386 0.879883H2.68642C2.14012 0.879883 1.61619 1.08049 1.2299 1.43757C0.843605 1.79465 0.626587 2.27896 0.626587 2.78395V13.9758C0.626587 14.4808 0.843605 14.9651 1.2299 15.3222C1.61619 15.6793 2.14012 15.8799 2.68642 15.8799H10.8386C11.3849 15.8799 11.9088 15.6793 12.2951 15.3222C12.6814 14.9651 12.8984 14.4808 12.8984 13.9758V2.78395C12.8984 2.27896 12.6814 1.79465 12.2951 1.43757C11.9088 1.08049 11.3849 0.879883 10.8386 0.879883ZM10.3122 9.36426C10.1016 9.36426 9.89567 9.30653 9.72055 9.19836C9.54543 9.0902 9.40894 8.93646 9.32834 8.75659C9.24774 8.57672 9.22665 8.37879 9.26774 8.18784C9.30882 7.99689 9.41025 7.82149 9.55918 7.68382C9.70811 7.54616 9.89786 7.4524 10.1044 7.41442C10.311 7.37644 10.5251 7.39593 10.7197 7.47044C10.9143 7.54494 11.0806 7.67111 11.1976 7.83299C11.3146 7.99487 11.3771 8.18519 11.3771 8.37988C11.3771 8.64096 11.2649 8.89133 11.0652 9.07594C10.8655 9.26055 10.5946 9.36426 10.3122 9.36426Z" fill="#2FA8FF"/>
</svg>
