<svg width="20" height="19" viewBox="0 0 20 19" fill="none" xmlns="http://www.w3.org/2000/svg">
<path fill-rule="evenodd" clip-rule="evenodd" d="M10.7507 1.32033L18.8691 10.3978H18.8671C19.0285 10.5784 19.1333 10.8006 19.169 11.0379C19.2047 11.2751 19.1697 11.5174 19.0684 11.7358C18.967 11.9542 18.8034 12.1394 18.5973 12.2694C18.3911 12.3993 18.1511 12.4684 17.9058 12.4685H17.5672C17.3244 12.4688 17.0916 12.5632 16.9199 12.7311C16.7482 12.899 16.6516 13.1266 16.6514 13.364V16.8058C16.6514 16.9698 16.6183 17.1322 16.5541 17.2838C16.49 17.4353 16.3959 17.573 16.2773 17.6889C16.1587 17.8049 16.0179 17.8969 15.8629 17.9597C15.708 18.0224 15.5419 18.0547 15.3742 18.0547H12.7186C12.7344 17.9504 12.7423 17.8452 12.7424 17.7397V10.5714C12.7438 10.0007 12.5222 9.45106 12.1229 9.03481L11.4435 8.32808C11.2286 8.10401 10.9689 7.92542 10.6806 7.80333C10.3923 7.68124 10.0815 7.61825 9.76727 7.61825C9.45309 7.61825 9.14225 7.68124 8.85394 7.80333C8.56563 7.92542 8.30598 8.10401 8.09104 8.32808L7.75135 8.68245L7.41166 8.32808C7.1968 8.10404 6.93724 7.92546 6.64902 7.80338C6.3608 7.68131 6.05004 7.61832 5.73594 7.61832C5.42184 7.61832 5.11108 7.68131 4.82286 7.80338C4.53463 7.92546 4.27508 8.10404 4.06022 8.32808L3.73292 8.67034L3.40459 8.32808C3.25896 8.17603 3.09211 8.04484 2.909 7.93837L8.82823 1.32033C8.9482 1.18649 9.09601 1.07924 9.26178 1.00577C9.42756 0.932295 9.60746 0.894287 9.78947 0.894287C9.97148 0.894287 10.1514 0.932295 10.3172 1.00577C10.4829 1.07924 10.6307 1.18649 10.7507 1.32033ZM1.98985 9.27658C2.07208 9.31147 2.1461 9.3625 2.20734 9.42651L2.88671 10.1353C3.00102 10.2537 3.06457 10.4105 3.0643 10.5734V17.7417C3.0643 17.8259 3.04734 17.9092 3.01437 17.9869C2.98141 18.0646 2.9331 18.1353 2.87221 18.1947C2.81132 18.2542 2.73903 18.3013 2.65949 18.3334C2.57995 18.3655 2.49472 18.382 2.40867 18.3818H1.04992C0.963873 18.382 0.878641 18.3655 0.799103 18.3334C0.719564 18.3013 0.64728 18.2542 0.586386 18.1947C0.525492 18.1353 0.477182 18.0646 0.444221 17.9869C0.41126 17.9092 0.394294 17.8259 0.394294 17.7417V10.5734C0.393498 10.4099 0.457085 10.2522 0.571882 10.1332L1.25126 9.42651C1.31249 9.3625 1.38652 9.31147 1.46875 9.27658C1.55098 9.24169 1.63966 9.22369 1.7293 9.22369C1.81893 9.22369 1.90762 9.24169 1.98985 9.27658ZM5.99692 9.27658C6.07915 9.31147 6.15318 9.3625 6.21441 9.42651L6.89482 10.1332C7.00848 10.2521 7.07161 10.4087 7.07138 10.5714V17.7397C7.07138 17.9095 7.00241 18.0723 6.87965 18.1923C6.75689 18.3124 6.59039 18.3798 6.41678 18.3798H5.057C4.88329 18.3798 4.71669 18.3124 4.59376 18.1924C4.47084 18.0724 4.40164 17.9096 4.40137 17.7397V10.5714C4.40152 10.4086 4.46501 10.252 4.57896 10.1332L5.25833 9.42651C5.31957 9.3625 5.39359 9.31147 5.47582 9.27658C5.55805 9.24169 5.64674 9.22369 5.73637 9.22369C5.82601 9.22369 5.91469 9.24169 5.99692 9.27658ZM4.04103 12.3746H3.40192V11.4356H4.04103V12.3746ZM4.04103 16.7533H3.40192V15.8154H4.04103V16.7533ZM10.2452 9.42853L10.9256 10.1353C11.0393 10.2541 11.1024 10.4107 11.1022 10.5734V17.7417C11.1022 17.9115 11.0332 18.0743 10.9105 18.1944C10.7877 18.3144 10.6212 18.3818 10.4476 18.3818H9.08782C8.91411 18.3818 8.74751 18.3144 8.62459 18.1944C8.50166 18.0744 8.43246 17.9116 8.43219 17.7417V10.5734C8.43234 10.4106 8.49583 10.254 8.60978 10.1353L9.28915 9.42853C9.35039 9.36452 9.42442 9.31348 9.50665 9.2786C9.58888 9.24371 9.67756 9.22571 9.76719 9.22571C9.85683 9.22571 9.94551 9.24371 10.0277 9.2786C10.11 9.31348 10.184 9.36452 10.2452 9.42853ZM8.07185 12.3746H7.43275V11.4356H8.07185V12.3746ZM8.07185 16.7533H7.43275V15.8154H8.07185V16.7533Z" fill="#2FA8FF"/>
</svg>
