<svg width="59" height="50" viewBox="0 0 59 50" fill="none" xmlns="http://www.w3.org/2000/svg">
<path d="M58.7172 13.006V44.6865C58.7172 47.6016 56.2603 49.9666 53.2321 49.9666H5.69525C2.66706 49.9666 0.21022 47.6016 0.21022 44.6865V13.006C0.21022 10.0909 2.66706 7.72591 5.69525 7.72591H15.7511L17.1567 4.10685C17.9566 2.04981 20.002 0.685791 22.2875 0.685791H36.6285C38.9139 0.685791 40.9594 2.04981 41.7593 4.10685L43.1763 7.72591H53.2321C56.2603 7.72591 58.7172 10.0909 58.7172 13.006ZM43.1763 28.8463C43.1763 21.5641 37.0285 15.646 29.4637 15.646C21.8989 15.646 15.7511 21.5641 15.7511 28.8463C15.7511 36.1284 21.8989 42.0465 29.4637 42.0465C37.0285 42.0465 43.1763 36.1284 43.1763 28.8463ZM39.5196 28.8463C39.5196 34.1813 35.0059 38.5264 29.4637 38.5264C23.9215 38.5264 19.4078 34.1813 19.4078 28.8463C19.4078 23.5112 23.9215 19.1661 29.4637 19.1661C35.0059 19.1661 39.5196 23.5112 39.5196 28.8463Z" fill="#CCCCCC"/>
</svg>
