<svg width="22" height="21" viewBox="0 0 22 21" fill="none" xmlns="http://www.w3.org/2000/svg">
<path d="M12.7188 0H20.9688C21.5383 0 22 0.503672 22 1.125V8.625C22 9.24633 21.5383 9.75 20.9688 9.75H12.7188C12.1492 9.75 11.6875 9.24633 11.6875 8.625V1.125C11.6875 0.503672 12.1492 0 12.7188 0ZM9.28125 0H1.03125C0.461699 0 0 0.503672 0 1.125V8.625C0 9.24633 0.461699 9.75 1.03125 9.75H9.28125C9.8508 9.75 10.3125 9.24633 10.3125 8.625V1.125C10.3125 0.503672 9.8508 0 9.28125 0ZM0 12.375V19.875C0 20.4963 0.461699 21 1.03125 21H9.28125C9.8508 21 10.3125 20.4963 10.3125 19.875V12.375C10.3125 11.7537 9.8508 11.25 9.28125 11.25H1.03125C0.461699 11.25 0 11.7537 0 12.375ZM12.7188 21H20.9688C21.5383 21 22 20.4963 22 19.875V12.375C22 11.7537 21.5383 11.25 20.9688 11.25H12.7188C12.1492 11.25 11.6875 11.7537 11.6875 12.375V19.875C11.6875 20.4963 12.1492 21 12.7188 21Z" fill="#2FA8FF"/>
</svg>
