<svg width="20" height="21" viewBox="0 0 20 21" fill="none" xmlns="http://www.w3.org/2000/svg">
<path d="M9 16.2842H11V14.2842H9V16.2842ZM10 0.28418C4.48 0.28418 0 4.76418 0 10.2842C0 15.8042 4.48 20.2842 10 20.2842C15.52 20.2842 20 15.8042 20 10.2842C20 4.76418 15.52 0.28418 10 0.28418ZM10 18.2842C5.59 18.2842 2 14.6942 2 10.2842C2 5.87418 5.59 2.28418 10 2.28418C14.41 2.28418 18 5.87418 18 10.2842C18 14.6942 14.41 18.2842 10 18.2842ZM10 4.28418C7.79 4.28418 6 6.07418 6 8.28418H8C8 7.18418 8.9 6.28418 10 6.28418C11.1 6.28418 12 7.18418 12 8.28418C12 10.2842 9 10.0342 9 13.2842H11C11 11.0342 14 10.7842 14 8.28418C14 6.07418 12.21 4.28418 10 4.28418Z" fill="#3C3C3C"/>
</svg>
