<svg width="17" height="17" viewBox="0 0 17 17" fill="none" xmlns="http://www.w3.org/2000/svg">
<path fill-rule="evenodd" clip-rule="evenodd" d="M2.41421 0.292893C2.02369 -0.097631 1.39052 -0.0976311 1 0.292893L0.292893 1C-0.0976312 1.39052 -0.097631 2.02369 0.292893 2.41421L6.30341 8.42474L0.29312 14.435C-0.0974046 14.8256 -0.0974047 15.4587 0.29312 15.8492L1.00023 16.5564C1.39075 16.9469 2.02392 16.9469 2.41444 16.5564L8.42474 10.5461L14.435 16.5563C14.8256 16.9469 15.4587 16.9469 15.8492 16.5563L16.5563 15.8492C16.9469 15.4587 16.9469 14.8256 16.5563 14.435L10.5461 8.42474L16.5566 2.41422C16.9471 2.02369 16.9471 1.39053 16.5566 1L15.8495 0.292895C15.4589 -0.0976292 14.8258 -0.0976289 14.4353 0.292895L8.42474 6.30342L2.41421 0.292893Z" fill="white"/>
</svg>
