<svg width="264" height="50" viewBox="0 0 264 50" fill="none" xmlns="http://www.w3.org/2000/svg">
<g filter="url(#filter0_d)">
<path d="M12.248 24.7227C12.4004 26.375 12.8867 27.5645 13.707 28.291C14.5273 29.0059 15.7168 29.3633 17.2754 29.3633C18.998 29.3633 20.2754 28.7949 21.1074 27.6582C21.9395 26.5098 22.4199 24.8164 22.5488 22.5781H14.4629V18.3066H22.5312C22.3906 16.0215 21.875 14.3281 20.9844 13.2266C20.1055 12.1133 18.8457 11.5566 17.2051 11.5566C15.6113 11.5566 14.416 11.9375 13.6191 12.6992C12.8223 13.4492 12.3594 14.6621 12.2305 16.3379H6.95703C7.21484 13.5371 8.23438 11.3281 10.0156 9.71094C11.8086 8.09375 14.2051 7.28516 17.2051 7.28516C19.3379 7.28516 21.207 7.78906 22.8125 8.79688C24.4297 9.79297 25.6719 11.2285 26.5391 13.1035C27.4062 14.9668 27.8398 17.1406 27.8398 19.625V21.2949C27.8398 25.0684 26.8965 28.0625 25.0098 30.2773C23.1348 32.4805 20.5566 33.582 17.2754 33.582C14.252 33.582 11.8262 32.7852 9.99805 31.1914C8.18164 29.5859 7.17383 27.4297 6.97461 24.7227H12.248ZM39.916 22.7715H36.875V33.2305H31.6016V7.63672H36.875V17.8848H39.2832L45.541 7.63672H51.9746L44.082 19.748L52.8008 33.2305H46.5078L39.916 22.7715ZM74.3691 24.7051C74.1699 27.459 73.1504 29.627 71.3105 31.209C69.4824 32.791 67.0684 33.582 64.0684 33.582C60.7871 33.582 58.2031 32.4805 56.3164 30.2773C54.4414 28.0625 53.5039 25.0273 53.5039 21.1719V19.6074C53.5039 17.1465 53.9375 14.9785 54.8047 13.1035C55.6719 11.2285 56.9082 9.79297 58.5137 8.79688C60.1309 7.78906 62.0059 7.28516 64.1387 7.28516C67.0918 7.28516 69.4707 8.07617 71.2754 9.6582C73.0801 11.2402 74.123 13.4609 74.4043 16.3203H69.1309C69.002 14.668 68.5391 13.4727 67.7422 12.7344C66.957 11.9844 65.7559 11.6094 64.1387 11.6094C62.3809 11.6094 61.0625 12.2422 60.1836 13.5078C59.3164 14.7617 58.8711 16.7129 58.8477 19.3613V21.2949C58.8477 24.0605 59.2637 26.082 60.0957 27.3594C60.9395 28.6367 62.2637 29.2754 64.0684 29.2754C65.6973 29.2754 66.9102 28.9062 67.707 28.168C68.5156 27.418 68.9785 26.2637 69.0957 24.7051H74.3691ZM86.1816 22.7715H83.1406V33.2305H77.8672V7.63672H83.1406V17.8848H85.5488L91.8066 7.63672H98.2402L90.3477 19.748L99.0664 33.2305H92.7734L86.1816 22.7715ZM121.918 7.63672V33.2305H116.627V11.9082H109.807L109.385 20.9434C109.209 23.9902 108.822 26.3926 108.225 28.1504C107.627 29.8965 106.754 31.1797 105.605 32C104.457 32.8086 102.887 33.2188 100.895 33.2305H99.5234V28.9941L100.402 28.9062C101.727 28.7305 102.67 27.9688 103.232 26.6211C103.807 25.2617 104.17 22.8477 104.322 19.3789L104.762 7.63672H121.918ZM156.635 21.0137C156.635 23.5332 156.189 25.7422 155.299 27.6406C154.408 29.5391 153.131 31.0039 151.467 32.0352C149.814 33.0664 147.916 33.582 145.771 33.582C143.814 33.582 142.057 33.1602 140.498 32.3164C138.951 31.4609 137.691 30.2363 136.719 28.6426C135.758 27.0488 135.166 25.1855 134.943 23.0527H132.008V33.2305H126.734V7.63672H132.008V18.957H134.855C134.961 16.6484 135.471 14.6094 136.385 12.8398C137.311 11.0703 138.582 9.70508 140.199 8.74414C141.828 7.77148 143.674 7.28516 145.736 7.28516C147.869 7.28516 149.762 7.80078 151.414 8.83203C153.078 9.85156 154.361 11.3223 155.264 13.2441C156.178 15.1543 156.635 17.3633 156.635 19.8711V21.0137ZM151.291 19.8535C151.291 17.1699 150.811 15.1309 149.85 13.7363C148.889 12.3418 147.518 11.6445 145.736 11.6445C143.967 11.6445 142.602 12.3359 141.641 13.7188C140.68 15.0898 140.193 17.1055 140.182 19.7656V21.0137C140.182 23.627 140.662 25.6543 141.623 27.0957C142.584 28.5371 143.967 29.2578 145.771 29.2578C147.541 29.2578 148.9 28.5664 149.85 27.1836C150.799 25.7891 151.279 23.7617 151.291 21.1016V19.8535ZM173.105 14.6855C173.105 13.7129 172.725 12.9512 171.963 12.4004C171.201 11.8379 170.193 11.5566 168.939 11.5566C167.814 11.5566 166.877 11.8379 166.127 12.4004C165.389 12.9512 165.02 13.6719 165.02 14.5625H159.746C159.746 13.1797 160.133 11.9375 160.906 10.8359C161.691 9.72266 162.799 8.85547 164.229 8.23438C165.67 7.61328 167.24 7.30273 168.939 7.30273C171.893 7.30273 174.207 7.93555 175.883 9.20117C177.559 10.4668 178.396 12.2598 178.396 14.5801C178.396 15.7168 178.051 16.7715 177.359 17.7441C176.68 18.7168 175.707 19.4961 174.441 20.082C175.848 20.5742 176.926 21.3242 177.676 22.332C178.426 23.3281 178.801 24.5703 178.801 26.0586C178.801 28.3555 177.898 30.1836 176.094 31.543C174.301 32.8906 171.916 33.5645 168.939 33.5645C167.076 33.5645 165.4 33.248 163.912 32.6152C162.424 31.9707 161.293 31.0977 160.52 29.9961C159.758 28.8828 159.377 27.5938 159.377 26.1289H164.686C164.686 27.043 165.084 27.8105 165.881 28.4316C166.678 29.041 167.697 29.3457 168.939 29.3457C170.346 29.3457 171.453 29.0293 172.262 28.3965C173.082 27.7637 173.492 26.9609 173.492 25.9883C173.492 24.6523 173.129 23.6973 172.402 23.123C171.676 22.5371 170.615 22.2441 169.221 22.2441H166.074V18.1133H169.326C171.846 18.0781 173.105 16.9355 173.105 14.6855ZM198.049 7.63672H203.34V33.2305H198.049V16.2324L187.801 33.2305H182.527V7.63672H187.801V24.6699L198.049 7.63672ZM207.91 33.2305V7.63672H216.875C219.98 7.63672 222.336 8.23438 223.941 9.42969C225.547 10.6133 226.35 12.3535 226.35 14.6504C226.35 15.9043 226.027 17.0117 225.383 17.9727C224.738 18.9219 223.842 19.6191 222.693 20.0645C224.006 20.3926 225.037 21.0547 225.787 22.0508C226.549 23.0469 226.93 24.2656 226.93 25.707C226.93 28.168 226.145 30.0312 224.574 31.2969C223.004 32.5625 220.766 33.207 217.859 33.2305H207.91ZM213.184 22.0859V28.9941H217.701C218.943 28.9941 219.91 28.7012 220.602 28.1152C221.305 27.5176 221.656 26.6973 221.656 25.6543C221.656 23.3105 220.443 22.1211 218.018 22.0859H213.184ZM213.184 18.3594H217.086C219.746 18.3125 221.076 17.252 221.076 15.1777C221.076 14.0176 220.736 13.1855 220.057 12.6816C219.389 12.166 218.328 11.9082 216.875 11.9082H213.184V18.3594ZM236.264 16.8652H240.377C243.389 16.8652 245.773 17.5977 247.531 19.0625C249.301 20.5156 250.186 22.4785 250.186 24.9512C250.186 27.4355 249.307 29.4336 247.549 30.9453C245.803 32.4453 243.477 33.207 240.57 33.2305H230.955V7.63672H236.264V16.8652ZM257.656 33.2305H252.383V7.63672H257.656V33.2305ZM236.264 21.1191V28.9941H240.465C241.812 28.9941 242.885 28.625 243.682 27.8867C244.49 27.1484 244.895 26.1582 244.895 24.916C244.895 23.7559 244.508 22.8418 243.734 22.1738C242.973 21.4941 241.924 21.1426 240.588 21.1191H236.264Z" fill="#2FA8FF"/>
</g>
<path d="M10.877 44.2594C10.877 45.083 10.6947 45.7373 10.3301 46.2223C9.96549 46.7041 9.47721 46.9449 8.86523 46.9449C8.14258 46.9449 7.58919 46.691 7.20508 46.1832V48.8785H6.62402V41.5641H7.16602L7.19531 42.3112C7.57617 41.748 8.12793 41.4664 8.85059 41.4664C9.4821 41.4664 9.97689 41.7057 10.335 42.1842C10.6963 42.6627 10.877 43.3268 10.877 44.1764V44.2594ZM10.291 44.1569C10.291 43.483 10.1527 42.9508 9.87598 42.5602C9.59928 42.1696 9.21354 41.9742 8.71875 41.9742C8.36068 41.9742 8.05306 42.0605 7.7959 42.233C7.53874 42.4056 7.3418 42.6562 7.20508 42.985V45.5192C7.34505 45.8219 7.54525 46.053 7.80566 46.2125C8.06608 46.372 8.3737 46.4518 8.72852 46.4518C9.22005 46.4518 9.60254 46.2565 9.87598 45.8658C10.1527 45.472 10.291 44.9023 10.291 44.1569ZM20.9475 41.5641H21.5334V46.8473H20.9475V42.5065L18.0959 46.8473H17.5148V41.5641H18.0959V45.9098L20.9475 41.5641ZM30.4467 46.9449C29.9975 46.9449 29.5906 46.8343 29.226 46.6129C28.8646 46.3916 28.5831 46.0839 28.3813 45.6901C28.1794 45.2929 28.0785 44.8486 28.0785 44.3571V44.1471C28.0785 43.6393 28.1762 43.1819 28.3715 42.775C28.5701 42.3681 28.8451 42.0491 29.1967 41.818C29.5482 41.5836 29.9291 41.4664 30.3393 41.4664C30.9805 41.4664 31.4883 41.6862 31.8627 42.1256C32.2403 42.5618 32.4291 43.1591 32.4291 43.9176V44.2448H28.6596V44.3571C28.6596 44.956 28.8305 45.4557 29.1723 45.8561C29.5173 46.2532 29.9503 46.4518 30.4711 46.4518C30.7836 46.4518 31.0587 46.3948 31.2963 46.2809C31.5372 46.167 31.7553 45.9847 31.9506 45.734L32.3168 46.0123C31.8871 46.6341 31.2637 46.9449 30.4467 46.9449ZM30.3393 41.9645C29.8998 41.9645 29.5287 42.1256 29.226 42.4479C28.9265 42.7701 28.7442 43.2031 28.6791 43.7467H31.848V43.6832C31.8318 43.1754 31.6869 42.762 31.4135 42.443C31.14 42.124 30.782 41.9645 30.3393 41.9645ZM42.9293 41.5641V46.8473H42.3434V42.067H40.1803L40.0875 44.0446C40.0484 44.777 39.9752 45.3369 39.8678 45.7242C39.7604 46.1084 39.6008 46.3916 39.3893 46.5739C39.1777 46.7561 38.8961 46.8473 38.5445 46.8473H38.3199V46.3297L38.5006 46.3199C38.8359 46.3134 39.0768 46.1507 39.2232 45.8317C39.3697 45.5127 39.4658 44.943 39.5113 44.1227L39.6188 41.5641H42.9293ZM53.5955 42.0621H51.6717V46.8473H51.0857V42.0621H49.2352V41.5641H53.5955V42.0621ZM59.3301 44.1276C59.3301 43.6198 59.4277 43.1624 59.623 42.7555C59.8216 42.3486 60.0999 42.0328 60.458 41.8082C60.8193 41.5804 61.2279 41.4664 61.6836 41.4664C62.3867 41.4664 62.9564 41.7138 63.3926 42.2086C63.8288 42.7002 64.0469 43.3528 64.0469 44.1666V44.2887C64.0469 44.7998 63.9476 45.2604 63.749 45.6705C63.5537 46.0774 63.277 46.3916 62.9189 46.6129C62.5609 46.8343 62.1523 46.9449 61.6934 46.9449C60.9935 46.9449 60.4238 46.6992 59.9844 46.2076C59.5482 45.7128 59.3301 45.0586 59.3301 44.2448V44.1276ZM59.916 44.2887C59.916 44.9202 60.0788 45.4394 60.4043 45.8463C60.7331 46.25 61.1628 46.4518 61.6934 46.4518C62.2207 46.4518 62.6471 46.25 62.9727 45.8463C63.3014 45.4394 63.4658 44.9039 63.4658 44.2399V44.1276C63.4658 43.7239 63.391 43.3545 63.2412 43.0192C63.0915 42.6839 62.8815 42.4251 62.6113 42.2428C62.3411 42.0573 62.0319 41.9645 61.6836 41.9645C61.1628 41.9645 60.738 42.1696 60.4092 42.5797C60.0804 42.9866 59.916 43.5205 59.916 44.1813V44.2887ZM74.8059 44.2594C74.8059 45.083 74.6236 45.7373 74.259 46.2223C73.8944 46.7041 73.4061 46.9449 72.7941 46.9449C72.0715 46.9449 71.5181 46.691 71.134 46.1832V48.8785H70.5529V41.5641H71.0949L71.1242 42.3112C71.5051 41.748 72.0568 41.4664 72.7795 41.4664C73.411 41.4664 73.9058 41.7057 74.2639 42.1842C74.6252 42.6627 74.8059 43.3268 74.8059 44.1764V44.2594ZM74.2199 44.1569C74.2199 43.483 74.0816 42.9508 73.8049 42.5602C73.5282 42.1696 73.1425 41.9742 72.6477 41.9742C72.2896 41.9742 71.982 42.0605 71.7248 42.233C71.4676 42.4056 71.2707 42.6562 71.134 42.985V45.5192C71.274 45.8219 71.4742 46.053 71.7346 46.2125C71.995 46.372 72.3026 46.4518 72.6574 46.4518C73.149 46.4518 73.5314 46.2565 73.8049 45.8658C74.0816 45.472 74.2199 44.9023 74.2199 44.1569ZM83.3578 46.4518C83.7647 46.4518 84.1049 46.3378 84.3783 46.11C84.655 45.8789 84.8048 45.581 84.8275 45.2164H85.3891C85.3728 45.5387 85.2719 45.8333 85.0863 46.1002C84.9008 46.3639 84.6534 46.5706 84.3441 46.7203C84.0381 46.8701 83.7094 46.9449 83.3578 46.9449C82.6645 46.9449 82.1143 46.7041 81.7074 46.2223C81.3038 45.7405 81.102 45.0927 81.102 44.2789V44.1031C81.102 43.5823 81.1931 43.1217 81.3754 42.7213C81.5577 42.3209 81.8181 42.0117 82.1566 41.7936C82.4984 41.5755 82.8972 41.4664 83.3529 41.4664C83.9324 41.4664 84.4092 41.639 84.7836 41.984C85.1612 42.3291 85.363 42.7832 85.3891 43.3463H84.8275C84.8015 42.9329 84.6518 42.5992 84.3783 42.3453C84.1081 42.0914 83.7663 41.9645 83.3529 41.9645C82.8256 41.9645 82.4154 42.1549 82.1225 42.5358C81.8327 42.9166 81.6879 43.4505 81.6879 44.1373V44.3082C81.6879 44.9821 81.8327 45.5078 82.1225 45.8854C82.4154 46.263 82.8272 46.4518 83.3578 46.4518ZM93.2965 44.4254H92.4859V46.8473H91.8951V41.5641H92.4859V43.9078H93.2867L95.2252 41.5641H95.9625L93.7945 44.1276L96.2018 46.8473H95.4303L93.2965 44.4254ZM105.681 46.8473C105.623 46.6813 105.585 46.4355 105.569 46.11C105.364 46.3769 105.102 46.5836 104.783 46.7301C104.467 46.8733 104.132 46.9449 103.777 46.9449C103.269 46.9449 102.858 46.8033 102.542 46.5201C102.229 46.2369 102.073 45.8789 102.073 45.4459C102.073 44.9316 102.286 44.5247 102.713 44.2252C103.142 43.9257 103.74 43.776 104.505 43.776H105.564V43.1754C105.564 42.7978 105.447 42.5016 105.213 42.2867C104.982 42.0686 104.643 41.9596 104.197 41.9596C103.79 41.9596 103.453 42.0638 103.186 42.2721C102.919 42.4804 102.786 42.7311 102.786 43.024L102.2 43.0192C102.2 42.5992 102.395 42.2363 102.786 41.9303C103.177 41.6211 103.657 41.4664 104.226 41.4664C104.816 41.4664 105.279 41.6145 105.618 41.9108C105.96 42.2037 106.136 42.6139 106.145 43.1412V45.6412C106.145 46.1523 106.199 46.5348 106.306 46.7887V46.8473H105.681ZM103.846 46.4274C104.236 46.4274 104.584 46.333 104.89 46.1442C105.2 45.9554 105.424 45.7031 105.564 45.3873V44.2252H104.519C103.937 44.2317 103.481 44.3392 103.152 44.5475C102.823 44.7526 102.659 45.0358 102.659 45.3971C102.659 45.6933 102.768 45.9391 102.986 46.1344C103.207 46.3297 103.494 46.4274 103.846 46.4274ZM116.86 41.5641V46.8473H116.274V44.7184H114.634L113.345 46.8473H112.7L114.028 44.6451C113.667 44.5507 113.385 44.3684 113.184 44.0983C112.985 43.8281 112.886 43.5091 112.886 43.1412C112.886 42.6627 113.057 42.2802 113.398 41.9938C113.743 41.7073 114.209 41.5641 114.795 41.5641H116.86ZM113.472 43.151C113.472 43.4602 113.569 43.7142 113.765 43.9127C113.963 44.1113 114.238 44.2138 114.59 44.2203H116.274V42.0621H114.78C114.373 42.0621 114.053 42.1598 113.818 42.3551C113.587 42.5504 113.472 42.8157 113.472 43.151ZM133.598 41.9156C134.269 41.9156 134.812 42.1354 135.229 42.5748C135.646 43.011 135.854 43.5905 135.854 44.3131V44.4401C135.854 44.9186 135.758 45.3499 135.566 45.734C135.377 46.1149 135.104 46.4127 134.746 46.6276C134.391 46.8392 133.982 46.9449 133.52 46.9449C132.823 46.9449 132.259 46.7138 131.826 46.2516C131.396 45.7861 131.181 45.166 131.181 44.3912V43.9225C131.181 42.8287 131.389 41.9547 131.806 41.3004C132.223 40.6461 132.815 40.2555 133.583 40.1285C134.068 40.0504 134.409 39.9446 134.604 39.8112C134.802 39.6777 134.902 39.4954 134.902 39.2643H135.405C135.405 39.5377 135.348 39.764 135.234 39.943C135.12 40.122 134.949 40.2669 134.721 40.3776C134.493 40.485 134.145 40.5761 133.676 40.651C133.139 40.7356 132.706 40.9651 132.377 41.3395C132.052 41.7106 131.84 42.2086 131.743 42.8336C131.951 42.5602 132.211 42.3388 132.524 42.1696C132.84 42.0003 133.198 41.9156 133.598 41.9156ZM131.767 44.318V44.4401C131.767 45.0358 131.928 45.5208 132.25 45.8951C132.573 46.2662 132.996 46.4518 133.52 46.4518C134.047 46.4518 134.47 46.2646 134.789 45.8903C135.108 45.5127 135.268 45.0179 135.268 44.4059V44.2789C135.268 43.7288 135.105 43.2796 134.78 42.9313C134.457 42.583 134.034 42.4088 133.51 42.4088C132.986 42.4088 132.565 42.5862 132.246 42.941C131.927 43.2926 131.767 43.7516 131.767 44.318ZM145.612 46.8473C145.553 46.6813 145.516 46.4355 145.5 46.11C145.295 46.3769 145.032 46.5836 144.713 46.7301C144.398 46.8733 144.062 46.9449 143.708 46.9449C143.2 46.9449 142.788 46.8033 142.472 46.5201C142.16 46.2369 142.004 45.8789 142.004 45.4459C142.004 44.9316 142.217 44.5247 142.643 44.2252C143.073 43.9257 143.67 43.776 144.435 43.776H145.495V43.1754C145.495 42.7978 145.378 42.5016 145.143 42.2867C144.912 42.0686 144.574 41.9596 144.128 41.9596C143.721 41.9596 143.384 42.0638 143.117 42.2721C142.85 42.4804 142.716 42.7311 142.716 43.024L142.13 43.0192C142.13 42.5992 142.326 42.2363 142.716 41.9303C143.107 41.6211 143.587 41.4664 144.157 41.4664C144.746 41.4664 145.21 41.6145 145.548 41.9108C145.89 42.2037 146.066 42.6139 146.076 43.1412V45.6412C146.076 46.1523 146.13 46.5348 146.237 46.7887V46.8473H145.612ZM143.776 46.4274C144.167 46.4274 144.515 46.333 144.821 46.1442C145.13 45.9554 145.355 45.7031 145.495 45.3873V44.2252H144.45C143.867 44.2317 143.411 44.3392 143.083 44.5475C142.754 44.7526 142.589 45.0358 142.589 45.3971C142.589 45.6933 142.699 45.9391 142.917 46.1344C143.138 46.3297 143.424 46.4274 143.776 46.4274ZM156.034 42.9606C156.034 42.6416 155.915 42.3958 155.678 42.2233C155.44 42.0507 155.113 41.9645 154.696 41.9645C154.318 41.9645 153.995 42.0621 153.724 42.2574C153.457 42.4495 153.324 42.6936 153.324 42.9899H152.743C152.743 42.5504 152.93 42.1875 153.304 41.901C153.682 41.6145 154.146 41.4713 154.696 41.4713C155.302 41.4713 155.774 41.6015 156.112 41.8619C156.451 42.1224 156.62 42.4918 156.62 42.9703C156.62 43.2242 156.542 43.4537 156.386 43.6588C156.229 43.8639 156.001 44.0234 155.702 44.1373C156.379 44.3229 156.718 44.7428 156.718 45.3971C156.718 45.8724 156.534 46.2483 156.166 46.525C155.798 46.8017 155.31 46.9401 154.701 46.9401C154.112 46.9401 153.623 46.792 153.236 46.4957C152.849 46.1995 152.655 45.8121 152.655 45.3336H153.241C153.241 45.6526 153.381 45.9196 153.661 46.1344C153.944 46.346 154.291 46.4518 154.701 46.4518C155.147 46.4518 155.495 46.359 155.746 46.1735C156 45.9847 156.127 45.7291 156.127 45.4069C156.127 45.052 156.011 44.7965 155.78 44.6403C155.549 44.484 155.196 44.4059 154.721 44.4059H153.915V43.8981H154.818C155.629 43.8785 156.034 43.566 156.034 42.9606ZM166.642 46.8473C166.583 46.6813 166.546 46.4355 166.529 46.11C166.324 46.3769 166.062 46.5836 165.743 46.7301C165.427 46.8733 165.092 46.9449 164.737 46.9449C164.229 46.9449 163.818 46.8033 163.502 46.5201C163.189 46.2369 163.033 45.8789 163.033 45.4459C163.033 44.9316 163.246 44.5247 163.673 44.2252C164.103 43.9257 164.7 43.776 165.465 43.776H166.524V43.1754C166.524 42.7978 166.407 42.5016 166.173 42.2867C165.942 42.0686 165.603 41.9596 165.157 41.9596C164.75 41.9596 164.413 42.0638 164.146 42.2721C163.88 42.4804 163.746 42.7311 163.746 43.024L163.16 43.0192C163.16 42.5992 163.355 42.2363 163.746 41.9303C164.137 41.6211 164.617 41.4664 165.187 41.4664C165.776 41.4664 166.24 41.6145 166.578 41.9108C166.92 42.2037 167.096 42.6139 167.105 43.1412V45.6412C167.105 46.1523 167.159 46.5348 167.267 46.7887V46.8473H166.642ZM164.806 46.4274C165.196 46.4274 165.545 46.333 165.851 46.1442C166.16 45.9554 166.384 45.7031 166.524 45.3873V44.2252H165.479C164.897 44.2317 164.441 44.3392 164.112 44.5475C163.784 44.7526 163.619 45.0358 163.619 45.3971C163.619 45.6933 163.728 45.9391 163.946 46.1344C164.168 46.3297 164.454 46.4274 164.806 46.4274Z" fill="black"/>
<defs>
<filter id="filter0_d" x="0.957031" y="5.28516" width="262.699" height="38.2969" filterUnits="userSpaceOnUse" color-interpolation-filters="sRGB">
<feFlood flood-opacity="0" result="BackgroundImageFix"/>
<feColorMatrix in="SourceAlpha" type="matrix" values="0 0 0 0 0 0 0 0 0 0 0 0 0 0 0 0 0 0 127 0"/>
<feOffset dy="4"/>
<feGaussianBlur stdDeviation="3"/>
<feColorMatrix type="matrix" values="0 0 0 0 0 0 0 0 0 0 0 0 0 0 0 0 0 0 0.25 0"/>
<feBlend mode="normal" in2="BackgroundImageFix" result="effect1_dropShadow"/>
<feBlend mode="normal" in="SourceGraphic" in2="effect1_dropShadow" result="shape"/>
</filter>
</defs>
</svg>
