<svg width="20" height="19" viewBox="0 0 20 19" fill="none" xmlns="http://www.w3.org/2000/svg">
<path d="M9.22318 16.7211L9.22174 16.7198C6.62662 14.3666 4.55384 12.4844 3.1178 10.7287C1.69324 8.98708 1 7.49212 1 5.9306C1 3.40289 2.97228 1.4306 5.5 1.4306C6.93721 1.4306 8.33224 2.10454 9.23865 3.16894L10 4.06301L10.7614 3.16894C11.6678 2.10454 13.0628 1.4306 14.5 1.4306C17.0277 1.4306 19 3.40289 19 5.9306C19 7.49213 18.3068 8.98713 16.882 10.7302C15.4459 12.4872 13.3734 14.3715 10.7786 16.7295C10.7782 16.7299 10.7778 16.7302 10.7775 16.7305L10.0026 17.4306L9.22318 16.7211Z" stroke="#2FA8FF" stroke-width="2"/>
</svg>
