<svg width="21" height="19" viewBox="0 0 21 19" fill="none" xmlns="http://www.w3.org/2000/svg">
<path d="M9.74515 16.7211L9.74371 16.7198C7.14859 14.3666 5.07582 12.4844 3.63977 10.7287C2.21522 8.98708 1.52197 7.49212 1.52197 5.9306C1.52197 3.40289 3.49426 1.4306 6.02197 1.4306C7.45919 1.4306 8.85421 2.10454 9.76062 3.16894L10.522 4.06301L11.2833 3.16894C12.1897 2.10454 13.5848 1.4306 15.022 1.4306C17.5497 1.4306 19.522 3.40289 19.522 5.9306C19.522 7.49213 18.8287 8.98713 17.404 10.7302C15.9679 12.4872 13.8954 14.3715 11.3005 16.7295C11.3002 16.7299 11.2998 16.7302 11.2994 16.7305L10.5245 17.4306L9.74515 16.7211Z" fill="#2FA8FF" stroke="#2FA8FF" stroke-width="2"/>
</svg>
