<svg width="22" height="19" viewBox="0 0 22 19" fill="none" xmlns="http://www.w3.org/2000/svg">
<path d="M20.833 14.571H7.79007C7.54889 13.924 7.10256 13.3639 6.51248 12.9678C5.9224 12.5716 5.21758 12.3589 4.49501 12.3589C3.77243 12.3589 3.06761 12.5716 2.47753 12.9678C1.88746 13.3639 1.44112 13.924 1.19995 14.571H1.16837C0.858865 14.571 0.562034 14.6878 0.343179 14.8957C0.124324 15.1035 0.00137271 15.3855 0.00137271 15.6795C0.00137271 15.9735 0.124324 16.2554 0.343179 16.4633C0.562034 16.6712 0.858865 16.788 1.16837 16.788H1.19995C1.44112 17.4349 1.88746 17.995 2.47753 18.3912C3.06761 18.7873 3.77243 19 4.49501 19C5.21758 19 5.9224 18.7873 6.51248 18.3912C7.10256 17.995 7.54889 17.4349 7.79007 16.788H20.833C21.1425 16.788 21.4393 16.6712 21.6582 16.4633C21.877 16.2554 22 15.9735 22 15.6795C22 15.3855 21.877 15.1035 21.6582 14.8957C21.4393 14.6878 21.1425 14.571 20.833 14.571ZM4.49501 16.788C4.26508 16.7892 4.0399 16.7257 3.84795 16.6055C3.656 16.4853 3.50589 16.3137 3.41658 16.1124C3.32728 15.9111 3.30279 15.6893 3.34622 15.4748C3.38965 15.2603 3.49904 15.0629 3.66057 14.9074C3.8221 14.752 4.02852 14.6455 4.25373 14.6015C4.47895 14.5575 4.71285 14.5779 4.92588 14.6601C5.1389 14.7423 5.32149 14.8826 5.45056 15.0634C5.57963 15.2441 5.64939 15.4572 5.65102 15.6756C5.65176 15.968 5.53055 16.2487 5.31391 16.4565C5.09727 16.6642 4.80283 16.782 4.49501 16.784V16.788ZM20.833 8.38956H20.8001C20.5589 7.74257 20.1125 7.18248 19.5225 6.78635C18.9324 6.39021 18.2276 6.17751 17.505 6.17751C16.7824 6.17751 16.0776 6.39021 15.4875 6.78635C14.8974 7.18248 14.4511 7.74257 14.2099 8.38956H1.167C0.857492 8.38956 0.560661 8.50635 0.341806 8.71423C0.122951 8.92211 0 9.20406 0 9.49804C0 9.79203 0.122951 10.074 0.341806 10.2819C0.560661 10.4897 0.857492 10.6065 1.167 10.6065H14.2099C14.4517 11.2529 14.8983 11.8123 15.4883 12.208C16.0783 12.6036 16.7828 12.816 17.505 12.816C18.2272 12.816 18.9317 12.6036 19.5217 12.208C20.1117 11.8123 20.5583 11.2529 20.8001 10.6065H20.833C21.1425 10.6065 21.4393 10.4897 21.6582 10.2819C21.877 10.074 22 9.79203 22 9.49804C22 9.20406 21.877 8.92211 21.6582 8.71423C21.4393 8.50635 21.1425 8.38956 20.833 8.38956ZM17.505 10.6065C17.2749 10.6065 17.0501 10.5417 16.8588 10.4203C16.6675 10.2989 16.5185 10.1263 16.4305 9.92436C16.3425 9.72245 16.3196 9.50029 16.3646 9.28598C16.4095 9.07168 16.5204 8.87487 16.6832 8.72044C16.846 8.56602 17.0533 8.46092 17.279 8.41845C17.5046 8.37598 17.7385 8.39804 17.951 8.48184C18.1634 8.56564 18.3449 8.70742 18.4726 8.88924C18.6002 9.07106 18.6681 9.28474 18.6679 9.50326C18.6657 9.79497 18.5423 10.0741 18.3245 10.2797C18.1067 10.4854 17.8121 10.601 17.505 10.6013V10.6065ZM1.167 4.42901H1.19858C1.43975 5.076 1.88608 5.63609 2.47616 6.03223C3.06624 6.42836 3.77106 6.64106 4.49363 6.64106C5.21621 6.64106 5.92103 6.42836 6.51111 6.03223C7.10119 5.63609 7.54752 5.076 7.78869 4.42901H20.833C21.1425 4.42901 21.4393 4.31223 21.6582 4.10435C21.877 3.89646 22 3.61452 22 3.32053C22 3.02654 21.877 2.74459 21.6582 2.53671C21.4393 2.32883 21.1425 2.21205 20.833 2.21205H7.79007C7.54889 1.56506 7.10256 1.00496 6.51248 0.608832C5.9224 0.2127 5.21758 0 4.49501 0C3.77243 0 3.06761 0.2127 2.47753 0.608832C1.88746 1.00496 1.44112 1.56506 1.19995 2.21205H1.16837C0.858865 2.21205 0.562034 2.32883 0.343179 2.53671C0.124324 2.74459 0.00137271 3.02654 0.00137271 3.32053C0.00137271 3.61452 0.124324 3.89646 0.343179 4.10435C0.562034 4.31223 0.858865 4.42901 1.16837 4.42901H1.167ZM4.49501 2.21074C4.725 2.21074 4.94983 2.27552 5.14107 2.3969C5.3323 2.51827 5.48135 2.69078 5.56937 2.89261C5.65738 3.09445 5.68041 3.31654 5.63554 3.5308C5.59067 3.74507 5.47992 3.94189 5.31729 4.09636C5.15466 4.25084 4.94745 4.35604 4.72187 4.39866C4.4963 4.44128 4.26248 4.41941 4.04999 4.3358C3.8375 4.2522 3.65589 4.11063 3.52811 3.92898C3.40033 3.74733 3.33213 3.53378 3.33213 3.31531C3.33249 3.02247 3.45512 2.74172 3.67313 2.53464C3.89113 2.32757 4.1867 2.21109 4.49501 2.21074Z" fill="#2FA8FF"/>
</svg>
