<svg width="22" height="20" viewBox="0 0 22 20" fill="none" xmlns="http://www.w3.org/2000/svg">
<path d="M3.4375 15H0.6875C0.505164 15 0.330295 15.079 0.201364 15.2197C0.0724328 15.3603 0 15.5511 0 15.75L0 18.75C0 18.9489 0.0724328 19.1397 0.201364 19.2803C0.330295 19.421 0.505164 19.5 0.6875 19.5H3.4375C3.61984 19.5 3.7947 19.421 3.92364 19.2803C4.05257 19.1397 4.125 18.9489 4.125 18.75V15.75C4.125 15.5511 4.05257 15.3603 3.92364 15.2197C3.7947 15.079 3.61984 15 3.4375 15ZM3.4375 0H0.6875C0.505164 0 0.330295 0.0790176 0.201364 0.21967C0.0724328 0.360322 0 0.551088 0 0.75L0 3.75C0 3.94891 0.0724328 4.13968 0.201364 4.28033C0.330295 4.42098 0.505164 4.5 0.6875 4.5H3.4375C3.61984 4.5 3.7947 4.42098 3.92364 4.28033C4.05257 4.13968 4.125 3.94891 4.125 3.75V0.75C4.125 0.551088 4.05257 0.360322 3.92364 0.21967C3.7947 0.0790176 3.61984 0 3.4375 0ZM3.4375 7.5H0.6875C0.505164 7.5 0.330295 7.57902 0.201364 7.71967C0.0724328 7.86032 0 8.05109 0 8.25L0 11.25C0 11.4489 0.0724328 11.6397 0.201364 11.7803C0.330295 11.921 0.505164 12 0.6875 12H3.4375C3.61984 12 3.7947 11.921 3.92364 11.7803C4.05257 11.6397 4.125 11.4489 4.125 11.25V8.25C4.125 8.05109 4.05257 7.86032 3.92364 7.71967C3.7947 7.57902 3.61984 7.5 3.4375 7.5ZM21.3125 15.75H7.5625C7.38016 15.75 7.2053 15.829 7.07636 15.9697C6.94743 16.1103 6.875 16.3011 6.875 16.5V18C6.875 18.1989 6.94743 18.3897 7.07636 18.5303C7.2053 18.671 7.38016 18.75 7.5625 18.75H21.3125C21.4948 18.75 21.6697 18.671 21.7986 18.5303C21.9276 18.3897 22 18.1989 22 18V16.5C22 16.3011 21.9276 16.1103 21.7986 15.9697C21.6697 15.829 21.4948 15.75 21.3125 15.75ZM21.3125 0.75H7.5625C7.38016 0.75 7.2053 0.829018 7.07636 0.96967C6.94743 1.11032 6.875 1.30109 6.875 1.5V3C6.875 3.19891 6.94743 3.38968 7.07636 3.53033C7.2053 3.67098 7.38016 3.75 7.5625 3.75H21.3125C21.4948 3.75 21.6697 3.67098 21.7986 3.53033C21.9276 3.38968 22 3.19891 22 3V1.5C22 1.30109 21.9276 1.11032 21.7986 0.96967C21.6697 0.829018 21.4948 0.75 21.3125 0.75ZM21.3125 8.25H7.5625C7.38016 8.25 7.2053 8.32902 7.07636 8.46967C6.94743 8.61032 6.875 8.80109 6.875 9V10.5C6.875 10.6989 6.94743 10.8897 7.07636 11.0303C7.2053 11.171 7.38016 11.25 7.5625 11.25H21.3125C21.4948 11.25 21.6697 11.171 21.7986 11.0303C21.9276 10.8897 22 10.6989 22 10.5V9C22 8.80109 21.9276 8.61032 21.7986 8.46967C21.6697 8.32902 21.4948 8.25 21.3125 8.25Z" fill="#2FA8FF"/>
</svg>
