<svg width="134" height="20" viewBox="0 0 134 20" fill="none" xmlns="http://www.w3.org/2000/svg">
<path d="M20.7547 19.5128H17.041L17.041 1.02086L20.7547 1.02086L20.7547 19.5128Z" fill="white"/>
<path d="M35.0525 11.4988L27.9222 11.4988V16.452L36.2904 16.452V19.5128L24.2085 19.5128L24.2085 1.02086L36.2656 1.02086V4.10709L27.9222 4.10709V8.51417L35.0525 8.51417V11.4988Z" fill="white"/>
<path d="M42.1828 16.452L50.0682 16.452V19.5128L38.4691 19.5128V1.02086L42.1828 1.02086V16.452Z" fill="white"/>
<path d="M63.2271 4.10709H57.706V19.5128H53.9923V4.10709L48.5456 4.10709V1.02086L63.2271 1.02086V4.10709Z" fill="white"/>
<path d="M89.5958 12.7435L86.6372 12.7435V19.5128H82.9235V1.02086L89.6206 1.02086C91.7498 1.02086 93.392 1.50771 94.5474 2.48142C95.7028 3.45513 96.2805 4.83102 96.2805 6.60909C96.2805 7.87068 96.0123 8.92482 95.4758 9.77152C94.9477 10.6098 94.143 11.2787 93.0619 11.7782L96.9613 19.335V19.5128H92.9753L89.5958 12.7435ZM86.6372 9.65722L89.633 9.65722C90.5655 9.65722 91.2876 9.41591 91.7993 8.93329C92.3109 8.4422 92.5668 7.76907 92.5668 6.9139C92.5668 6.0418 92.3233 5.35597 91.8364 4.85642C91.3578 4.35686 90.6191 4.10709 89.6206 4.10709L86.6372 4.10709V9.65722Z" fill="white"/>
<path d="M113.921 10.686C113.921 12.5064 113.607 14.1024 112.98 15.4741C112.353 16.8457 111.453 17.9041 110.281 18.6492C109.118 19.3943 107.781 19.7668 106.27 19.7668C104.777 19.7668 103.444 19.3985 102.272 18.6619C101.1 17.9253 100.192 16.8754 99.5485 15.5122C98.9048 14.1405 98.5788 12.5656 98.5706 10.7876V9.87313C98.5706 8.05272 98.8883 6.45245 99.5238 5.07233C100.167 3.68374 101.071 2.62112 102.235 1.88449C103.407 1.13939 104.744 0.766846 106.246 0.766846C107.748 0.766846 109.08 1.13939 110.244 1.88449C111.416 2.62112 112.32 3.68374 112.955 5.07233C113.599 6.45245 113.921 8.04849 113.921 9.86043V10.686ZM110.157 9.84773C110.157 7.90878 109.819 6.43552 109.142 5.42794C108.466 4.42037 107.5 3.91658 106.246 3.91658C104.999 3.91658 104.038 4.41613 103.361 5.41524C102.685 6.40588 102.342 7.86221 102.334 9.78423V10.686C102.334 12.5741 102.672 14.0389 103.349 15.0803C104.026 16.1218 104.999 16.6425 106.27 16.6425C107.516 16.6425 108.474 16.143 109.142 15.1439C109.811 14.1363 110.149 12.6715 110.157 10.7495V9.84773Z" fill="white"/>
<path d="M127.463 11.956H120.333V19.5128H116.619V1.02086L128.354 1.02086V4.10709L120.333 4.10709V8.88249H127.463V11.956Z" fill="white"/>
<path fill-rule="evenodd" clip-rule="evenodd" d="M4.32771 12.7435H7.2863L10.6658 19.5128H14.6518V19.335L10.7524 11.7782C11.8335 11.2787 12.6382 10.6098 13.1663 9.77154C13.7027 8.92484 13.971 7.87069 13.971 6.6091C13.971 4.83103 13.3933 3.45514 12.2379 2.48143C11.0825 1.50772 9.44024 1.02087 7.31105 1.02087H0.614014V4.10889H4.32771V4.1071H7.31105C8.30963 4.1071 9.04824 4.35688 9.5269 4.85643C10.0138 5.35598 10.2573 6.04181 10.2573 6.91392C10.2573 7.76909 10.0014 8.44221 9.48976 8.9333C8.97809 9.41592 8.25598 9.65723 7.32343 9.65723H4.32771V9.65553H0.614014V19.5128H4.32771V12.7435Z" fill="#2FA8FF"/>
<path d="M70.2722 19.5128V12.9975H73.5279C75.6653 12.9975 77.3365 12.4767 78.5413 11.4353C79.7545 10.3854 80.3611 8.95446 80.3611 7.14252C80.3611 5.94867 80.0846 4.88606 79.5317 3.95468C78.9787 3.01484 78.1865 2.29091 77.1549 1.78289C76.1316 1.27487 74.9432 1.02086 73.5897 1.02086H66.5585V4.10596H71.6448V4.10709H73.6764C74.5924 4.12402 75.3104 4.4119 75.8303 4.97073C76.3503 5.52955 76.6102 6.26195 76.6102 7.16792C76.6102 8.04849 76.3503 8.72585 75.8303 9.20001C75.3187 9.67416 74.5718 9.91123 73.5897 9.91123H70.2722V9.90596H66.5585V19.5128H70.2722Z" fill="#2FA8FF"/>
</svg>
