<svg width="133" height="19" viewBox="0 0 133 19" fill="none" xmlns="http://www.w3.org/2000/svg">
<path d="M20.1406 18.746H16.4269L16.4269 0.254011L20.1406 0.254011L20.1406 18.746Z" fill="#6D6D6D"/>
<path d="M34.4384 10.732L27.3081 10.732V15.6852L35.6763 15.6852V18.746L23.5944 18.746L23.5944 0.254011L35.6515 0.254011V3.34024L27.3081 3.34024V7.74733L34.4384 7.74733V10.732Z" fill="#6D6D6D"/>
<path d="M41.5687 15.6852L49.4541 15.6852V18.746L37.855 18.746V0.254011L41.5687 0.254011V15.6852Z" fill="#6D6D6D"/>
<path d="M62.613 3.34024L57.092 3.34024V18.746H53.3783V3.34024L47.9315 3.34024V0.254011L62.613 0.254011V3.34024Z" fill="#6D6D6D"/>
<path d="M88.9817 11.9766L86.0232 11.9766V18.746H82.3095V0.254011L89.0065 0.254011C91.1357 0.254011 92.778 0.740865 93.9333 1.71457C95.0887 2.68828 95.6664 4.06417 95.6664 5.84225C95.6664 7.10383 95.3982 8.15798 94.8618 9.00468C94.3336 9.84291 93.529 10.5118 92.4479 11.0114L96.3473 18.5682V18.746H92.3612L88.9817 11.9766ZM86.0232 8.89037L89.0189 8.89037C89.9514 8.89037 90.6735 8.64906 91.1852 8.16644C91.6969 7.67536 91.9527 7.00223 91.9527 6.14706C91.9527 5.27496 91.7093 4.58913 91.2223 4.08957C90.7437 3.59002 90.0051 3.34024 89.0065 3.34024L86.0232 3.34024V8.89037Z" fill="#6D6D6D"/>
<path d="M113.306 9.91912C113.306 11.7395 112.993 13.3356 112.366 14.7072C111.738 16.0789 110.839 17.1373 109.667 17.8824C108.503 18.6275 107.166 19 105.656 19C104.163 19 102.83 18.6317 101.658 17.8951C100.486 17.1584 99.5782 16.1085 98.9345 14.7453C98.2908 13.3737 97.9648 11.7988 97.9565 10.0207V9.10628C97.9565 7.28587 98.2742 5.68561 98.9097 4.30548C99.5534 2.91689 100.457 1.85428 101.621 1.11765C102.793 0.372549 104.13 0 105.632 0C107.133 0 108.466 0.372549 109.63 1.11765C110.802 1.85428 111.705 2.91689 112.341 4.30548C112.985 5.68561 113.306 7.28164 113.306 9.09358V9.91912ZM109.543 9.08088C109.543 7.14193 109.205 5.66867 108.528 4.6611C107.851 3.65352 106.886 3.14973 105.632 3.14973C104.385 3.14973 103.424 3.64929 102.747 4.6484C102.07 5.63904 101.728 7.09537 101.72 9.01738V9.91912C101.72 11.8073 102.058 13.2721 102.735 14.3135C103.412 15.3549 104.385 15.8757 105.656 15.8757C106.902 15.8757 107.86 15.3761 108.528 14.377C109.197 13.3694 109.535 11.9046 109.543 9.98262V9.08088Z" fill="#6D6D6D"/>
<path d="M126.849 11.1892H119.719V18.746H116.005V0.254011L127.74 0.254011V3.34024L119.719 3.34024V8.11564H126.849V11.1892Z" fill="#6D6D6D"/>
<path fill-rule="evenodd" clip-rule="evenodd" d="M3.7137 11.9766H6.67228L10.0518 18.746H14.0378V18.5682L10.1384 11.0114C11.2195 10.5118 12.0241 9.84293 12.5523 9.0047C13.0887 8.158 13.3569 7.10385 13.3569 5.84226C13.3569 4.06419 12.7793 2.6883 11.6239 1.71459C10.4685 0.740882 8.82623 0.254028 6.69704 0.254028H0V3.34205H3.7137V3.34026H6.69704C7.69561 3.34026 8.43423 3.59004 8.91288 4.08959C9.39979 4.58914 9.64324 5.27497 9.64324 6.14708C9.64324 7.00225 9.38741 7.67537 8.87574 8.16646C8.36408 8.64908 7.64197 8.89039 6.70942 8.89039H3.7137V8.88869H0V18.746H3.7137V11.9766Z" fill="#2FA8FF"/>
<path d="M69.6582 18.746V12.2306H72.9138C75.0513 12.2306 76.7224 11.7099 77.9273 10.6685C79.1405 9.61856 79.747 8.18763 79.747 6.37569C79.747 5.18184 79.4706 4.11922 78.9177 3.18785C78.3647 2.24801 77.5725 1.52408 76.5409 1.01606C75.5176 0.508039 74.3292 0.254028 72.9757 0.254028H65.9445V3.33912H71.0308V3.34026H73.0624C73.9784 3.35719 74.6964 3.64507 75.2163 4.20389C75.7362 4.76272 75.9962 5.49512 75.9962 6.40109C75.9962 7.28166 75.7362 7.95902 75.2163 8.43317C74.7047 8.90733 73.9578 9.1444 72.9757 9.1444H69.6582V9.13912H65.9445V18.746H69.6582Z" fill="#2FA8FF"/>
</svg>
