<svg width="18" height="19" viewBox="0 0 18 19" fill="none" xmlns="http://www.w3.org/2000/svg">
<path d="M16.6101 1.02026L13.1886 0.158885C12.8168 0.0655698 12.4352 0.277324 12.2838 0.657765L10.7046 4.67752C10.5665 5.02924 10.6586 5.44199 10.9317 5.68245L12.9254 7.46263C11.741 10.2154 9.67159 12.5053 7.09554 13.8224L5.46372 11.6475C5.24 11.3496 4.86494 11.2491 4.54252 11.3998L0.857754 13.1226C0.505727 13.2913 0.311618 13.7076 0.397158 14.1132L1.18675 17.8458C1.269 18.2334 1.58484 18.5133 1.95661 18.5133C10.3822 18.5133 17.2221 11.066 17.2221 1.8601C17.2221 1.45813 16.9688 1.10999 16.6101 1.02026Z" fill="white"/>
</svg>
