<svg width="19" height="18" viewBox="0 0 19 18" fill="none" xmlns="http://www.w3.org/2000/svg">
<path d="M13.1512 11.2231H12.3612L12.0812 10.9531C13.0612 9.81314 13.6512 8.33314 13.6512 6.72314C13.6512 3.13314 10.7412 0.223145 7.15125 0.223145C3.56125 0.223145 0.651245 3.13314 0.651245 6.72314C0.651245 10.3131 3.56125 13.2231 7.15125 13.2231C8.76125 13.2231 10.2412 12.6331 11.3812 11.6531L11.6512 11.9331V12.7231L16.6512 17.7131L18.1412 16.2231L13.1512 11.2231V11.2231ZM7.15125 11.2231C4.66125 11.2231 2.65125 9.21314 2.65125 6.72314C2.65125 4.23314 4.66125 2.22314 7.15125 2.22314C9.64125 2.22314 11.6512 4.23314 11.6512 6.72314C11.6512 9.21314 9.64125 11.2231 7.15125 11.2231Z" fill="white"/>
</svg>
