<svg width="19" height="18" viewBox="0 0 19 18" fill="none" xmlns="http://www.w3.org/2000/svg">
<path d="M13.1512 11.5073H12.3612L12.0812 11.2373C13.0612 10.0973 13.6512 8.61732 13.6512 7.00732C13.6512 3.41732 10.7412 0.507324 7.15125 0.507324C3.56125 0.507324 0.651245 3.41732 0.651245 7.00732C0.651245 10.5973 3.56125 13.5073 7.15125 13.5073C8.76125 13.5073 10.2412 12.9173 11.3812 11.9373L11.6512 12.2173V13.0073L16.6512 17.9973L18.1412 16.5073L13.1512 11.5073V11.5073ZM7.15125 11.5073C4.66125 11.5073 2.65125 9.49732 2.65125 7.00732C2.65125 4.51732 4.66125 2.50732 7.15125 2.50732C9.64125 2.50732 11.6512 4.51732 11.6512 7.00732C11.6512 9.49732 9.64125 11.5073 7.15125 11.5073Z" fill="#3C3C3C"/>
</svg>
