<svg width="168" height="127" viewBox="0 0 168 127" fill="none" xmlns="http://www.w3.org/2000/svg">
<rect width="168" height="13" rx="6.5" fill="#C4C4C4"/>
<rect y="21" width="21" height="15" rx="7.5" fill="#C4C4C4"/>
<rect x="34.5" y="21.5" width="91" height="14" rx="7" fill="white" stroke="#ABABAB"/>
<rect x="133" y="21" width="14" height="15" rx="7" fill="#C4C4C4"/>
<rect x="154" y="21" width="14" height="15" rx="7" fill="#C4C4C4"/>
<rect x="0.5" y="66.5" width="167" height="60" fill="#EBEBEB" stroke="#247CFF"/>
<rect x="125" y="109" width="29" height="6" rx="3" fill="#C4C4C4"/>
<rect x="125" y="93" width="29" height="6" rx="3" fill="#C4C4C4"/>
<rect x="125" y="77" width="29" height="6" rx="3" fill="#C4C4C4"/>
<rect x="70" y="109" width="29" height="6" rx="3" fill="#C4C4C4"/>
<rect x="70" y="93" width="29" height="6" rx="3" fill="#C4C4C4"/>
<rect x="70" y="77" width="29" height="6" rx="3" fill="#C4C4C4"/>
<rect x="14" y="109" width="29" height="6" rx="3" fill="#C4C4C4"/>
<rect x="14" y="93" width="29" height="6" rx="3" fill="#C4C4C4"/>
<rect x="14" y="77" width="29" height="6" rx="3" fill="#C4C4C4"/>
<rect y="44" width="168" height="15" rx="7.5" fill="#247CFF"/>
</svg>
