<svg width="38" height="24" viewBox="0 0 38 24" fill="none" xmlns="http://www.w3.org/2000/svg">
<path d="M23.8286 2.49609H13.6846V20.8561H23.8286V2.49609Z" fill="#FF5F00"/>
<path d="M14.3288 11.6793C14.3269 9.91081 14.7246 8.16511 15.4918 6.57436C16.259 4.98361 17.3755 3.58951 18.7568 2.49764C17.0465 1.14398 14.9926 0.302216 12.8297 0.0685597C10.6669 -0.165096 8.48242 0.218779 6.52597 1.17631C4.56951 2.13385 2.92002 3.62641 1.766 5.48341C0.611981 7.34041 0 9.48693 0 11.6776C0 13.8683 0.611981 16.0149 1.766 17.8719C2.92002 19.7289 4.56951 21.2214 6.52597 22.179C8.48242 23.1365 10.6669 23.5204 12.8297 23.2867C14.9926 23.0531 17.0465 22.2113 18.7568 20.8576C17.3759 19.7661 16.2596 18.3725 15.4925 16.7824C14.7254 15.1922 14.3274 13.4472 14.3288 11.6793Z" fill="#EB001B"/>
<path d="M37.5153 11.6787C37.5153 13.8695 36.9031 16.0162 35.7489 17.8732C34.5947 19.7303 32.9449 21.2228 30.9882 22.1802C29.0316 23.1376 26.8469 23.5213 24.6839 23.2873C22.5209 23.0533 20.467 22.2111 18.7568 20.857C20.1372 19.7645 21.2531 18.3706 22.0204 16.7803C22.7878 15.1901 23.1865 13.4451 23.1865 11.677C23.1865 9.90896 22.7878 8.16397 22.0204 6.57374C21.2531 4.9835 20.1372 3.58954 18.7568 2.49703C20.467 1.14295 22.5209 0.30078 24.6839 0.0667887C26.8469 -0.167203 29.0316 0.216425 30.9882 1.17382C32.9449 2.13122 34.5947 3.62375 35.7489 5.48082C36.9031 7.33788 37.5153 9.48454 37.5153 11.6754V11.6787Z" fill="#F79E1B"/>
<path d="M36.4076 18.9111V18.5349H36.559V18.457H36.1758V18.5349H36.34V18.9111H36.4076ZM37.1515 18.9111V18.457H37.0356L36.9004 18.7814L36.7651 18.457H36.6621V18.9111H36.7458V18.5705L36.8714 18.8657H36.9583L37.0839 18.5705V18.9143L37.1515 18.9111Z" fill="#F79E1B"/>
<path d="M6.7082 13.7327V11.7727C6.71933 11.6079 6.69611 11.4425 6.64007 11.2876C6.58403 11.1327 6.49647 10.9919 6.38322 10.8744C6.26997 10.757 6.13362 10.6656 5.98327 10.6065C5.83293 10.5473 5.67202 10.5218 5.51128 10.5314C5.30088 10.5173 5.09064 10.5613 4.90249 10.659C4.71435 10.7567 4.55522 10.9044 4.44169 11.0868C4.33821 10.9099 4.19015 10.765 4.01311 10.6672C3.83607 10.5695 3.63662 10.5226 3.43577 10.5314C3.2607 10.5224 3.08635 10.5604 2.93 10.6417C2.77366 10.7231 2.64075 10.845 2.54445 10.9953V10.6098H1.88232V13.7327H2.55082V12.0145C2.5366 11.9077 2.54554 11.799 2.57702 11.6961C2.60849 11.5933 2.66171 11.4989 2.73288 11.4196C2.80404 11.3404 2.8914 11.2782 2.98869 11.2376C3.08599 11.197 3.19083 11.1789 3.29571 11.1847C3.735 11.1847 3.95783 11.4787 3.95783 12.0079V13.7457H4.62632V12.0145C4.61269 11.9078 4.62204 11.7993 4.65373 11.6968C4.68542 11.5942 4.73866 11.5 4.80971 11.4209C4.88075 11.3417 4.96786 11.2796 5.06489 11.2388C5.16191 11.198 5.26648 11.1795 5.37122 11.1847C5.82324 11.1847 6.03971 11.4787 6.03971 12.0079V13.7457L6.7082 13.7327ZM16.5987 10.6098H15.51V9.66253H14.8415V10.6098H14.2367V11.2305H14.8543V12.6678C14.8543 13.393 15.128 13.8241 15.9111 13.8241C16.2037 13.8252 16.4906 13.7414 16.7388 13.5824L16.5478 13.001C16.3702 13.1096 16.1687 13.1703 15.962 13.1774C15.6437 13.1774 15.5227 12.9683 15.5227 12.6547V11.2305H16.6051L16.5987 10.6098ZM22.2459 10.5314C22.0844 10.5266 21.9247 10.5665 21.7835 10.647C21.6423 10.7274 21.5249 10.8455 21.4437 10.9888V10.6098H20.7879V13.7327H21.45V11.9818C21.45 11.4657 21.6665 11.1782 22.0867 11.1782C22.2283 11.1762 22.3689 11.2029 22.5005 11.2566L22.7043 10.6033C22.553 10.5478 22.3937 10.5191 22.2331 10.5184L22.2459 10.5314ZM13.7083 10.8581C13.3335 10.6294 12.9026 10.516 12.4668 10.5314C11.6964 10.5314 11.1935 10.9104 11.1935 11.531C11.1935 12.0406 11.5627 12.3542 12.244 12.4522L12.5623 12.4979C12.9252 12.5502 13.0971 12.6482 13.0971 12.8246C13.0971 13.0663 12.8551 13.2035 12.4031 13.2035C12.0395 13.2143 11.683 13.0992 11.3908 12.8768L11.0725 13.406C11.4582 13.6824 11.9202 13.8244 12.3904 13.8111C13.269 13.8111 13.7783 13.3864 13.7783 12.7919C13.7783 12.1974 13.3772 11.9557 12.7151 11.8577L12.3967 11.8119C12.1103 11.7727 11.8811 11.7139 11.8811 11.5049C11.8811 11.2958 12.0975 11.139 12.4604 11.139C12.7958 11.143 13.1246 11.2352 13.4154 11.4069L13.7083 10.8581ZM31.4424 10.5314C31.281 10.5266 31.1212 10.5665 30.9801 10.647C30.8389 10.7274 30.7215 10.8455 30.6402 10.9888V10.6098H29.9845V13.7327H30.6466V11.9818C30.6466 11.4657 30.863 11.1782 31.2832 11.1782C31.4249 11.1762 31.5655 11.2029 31.6971 11.2566L31.9008 10.6033C31.7496 10.5478 31.5903 10.5191 31.4297 10.5184L31.4424 10.5314ZM22.9112 12.1647C22.9033 12.3842 22.9402 12.6029 23.0194 12.8069C23.0986 13.0109 23.2185 13.1957 23.3713 13.3494C23.5241 13.5032 23.7065 13.6225 23.9068 13.6997C24.1072 13.777 24.321 13.8104 24.5347 13.798C24.9322 13.8188 25.3229 13.6859 25.6297 13.4256L25.3114 12.8768C25.0825 13.0559 24.8034 13.1545 24.5156 13.1578C24.2708 13.1374 24.0425 13.0233 23.876 12.8381C23.7095 12.6529 23.6171 12.4102 23.6171 12.1582C23.6171 11.9062 23.7095 11.6635 23.876 11.4783C24.0425 11.2931 24.2708 11.1789 24.5156 11.1586C24.8034 11.1619 25.0825 11.2604 25.3114 11.4395L25.6297 10.8908C25.3229 10.6305 24.9322 10.4976 24.5347 10.5184C24.321 10.5059 24.1072 10.5394 23.9068 10.6167C23.7065 10.6939 23.5241 10.8132 23.3713 10.967C23.2185 11.1207 23.0986 11.3055 23.0194 11.5095C22.9402 11.7135 22.9033 11.9322 22.9112 12.1517V12.1647ZM29.1122 12.1647V10.6098H28.4501V10.9888C28.3377 10.8403 28.1924 10.7214 28.0264 10.6419C27.8603 10.5624 27.6782 10.5245 27.4951 10.5314C27.073 10.5314 26.6681 10.7035 26.3697 11.0098C26.0712 11.3161 25.9035 11.7315 25.9035 12.1647C25.9035 12.5979 26.0712 13.0133 26.3697 13.3196C26.6681 13.6259 27.073 13.798 27.4951 13.798C27.6782 13.8049 27.8603 13.7671 28.0264 13.6876C28.1924 13.6081 28.3377 13.4892 28.4501 13.3407V13.7196H29.1122V12.1647ZM26.6484 12.1647C26.6589 11.9809 26.7216 11.8043 26.8288 11.6566C26.9359 11.5089 27.0828 11.3965 27.2514 11.3334C27.42 11.2703 27.6029 11.2592 27.7775 11.3013C27.9522 11.3435 28.111 11.4372 28.2345 11.5709C28.3579 11.7045 28.4406 11.8723 28.4723 12.0536C28.5039 12.2348 28.4833 12.4216 28.4128 12.591C28.3424 12.7603 28.2252 12.9048 28.0757 13.0067C27.9262 13.1086 27.751 13.1633 27.5715 13.1643C27.4455 13.1659 27.3205 13.1408 27.2044 13.0904C27.0882 13.0401 26.9835 12.9656 26.8968 12.8718C26.8101 12.7779 26.7433 12.6666 26.7005 12.5449C26.6578 12.4232 26.64 12.2938 26.6484 12.1647ZM18.6583 10.5314C18.2362 10.5375 17.8337 10.7154 17.5394 11.026C17.245 11.3366 17.083 11.7544 17.0889 12.1876C17.0948 12.6208 17.2682 13.0338 17.5709 13.3358C17.8735 13.6378 18.2807 13.8041 18.7029 13.798C19.1608 13.8221 19.6112 13.6708 19.9666 13.3734L19.6483 12.8703C19.3969 13.0772 19.0855 13.1921 18.7633 13.197C18.5445 13.2163 18.3269 13.1472 18.1569 13.0045C17.9869 12.8617 17.8778 12.6566 17.8529 12.4326H20.1131C20.1131 12.3477 20.1131 12.2627 20.1131 12.1713C20.1131 11.1913 19.521 10.538 18.6678 10.538L18.6583 10.5314ZM18.6583 11.139C18.7574 11.1369 18.8559 11.1547 18.9482 11.1917C19.0406 11.2286 19.1249 11.2838 19.1965 11.3542C19.268 11.4245 19.3253 11.5087 19.3652 11.6018C19.405 11.6949 19.4266 11.7952 19.4286 11.8969H17.837C17.8485 11.6872 17.9396 11.4904 18.0907 11.3488C18.2418 11.2072 18.441 11.1319 18.6456 11.139H18.6583ZM35.2464 12.1713V9.35547H34.6098V10.9888C34.4973 10.8403 34.3521 10.7214 34.1861 10.6419C34.02 10.5624 33.8379 10.5245 33.6548 10.5314C33.2327 10.5314 32.8278 10.7035 32.5293 11.0098C32.2308 11.3161 32.0631 11.7315 32.0631 12.1647C32.0631 12.5979 32.2308 13.0133 32.5293 13.3196C32.8278 13.6259 33.2327 13.798 33.6548 13.798C33.8379 13.8049 34.02 13.7671 34.1861 13.6876C34.3521 13.6081 34.4973 13.4892 34.6098 13.3407V13.7196H35.2464V12.1713ZM36.351 13.2786C36.3924 13.2781 36.4335 13.2859 36.472 13.3015C36.5086 13.3168 36.542 13.339 36.5707 13.3668C36.5987 13.395 36.6213 13.4282 36.6375 13.4648C36.6537 13.503 36.662 13.5441 36.662 13.5857C36.662 13.6273 36.6537 13.6684 36.6375 13.7065C36.6213 13.7432 36.5987 13.7764 36.5707 13.8045C36.542 13.8324 36.5086 13.8546 36.472 13.8699C36.4339 13.8871 36.3927 13.896 36.351 13.896C36.2907 13.8955 36.2317 13.8775 36.181 13.8439C36.1303 13.8104 36.0899 13.7627 36.0646 13.7065C36.0486 13.6684 36.0404 13.6272 36.0404 13.5857C36.0404 13.5441 36.0486 13.503 36.0646 13.4648C36.0808 13.4282 36.1034 13.395 36.1314 13.3668C36.1601 13.339 36.1935 13.3168 36.2301 13.3015C36.2715 13.2846 36.316 13.2768 36.3606 13.2786H36.351ZM36.351 13.8307C36.3828 13.8309 36.4143 13.8242 36.4434 13.8111C36.4707 13.7985 36.4956 13.7808 36.5166 13.7588C36.5564 13.7142 36.5785 13.656 36.5785 13.5955C36.5785 13.535 36.5564 13.4767 36.5166 13.4322C36.4956 13.4101 36.4708 13.3924 36.4434 13.3799C36.4142 13.3669 36.3828 13.3602 36.351 13.3603C36.3193 13.3605 36.2879 13.3671 36.2587 13.3799C36.2301 13.3919 36.2042 13.4097 36.1823 13.4322C36.1425 13.4767 36.1204 13.535 36.1204 13.5955C36.1204 13.656 36.1425 13.7142 36.1823 13.7588C36.2042 13.7812 36.2302 13.799 36.2587 13.8111C36.2908 13.8253 36.3256 13.832 36.3606 13.8307H36.351ZM36.3701 13.442C36.3999 13.4405 36.4291 13.4497 36.4529 13.4681C36.4627 13.4764 36.4703 13.4869 36.4753 13.4988C36.4803 13.5108 36.4824 13.5237 36.4816 13.5367C36.482 13.5475 36.4803 13.5584 36.4764 13.5685C36.4726 13.5786 36.4668 13.5878 36.4593 13.5955C36.4408 13.6127 36.4173 13.623 36.3924 13.6249L36.4847 13.7327H36.4115L36.3256 13.6249H36.2969V13.7327H36.2364V13.4452L36.3701 13.442ZM36.3001 13.4975V13.5759H36.3701C36.3826 13.5797 36.3959 13.5797 36.4083 13.5759C36.4106 13.5713 36.4117 13.5663 36.4117 13.5612C36.4117 13.5561 36.4106 13.551 36.4083 13.5465C36.4106 13.5419 36.4117 13.5369 36.4117 13.5318C36.4117 13.5267 36.4106 13.5216 36.4083 13.5171C36.3959 13.5133 36.3826 13.5133 36.3701 13.5171L36.3001 13.4975ZM32.7985 12.1713C32.809 11.9874 32.8718 11.8108 32.9789 11.6631C33.0861 11.5154 33.233 11.4031 33.4015 11.3399C33.5701 11.2768 33.753 11.2657 33.9277 11.3079C34.1023 11.3501 34.2612 11.4438 34.3846 11.5774C34.508 11.7111 34.5907 11.8788 34.6224 12.0601C34.6541 12.2413 34.6334 12.4281 34.563 12.5975C34.4925 12.7668 34.3753 12.9113 34.2258 13.0132C34.0763 13.1151 33.9011 13.1699 33.7216 13.1708C33.5956 13.1725 33.4706 13.1473 33.3545 13.097C33.2384 13.0466 33.1337 12.9722 33.047 12.8783C32.9603 12.7844 32.8934 12.6731 32.8507 12.5514C32.8079 12.4298 32.7901 12.3003 32.7985 12.1713ZM10.4422 12.1713V10.6098H9.78008V10.9888C9.66764 10.8403 9.5224 10.7214 9.35635 10.6419C9.1903 10.5624 9.00821 10.5245 8.82509 10.5314C8.40296 10.5314 7.99812 10.7035 7.69963 11.0098C7.40113 11.3161 7.23344 11.7315 7.23344 12.1647C7.23344 12.5979 7.40113 13.0133 7.69963 13.3196C7.99812 13.6259 8.40296 13.798 8.82509 13.798C9.00821 13.8049 9.1903 13.7671 9.35635 13.6876C9.5224 13.6081 9.66764 13.4892 9.78008 13.3407V13.7196H10.4422V12.1713ZM7.97833 12.1713C7.98889 11.9874 8.05161 11.8108 8.15876 11.6631C8.26591 11.5154 8.41282 11.4031 8.58139 11.3399C8.74997 11.2768 8.93285 11.2657 9.10752 11.3079C9.28219 11.3501 9.44102 11.4438 9.56446 11.5774C9.68789 11.7111 9.77054 11.8788 9.80223 12.0601C9.83392 12.2413 9.81326 12.4281 9.7428 12.5975C9.67234 12.7668 9.55515 12.9113 9.40567 13.0132C9.25618 13.1151 9.08093 13.1699 8.90149 13.1708C8.77492 13.1734 8.64921 13.1489 8.53234 13.099C8.41547 13.049 8.31 12.9747 8.2226 12.8807C8.1352 12.7867 8.06779 12.6751 8.02465 12.553C7.9815 12.4309 7.96356 12.3009 7.97197 12.1713H7.97833Z" fill="white"/>
</svg>
