<svg width="71" height="24" viewBox="0 0 71 24" fill="none" xmlns="http://www.w3.org/2000/svg">
<mask id="mask0" mask-type="alpha" maskUnits="userSpaceOnUse" x="0" y="0" width="71" height="24">
<rect width="71" height="24" fill="#C4C4C4"/>
</mask>
<g mask="url(#mask0)">
<path fill-rule="evenodd" clip-rule="evenodd" d="M50.9644 11.0352V21.9996H57.0557V15.5022H63.9593C66.8648 15.4806 69.333 13.6246 70.2636 11.0352H50.9644Z" fill="#37A72E"/>
<path fill-rule="evenodd" clip-rule="evenodd" d="M50.1523 2C50.5072 6.48167 54.7471 10.0203 59.9253 10.0203C59.9422 10.0203 70.5169 10.0203 70.5169 10.0203C70.5951 9.60928 70.636 9.18505 70.636 8.75127C70.636 5.03876 67.6407 2.02746 63.9354 2.00019L50.1523 2Z" fill="url(#paint0_linear)"/>
<path fill-rule="evenodd" clip-rule="evenodd" d="M41.1373 9.91366L41.142 9.90343L41.1427 9.90358C41.2051 9.79153 41.3248 9.71574 41.4622 9.71574C41.6606 9.71574 41.8221 9.87389 41.8275 10.071L41.8277 10.0711V21.8985H47.919V2H41.8277C41.0552 2.02571 40.1825 2.59255 39.858 3.28835L35.0104 13.684C34.9985 13.7265 34.9798 13.7661 34.9555 13.8018L34.9539 13.8052L34.9533 13.805C34.8799 13.9106 34.7578 13.9797 34.6195 13.9797C34.3953 13.9797 34.2134 13.7979 34.2134 13.5736V2H28.1221V21.8985H34.2134V21.8962C34.9774 21.8563 35.8297 21.2958 36.1494 20.6101L41.1248 9.94046C41.1286 9.93133 41.1328 9.92239 41.1373 9.91366Z" fill="#37A72E"/>
<path fill-rule="evenodd" clip-rule="evenodd" d="M18.3912 10.2538L14.8311 21.8985H10.4491L6.88676 10.2467C6.85241 10.0601 6.68891 9.91878 6.49239 9.91878C6.27091 9.91878 6.09137 10.0983 6.09137 10.3198C6.09137 10.3215 6.09138 10.3232 6.0914 10.3249L6.09137 21.8985H0V2H5.22843H6.78555C7.90639 2 9.08094 2.86983 9.40847 3.94114L12.373 13.6376C12.5205 14.1201 12.7598 14.1196 12.9071 13.6376L15.8716 3.94114C16.1994 2.86908 17.3736 2 18.4946 2L20.0512 2H25.2792V21.8985H19.1878V10.3249C19.1878 10.3232 19.1878 10.3215 19.1878 10.3198C19.1878 10.0983 19.0083 9.91878 18.7868 9.91878C18.5878 9.91878 18.4227 10.0637 18.3912 10.2538Z" fill="#37A72E"/>
</g>
<defs>
<linearGradient id="paint0_linear" x1="50.1523" y1="6.01015" x2="70.636" y2="6.01015" gradientUnits="userSpaceOnUse">
<stop stop-color="#00A0E5"/>
<stop offset="1" stop-color="#0077C3"/>
</linearGradient>
</defs>
</svg>
