<svg width="62" height="24" viewBox="0 0 62 24" fill="none" xmlns="http://www.w3.org/2000/svg">
<mask id="mask0" mask-type="alpha" maskUnits="userSpaceOnUse" x="0" y="0" width="62" height="24">
<rect width="62" height="24" fill="#C4C4C4"/>
</mask>
<g mask="url(#mask0)">
<path d="M26.779 21.7121H21.7729L24.9041 2.35156H29.9098L26.779 21.7121Z" fill="#00579F"/>
<path d="M44.9259 2.82425C43.9385 2.43252 42.3724 2 40.4359 2C35.4923 2 32.011 4.63619 31.9897 8.40515C31.9486 11.1859 34.4821 12.7304 36.377 13.6575C38.3138 14.605 38.9722 15.2234 38.9722 16.0679C38.9524 17.3649 37.4071 17.9628 35.9659 17.9628C33.9672 17.9628 32.8963 17.6545 31.2689 16.9329L30.6097 16.6236L29.9092 20.9696C31.0833 21.5045 33.2464 21.9792 35.4923 22C40.745 22 44.1646 19.4046 44.2051 15.3882C44.2251 13.1842 42.8873 11.4955 40.0031 10.1155C38.2522 9.22967 37.1799 8.63236 37.1799 7.72598C37.2005 6.902 38.0869 6.05803 40.0633 6.05803C41.6907 6.0167 42.8865 6.40788 43.7923 6.79934L44.2451 7.00493L44.9259 2.82425Z" fill="#00579F"/>
<path d="M51.5796 14.8533C51.9919 13.7411 53.5782 9.43642 53.5782 9.43642C53.5574 9.47776 53.9897 8.30365 54.2369 7.58288L54.5867 9.25109C54.5867 9.25109 55.5347 13.8854 55.7406 14.8533C54.9582 14.8533 52.5684 14.8533 51.5796 14.8533ZM57.7589 2.35156H53.8868C52.6927 2.35156 51.7855 2.70141 51.2703 3.95791L43.8345 21.7118H49.0871C49.0871 21.7118 49.9519 19.3223 50.1378 18.8076C50.714 18.8076 55.8238 18.8076 56.5651 18.8076C56.7088 19.4873 57.1624 21.7118 57.1624 21.7118H61.7975L57.7589 2.35156Z" fill="#00579F"/>
<path d="M17.5914 2.35156L12.6888 15.5536L12.1531 12.8761C11.2467 9.78655 8.40412 6.42985 5.23193 4.76082L9.72249 21.6916H15.0162L22.8848 2.35156H17.5914Z" fill="#00579F"/>
<path d="M8.1366 2.35156H0.0823977L0 2.74275C6.28278 4.34937 10.4437 8.22207 12.1533 12.8769L10.4024 3.97899C10.1142 2.74247 9.22831 2.39235 8.1366 2.35156Z" fill="#FAA61A"/>
</g>
</svg>
