<svg width="168" height="141" viewBox="0 0 168 141" fill="none" xmlns="http://www.w3.org/2000/svg">
<rect y="43" width="168" height="98" fill="#F2F2F2"/>
<rect x="6" y="6" width="142" height="11" rx="5.5" fill="#C4C4C4"/>
<rect x="6" y="24" width="18" height="13" rx="6.5" fill="#C4C4C4"/>
<rect x="35.5" y="24.5" width="77" height="12" rx="6" fill="white" stroke="#ABABAB"/>
<rect x="118" y="24" width="12" height="13" rx="6" fill="#C4C4C4"/>
<rect x="136" y="24" width="12" height="13" rx="6" fill="#C4C4C4"/>
<rect x="0.5" y="0.5" width="153" height="42" stroke="#247CFF"/>
<rect x="154" width="14" height="141" fill="#C4C4C4"/>
<rect x="154" width="14" height="16" fill="#9B9B9B"/>
<rect x="154" y="125" width="14" height="16" fill="#9B9B9B"/>
<rect x="6" y="49" width="40" height="45" fill="#C4C4C4"/>
<rect x="57" y="49" width="40" height="45" fill="#C4C4C4"/>
<rect x="108" y="50" width="40" height="45" fill="#C4C4C4"/>
<rect x="6" y="97" width="26" height="2" rx="1" fill="#C4C4C4"/>
<rect x="36" y="97" width="10" height="2" rx="1" fill="#C4C4C4"/>
<rect x="6" y="101" width="40" height="2" rx="1" fill="#C4C4C4"/>
<rect x="108" y="97" width="26" height="2" rx="1" fill="#C4C4C4"/>
<rect x="138" y="97" width="10" height="2" rx="1" fill="#C4C4C4"/>
<rect x="108" y="101" width="40" height="2" rx="1" fill="#C4C4C4"/>
<rect x="57" y="97" width="26" height="2" rx="1" fill="#C4C4C4"/>
<rect x="87" y="97" width="10" height="2" rx="1" fill="#C4C4C4"/>
<rect x="57" y="101" width="40" height="2" rx="1" fill="#C4C4C4"/>
<rect x="6" y="117" width="142" height="2" rx="1" fill="#C4C4C4"/>
</svg>
