<svg width="168" height="141" viewBox="0 0 168 141" fill="none" xmlns="http://www.w3.org/2000/svg">
<rect y="47" width="168" height="94" fill="#F2F2F2"/>
<rect x="7" y="7" width="154" height="12" rx="6" fill="#C4C4C4"/>
<rect x="7" y="26" width="19" height="14" rx="7" fill="#C4C4C4"/>
<rect x="38.5" y="26.5" width="84" height="13" rx="6.5" fill="white" stroke="#ABABAB"/>
<rect x="129" y="26" width="13" height="14" rx="6.5" fill="#C4C4C4"/>
<rect x="148" y="26" width="13" height="14" rx="6.5" fill="#C4C4C4"/>
<rect x="0.5" y="0.5" width="167" height="46" stroke="#247CFF"/>
<rect x="12" y="48" width="37" height="21" fill="#C4C4C4"/>
<rect x="12" y="99" width="37" height="42" fill="#C4C4C4"/>
<rect x="12" y="47" width="37" height="22" fill="#C4C4C4"/>
<rect x="59" y="99" width="36" height="42" fill="#C4C4C4"/>
<rect x="59" y="47" width="36" height="22" fill="#C4C4C4"/>
<rect x="105" y="100" width="37" height="41" fill="#C4C4C4"/>
<rect x="105" y="47" width="37" height="23" fill="#C4C4C4"/>
<rect x="12" y="72" width="24" height="2" rx="1" fill="#C4C4C4"/>
<rect x="39" y="72" width="10" height="2" rx="1" fill="#C4C4C4"/>
<rect x="12" y="75" width="37" height="2" rx="1" fill="#C4C4C4"/>
<rect x="105" y="72" width="24" height="2" rx="1" fill="#C4C4C4"/>
<rect x="133" y="72" width="9" height="2" rx="1" fill="#C4C4C4"/>
<rect x="105" y="75" width="37" height="2" rx="1" fill="#C4C4C4"/>
<rect x="59" y="72" width="23" height="2" rx="1" fill="#C4C4C4"/>
<rect x="86" y="72" width="9" height="2" rx="1" fill="#C4C4C4"/>
<rect x="59" y="75" width="36" height="2" rx="1" fill="#C4C4C4"/>
<rect x="12" y="90" width="130" height="2" rx="1" fill="#C4C4C4"/>
<rect x="154" y="47" width="14" height="94" fill="#C4C4C4"/>
<rect x="154" y="47" width="14" height="11" fill="#9B9B9B"/>
<rect x="154" y="130" width="14" height="11" fill="#9B9B9B"/>
</svg>
