<svg width="357" height="200" viewBox="0 0 357 200" fill="none" xmlns="http://www.w3.org/2000/svg">
<g clip-path="url(#clip0)">
<rect width="357" height="200" rx="16" fill="#F9F9F9"/>
<rect width="183" height="24" transform="translate(87 152)" fill="url(#paint0_linear)"/>
<circle cx="178" cy="76" r="60" fill="url(#paint1_linear)"/>
<path d="M209.256 57.3561L178.513 44.1059C178.186 43.9647 177.813 43.9647 177.486 44.1059L146.744 57.3561C146.223 57.5811 146 58.0431 146 58.6308V93.1319C146 93.5998 146.281 94.0248 146.719 94.2192L177.489 107.892C177.652 107.964 177.826 108 178 108C178.195 108 178.333 107.979 178.51 107.889C178.51 107.89 209.281 94.219 209.281 94.219C209.719 94.0244 210 93.5993 210 93.1317V58.6308C210 58.0742 209.778 57.5809 209.256 57.3561ZM164.637 65.5575C164.211 65.7564 163.941 66.1752 163.941 66.6342V78.2976L157.932 75.5411V63.9993L186.916 50.4225L192.14 52.674L164.637 65.5575ZM178 46.5795L183.965 49.1506L157.319 61.6325L150.307 58.5164L178 46.5795ZM176.771 104.944L148.459 92.3637V60.3241L155.472 63.4404V76.2988C155.472 76.7616 155.747 77.1826 156.177 77.3798L164.646 81.2652C164.812 81.3416 164.991 81.3797 165.17 81.3797C165.4 81.3797 165.628 81.317 165.829 81.194C166.184 80.9744 166.4 80.5935 166.4 80.184V68.2959L176.771 72.904V104.944ZM178 70.822L168.282 66.5037L195.091 53.9463L205.693 58.5164L178 70.822ZM207.541 92.3637L179.23 104.944V72.9042L207.541 60.324V92.3637Z" fill="#F9F9F9"/>
</g>
<defs>
<linearGradient id="paint0_linear" x1="3.40864e-07" y1="12" x2="183" y2="12" gradientUnits="userSpaceOnUse">
<stop stop-color="#EFEFEF"/>
<stop offset="0.282687" stop-color="#EAEAEA"/>
<stop offset="0.621249" stop-color="#D6D6D6"/>
<stop offset="1" stop-color="#EFEFEF"/>
</linearGradient>
<linearGradient id="paint1_linear" x1="118" y1="76" x2="238" y2="76" gradientUnits="userSpaceOnUse">
<stop stop-color="#EFEFEF"/>
<stop offset="0.282687" stop-color="#EAEAEA"/>
<stop offset="0.621249" stop-color="#D6D6D6"/>
<stop offset="1" stop-color="#EFEFEF"/>
</linearGradient>
<clipPath id="clip0">
<rect width="357" height="200" rx="16" fill="white"/>
</clipPath>
</defs>
</svg>
