<svg width="300" height="509" viewBox="0 0 300 509" fill="none" xmlns="http://www.w3.org/2000/svg">
<rect width="300" height="509" fill="white"/>
<rect width="196" height="29" transform="translate(16 400)" fill="url(#paint0_linear)"/>
<rect width="265" height="48" transform="translate(16 332)" fill="url(#paint1_linear)"/>
<rect width="141" height="24" transform="translate(16 296)" fill="url(#paint2_linear)"/>
<rect x="16" y="445" width="131" height="40" rx="8" fill="url(#paint3_linear)"/>
<rect width="24" height="24" transform="translate(163 453)" fill="url(#paint4_linear)"/>
<rect width="23" height="24.1177" transform="translate(203 452.941)" fill="url(#paint5_linear)"/>
<circle cx="151.5" cy="143.5" r="118.5" fill="url(#paint6_linear)"/>
<path d="M210.748 104.921L150.506 78.2134C149.866 77.9289 149.135 77.9289 148.494 78.2134L88.2536 104.921C87.231 105.374 86.7949 106.306 86.7949 107.49V177.031C86.7949 177.974 87.3451 178.831 88.2031 179.223L148.499 206.781C148.819 206.927 149.159 207 149.5 207C149.884 207 150.154 206.957 150.5 206.777C150.5 206.778 210.798 179.222 210.798 179.222C211.656 178.83 212.206 177.973 212.206 177.031V107.49C212.206 106.368 211.771 105.374 210.748 104.921ZM123.315 121.452C122.481 121.853 121.951 122.697 121.951 123.622V147.131L110.176 141.575V118.311L166.972 90.9452L177.209 95.4835L123.315 121.452ZM149.501 83.1993L161.19 88.3817L108.976 113.54L95.2341 107.26L149.501 83.1993ZM147.091 200.839L91.6143 175.483V110.903L105.356 117.184V143.102C105.356 144.035 105.894 144.884 106.738 145.281L123.332 153.112C123.659 153.266 124.009 153.343 124.359 153.343C124.81 153.343 125.258 153.217 125.65 152.969C126.347 152.526 126.77 151.759 126.77 150.933V126.971L147.091 136.259V200.839ZM149.501 132.063L130.458 123.359L182.991 98.048L203.767 107.26L149.501 132.063ZM207.387 175.483L151.91 200.84V136.26L207.387 110.903V175.483Z" fill="#F9F9F9"/>
<rect x="0.5" y="0.5" width="299" height="508" rx="7.5" stroke="#EAEBEE"/>
<defs>
<linearGradient id="paint0_linear" x1="3.65079e-07" y1="14.5" x2="196" y2="14.5" gradientUnits="userSpaceOnUse">
<stop stop-color="#EFEFEF"/>
<stop offset="0.282687" stop-color="#EAEAEA"/>
<stop offset="0.621249" stop-color="#D6D6D6"/>
<stop offset="1" stop-color="#EFEFEF"/>
</linearGradient>
<linearGradient id="paint1_linear" x1="4.93601e-07" y1="24" x2="265" y2="24" gradientUnits="userSpaceOnUse">
<stop stop-color="#EFEFEF"/>
<stop offset="0.282687" stop-color="#EAEAEA"/>
<stop offset="0.621249" stop-color="#D6D6D6"/>
<stop offset="1" stop-color="#EFEFEF"/>
</linearGradient>
<linearGradient id="paint2_linear" x1="2.62633e-07" y1="12" x2="141" y2="12" gradientUnits="userSpaceOnUse">
<stop stop-color="#EFEFEF"/>
<stop offset="0.282687" stop-color="#EAEAEA"/>
<stop offset="0.621249" stop-color="#D6D6D6"/>
<stop offset="1" stop-color="#EFEFEF"/>
</linearGradient>
<linearGradient id="paint3_linear" x1="16" y1="465" x2="147" y2="465" gradientUnits="userSpaceOnUse">
<stop stop-color="#EFEFEF"/>
<stop offset="0.282687" stop-color="#EAEAEA"/>
<stop offset="0.621249" stop-color="#D6D6D6"/>
<stop offset="1" stop-color="#EFEFEF"/>
</linearGradient>
<linearGradient id="paint4_linear" x1="4.47035e-08" y1="12" x2="24" y2="12" gradientUnits="userSpaceOnUse">
<stop stop-color="#EFEFEF"/>
<stop offset="0.282687" stop-color="#EAEAEA"/>
<stop offset="0.621249" stop-color="#D6D6D6"/>
<stop offset="1" stop-color="#EFEFEF"/>
</linearGradient>
<linearGradient id="paint5_linear" x1="4.28408e-08" y1="12.0589" x2="23" y2="12.0589" gradientUnits="userSpaceOnUse">
<stop stop-color="#EFEFEF"/>
<stop offset="0.282687" stop-color="#EAEAEA"/>
<stop offset="0.621249" stop-color="#D6D6D6"/>
<stop offset="1" stop-color="#EFEFEF"/>
</linearGradient>
<linearGradient id="paint6_linear" x1="33" y1="143.5" x2="270" y2="143.5" gradientUnits="userSpaceOnUse">
<stop stop-color="#EFEFEF"/>
<stop offset="0.282687" stop-color="#EAEAEA"/>
<stop offset="0.621249" stop-color="#D6D6D6"/>
<stop offset="1" stop-color="#EFEFEF"/>
</linearGradient>
</defs>
</svg>
