<svg width="242" height="257" viewBox="0 0 242 257" fill="none" xmlns="http://www.w3.org/2000/svg">
<rect width="117" height="29" rx="5" fill="url(#paint0_linear)"/>
<rect width="56" height="20" rx="5" transform="translate(0 61)" fill="url(#paint1_linear)"/>
<rect width="128" height="20" rx="5" transform="translate(0 149)" fill="url(#paint2_linear)"/>
<rect width="242" height="20" rx="5" transform="translate(0 193)" fill="url(#paint3_linear)"/>
<rect width="238" height="20" rx="5" transform="translate(0 237)" fill="url(#paint4_linear)"/>
<rect width="72" height="20" rx="5" transform="translate(0 105)" fill="url(#paint5_linear)"/>
<defs>
<linearGradient id="paint0_linear" x1="2.1793e-07" y1="14.5" x2="117" y2="14.5" gradientUnits="userSpaceOnUse">
<stop stop-color="#EFEFEF"/>
<stop offset="0.282687" stop-color="#EAEAEA"/>
<stop offset="0.621249" stop-color="#D6D6D6"/>
<stop offset="1" stop-color="#EFEFEF"/>
</linearGradient>
<linearGradient id="paint1_linear" x1="1.04308e-07" y1="10" x2="56" y2="10" gradientUnits="userSpaceOnUse">
<stop stop-color="#EFEFEF"/>
<stop offset="0.282687" stop-color="#EAEAEA"/>
<stop offset="0.621249" stop-color="#D6D6D6"/>
<stop offset="1" stop-color="#EFEFEF"/>
</linearGradient>
<linearGradient id="paint2_linear" x1="2.38419e-07" y1="10" x2="128" y2="10" gradientUnits="userSpaceOnUse">
<stop stop-color="#EFEFEF"/>
<stop offset="0.282687" stop-color="#EAEAEA"/>
<stop offset="0.621249" stop-color="#D6D6D6"/>
<stop offset="1" stop-color="#EFEFEF"/>
</linearGradient>
<linearGradient id="paint3_linear" x1="4.5076e-07" y1="10" x2="242" y2="10" gradientUnits="userSpaceOnUse">
<stop stop-color="#EFEFEF"/>
<stop offset="0.282687" stop-color="#EAEAEA"/>
<stop offset="0.621249" stop-color="#D6D6D6"/>
<stop offset="1" stop-color="#EFEFEF"/>
</linearGradient>
<linearGradient id="paint4_linear" x1="4.4331e-07" y1="10" x2="238" y2="10" gradientUnits="userSpaceOnUse">
<stop stop-color="#EFEFEF"/>
<stop offset="0.282687" stop-color="#EAEAEA"/>
<stop offset="0.621249" stop-color="#D6D6D6"/>
<stop offset="1" stop-color="#EFEFEF"/>
</linearGradient>
<linearGradient id="paint5_linear" x1="1.3411e-07" y1="10" x2="72" y2="10" gradientUnits="userSpaceOnUse">
<stop stop-color="#EFEFEF"/>
<stop offset="0.282687" stop-color="#EAEAEA"/>
<stop offset="0.621249" stop-color="#D6D6D6"/>
<stop offset="1" stop-color="#EFEFEF"/>
</linearGradient>
</defs>
</svg>
