<svg width="20" height="20" viewBox="0 0 20 20" fill="none" xmlns="http://www.w3.org/2000/svg">
<path d="M9.9975 13.3104C11.8256 13.3104 13.3075 11.8285 13.3075 10.0004C13.3075 8.17237 11.8256 6.69043 9.9975 6.69043C8.16944 6.69043 6.6875 8.17237 6.6875 10.0004C6.6875 11.8285 8.16944 13.3104 9.9975 13.3104Z" stroke="white"/>
<path d="M18.488 12.285L16.205 16.237C15.322 15.496 14.185 15.281 13.303 15.791C12.428 16.289 12.047 17.373 12.246 18.5H7.735C7.938 17.374 7.553 16.299 6.684 15.791C5.801 15.27 4.655 15.492 3.773 16.237L1.5 12.285C2.573 11.871 3.317 10.999 3.317 9.991C3.305 8.98 2.573 8.121 1.5 7.716L3.765 3.784C4.645 4.516 5.794 4.738 6.687 4.232C7.555 3.722 7.939 2.637 7.735 1.5H12.263C12.072 2.637 12.441 3.71 13.314 4.22C14.206 4.73 15.343 4.516 16.225 3.794L18.487 7.714C17.404 8.117 16.661 8.988 16.67 10.009C16.672 11.018 17.415 11.88 18.488 12.285Z" stroke="white"/>
</svg>
