<svg width="168" height="121" viewBox="0 0 168 121" fill="none" xmlns="http://www.w3.org/2000/svg">
<rect width="168" height="121" fill="#F2F2F2"/>
<rect x="7" y="7" width="154" height="11" rx="5.5" fill="#C4C4C4"/>
<rect x="7" y="24" width="19" height="14" rx="7" fill="#C4C4C4"/>
<rect x="31" y="24" width="19" height="14" rx="7" fill="#247CFF"/>
<rect x="10" y="106" width="35" height="8" rx="4" fill="#247CFF"/>
<rect x="55.5" y="25.5" width="67" height="12" rx="6" fill="white" stroke="#ABABAB"/>
<rect x="129" y="25" width="13" height="13" rx="6.5" fill="#C4C4C4"/>
<rect x="148" y="25" width="13" height="13" rx="6.5" fill="#C4C4C4"/>
<rect x="7.5" y="45.5" width="40" height="71" stroke="#636363"/>
<rect x="58" y="45" width="24" height="27" fill="#C4C4C4"/>
<rect x="58" y="83" width="24" height="27" fill="#C4C4C4"/>
<rect x="97" y="45" width="24" height="27" fill="#C4C4C4"/>
<rect x="97" y="83" width="24" height="27" fill="#C4C4C4"/>
<rect x="136" y="44" width="24" height="27" fill="#C4C4C4"/>
<rect x="136" y="82" width="24" height="27" fill="#C4C4C4"/>
<rect x="58" y="74" width="16" height="2" rx="1" fill="#C4C4C4"/>
<rect x="58" y="112" width="16" height="2" rx="1" fill="#C4C4C4"/>
<rect x="97" y="74" width="16" height="2" rx="1" fill="#C4C4C4"/>
<rect x="97" y="112" width="16" height="2" rx="1" fill="#C4C4C4"/>
<rect x="136" y="73" width="16" height="2" rx="1" fill="#C4C4C4"/>
<rect x="136" y="111" width="16" height="2" rx="1" fill="#C4C4C4"/>
<rect x="76" y="74" width="6" height="2" rx="1" fill="#C4C4C4"/>
<rect x="76" y="112" width="6" height="2" rx="1" fill="#C4C4C4"/>
<rect x="115" y="74" width="6" height="2" rx="1" fill="#C4C4C4"/>
<rect x="115" y="112" width="6" height="2" rx="1" fill="#C4C4C4"/>
<rect x="154" y="73" width="6" height="2" rx="1" fill="#C4C4C4"/>
<rect x="154" y="111" width="6" height="2" rx="1" fill="#C4C4C4"/>
<rect x="58" y="77" width="24" height="1" rx="0.5" fill="#C4C4C4"/>
<rect x="58" y="115" width="24" height="1" rx="0.5" fill="#C4C4C4"/>
<rect x="97" y="77" width="24" height="1" rx="0.5" fill="#C4C4C4"/>
<rect x="97" y="115" width="24" height="1" rx="0.5" fill="#C4C4C4"/>
<rect x="136" y="76" width="24" height="1" rx="0.5" fill="#C4C4C4"/>
<rect x="136" y="114" width="24" height="1" rx="0.5" fill="#C4C4C4"/>
<rect x="11" y="50" width="15" height="5" fill="#C4C4C4"/>
<rect x="29" y="50" width="16" height="5" fill="#C4C4C4"/>
<rect x="11" y="60" width="34" height="1" fill="#C4C4C4"/>
<circle cx="12.5" cy="60.5" r="1.5" fill="#C4C4C4"/>
<circle cx="43.5" cy="60.5" r="1.5" fill="#C4C4C4"/>
<rect x="11" y="69" width="16" height="2" fill="#C4C4C4"/>
<rect x="11.5" y="74.5" width="4" height="4" stroke="#C4C4C4"/>
<rect x="11.5" y="81.5" width="4" height="4" stroke="#C4C4C4"/>
<rect x="11.5" y="89.5" width="4" height="4" stroke="#C4C4C4"/>
<rect x="11.5" y="97.5" width="4" height="4" stroke="#C4C4C4"/>
<rect x="18" y="75" width="14" height="1" fill="#C4C4C4"/>
<rect x="18" y="82" width="14" height="1" fill="#C4C4C4"/>
<rect x="18" y="90" width="14" height="1" fill="#C4C4C4"/>
<rect x="18" y="98" width="14" height="1" fill="#C4C4C4"/>
<rect x="18" y="77" width="22" height="1" fill="#C4C4C4"/>
<rect x="18" y="84" width="22" height="1" fill="#C4C4C4"/>
<rect x="18" y="92" width="22" height="1" fill="#C4C4C4"/>
<rect x="18" y="100" width="22" height="1" fill="#C4C4C4"/>
</svg>
