<?xml version="1.0" ?><!DOCTYPE svg  PUBLIC '-//W3C//DTD SVG 1.1//EN'  'http://www.w3.org/Graphics/SVG/1.1/DTD/svg11.dtd'><svg enable-background="new 0 0 30 30" height="30px" id="Capa_1" version="1.1" viewBox="0 0 30 30" width="30px" xml:space="preserve" xmlns="http://www.w3.org/2000/svg" xmlns:xlink="http://www.w3.org/1999/xlink"><path d="M0.8,21.8c0.4,0,0.8-0.3,0.8-0.8v-2c0-0.4-0.3-0.8-0.8-0.8S0.1,18.6,0.1,19v2C0.1,21.4,0.4,21.8,0.8,21.8z   M1.8,24.3H1.6V24c0-0.4-0.3-0.8-0.8-0.8S0.1,23.6,0.1,24v1c0,0.4,0.3,0.8,0.8,0.8h1c0.4,0,0.8-0.3,0.8-0.8S2.2,24.3,1.8,24.3z   M1.8,4.2h-1C0.4,4.2,0.1,4.6,0.1,5v1c0,0.4,0.3,0.8,0.8,0.8S1.6,6.4,1.6,6V5.7h0.2c0.4,0,0.8-0.3,0.8-0.8S2.2,4.2,1.8,4.2z   M6.5,24.3H4.7c-0.4,0-0.8,0.3-0.8,0.8s0.3,0.8,0.8,0.8h1.9c0.4,0,0.8-0.3,0.8-0.8S6.9,24.3,6.5,24.3z M0.8,16.8  c0.4,0,0.8-0.3,0.8-0.8v-2c0-0.4-0.3-0.8-0.8-0.8S0.1,13.6,0.1,14v2C0.1,16.4,0.4,16.8,0.8,16.8z M9.4,5.7h1.9C11.7,5.7,12,5.4,12,5  s-0.3-0.8-0.8-0.8H9.4C8.9,4.2,8.6,4.6,8.6,5S8.9,5.7,9.4,5.7z M0.8,11.7c0.4,0,0.8-0.3,0.8-0.8V9c0-0.4-0.3-0.8-0.8-0.8  S0.1,8.6,0.1,9v2C0.1,11.4,0.4,11.7,0.8,11.7z M14.1,5.7h1.9c0.4,0,0.8-0.3,0.8-0.8s-0.3-0.8-0.8-0.8h-1.9c-0.4,0-0.8,0.3-0.8,0.8  S13.6,5.7,14.1,5.7z M11.2,24.3H9.4c-0.4,0-0.8,0.3-0.8,0.8s0.3,0.8,0.8,0.8h1.9c0.4,0,0.8-0.3,0.8-0.8S11.7,24.3,11.2,24.3z   M4.7,5.7h1.9c0.4,0,0.8-0.3,0.8-0.8S6.9,4.2,6.5,4.2H4.7C4.2,4.2,3.9,4.6,3.9,5S4.2,5.7,4.7,5.7z M18.8,5.7h1.9  c0.4,0,0.8-0.3,0.8-0.8s-0.3-0.8-0.8-0.8h-1.9C18.3,4.2,18,4.6,18,5S18.3,5.7,18.8,5.7z M29.2,13.2c-0.4,0-0.8,0.3-0.8,0.8v2  c0,0.4,0.3,0.8,0.8,0.8s0.8-0.3,0.8-0.8v-2C29.9,13.6,29.6,13.2,29.2,13.2z M15.9,24.3h-1.9c-0.4,0-0.8,0.3-0.8,0.8s0.3,0.8,0.8,0.8  h1.9c0.4,0,0.8-0.3,0.8-0.8S16.4,24.3,15.9,24.3z M29.2,8.2c-0.4,0-0.8,0.3-0.8,0.8v2c0,0.4,0.3,0.8,0.8,0.8s0.8-0.3,0.8-0.8V9  C29.9,8.6,29.6,8.2,29.2,8.2z M29.2,23.3c-0.4,0-0.8,0.3-0.8,0.8v0.2h-0.2c-0.4,0-0.8,0.3-0.8,0.8s0.3,0.8,0.8,0.8h1  c0.4,0,0.8-0.3,0.8-0.8v-1C29.9,23.6,29.6,23.3,29.2,23.3z M29.2,4.2h-1c-0.4,0-0.8,0.3-0.8,0.8s0.3,0.8,0.8,0.8h0.2V6  c0,0.4,0.3,0.8,0.8,0.8s0.8-0.3,0.8-0.8V5C29.9,4.6,29.6,4.2,29.2,4.2z M29.2,18.3c-0.4,0-0.8,0.3-0.8,0.8v2c0,0.4,0.3,0.8,0.8,0.8  s0.8-0.3,0.8-0.8v-2C29.9,18.6,29.6,18.3,29.2,18.3z M25.3,4.2h-1.9c-0.4,0-0.8,0.3-0.8,0.8s0.3,0.8,0.8,0.8h1.9  c0.4,0,0.8-0.3,0.8-0.8S25.8,4.2,25.3,4.2z M23.1,16.9l2.2-1.5c0.3-0.2,0.3-0.6,0-0.8L23,13.1c-0.2-0.1-0.4-0.1-0.5,0  c-0.2,0.1-0.3,0.3-0.3,0.4v0.8H7.8v-0.8c0,0,0,0,0,0c0-0.3-0.2-0.5-0.5-0.5C7.1,13,7,13,6.9,13.1l-2.2,1.5c-0.3,0.2-0.3,0.6,0,0.8  L7,16.9c0.2,0.1,0.4,0.1,0.5,0c0.2-0.1,0.3-0.3,0.3-0.4v-0.8h14.4v0.8c0,0.3,0.2,0.5,0.5,0.5C22.9,17,23,17,23.1,16.9z M20.6,24.3  h-1.9c-0.4,0-0.8,0.3-0.8,0.8s0.3,0.8,0.8,0.8h1.9c0.4,0,0.8-0.3,0.8-0.8S21.1,24.3,20.6,24.3z M25.3,24.3h-1.9  c-0.4,0-0.8,0.3-0.8,0.8s0.3,0.8,0.8,0.8h1.9c0.4,0,0.8-0.3,0.8-0.8S25.8,24.3,25.3,24.3z" fill="#FFFFFF"/></svg>