<?xml version="1.0" ?><svg viewBox="0 0 32 32" xmlns="http://www.w3.org/2000/svg"><defs><style>.cls-1{fill:none;stroke:#FFFFFF;stroke-linejoin:round;stroke-width:2px;}</style></defs><title/><g data-name="28-Settings" id="_28-Settings"><polyline class="cls-1" points="14 22 15 23 15 27 11 31 5 31 9.99 26.01 5.99 22.01 1 27 1 21 5 17 9 17 10 18"/><polyline class="cls-1" points="22 14 23 15 27 15 31 11 31 5 26.01 9.99 22.01 5.99 27 1 21 1 17 5 17 9 18 10"/><polygon class="cls-1" points="10 18 18 10 20 12 22 14 14 22 10 18"/><line class="cls-1" x1="20" x2="14" y1="12" y2="18"/></g></svg>