<svg width="20" height="20" viewBox="0 0 20 20" fill="none" xmlns="http://www.w3.org/2000/svg">
<g clip-path="url(#clip0)">
<path d="M19.8217 14.4733C19.768 14.3833 19.4354 13.6607 17.8353 12.1756C16.1602 10.6205 16.3852 10.873 18.4029 8.18407C19.6317 6.54645 20.123 5.54637 19.9692 5.11884C19.823 4.71131 18.9192 4.81882 18.9192 4.81882L15.9139 4.83632C15.9139 4.83632 15.6914 4.80632 15.5252 4.90507C15.3639 5.00258 15.2601 5.2276 15.2601 5.2276C15.2601 5.2276 14.7839 6.49519 14.1488 7.57277C12.81 9.84669 12.2737 9.9667 12.0549 9.82544C11.5461 9.49666 11.6736 8.50284 11.6736 7.79779C11.6736 5.59387 12.0074 4.67506 11.0223 4.43754C10.6948 4.35878 10.4548 4.30628 9.61848 4.29753C8.5459 4.28628 7.63709 4.30128 7.1233 4.55255C6.78077 4.72006 6.517 5.09384 6.67827 5.11509C6.87703 5.14134 7.32706 5.23635 7.56583 5.56137C7.8746 5.98015 7.86335 6.92272 7.86335 6.92272C7.86335 6.92272 8.04087 9.51667 7.44957 9.83919C7.04329 10.0605 6.487 9.60917 5.29317 7.54527C4.68187 6.48894 4.21934 5.3201 4.21934 5.3201C4.21934 5.3201 4.13058 5.10259 3.97182 4.98633C3.7793 4.84507 3.50929 4.80007 3.50929 4.80007L0.651577 4.81757C0.651577 4.81757 0.222795 4.83007 0.0652838 5.01633C-0.0747264 5.18259 0.054033 5.52512 0.054033 5.52512C0.054033 5.52512 2.2917 10.7593 4.82438 13.3982C7.1483 15.8171 9.78599 15.6584 9.78599 15.6584H10.9811C10.9811 15.6584 11.3424 15.6184 11.5261 15.4196C11.6961 15.2371 11.6899 14.8946 11.6899 14.8946C11.6899 14.8946 11.6661 13.2907 12.4112 13.0544C13.145 12.8219 14.0876 14.6045 15.0864 15.2908C15.8414 15.8096 16.4152 15.6959 16.4152 15.6959L19.0867 15.6584C19.0867 15.6584 20.4843 15.5721 19.8217 14.4733Z" fill="#84858A"/>
</g>
<defs>
<clipPath id="clip0">
<rect width="20" height="20" fill="white"/>
</clipPath>
</defs>
</svg>
