<svg width="15" height="19" viewBox="0 0 15 19" fill="none" xmlns="http://www.w3.org/2000/svg">
<path d="M12.0957 4.41139C12.0957 4.35663 12.1003 4.30186 12.1003 4.2471C12.1007 3.49866 11.8443 2.77144 11.3716 2.18043C10.8989 1.58943 10.237 1.16836 9.49041 0.983805C8.74384 0.799252 7.95524 0.861745 7.24932 1.1614C6.54339 1.46106 5.96042 1.98078 5.59258 2.6384C4.6824 2.69124 3.82129 3.05709 3.16339 3.67044C2.5055 4.2838 2.09377 5.10462 2.00191 5.98598C1.26683 6.5165 0.777934 7.30827 0.64217 8.18809C0.506406 9.06792 0.734826 9.96417 1.27746 10.6808C1.8201 11.3974 2.63278 11.8761 3.53772 12.012C4.44267 12.148 5.36621 11.9303 6.10632 11.4064C6.28071 11.6461 6.47776 11.8694 6.69491 12.0734V13.2647L5.61013 12.4567C5.47388 12.3553 5.30174 12.3106 5.13157 12.3325C4.96141 12.3544 4.80716 12.441 4.70276 12.5734C4.59837 12.7058 4.55238 12.873 4.5749 13.0384C4.59743 13.2037 4.68663 13.3536 4.82288 13.455L6.69491 14.8482V17.6231C6.69491 17.9564 6.8312 18.2761 7.0738 18.5118C7.31639 18.7475 7.64543 18.8799 7.98851 18.8799C8.3316 18.8799 8.66063 18.7475 8.90322 18.5118C9.14582 18.2761 9.28211 17.9564 9.28211 17.6231V13.341C10.4407 13.5268 11.6294 13.2978 12.6274 12.6965C13.6253 12.0953 14.3649 11.1626 14.7086 10.0717C15.0523 8.98077 14.9769 7.80574 14.4964 6.76475C14.0158 5.72376 13.1628 4.88755 12.0957 4.41139Z" fill="#ffffff"/>
</svg>
