<svg width="20" height="15" viewBox="0 0 20 15" fill="none" xmlns="http://www.w3.org/2000/svg">
<path fill-rule="evenodd" clip-rule="evenodd" d="M15.7181 5.56322C15.988 5.50699 16.2303 5.35985 16.4044 5.14647C16.5786 4.9331 16.6739 4.66645 16.6745 4.39124V2.52555C16.6738 1.929 16.436 1.35709 16.0135 0.935261C15.5909 0.513434 15.018 0.276128 14.4203 0.275391H5.50418C4.90648 0.276127 4.33346 0.513404 3.91074 0.935205C3.48801 1.35701 3.25008 1.92891 3.24909 2.52555V4.39124C3.24981 4.66684 3.34555 4.93379 3.52023 5.14722C3.6949 5.36065 3.93785 5.50755 4.20825 5.56322C4.71399 5.67497 5.1901 5.89293 5.60492 6.20261C6.01973 6.51229 6.36373 6.90658 6.61405 7.35926C6.71782 7.54703 6.86982 7.70381 7.05442 7.8135C7.23902 7.92318 7.44956 7.9818 7.66438 7.98333H12.2592C12.4743 7.98213 12.6853 7.92366 12.8702 7.81397C13.0552 7.70427 13.2075 7.5473 13.3114 7.35926C13.5618 6.90644 13.9059 6.51206 14.3209 6.20237C14.7359 5.89268 15.2122 5.6748 15.7181 5.56322ZM3.40533 6.12605H3.40534C4.17742 6.12267 4.92112 6.41635 5.48193 6.94607C6.04274 7.47579 6.37754 8.20083 6.41677 8.97055C6.41819 8.98785 6.41819 9.00525 6.41677 9.02255V13.0093C6.41628 13.3264 6.28988 13.6303 6.06527 13.8545C5.84066 14.0788 5.53617 14.2049 5.21852 14.2054H3.52256C3.20475 14.2052 2.90002 14.0791 2.67521 13.8549C2.4504 13.6306 2.32387 13.3265 2.32338 13.0093V11.9376C1.68585 11.6925 1.15076 11.2383 0.805963 10.6496C0.461166 10.0608 0.327156 9.37256 0.425938 8.69776C0.52472 8.02296 0.850421 7.40175 1.34957 6.93611C1.84871 6.47048 2.49163 6.1881 3.17276 6.13534C3.24997 6.12605 3.32811 6.12605 3.40533 6.12605ZM8.16845 8.6333H11.7548C12.4166 8.6333 12.9531 9.16882 12.9531 9.82942V11.6162C12.9531 12.2768 12.4166 12.8123 11.7548 12.8123H8.16845C7.50668 12.8123 6.9702 12.2768 6.9702 11.6162V9.82942C6.9702 9.16882 7.50668 8.6333 8.16845 8.6333ZM18.663 7.02446C19.1722 7.54083 19.4778 8.22321 19.5237 8.94636C19.5647 9.584 19.4006 10.218 19.0553 10.7561C18.7101 11.2941 18.2018 11.7081 17.6045 11.9376V13.0093C17.6042 13.1667 17.5729 13.3225 17.5123 13.4678C17.4517 13.6131 17.363 13.7451 17.2513 13.8562C17.1396 13.9673 17.007 14.0553 16.8612 14.1152C16.7154 14.1751 16.5592 14.2058 16.4016 14.2054H14.7056C14.3876 14.2054 14.0826 14.0795 13.8576 13.8552C13.6326 13.6309 13.506 13.3267 13.5055 13.0093V9.02251C13.5054 9.00472 13.5073 8.98697 13.5111 8.96958C13.5503 8.20059 13.8846 7.47619 14.4446 6.94671C15.0047 6.41723 15.7474 6.12333 16.5188 6.12599C16.596 6.12599 16.6741 6.12878 16.7514 6.13528C17.475 6.19239 18.1537 6.5081 18.663 7.02446Z" fill="#ffffff"/>
</svg>
