<svg width="21" height="17" viewBox="0 0 21 17" fill="none" xmlns="http://www.w3.org/2000/svg">
<path d="M19.4577 3.12127C18.7229 2.12401 17.9596 1.1531 17.9517 1.14335C17.8873 1.06135 17.8048 0.995006 17.7106 0.94935C17.6164 0.903695 17.5129 0.879936 17.408 0.879883H4.11678C4.0119 0.879936 3.90841 0.903695 3.81419 0.94935C3.71997 0.995006 3.63751 1.06135 3.57308 1.14335C3.5652 1.1531 2.80184 2.11913 2.06705 3.12127C0.485189 5.268 0.416241 5.58513 0.61619 6.0096C0.779198 6.34356 1.01327 6.6386 1.30232 6.87442C1.59137 7.11024 1.92854 7.28125 2.29064 7.37571V14.8307C2.29064 15.193 2.43593 15.5405 2.69453 15.7967C2.95314 16.0529 3.30388 16.1968 3.6696 16.1968H4.41227C4.41227 16.378 4.48492 16.5517 4.61422 16.6798C4.74352 16.8079 4.91889 16.8799 5.10175 16.8799H10.2236C10.4065 16.8799 10.5818 16.8079 10.7111 16.6798C10.8404 16.5517 10.9131 16.378 10.9131 16.1968H17.737C18.1027 16.1968 18.4534 16.0529 18.7121 15.7967C18.9707 15.5405 19.1159 15.193 19.1159 14.8307V7.39815C19.5015 7.31554 19.8631 7.14741 20.1736 6.9064C20.4841 6.66538 20.7354 6.35777 20.9086 6.00667C21.1085 5.58221 21.0396 5.268 19.4577 3.12127ZM14.3112 2.24306C14.392 2.4148 14.4728 2.58849 14.5535 2.76218L15.2903 4.42102C15.506 4.9294 15.6685 5.34607 15.7335 5.57342C15.6027 5.74397 15.4328 5.88136 15.238 5.97431C15.0432 6.06726 14.8288 6.11313 14.6126 6.10816C14.0946 6.10816 13.6188 5.84665 13.4208 5.4534C13.3381 5.16652 13.1125 3.72235 12.9037 2.24306H14.3112ZM6.23447 4.42102C6.48465 3.85994 6.75552 3.25007 6.97123 2.76218C7.052 2.58849 7.13277 2.4148 7.21353 2.24306H8.62106L8.61318 2.2938C8.48119 3.10175 8.38959 3.72723 8.32852 4.21122C8.23003 4.83475 8.14729 5.30313 8.10395 5.4534C7.90696 5.84372 7.43121 6.10816 6.91213 6.10816C6.69593 6.11313 6.48163 6.06726 6.28678 5.97431C6.09194 5.88136 5.92211 5.74397 5.79123 5.57342C5.8592 5.34607 6.02073 4.9294 6.23644 4.42102H6.23447ZM4.86536 4.11169C4.56199 4.79475 4.32363 5.32557 4.27438 5.42998C4.08329 5.83591 3.59967 6.11304 3.07074 6.11304C2.8684 6.11675 2.66768 6.07668 2.48259 5.99562C2.2975 5.91455 2.13249 5.79444 1.99909 5.64368C2.33398 5.05821 3.42927 3.5633 4.45463 2.24794H5.69274C5.32928 3.02369 5.06137 3.63453 4.86733 4.11169H4.86536ZM9.53413 15.5138H5.79123V8.78084H9.53413V15.5138ZM10.7555 6.10816C10.263 6.10816 9.80598 5.87006 9.59323 5.50902C9.59323 5.30801 9.63952 4.86305 9.71339 4.301C9.7853 3.84921 9.87099 3.27349 9.97441 2.53872L10.0217 2.24599H11.4883C11.7158 3.63161 11.9187 5.09626 11.9178 5.51195C11.7011 5.87006 11.25 6.10816 10.7555 6.10816ZM17.0199 11.4945C17.0197 11.6546 16.9553 11.8081 16.8411 11.9213C16.7268 12.0345 16.5718 12.0983 16.4102 12.0985H12.6063C12.4446 12.0983 12.2897 12.0345 12.1754 11.9213C12.0611 11.8081 11.9968 11.6546 11.9966 11.4945V8.50664C11.9968 8.34653 12.0611 8.19305 12.1754 8.07983C12.2897 7.96661 12.4446 7.90289 12.6063 7.90263H16.4102C16.5718 7.90289 16.7268 7.96661 16.8411 8.07983C16.9553 8.19305 17.0197 8.34653 17.0199 8.50664V11.4945ZM18.454 6.10816C17.9251 6.10816 17.4415 5.83591 17.2504 5.4251C17.2012 5.3207 16.9628 4.78694 16.6594 4.10681C16.4654 3.63453 16.1975 3.02369 15.838 2.24306H17.0751C18.1004 3.55842 19.1957 5.05235 19.5306 5.6388C19.3968 5.79031 19.231 5.91086 19.045 5.99196C18.8589 6.07306 18.6572 6.11272 18.454 6.10816ZM15.9364 8.39052H13.08C12.8972 8.39052 12.7218 8.46249 12.5925 8.59059C12.4632 8.71868 12.3905 8.89242 12.3905 9.07358C12.3905 9.25473 12.4632 9.42847 12.5925 9.55657C12.7218 9.68466 12.8972 9.75663 13.08 9.75663H15.9364C16.1193 9.75663 16.2947 9.68466 16.424 9.55657C16.5533 9.42847 16.6259 9.25473 16.6259 9.07358C16.6259 8.89242 16.5533 8.71868 16.424 8.59059C16.2947 8.46249 16.1193 8.39052 15.9364 8.39052Z" fill="#ffffff"/>
</svg>
