<svg width="16" height="17" viewBox="0 0 16 17" fill="none" xmlns="http://www.w3.org/2000/svg">
<path d="M9.84555 0.879883H1.25241C1.07442 0.879883 0.903722 0.947512 0.777863 1.06789C0.652005 1.18827 0.581299 1.35155 0.581299 1.52179V16.238C0.581299 16.4082 0.652005 16.5715 0.777863 16.6919C0.903722 16.8123 1.07442 16.8799 1.25241 16.8799H9.84555C10.0235 16.8799 10.1942 16.8123 10.3201 16.6919C10.446 16.5715 10.5167 16.4082 10.5167 16.238V1.52179C10.5167 1.35155 10.446 1.18827 10.3201 1.06789C10.1942 0.947512 10.0235 0.879883 9.84555 0.879883ZM2.25908 15.7795C2.15479 15.7795 2.05284 15.7499 1.96613 15.6945C1.87942 15.6391 1.81183 15.5603 1.77192 15.4681C1.73201 15.376 1.72157 15.2746 1.74191 15.1767C1.76226 15.0789 1.81248 14.989 1.88622 14.9185C1.95997 14.8479 2.05393 14.7999 2.15621 14.7804C2.2585 14.761 2.36452 14.771 2.46087 14.8091C2.55723 14.8473 2.63958 14.912 2.69752 14.9949C2.75546 15.0778 2.78639 15.1754 2.78639 15.2751C2.78639 15.4089 2.73083 15.5372 2.63194 15.6317C2.53306 15.7263 2.39893 15.7795 2.25908 15.7795ZM2.28976 12.6855C2.18547 12.6855 2.08352 12.6559 1.99681 12.6005C1.91009 12.5451 1.84251 12.4663 1.8026 12.3741C1.76269 12.282 1.75225 12.1806 1.77259 12.0827C1.79294 11.9849 1.84316 11.895 1.9169 11.8245C1.99065 11.754 2.0846 11.7059 2.18689 11.6865C2.28918 11.667 2.3952 11.677 2.49155 11.7152C2.58791 11.7533 2.67026 11.818 2.7282 11.9009C2.78614 11.9839 2.81707 12.0814 2.81707 12.1811C2.81707 12.3149 2.76151 12.4432 2.66262 12.5378C2.56373 12.6323 2.42961 12.6855 2.28976 12.6855ZM2.28976 11.1266C2.18547 11.1266 2.08352 11.097 1.99681 11.0416C1.91009 10.9861 1.84251 10.9074 1.8026 10.8152C1.76269 10.7231 1.75225 10.6216 1.77259 10.5238C1.79294 10.426 1.84316 10.3361 1.9169 10.2656C1.99065 10.195 2.0846 10.147 2.18689 10.1275C2.28918 10.1081 2.3952 10.1181 2.49155 10.1562C2.58791 10.1944 2.67026 10.2591 2.7282 10.342C2.78614 10.4249 2.81707 10.5224 2.81707 10.6222C2.81707 10.756 2.76151 10.8843 2.66262 10.9788C2.56373 11.0734 2.42961 11.1266 2.28976 11.1266ZM2.28976 9.56764C2.18547 9.56764 2.08352 9.53806 1.99681 9.48264C1.91009 9.42722 1.84251 9.34845 1.8026 9.25629C1.76269 9.16413 1.75225 9.06272 1.77259 8.96489C1.79294 8.86705 1.84316 8.77719 1.9169 8.70665C1.99065 8.63612 2.0846 8.58808 2.18689 8.56862C2.28918 8.54916 2.3952 8.55915 2.49155 8.59732C2.58791 8.63549 2.67026 8.70014 2.7282 8.78308C2.78614 8.86602 2.81707 8.96353 2.81707 9.06328C2.81707 9.19705 2.76151 9.32533 2.66262 9.41992C2.56373 9.5145 2.42961 9.56764 2.28976 9.56764ZM2.28976 8.00872C2.18547 8.00872 2.08352 7.97914 1.99681 7.92372C1.91009 7.8683 1.84251 7.78953 1.8026 7.69738C1.76269 7.60522 1.75225 7.50381 1.77259 7.40597C1.79294 7.30814 1.84316 7.21827 1.9169 7.14773C1.99065 7.0772 2.0846 7.02916 2.18689 7.0097C2.28918 6.99024 2.3952 7.00023 2.49155 7.0384C2.58791 7.07658 2.67026 7.14122 2.7282 7.22416C2.78614 7.3071 2.81707 7.40462 2.81707 7.50437C2.81707 7.5706 2.80343 7.63618 2.77693 7.69738C2.75043 7.75857 2.71159 7.81417 2.66262 7.861C2.61366 7.90783 2.55553 7.94498 2.49155 7.97033C2.42758 7.99568 2.35901 8.00872 2.28976 8.00872ZM2.28976 6.4498C2.18547 6.4498 2.08352 6.42022 1.99681 6.36481C1.91009 6.30939 1.84251 6.23062 1.8026 6.13846C1.76269 6.0463 1.75225 5.94489 1.77259 5.84705C1.79294 5.74922 1.84316 5.65935 1.9169 5.58882C1.99065 5.51828 2.0846 5.47025 2.18689 5.45078C2.28918 5.43132 2.3952 5.44131 2.49155 5.47949C2.58791 5.51766 2.67026 5.5823 2.7282 5.66524C2.78614 5.74818 2.81707 5.8457 2.81707 5.94545C2.81707 6.07921 2.76151 6.2075 2.66262 6.30208C2.56373 6.39667 2.42961 6.4498 2.28976 6.4498ZM2.28976 4.89089C2.18547 4.89089 2.08352 4.86131 1.99681 4.80589C1.91009 4.75047 1.84251 4.6717 1.8026 4.57954C1.76269 4.48738 1.75225 4.38597 1.77259 4.28814C1.79294 4.1903 1.84316 4.10043 1.9169 4.0299C1.99065 3.95936 2.0846 3.91133 2.18689 3.89187C2.28918 3.87241 2.3952 3.88239 2.49155 3.92057C2.58791 3.95874 2.67026 4.02338 2.7282 4.10633C2.78614 4.18927 2.81707 4.28678 2.81707 4.38653C2.81707 4.45276 2.80343 4.51835 2.77693 4.57954C2.75043 4.64073 2.71159 4.69633 2.66262 4.74316C2.61366 4.79 2.55553 4.82715 2.49155 4.8525C2.42758 4.87784 2.35901 4.89089 2.28976 4.89089ZM3.91961 12.6855C3.81532 12.6855 3.71337 12.6559 3.62666 12.6005C3.53994 12.5451 3.47236 12.4663 3.43245 12.3741C3.39254 12.282 3.38209 12.1806 3.40244 12.0827C3.42279 11.9849 3.47301 11.895 3.54675 11.8245C3.6205 11.754 3.71445 11.7059 3.81674 11.6865C3.91903 11.667 4.02505 11.677 4.1214 11.7152C4.21776 11.7533 4.30011 11.818 4.35805 11.9009C4.41599 11.9839 4.44692 12.0814 4.44692 12.1811C4.44692 12.3149 4.39136 12.4432 4.29247 12.5378C4.19358 12.6323 4.05946 12.6855 3.91961 12.6855ZM3.91961 11.1266C3.81532 11.1266 3.71337 11.097 3.62666 11.0416C3.53994 10.9861 3.47236 10.9074 3.43245 10.8152C3.39254 10.7231 3.38209 10.6216 3.40244 10.5238C3.42279 10.426 3.47301 10.3361 3.54675 10.2656C3.6205 10.195 3.71445 10.147 3.81674 10.1275C3.91903 10.1081 4.02505 10.1181 4.1214 10.1562C4.21776 10.1944 4.30011 10.2591 4.35805 10.342C4.41599 10.4249 4.44692 10.5224 4.44692 10.6222C4.44692 10.756 4.39136 10.8843 4.29247 10.9788C4.19358 11.0734 4.05946 11.1266 3.91961 11.1266ZM3.91961 8.00872C3.81532 8.00872 3.71337 7.97914 3.62666 7.92372C3.53994 7.8683 3.47236 7.78953 3.43245 7.69738C3.39254 7.60522 3.38209 7.50381 3.40244 7.40597C3.42279 7.30814 3.47301 7.21827 3.54675 7.14773C3.6205 7.0772 3.71445 7.02916 3.81674 7.0097C3.91903 6.99024 4.02505 7.00023 4.1214 7.0384C4.21776 7.07658 4.30011 7.14122 4.35805 7.22416C4.41599 7.3071 4.44692 7.40462 4.44692 7.50437C4.44692 7.5706 4.43328 7.63618 4.40678 7.69738C4.38028 7.75857 4.34144 7.81417 4.29247 7.861C4.24351 7.90783 4.18538 7.94498 4.1214 7.97033C4.05743 7.99568 3.98886 8.00872 3.91961 8.00872ZM3.91961 6.4498C3.81532 6.4498 3.71337 6.42022 3.62666 6.36481C3.53994 6.30939 3.47236 6.23062 3.43245 6.13846C3.39254 6.0463 3.38209 5.94489 3.40244 5.84705C3.42279 5.74922 3.47301 5.65935 3.54675 5.58882C3.6205 5.51828 3.71445 5.47025 3.81674 5.45078C3.91903 5.43132 4.02505 5.44131 4.1214 5.47949C4.21776 5.51766 4.30011 5.5823 4.35805 5.66524C4.41599 5.74818 4.44692 5.8457 4.44692 5.94545C4.44692 6.07921 4.39136 6.2075 4.29247 6.30208C4.19358 6.39667 4.05946 6.4498 3.91961 6.4498ZM3.91961 4.89089C3.81532 4.89089 3.71337 4.86131 3.62666 4.80589C3.53994 4.75047 3.47236 4.6717 3.43245 4.57954C3.39254 4.48738 3.38209 4.38597 3.40244 4.28814C3.42279 4.1903 3.47301 4.10043 3.54675 4.0299C3.6205 3.95936 3.71445 3.91133 3.81674 3.89187C3.91903 3.87241 4.02505 3.88239 4.1214 3.92057C4.21776 3.95874 4.30011 4.02338 4.35805 4.10633C4.41599 4.18927 4.44692 4.28678 4.44692 4.38653C4.44692 4.45276 4.43328 4.51835 4.40678 4.57954C4.38028 4.64073 4.34144 4.69633 4.29247 4.74316C4.24351 4.79 4.18538 4.82715 4.1214 4.8525C4.05743 4.87784 3.98886 4.89089 3.91961 4.89089ZM5.54946 15.8033C5.44517 15.8033 5.34322 15.7737 5.25651 15.7183C5.16979 15.6629 5.10221 15.5841 5.0623 15.492C5.02239 15.3998 5.01194 15.2984 5.03229 15.2006C5.05264 15.1027 5.10286 15.0129 5.1766 14.9423C5.25035 14.8718 5.3443 14.8238 5.44659 14.8043C5.54888 14.7848 5.6549 14.7948 5.75125 14.833C5.8476 14.8712 5.92996 14.9358 5.9879 15.0188C6.04584 15.1017 6.07677 15.1992 6.07677 15.299C6.07677 15.4327 6.02121 15.561 5.92232 15.6556C5.82343 15.7502 5.68931 15.8033 5.54946 15.8033ZM5.54946 12.6855C5.44517 12.6855 5.34322 12.6559 5.25651 12.6005C5.16979 12.5451 5.10221 12.4663 5.0623 12.3741C5.02239 12.282 5.01194 12.1806 5.03229 12.0827C5.05264 11.9849 5.10286 11.895 5.1766 11.8245C5.25035 11.754 5.3443 11.7059 5.44659 11.6865C5.54888 11.667 5.6549 11.677 5.75125 11.7152C5.8476 11.7533 5.92996 11.818 5.9879 11.9009C6.04584 11.9839 6.07677 12.0814 6.07677 12.1811C6.07677 12.3149 6.02121 12.4432 5.92232 12.5378C5.82343 12.6323 5.68931 12.6855 5.54946 12.6855ZM5.54946 6.4498C5.44517 6.4498 5.34322 6.42022 5.25651 6.36481C5.16979 6.30939 5.10221 6.23062 5.0623 6.13846C5.02239 6.0463 5.01194 5.94489 5.03229 5.84705C5.05264 5.74922 5.10286 5.65935 5.1766 5.58882C5.25035 5.51828 5.3443 5.47025 5.44659 5.45078C5.54888 5.43132 5.6549 5.44131 5.75125 5.47949C5.8476 5.51766 5.92996 5.5823 5.9879 5.66524C6.04584 5.74818 6.07677 5.8457 6.07677 5.94545C6.07677 6.07921 6.02121 6.2075 5.92232 6.30208C5.82343 6.39667 5.68931 6.4498 5.54946 6.4498ZM5.54946 4.89089C5.44517 4.89089 5.34322 4.86131 5.25651 4.80589C5.16979 4.75047 5.10221 4.6717 5.0623 4.57954C5.02239 4.48738 5.01194 4.38597 5.03229 4.28814C5.05264 4.1903 5.10286 4.10043 5.1766 4.0299C5.25035 3.95936 5.3443 3.91133 5.44659 3.89187C5.54888 3.87241 5.6549 3.88239 5.75125 3.92057C5.8476 3.95874 5.92996 4.02338 5.9879 4.10633C6.04584 4.18927 6.07677 4.28678 6.07677 4.38653C6.07677 4.45276 6.06313 4.51835 6.03663 4.57954C6.01013 4.64073 5.97129 4.69633 5.92232 4.74316C5.87336 4.79 5.81523 4.82715 5.75125 4.8525C5.68728 4.87784 5.61871 4.89089 5.54946 4.89089ZM5.54946 3.33197C5.44517 3.33197 5.34322 3.30239 5.25651 3.24697C5.16979 3.19155 5.10221 3.11278 5.0623 3.02062C5.02239 2.92846 5.01194 2.82705 5.03229 2.72922C5.05264 2.63138 5.10286 2.54152 5.1766 2.47098C5.25035 2.40044 5.3443 2.35241 5.44659 2.33295C5.54888 2.31349 5.6549 2.32348 5.75125 2.36165C5.8476 2.39982 5.92996 2.46447 5.9879 2.54741C6.04584 2.63035 6.07677 2.72786 6.07677 2.82761C6.07677 2.89385 6.06313 2.95943 6.03663 3.02062C6.01013 3.08181 5.97129 3.13741 5.92232 3.18425C5.87336 3.23108 5.81523 3.26823 5.75125 3.29358C5.68728 3.31892 5.61871 3.33197 5.54946 3.33197ZM7.17931 15.8033C7.07502 15.8033 6.97307 15.7737 6.88636 15.7183C6.79964 15.6629 6.73205 15.5841 6.69214 15.492C6.65223 15.3998 6.64179 15.2984 6.66214 15.2006C6.68248 15.1027 6.73271 15.0129 6.80645 14.9423C6.88019 14.8718 6.97415 14.8238 7.07644 14.8043C7.17872 14.7848 7.28475 14.7948 7.3811 14.833C7.47745 14.8712 7.55981 14.9358 7.61775 15.0188C7.67569 15.1017 7.70661 15.1992 7.70661 15.299C7.70661 15.4327 7.65106 15.561 7.55217 15.6556C7.45328 15.7502 7.31916 15.8033 7.17931 15.8033ZM6.62133 9.03944C6.62133 8.93969 6.65225 8.84218 6.71019 8.75924C6.76813 8.6763 6.85049 8.61165 6.94684 8.57348C7.04319 8.5353 7.14922 8.52532 7.2515 8.54478C7.35379 8.56424 7.44775 8.61227 7.52149 8.68281C7.59523 8.75334 7.64546 8.84321 7.6658 8.94105C7.68615 9.03888 7.67571 9.14029 7.6358 9.23245C7.59589 9.32461 7.5283 9.40338 7.44158 9.4588C7.35487 9.51422 7.25292 9.5438 7.14863 9.5438C7.00878 9.5438 6.87466 9.49066 6.77577 9.39608C6.67688 9.30149 6.62133 9.17321 6.62133 9.03944ZM7.17931 14.2444C7.07502 14.2444 6.97307 14.2148 6.88636 14.1594C6.79964 14.104 6.73205 14.0252 6.69214 13.933C6.65223 13.8409 6.64179 13.7395 6.66214 13.6416C6.68248 13.5438 6.73271 13.4539 6.80645 13.3834C6.88019 13.3129 6.97415 13.2648 7.07644 13.2454C7.17872 13.2259 7.28475 13.2359 7.3811 13.2741C7.47745 13.3122 7.55981 13.3769 7.61775 13.4598C7.67569 13.5428 7.70661 13.6403 7.70661 13.74C7.70661 13.8738 7.65106 14.0021 7.55217 14.0967C7.45328 14.1913 7.31916 14.2444 7.17931 14.2444ZM7.17931 12.6855C7.07502 12.6855 6.97307 12.6559 6.88636 12.6005C6.79964 12.5451 6.73205 12.4663 6.69214 12.3741C6.65223 12.282 6.64179 12.1806 6.66214 12.0827C6.68248 11.9849 6.73271 11.895 6.80645 11.8245C6.88019 11.754 6.97415 11.7059 7.07644 11.6865C7.17872 11.667 7.28475 11.677 7.3811 11.7152C7.47745 11.7533 7.55981 11.818 7.61775 11.9009C7.67569 11.9839 7.70661 12.0814 7.70661 12.1811C7.70661 12.3149 7.65106 12.4432 7.55217 12.5378C7.45328 12.6323 7.31916 12.6855 7.17931 12.6855ZM7.17931 11.1266C7.07502 11.1266 6.97307 11.097 6.88636 11.0416C6.79964 10.9861 6.73205 10.9074 6.69214 10.8152C6.65223 10.7231 6.64179 10.6216 6.66214 10.5238C6.68248 10.426 6.73271 10.3361 6.80645 10.2656C6.88019 10.195 6.97415 10.147 7.07644 10.1275C7.17872 10.1081 7.28475 10.1181 7.3811 10.1562C7.47745 10.1944 7.55981 10.2591 7.61775 10.342C7.67569 10.4249 7.70661 10.5224 7.70661 10.6222C7.70661 10.756 7.65106 10.8843 7.55217 10.9788C7.45328 11.0734 7.31916 11.1266 7.17931 11.1266ZM7.17931 6.4498C7.07502 6.4498 6.97307 6.42022 6.88636 6.36481C6.79964 6.30939 6.73205 6.23062 6.69214 6.13846C6.65223 6.0463 6.64179 5.94489 6.66214 5.84705C6.68248 5.74922 6.73271 5.65935 6.80645 5.58882C6.88019 5.51828 6.97415 5.47025 7.07644 5.45078C7.17872 5.43132 7.28475 5.44131 7.3811 5.47949C7.47745 5.51766 7.55981 5.5823 7.61775 5.66524C7.67569 5.74818 7.70661 5.8457 7.70661 5.94545C7.70661 6.07921 7.65106 6.2075 7.55217 6.30208C7.45328 6.39667 7.31916 6.4498 7.17931 6.4498ZM7.17931 3.33197C7.07502 3.33197 6.97307 3.30239 6.88636 3.24697C6.79964 3.19155 6.73205 3.11278 6.69214 3.02062C6.65223 2.92846 6.64179 2.82705 6.66214 2.72922C6.68248 2.63138 6.73271 2.54152 6.80645 2.47098C6.88019 2.40044 6.97415 2.35241 7.07644 2.33295C7.17872 2.31349 7.28475 2.32348 7.3811 2.36165C7.47745 2.39982 7.55981 2.46447 7.61775 2.54741C7.67569 2.63035 7.70661 2.72786 7.70661 2.82761C7.70661 2.89385 7.69297 2.95943 7.66648 3.02062C7.63998 3.08181 7.60113 3.13741 7.55217 3.18425C7.5032 3.23108 7.44508 3.26823 7.3811 3.29358C7.31712 3.31892 7.24856 3.33197 7.17931 3.33197ZM8.80916 15.8033C8.70487 15.8033 8.60292 15.7737 8.5162 15.7183C8.42949 15.6629 8.3619 15.5841 8.32199 15.492C8.28208 15.3998 8.27164 15.2984 8.29199 15.2006C8.31233 15.1027 8.36255 15.0129 8.4363 14.9423C8.51004 14.8718 8.604 14.8238 8.70629 14.8043C8.80857 14.7848 8.9146 14.7948 9.01095 14.833C9.1073 14.8712 9.18965 14.9358 9.2476 15.0188C9.30554 15.1017 9.33646 15.1992 9.33646 15.299C9.33646 15.4327 9.28091 15.561 9.18202 15.6556C9.08313 15.7502 8.94901 15.8033 8.80916 15.8033ZM8.25117 9.03944C8.25117 8.93969 8.2821 8.84218 8.34004 8.75924C8.39798 8.6763 8.48034 8.61165 8.57669 8.57348C8.67304 8.5353 8.77906 8.52532 8.88135 8.54478C8.98364 8.56424 9.07759 8.61227 9.15134 8.68281C9.22508 8.75334 9.2753 8.84321 9.29565 8.94105C9.316 9.03888 9.30556 9.14029 9.26565 9.23245C9.22573 9.32461 9.15815 9.40338 9.07143 9.4588C8.98472 9.51422 8.88277 9.5438 8.77848 9.5438C8.63863 9.5438 8.50451 9.49066 8.40562 9.39608C8.30673 9.30149 8.25117 9.17321 8.25117 9.03944ZM8.80916 14.2444C8.70487 14.2444 8.60292 14.2148 8.5162 14.1594C8.42949 14.104 8.3619 14.0252 8.32199 13.933C8.28208 13.8409 8.27164 13.7395 8.29199 13.6416C8.31233 13.5438 8.36255 13.4539 8.4363 13.3834C8.51004 13.3129 8.604 13.2648 8.70629 13.2454C8.80857 13.2259 8.9146 13.2359 9.01095 13.2741C9.1073 13.3122 9.18965 13.3769 9.2476 13.4598C9.30554 13.5428 9.33646 13.6403 9.33646 13.74C9.33646 13.8738 9.28091 14.0021 9.18202 14.0967C9.08313 14.1913 8.94901 14.2444 8.80916 14.2444ZM8.80916 12.6855C8.70487 12.6855 8.60292 12.6559 8.5162 12.6005C8.42949 12.5451 8.3619 12.4663 8.32199 12.3741C8.28208 12.282 8.27164 12.1806 8.29199 12.0827C8.31233 11.9849 8.36255 11.895 8.4363 11.8245C8.51004 11.754 8.604 11.7059 8.70629 11.6865C8.80857 11.667 8.9146 11.677 9.01095 11.7152C9.1073 11.7533 9.18965 11.818 9.2476 11.9009C9.30554 11.9839 9.33646 12.0814 9.33646 12.1811C9.33646 12.3149 9.28091 12.4432 9.18202 12.5378C9.08313 12.6323 8.94901 12.6855 8.80916 12.6855ZM8.80916 6.4498C8.70487 6.4498 8.60292 6.42022 8.5162 6.36481C8.42949 6.30939 8.3619 6.23062 8.32199 6.13846C8.28208 6.0463 8.27164 5.94489 8.29199 5.84705C8.31233 5.74922 8.36255 5.65935 8.4363 5.58882C8.51004 5.51828 8.604 5.47025 8.70629 5.45078C8.80857 5.43132 8.9146 5.44131 9.01095 5.47949C9.1073 5.51766 9.18965 5.5823 9.2476 5.66524C9.30554 5.74818 9.33646 5.8457 9.33646 5.94545C9.33646 6.07921 9.28091 6.2075 9.18202 6.30208C9.08313 6.39667 8.94901 6.4498 8.80916 6.4498ZM8.80916 3.33197C8.70487 3.33197 8.60292 3.30239 8.5162 3.24697C8.42949 3.19155 8.3619 3.11278 8.32199 3.02062C8.28208 2.92846 8.27164 2.82705 8.29199 2.72922C8.31233 2.63138 8.36255 2.54152 8.4363 2.47098C8.51004 2.40044 8.604 2.35241 8.70629 2.33295C8.80857 2.31349 8.9146 2.32348 9.01095 2.36165C9.1073 2.39982 9.18965 2.46447 9.2476 2.54741C9.30554 2.63035 9.33646 2.72786 9.33646 2.82761C9.33646 2.89385 9.32282 2.95943 9.29632 3.02062C9.26982 3.08181 9.23098 3.13741 9.18202 3.18425C9.13305 3.23108 9.07492 3.26823 9.01095 3.29358C8.94697 3.31892 8.87841 3.33197 8.80916 3.33197ZM15.2499 4.50024H12.3268C12.1488 4.50024 11.9781 4.56787 11.8522 4.68825C11.7263 4.80863 11.6556 4.9719 11.6556 5.14215V16.238C11.6556 16.4082 11.7263 16.5715 11.8522 16.6919C11.9781 16.8123 12.1488 16.8799 12.3268 16.8799H15.2499C15.4279 16.8799 15.5986 16.8123 15.7245 16.6919C15.8503 16.5715 15.9211 16.4082 15.9211 16.238V5.14215C15.9211 4.9719 15.8503 4.80863 15.7245 4.68825C15.5986 4.56787 15.4279 4.50024 15.2499 4.50024ZM13.0276 15.8033C12.9233 15.8033 12.8214 15.7737 12.7346 15.7183C12.6479 15.6629 12.5803 15.5841 12.5404 15.492C12.5005 15.3998 12.4901 15.2984 12.5104 15.2006C12.5308 15.1027 12.581 15.0129 12.6547 14.9423C12.7285 14.8718 12.8224 14.8238 12.9247 14.8043C13.027 14.7848 13.133 14.7948 13.2294 14.833C13.3257 14.8712 13.4081 14.9358 13.466 15.0188C13.524 15.1017 13.5549 15.1992 13.5549 15.299C13.5549 15.4327 13.4993 15.561 13.4005 15.6556C13.3016 15.7502 13.1674 15.8033 13.0276 15.8033ZM12.4696 9.03944C12.4696 8.93969 12.5005 8.84218 12.5585 8.75924C12.6164 8.6763 12.6988 8.61165 12.7951 8.57348C12.8915 8.5353 12.9975 8.52532 13.0998 8.54478C13.2021 8.56424 13.296 8.61227 13.3698 8.68281C13.4435 8.75334 13.4937 8.84321 13.5141 8.94105C13.5344 9.03888 13.524 9.14029 13.4841 9.23245C13.4442 9.32461 13.3766 9.40338 13.2899 9.4588C13.2032 9.51422 13.1012 9.5438 12.9969 9.5438C12.8571 9.5438 12.7229 9.49066 12.6241 9.39608C12.5252 9.30149 12.4696 9.17321 12.4696 9.03944ZM13.0276 14.2444C12.9233 14.2444 12.8214 14.2148 12.7346 14.1594C12.6479 14.104 12.5803 14.0252 12.5404 13.933C12.5005 13.8409 12.4901 13.7395 12.5104 13.6416C12.5308 13.5438 12.581 13.4539 12.6547 13.3834C12.7285 13.3129 12.8224 13.2648 12.9247 13.2454C13.027 13.2259 13.133 13.2359 13.2294 13.2741C13.3257 13.3122 13.4081 13.3769 13.466 13.4598C13.524 13.5428 13.5549 13.6403 13.5549 13.74C13.5549 13.8738 13.4993 14.0021 13.4005 14.0967C13.3016 14.1913 13.1674 14.2444 13.0276 14.2444ZM13.0276 12.6855C12.9233 12.6855 12.8214 12.6559 12.7346 12.6005C12.6479 12.5451 12.5803 12.4663 12.5404 12.3741C12.5005 12.282 12.4901 12.1806 12.5104 12.0827C12.5308 11.9849 12.581 11.895 12.6547 11.8245C12.7285 11.754 12.8224 11.7059 12.9247 11.6865C13.027 11.667 13.133 11.677 13.2294 11.7152C13.3257 11.7533 13.4081 11.818 13.466 11.9009C13.524 11.9839 13.5549 12.0814 13.5549 12.1811C13.5549 12.3149 13.4993 12.4432 13.4005 12.5378C13.3016 12.6323 13.1674 12.6855 13.0276 12.6855ZM13.0276 11.1266C12.9233 11.1266 12.8214 11.097 12.7346 11.0416C12.6479 10.9861 12.5803 10.9074 12.5404 10.8152C12.5005 10.7231 12.4901 10.6216 12.5104 10.5238C12.5308 10.426 12.581 10.3361 12.6547 10.2656C12.7285 10.195 12.8224 10.147 12.9247 10.1275C13.027 10.1081 13.133 10.1181 13.2294 10.1562C13.3257 10.1944 13.4081 10.2591 13.466 10.342C13.524 10.4249 13.5549 10.5224 13.5549 10.6222C13.5549 10.756 13.4993 10.8843 13.4005 10.9788C13.3016 11.0734 13.1674 11.1266 13.0276 11.1266ZM13.0276 6.4498C12.9233 6.4498 12.8214 6.42022 12.7346 6.36481C12.6479 6.30939 12.5803 6.23062 12.5404 6.13846C12.5005 6.0463 12.4901 5.94489 12.5104 5.84705C12.5308 5.74922 12.581 5.65935 12.6547 5.58882C12.7285 5.51828 12.8224 5.47025 12.9247 5.45078C13.027 5.43132 13.133 5.44131 13.2294 5.47949C13.3257 5.51766 13.4081 5.5823 13.466 5.66524C13.524 5.74818 13.5549 5.8457 13.5549 5.94545C13.5549 6.07921 13.4993 6.2075 13.4005 6.30208C13.3016 6.39667 13.1674 6.4498 13.0276 6.4498ZM14.6574 15.8033C14.5531 15.8033 14.4512 15.7737 14.3645 15.7183C14.2778 15.6629 14.2102 15.5841 14.1703 15.492C14.1304 15.3998 14.1199 15.2984 14.1403 15.2006C14.1606 15.1027 14.2108 15.0129 14.2846 14.9423C14.3583 14.8718 14.4523 14.8238 14.5546 14.8043C14.6569 14.7848 14.7629 14.7948 14.8592 14.833C14.9556 14.8712 15.0379 14.9358 15.0959 15.0188C15.1538 15.1017 15.1847 15.1992 15.1847 15.299C15.1847 15.4327 15.1292 15.561 15.0303 15.6556C14.9314 15.7502 14.7973 15.8033 14.6574 15.8033ZM14.0995 9.03944C14.0995 8.93969 14.1304 8.84218 14.1883 8.75924C14.2463 8.6763 14.3286 8.61165 14.425 8.57348C14.5213 8.5353 14.6273 8.52532 14.7296 8.54478C14.8319 8.56424 14.9259 8.61227 14.9996 8.68281C15.0734 8.75334 15.1236 8.84321 15.1439 8.94105C15.1643 9.03888 15.1538 9.14029 15.1139 9.23245C15.074 9.32461 15.0064 9.40338 14.9197 9.4588C14.833 9.51422 14.7311 9.5438 14.6268 9.5438C14.5575 9.5438 14.4889 9.53075 14.425 9.50541C14.361 9.48006 14.3029 9.44291 14.2539 9.39608C14.2049 9.34924 14.1661 9.29364 14.1396 9.23245C14.1131 9.17126 14.0995 9.10567 14.0995 9.03944ZM14.6574 14.2444C14.5531 14.2444 14.4512 14.2148 14.3645 14.1594C14.2778 14.104 14.2102 14.0252 14.1703 13.933C14.1304 13.8409 14.1199 13.7395 14.1403 13.6416C14.1606 13.5438 14.2108 13.4539 14.2846 13.3834C14.3583 13.3129 14.4523 13.2648 14.5546 13.2454C14.6569 13.2259 14.7629 13.2359 14.8592 13.2741C14.9556 13.3122 15.0379 13.3769 15.0959 13.4598C15.1538 13.5428 15.1847 13.6403 15.1847 13.74C15.1847 13.8738 15.1292 14.0021 15.0303 14.0967C14.9314 14.1913 14.7973 14.2444 14.6574 14.2444ZM14.6574 12.6855C14.5531 12.6855 14.4512 12.6559 14.3645 12.6005C14.2778 12.5451 14.2102 12.4663 14.1703 12.3741C14.1304 12.282 14.1199 12.1806 14.1403 12.0827C14.1606 11.9849 14.2108 11.895 14.2846 11.8245C14.3583 11.754 14.4523 11.7059 14.5546 11.6865C14.6569 11.667 14.7629 11.677 14.8592 11.7152C14.9556 11.7533 15.0379 11.818 15.0959 11.9009C15.1538 11.9839 15.1847 12.0814 15.1847 12.1811C15.1847 12.3149 15.1292 12.4432 15.0303 12.5378C14.9314 12.6323 14.7973 12.6855 14.6574 12.6855ZM14.6574 6.4498C14.5531 6.4498 14.4512 6.42022 14.3645 6.36481C14.2778 6.30939 14.2102 6.23062 14.1703 6.13846C14.1304 6.0463 14.1199 5.94489 14.1403 5.84705C14.1606 5.74922 14.2108 5.65935 14.2846 5.58882C14.3583 5.51828 14.4523 5.47025 14.5546 5.45078C14.6569 5.43132 14.7629 5.44131 14.8592 5.47949C14.9556 5.51766 15.0379 5.5823 15.0959 5.66524C15.1538 5.74818 15.1847 5.8457 15.1847 5.94545C15.1847 6.07921 15.1292 6.2075 15.0303 6.30208C14.9314 6.39667 14.7973 6.4498 14.6574 6.4498Z" fill="#ffffff"/>
</svg>
